<?xml version="1.0" encoding="UTF-8"?>
<svg version="1.1" viewBox="0 0 1597 1600" width="1280" height="1280" xmlns="http://www.w3.org/2000/svg">
<path transform="translate(0)" d="m0 0h1597v1600h-1597z" fill="#070506"/>
<path transform="translate(0)" d="m0 0h1597v761l-15 7-12 7-17 12-16 12-14 8-4 1-7-12 3-9v-27l-4-9-9-8-11-9-5-6-10-19-12-19-11-12-11-14-13-13-11-8-10-6-15-5-13-3-39-1-5-3-3-3-1-3v-12l-6-24-13-38-11-22-7-9-6-6-10-4-14-8-4-2-9-2-9-5-6 1-3-1-1-2-13-2-7-2-8-2v-2h-10l-15-3-10-1-6-2-21-2-2-1h-11l-18-1-2-2h-35l-15 2-24 1-12 2-15 2-45 9-35 8-22 7-26 11-22 10-16 9-4 3-5-2-8-6-15-15-13-10-11-9-17-10-13-7-9-5-22-12-15-5-14-4h-8l-6-2-105-1v2l-25 2-28 7-20 7-33 16-16 10-16 13-14 12-9 9-11 15-13 23-11 22-9 27-4 17-1 8-5 3-2 4-4 2-1 26-8 15-9 11-6 5-9 6-8 12-4 11-20 14-12 11-6 5v-7h-13l-16 2h-24l-16-4-14-5-6 1-14 10-7 7h-2l-2 4-9 6-12 11-6 4-5 5-11 7-4 1h-10l-14-4v-2h-2l-9-12-3-11-1-7v-12l4-8 8-7 15-9 8-4 21-5 33-6h4l-1-2-2-19-1-3-5 1-12 5-1 1-9-1-6-10-5-9-3-15v-19l1-5v-6l6-9 7-9 6-8 6-7 11-9 15-10 11-7h2v-2l-6-2-10-7-15-6-22-6-10-2-6-2-34-11-20-5-9-3-13-5-8-3-11-2-20-6h-3z" fill="#EF362E"/>
<path transform="translate(624,445)" d="m0 0h47l24 4 17 5 25 11 22 12 17 10 14 10 10 9 8 7 10 9 11 9 11 10 7 6 9 11 13 16 12 18 11 19 9 19 11 29 1 4-11-3-26-6-37-5-42-4-47-3-92-4h-43l-27 2-26 5-25 7-20 7-19 8-6 3-1 6 14-4 28-10 22-7 26-6 23-3h68l98 5 60 5 38 5 29 6 15 6 10 6 10 9 11 12 24 24 18 22 11 17 8 16 2 7-5-4v-2l-4-2-12-9-15-9-15-6-30-7-51-10-39-6-48-6-37-3h-53l-20 2-23 4-29 8-26 9-35 14-27 9-14 3-10 1h-24l-19-1v5l27 10 16 9 13 10 8 8 8 7 17 17 11 9 10 7 13 8 25 12 24 10 24 13 16 9 20 8 26 8 19 4 41 4 40 3h56l25-2 21-4 27-9 18-8 3-2 4 1 5 6v7l-7 12-10 10-13 8-27 13-22 8-24 6-24 4-30 3h-77l-69-2-31-2-9-1h-12l-1 7 36 3 20 1 75 2h73l27-3 30-5 26-7 24-10 20-10 13-9 13-13 8-15 15 8 21 10 27 11 20 9 18 5 26 5 34 4 47 4 20 1h64l42-3 26-4 28-6 30-8 35-11 26-10 16-8 9-7 7-6 3 7v8l-6 11-12 12-18 13-18 11-14 7-17 5-31 6-30 4-35 3-18 1h-33l-11-7-5-1-2 4v2l5 2 11 8 8 8 8 3-1-10 43-2 41-4 39-6 26-6h5v14l-2 7-6 7-11 7-17 8-10 3-8 1h-22l-55-4-47-5-19-1-56 1-41 2-39 4-28 5-32 8-62 18-26 5-26 2-40 2h-23l-76-5-46-2h-23l-27 1-21 3-13 5-12 8-13 11-7 8-5 12v12l4 9 9 12 13 13 15 11 16 9 17 8 23 7 15 3 23 2 24 1h44l24-4 43-9 33-11 29-11 44-16 44-15 31-9 25-5 25-3h43l41 3 42 5 26 5 2 1-1 5-12 17-12 21-14 25-13 20-369 1h-411l-43-9-46-7-29-3-19-1h-12l-23 2-39 6-42 9-18 4h-6l-4-8-6-25-2-16-1-14v-33l3-33 5-32 4-23 7-30 11-44 10-36 7-25 4-15 8-27 7-19 9-22 12-25 11-19 11-15 9-10 11-11 15-11 38-26 6-4-1 9-7 32-6 21-12 24 2 4 5-1 6-9 9-19 7-29 9-39 3-22 2-35 7-28 11-32 12-25 12-19 9-11 9-10 9-9 14-11 14-10 13-8 24-12 19-7 17-5 20-4 26-2z" fill="#618C39"/>
<path transform="translate(1088,470)" d="m0 0h11l28 2 33 4 41 7 29 7 20 6 23 10 11 7 10 9 6 8 7 14 7 19 9 27 4 18 1 1 1-5h2l2 3v12l3 5 5 3 39 1 20 5 12 5 13 9 12 11 8 8 9 12 8 8 10 15 12 21 5 9 11 10 8 6 6 7 2 6v27l-3 9 6 10v2l13-7 19-13 10-8 14-9 11-6 8-4h3v418l-9-1h-23l-5 1-31 2-36 2-14 1-1 2-9-2-29-10-6-7 2-9 10-19 13-23 15-29 7-11 6-7 3-13 6-13v-7l-9-6-18-7h-6l-8 5-8-1-4-3 1-5 2-6 1-8v-13l-7 3-26 6-39 6-41 4-17 1h-26l2 8-1 2-6-1-16-14-10-6-1-3 3-4 5 1 11 7h33l42-3 34-4 29-5 23-6 14-6 21-13 19-14 10-10 6-11v-8l-3-6-9 9-13 8-19 8-28 10-30 9-36 9-32 6-34 3-17 1h-64l-33-2-53-5-32-5-21-5-15-6-20-9-22-9-25-12-6-4-8 14-15 15-14 9-29 14-16 6-28 7-32 5-20 2h-73l-75-2-48-3-8-1-1-1 1-7 1-1h12l20 2 20 1 69 2h77l36-4 23-4 25-7 25-10 22-11 11-8 7-7 7-12v-7l-5-6-4 1-15 7-25 9-22 5-15 2-16 1h-56l-63-5-23-3-25-6-31-11-19-10-21-12-20-9-21-9-19-10-16-11-14-12-20-20-16-14-15-10-13-6-22-8-1-1v-5l1-1 19 1h24l16-2 21-6 27-10 25-10 33-11 24-6 25-4 13-1h53l37 3 55 7 43 7 54 11 22 6 16 8 15 10 9 7 4 4-7-16-10-16-12-16-9-10-7-8-26-26-7-8-11-8-16-7-26-6-28-4-38-4-38-3-98-5h-68l-23 3-26 6-37 12-22 8h-5v-6l16-8 24-9 23-7 27-6 17-2 17-1h43l92 4 59 4 38 4 29 4 26 6 10 3-10-27-9-20-8-15-12-19-10-13-14-17-7-8-11-9-3-4 5-2 5 2 9 1 17-10 20-9 27-11 29-9 40-9 37-7 30-4 12-1z" fill="#040304"/>
<path transform="translate(1309,1256)" d="m0 0h19l-2 9-7 12-21 7-3 2v5l9 7 3 2-1 5-7 13-8 4-7 4-1 5 9 6-6 15-14 30-3 4-9-7-15-10-21-12-11-5-13-5-18-6-8-1h-18v5l15 2 14 4 28 10 24 12 20 13 8 7 4 6 1 50-5-5 1-10-4-1-1-4 3-5v-5l-6-2 1-4 2-3v-5l-6-2v-3l2-1v-5h-5l-4 2-5-5-5 1-9 7h-3l8-9 2-3-1-5h-5l-5 3v-10l-3-1-9 6-4 3h-2l2-4 6-8v-3l-7-1-11 7-18 12 1-3 8-7 5-4 2-4v-4l-6-1-3 1 1-9-11 1-4-2-5 1-16 13-8 6-5 4-2-1 16-15 5-6 2-5-8-1-16 12-4 2 6-7 4-7-8-1-10 8-10 9h-2l-1 3h-2v-2h2l2-4 8-9v-4l-6-4v-1h29l6 1-2-7-1-1-45-2-27-2h-51l-33 4-47 2h-32l-10-3-9 2-12 4-8 3-27 9-12 5-21 11-12 9-6 9-2 5-1 7v13l2 9 8 13 12 14 4 5-6 8-5 11-2 8-3 20v9l4 9 8 7 10 4 4 1h20l10-2 1-1 7-1 7-2 16-6 10-5 13-5 17-9 14-10 16-16 6-8 1-5-5-2-12-7-10-7-8-4-10-2h-53l-17 1-1-1v-6l12 2h31l14-3 13-5 14-8 13-8 5-3h11l6-3h9l30 4h20l10-2 4-2 3-6v-15l-6-8-11-6-25-5-6-1 1-3h2v-2l6-1 2 2 9 3 7 1 2-2h6l9 6 8 11 4 8-1 4-1 1-2 14-1 4 9-2 2-2 4 1 1 5 8-3 3-2 5 1 1 3-16 8-10 9-2 4v9l5 10 5 5 8 4 16 3h25l10-1 15-4 20-8 27-11 14-7 7-7 5 1 1 1h7 4l-1 7 9-2 4-2 1 5 8-2h4l-1 8h8l2 2 1 7 4 1 12 1 4-6 5-5h2l3 28 3 12 1 1v10l-5 10-6 7-14 9-13 5-9 2h-9l-9-1-1-1-23-4h-20l-18 2h-22l-22-2-1 7 10 2 8 1h30l21-2h16l29 6h12l14-3 12-5 12-8 8-8 6-10 1-3v-17l-4-12-1-15-2-7v-5l2-2 2-7 17-16 6-9 9-20 4-8 11-23 9 3 6 1 25 1 1 1h9l9-2 16-8 24-14 17-12 14-11 9-8 5 1v3l3 1 9 16 4 5v3h2l8 14 10 16 6 11 10 18 11 20 7 14 6 10 8 16 12 22 8 16 7 13 1 1v93h-939l-6-12-6-9-6-11-13-22-6-9-4-7-7-11-3-3-7-11-10-13-14-18v-2l-3-1-7-9-13-16-9-11-16-21-11-13-9-10-6-8 7-3 24-8 24-12 5 1 10 4 29 6 50 7 9 1h13l3-3-1-5-11-11-2-1 1-3 22-5 13-4 15-4 7-4v-5l-19-10-3-1 1-3 9-6 4-5v-5l-12-5-11-4-21-6-5-2-15-3-2-2 36-2 15-1 44-1 10-1 137-1 22-1 6-1h43l7 1 24 1 17 2h114l42-2 25-3 40-7 51-7z" fill="#F7F7F7"/>
<path transform="translate(642)" d="m0 0h955v280l-9 1-25-7-28-8-19-6-21-5-16-4-68-18-52-16-47-14-29-9-8-3-45-13-27-8-63-19-38-12-21-6-1-1-14-3-19-6-32-9-27-8-16-4-34-11-23-7-26-8-27-7-23-6-8-3-45-13-27-8-25-7-24-8-54-15-11-3z" fill="#5E9B9E"/>
<path transform="translate(61,1239)" d="m0 0h7l-2 5-5 11-6 21-2 13v30l3 13 6 9 7 7 18 11 19 9 46 15 27 7 28 6 38 6 25 2 27 1h51l31-1 21-2 38-6 29-6 22-5 5 1 11 13 9 11 10 12 10 13 44 56 12 16 13 17 13 21 12 20 14 24 5 9v2h-647v-360z" fill="#805834"/>
<path transform="translate(1,507)" d="m0 0 16 4 9 3 8 1 8 3 13 5 21 6 20 6 22 7 16 4 25 7 14 6 10 7 4 2v2l-18 11-14 10-12 11-2 4-8 10-6 8-3 5v8l-1 3v19l3 15 10 18 9 1 10-5 5-2 4 1 2 13 1 11-37 7-21 5-17 9-12 9-4 6-1 3v12l3 15 4 7 5 6v2h2v2l14 3h10l8-3 10-7 5-5 10-9 10-8 5-3 12-12 12-8 6-1 24 8 6 1h24l16-2h13l1 2-3 9-11 15-12 20-8 15-3 11-11 25-11 34-13 52-6 23-3 10-6 19-5 21-3 10-6 24-1 12-3 12-3 13-1 15-2 8-1 22-3 7-1 15-3 7-7 7-14 11-12 12-8 7-10 11-10 13-9 12-10 11-3 2-73 1v-728z" fill="#008BC3"/>
<path transform="translate(0)" d="m0 0h580l-1 6-8 3-20 4-40 14-24 10-21 9-23 11-16 8-25 13-21 13-19 12-38 28-13 10-26 22-11 11-8 7-11 11-7 9-14 17-4 6-7 11-3 1-4 6h-2l-3 9-3 15-5 35-7 65-4 31-7 1-2 5-6 2h-8l-12-5-10-3-11-4-26-8-21-7-35-11-24-8-28-8-2-2z" fill="#DCDCDC"/>
<path transform="translate(0,349)" d="m0 0 19 6 33 10 33 11 44 14 16 5 8 3 15 5 1 1h8l6-2 2-5h7v-5l1 2 13-5 9-2h28l14 5 12 6 5 5 14-1 4-2 8 1 10 5 1 4-3-1v-2h-4l5 4v2l5 2 2 3v14l-5 13-7 6 1 19v30l-2 13-8 23v9l8 19 2 4h2l5 5 6 5 7 8 4 5v2l3 1 7 10 6 9 3 7 3 6v5l13-1 4-2v3l-5 3-2 4-4 2-1 26-8 15-9 11-6 5-9 6-8 12-4 11-20 14-12 11-6 5v-7h-13l-16 2h-24l-16-4-14-5-6 1-14 10-7 7h-2l-2 4-9 6-12 11-6 4-5 5-11 7-4 1h-10l-14-4v-2h-2l-9-12-3-11-1-7v-12l4-8 8-7 15-9 8-4 21-5 33-6h4l-1-2-2-19-1-3-5 1-12 5-1 1-9-1-6-10-5-9-3-15v-19l1-5v-6l6-9 7-9 6-8 6-7 11-9 15-10 11-7h2v-2l-6-2-10-7-15-6-22-6-10-2-6-2-34-11-20-5-9-3-13-5-8-3-11-2-20-6h-3z" fill="#CC653B"/>
<path transform="translate(153,1157)" d="m0 0h3l4 38 5 25 2 7v4l-16 8v7l25-8 52-12 30-6 29-4 13-1h29l34 3 39 6 28 5 43 10 29 9 33 12 20 9 9 6 3 7v19l-8 35-3 15-19 10-15 6-23 7-40 10-38 7-27 4-33 2-44 1-42-1-34-3-30-5-28-6-38-11-32-10-15-6-15-8-8-7-10-10-4-7-1-5v-33l5-18 7-17 8-16 7-9 22-26 7-8 7-9 7-7 16-14z" fill="#0043F9"/>
<path transform="translate(1088,470)" d="m0 0h11l28 2 33 4 41 7 29 7 20 6 23 10 11 7 10 9 6 8 7 14 7 19 9 27 4 18 2 11v5l-3 1-42 3-75 3-65 2-47 3-58 6-47 7-30 6-20 6-15 7-4-2-6-16-11-29-13-26-12-18-13-18-11-13-12-13 5-4 18-10 35-15 30-10 33-8 45-9 26-4 22-2z" fill="#618C38"/>
<path transform="translate(642)" d="m0 0h633l1 18v173l-25-7-38-11-70-21-41-13-21-6-1-1-14-3-19-6-32-9-27-8-16-4-34-11-23-7-26-8-27-7-23-6-8-3-45-13-27-8-25-7-24-8-54-15-11-3z" fill="#5E9B9E"/>
<path transform="translate(1339,633)" d="m0 0h35l16 3 13 5 13 7 14 12 9 10 10 13 10 11 10 14 12 21 1 4-13-1-10-1h-72l-52 3-39 4-50 8-51 9-22 5-23 7-41 17-29 13-24 12-19 5-13 2h-5l-2-9-3-23-5-15-9-16-14-19-12-14-11-12-32-32 3-3 20-8 23-5 42-7 57-7 49-4 35-2 78-2 49-2z" fill="#618C38"/>
<path transform="translate(1023,1333)" d="m0 0h51l27 2 45 2 3 3v6h-34l7 4-2 5-9 10-1 2h-2v2l8-7 10-9 7-5 6 1 2 1-1 4-8 9 8-6 11-8h5l3 2-2 6-7 8-10 10 13-10 16-12 6 1 1 1 9-1 3 3-1 6 6-1 3 2-1 6-4 5-8 7-2 2 10-7 15-10 7-1 3 2-1 5-8 10 13-9 4-1 2 2v9l4-3h5l2 2-1 5-8 10 4-3 8-5 4 1 5 4 3-2 5 1 1 5-3 1 1 3 6 2-1 7-3 5 6 1 1 1v5l-3 5 1 4 3 1-1 10 3 1 1 2 2-2 1 9-12-1-4-1-1-1-1-7-1-1-8-1 1-8-6 2h-6l-1-4-6 3h-7l-1-5h2l-1-2-3 1h-7l-2-2-5 1-5 5-8 5-20 8-28 12-21 6-10 1h-25l-16-3-10-5-5-6-4-9v-9l4-6 9-8 15-8-1-2-5 1-6 3h-4l-2-5-4 1-4 2h-6l2-18 2-2-1-6-10-15-9-6h-6l-2 2-7-1-10-4-4-1h-3v2l-3 3 13 1 21 5 10 7 5 7v15l-4 6-7 4-7 1h-20l-30-4h-9l-6 3h-11l-17 10-11 7-14 6-12 3-5 1h-31l-12-3 1 6 17-1h53l13 3 11 7 14 9 7 4v5l-9 11-15 15-10 7-10 6-15 7-12 5-11 5-11 4-14 3-1 1-10 2h-20l-12-4-8-6-5-6-2-6v-9l4-25 5-12 6-9v-3l-13-14-9-14-2-5-1-6v-13l2-10 6-10 8-7 17-10 17-8 29-10 10-3 10-4 9-3 8 1 5 2h32l47-2z" fill="#638D3B"/>
<path transform="translate(1364,783)" d="m0 0h79l27 4 23 6 11 6 6 5v2l3 1 8 16 2 7v22l-4 24-5 14-7 12-12 13-11 8-15 7-7 3h-3l2-13v-17l-5-17-10-19-9-16-9-13-7-8-13-9-12-5-11-3-8-1h-17l-15 4-14 6-18 11-11 9-12 11-11 12-14 19-14 21-7 14-6 19-2 10-1 22h-18l-51-4-27-3-19-2-6-2-12-2-16-4-11-5-18-8-14-6-10-4-30-15-10-8-6-5 4-6 9-12 7-11 8-16 2-10 1-23h2l3 3 8 4 19 5 18 3 10 1h25l23-4 5-2 17-4 16-5 11-4 22-6 43-12 15-4 24-6 26-4 22-3z" fill="#F7F7F6"/>
<path transform="translate(1594,761)" d="m0 0h3v418l-9-1h-23l-5 1-31 2-36 2-14 1-1 2-9-2-29-10-6-7 2-9 10-19 13-23 15-29 7-11 6-7 3-13 6-13v-7l-9-6-18-7h-6l-8 5-8-1-4-3 1-5 2-6 2-23 8-7 15-10 14-10 14-11 7-7 4-6 3-9v-7l-4-11v-6l10-18 3-11 1-3 1-15 4-2v-29l-8-18 1-3 11-6 19-13 10-8 14-9 11-6z" fill="#008BC3"/>
<path transform="translate(693,730)" d="m0 0h58l33 3 61 8 48 8 40 8 15 4 19 7 11 6 13 10 7 7 7 10 4 9v39l-8 18-12 18-9 10-11 8-20 8-15 5h-3l1-7 2-12v-23l-3-16-6-16-8-16-8-10-15-14-15-11-10-6-16-6-16-3-5-1h-35l-20 4-18 6-22 10-12 8-12 11-7 10-6 14-5 22-2 13-1 27-5-2-16-8-17-10-16-8-13-5-10-5-7-3-15-8-11-7-10-8-10-9-8-7-9-8-7-8-11-9-11-8-9-6v-1l22-2 21-5 25-9 9-4 26-10 17-6 13-4 15-4 15-3z" fill="#F7F7F6"/>
<path transform="translate(1445,1033)" d="m0 0h5l-2 5-5 6-7 3-3 3 1 5 1 3-14 26-8 9-9 4-16 2h-22l-58-5-34-4-94-15-35-4h-20l-22 3-24 5-65 19-36 12-28 9-50 14-24 5-22 3h-42l-28-3-25-6-16-6-15-8-14-8-5-1-1 4 7 6 15 9 26 13-3 22-6 23-3 8-9-1-21-6-18-8-17-9-14-10-13-12-7-8-5-10v-9l5-10 11-12 12-9 12-6 14-3 14-1h67l36 2 51 3h57l38-2 21-3 26-6 47-14 34-9 28-5 29-3 29-2 32-1h61l43 5 53 4h35l19-5z" fill="#996351"/>
<path transform="translate(1221,274)" d="m0 0h1l1 5v40l-3 27-4 19-6 19-7 18-9 17-5 10-4 7-2 3h-2l-2 6h-2l-1 4-5 8h-2l-2 4-6 7 10 2h8l8 2 16 2 6 3 7 1 11 3 8 1 2 2 8 1 4 1 5-2v-2h3l1 5 4-1 6-4 2-2 7-3 13-9 9-7 8-6 7-6h2l1-3 5-3 4-4h2l2-4 10-10 5-2 1-3 6-4 7-9 8-8 13-17 7-11 4-7h2l2-5 3-5 2 1-8 16-10 16-12 18-8 13-7 9-1 2h-2l-2 4-6 8h-2v2h-2l-2 4-5 5-5 4-2 3h-2v2l-8 7-18 18-5 4-2 1v7l1 2-1 2h3l5 5 5 6 4 2v2l3-1 1 3 5 2 2 7 2-1 10 1 9-6h2v-2l4-2 9-7 5-2v2h2l-2 6-4 6-5 4-1 2h-2v3l-4 1v2l-5 3h-2l-2 4-4 5-4 4-1 8v4h2l3 5 1 2 2-1 2 5v2l3 2 4 8 10 7 4 3 1 2h6v2h9l4 4v2l5 2v-2l14 3h7l9 2 5-2 5 1 8 3 6 1 1-4h6l3 2v2h8l1-2 4 1 8 1 1-3 6-1 5-1 5 1v-2l7-2 5-2 1-2 8-3 2-3h5l1-2 8-2 8-1h3 2v-5l4-1 1 2 7-2 1-5 3-1v-2h7l5-3 4-1 3-3 3 1 1-2v2l4 1 2-1 2-4 3-8 3-9h2l-1-7 4-9 2-5 3 1v231l-15 7-12 7-17 12-16 12-14 8-4 1-7-12 3-9v-27l-4-9-9-8-11-9-5-6-10-19-12-19-11-12-11-14-13-13-11-8-10-6-15-5-13-3-39-1-5-3-3-3-1-3v-12l-6-24-13-38-11-22-7-9-6-6-10-4-14-8-4-2-9-2-9-5-6 1-3-1-1-2-13-2-7-2-8-2v-2h-10l-15-3-10-1-6-2-21-2-2-1h-11l-18-1v-1l16-1h10l7-6 8-10 21-28 8-13 10-19 8-18 2-6 2-1 2-7 5-12 4-11 3-12 1-8 1-29z" fill="#D5252A"/>
<path transform="translate(0,349)" d="m0 0 19 6 33 10 33 11 44 14 16 5 8 3 15 5-4 1-6 1-1 2 6 2-1 4 1 5h-3l-3-2-3 2-2 6-6 2-7-2-3-2-1 15 3 8 6 6v33l5 21 4 10 4-11 7-12 11-12 5-4h1l1 9 4 6 2 2h10l10-6 3-4-1-7h7v-7l-2-2 5 1 8 6 8 8 10 14 8 15 2 5 1 1 1 9v9l-9 7-12 6-7 2-12 3-8 1h-16l-11-2-8-2 2 6 9 6 1 6-6-2-10-7-15-6-22-6-10-2-6-2-34-11-20-5-9-3-13-5-8-3-11-2-20-6h-3z" fill="#AF7945"/>
<path transform="translate(114,719)" d="m0 0h6l-4 2-11 4-16 9-10 8-4 8v12l3 15 4 7 5 6v2h2v2l14 3h10l8-3 10-7 5-5 10-9 10-8 5-3 12-12 12-8 6-1 24 8 6 1h24l16-2h13l1 2-3 9-11 15-12 20-8 15-3 11-11 25-11 34-13 52-6 23-3 10-6 19-5 21-3 10-6 24-1 12-3 12-3 13-1 15-2 8-1 22-3 7-1 15-3 7-7 7-14 11-12 12-8 7-10 11-10 13-9 12-10 11-3 2-73 1v-132l6-3 3-3h2l2-4 3-2h29l12-5 10-10 7-2 8-1 12-9 9-2 8 1 6-1 16-1 8-4 7 1 5 5 7 1 4-3 2-7 3-21 4-14 3-19 4-8h2l2-12 6-19 5-17 5-18 3-18 5-19 3-12 8-24 5-14 10-21 1-10-4-9-10-8-13-5-5-1h-21l-12 4-11 6-13 10-16 9-3 1h-8l-13-4-9-7-11-9-6-7-6-16-2-12v-9l4-10 7-8 19-11z" fill="#047BB7"/>
<path transform="translate(1494)" d="m0 0h103v280l-9 1-25-7-28-8-19-6-21-5-1-116z" fill="#5E9C9F"/>
<path transform="translate(642)" d="m0 0h416v95l-1 30-7-1-35-10-27-8-16-4-34-11-23-7-26-8-27-7-23-6-8-3-45-13-27-8-25-7-24-8-54-15-11-3z" fill="#5E9B9E"/>
<path transform="translate(1303,1233)" d="m0 0h34l-3 2-14 6-1 6-49 5-48 7-36 6-28 3-17 1-39 1h-61l-34-1-56-3h-26l-20 1-135 2-43 1-60 3-57 1-41-6-21-11-17-7-39-14v-1l599-1z" fill="#805834"/>
<path transform="translate(215,387)" d="m0 0h28l14 5 12 6 5 5 14-1 4-2 8 1 10 5 1 4-3-1v-2h-4l5 4v2l5 2 2 3v14l-5 13-7 6 1 19v30l-2 13-8 23v9l4 9-1 4v-2l-3 1-7-2-7 4-7 6h-2v2l-6 3h-2v2l-21 7-9 2h-15l-23-4v-2l-2-1v-3h-2l-2-4v-3l-5-2-10-6v-6l8 1 11 2h16l17-3 9-2 10-6 7-4 4-3v-9l-1-9-2-2-4-10-8-14-11-13-8-7-6-3 1 1v7l-5 1-3-1 2 3-1 5-5 5-4 3-4 2h-10l-6-7-2-10-8 7-7 8-8 14-4 11-2-4-3-8-5-21v-33l-3-3v-2l-3-1-3-8 1-18 1 3 4 2 6 1 6-2 2-6 4-2v2l4 1 1-4-2-1 2-4-6-1v-3l4-2 16 1 6-2 2-5h7v-5l1 2 13-5z" fill="#B45332"/>
<path transform="translate(312,410)" d="m0 0 4 1 6 4v2l3 1v2l14 3 52 15 17 6 17 5 7 3 17 5 4 2 19 4h19l5-2 3 1-27 13-16 10-16 13-14 12-9 9-11 15-13 23-11 22-9 27-5 22-4 3h-13l-3-10-3-5-4-7-10-15-4-4-7-8-2-4-4-2-7-6v-2h-2l-6-10-5-13v-9l8-23 2-13v-30l-1-19 7-6 5-13v-14z" fill="#D5252A"/>
<path transform="translate(1115,1080)" d="m0 0h37l33 4 80 13 41 5 65 6-2 5-5 9-7 6-13 7h-28l-17-3-27-7-32-5-45-4-31-2h-26l-33 4-29 6-29 9-51 17-75 28-20 6-36 8-25 5-9 1h-40l-26-1-3-2 25-10 19-8 10-6 12-12 7-9 29-2 30-5 34-9 37-11 20-7 27-9 63-18 29-7z" fill="#996351"/>
<path transform="translate(1422)" d="m0 0h72l1 139v115l-10-1-17-5-38-10-8-3z" fill="#0D8D94"/>
<path transform="translate(1391,739)" d="m0 0h66l22 3 17 5 8 5 5 6 2 8v11l-2 12-2 1-18-7-22-5-14-2-13-1h-67l-36 2-34 4-29 5-25 6-37 10-51 15-31 9-24 5-8 1h-14l-21-2-27-5-3-2 17-4 21-8 26-13 49-20 25-9 26-6 57-10 45-7 39-4 30-2z" fill="#618C38"/>
<path transform="translate(0)" d="m0 0h243l-4 3-24 9-26 12-16 8-28 15-23 14-40 27-16 12-13 11-14 11-13 12-8 7-16 16h-2z" fill="#AF7945"/>
<path transform="translate(1023,1333)" d="m0 0h51l27 2 45 2 3 3v6l-61-2-1-1h-9l-10-1h-34l-5 1-28 2-7 2-52 2h-32l-4-2h-11l-16 6-31 11-25 11-13 8h-2l-2 4-6 9-1 7v10l4 9 7 11 12 14v2l14-5 18-4 13-1h53l13 3 11 7 14 9 7 4v5l-9 11-15 15-10 7-10 6-15 7-12 5-11 5-11 4-14 3-1 1-10 2h-20l-12-4-8-6-5-6-2-6v-9l4-25 5-12 6-9v-3l-13-14-9-14-2-5-1-6v-13l2-10 6-10 8-7 17-10 17-8 29-10 10-3 10-4 9-3 8 1 5 2h32l47-2z" fill="#0B0A08"/>
<path transform="translate(1530,1245)" d="m0 0h61l3 8 3 7v34h-3l1 121v45l-1 22-3-3-8-16-13-25-12-22-15-28-15-26-14-23-10-16-7-11-8-11 2-4 16-16 12-16 8-16z" fill="#805834"/>
<path transform="translate(1,507)" d="m0 0 16 4 9 3 8 1 8 3 13 5 21 6 20 6 22 7 16 4 25 7 14 6 10 7 4 2v2l-18 11-14 10-15 14-9 11-6 7-4 8-2-2-44-10-43-10-28-5-3-1-1-95z" fill="#06609C"/>
<path transform="translate(1203)" d="m0 0h72l1 18v173l-25-7-38-11-10-3-1-3z" fill="#0D8D94"/>
<path transform="translate(162,915)" d="m0 0h6l5 5 3 4 4-1 3-6 4-2h7l4 2 1 9-4 14-4 12-5 18-5 13-4 4-11 2-5 3-17-1-12-2-4-1-5 9-5 4-7 1-9-5-10 1-12 3-5 2h-6l-5-5h-5l-4 2v2l-10 8-14 7-13 2h-7l-11-3v-74l7 1 2 1h7l4-8 3-8 2-1h6l4 5 5 7 4 1 3-2 4-10 5 1 5 8 7 5h11l6-3 4-5 5-1 6 2h8l8-6 8-7 8-1 5 3 5 5v2h2l3 4h5l5-16z" fill="#00A3E3"/>
<path transform="translate(190,957)" d="m0 0h1l-1 9-5 15-3 12h-2l-2 7-2 5-2 15-5 19-2 16-3 8-4 3-7-1-2-4-6-2-6 1-6 3-16 1-11 1-6-1-9 4-9 7-13 2-5 3-4 6-12 6-7 1h-25l-10 9-6 2v-88l11 2 15-1 10-3 13-8 4-4h2v-2l4-3h5l3 3v2h8l12-4 9-2h6l9 5 7-1 5-4 4-8 4-1 5 2 18 2h7l8-4 8-1 3-3 6-15 3-10z" fill="#008BC3"/>
<path transform="translate(18,172)" d="m0 0h14l28 3 26 5 21 5 19 6 13 4 12 5 13 5 15 7 15 8 6 3 16 9 4 2-2 5-2 3h-2l-3 9-2 4h-4l-1 3-2 7-3 5h-11l-22-3-21-5-12-4h-6l3 3 16 5 22 5 22 3 11 1 3 1v2h-11l-26-2-26-4-18-5-21-9-18-10-14-10-11-10-8-7-9-10-9-14-6-10-5-6-4-7z" fill="#9BA886"/>
<path transform="translate(1433,1175)" d="m0 0 9 1 24 7 16 9 13 8 11 9 8 10 4 7 2 9-1 12-7 14-10 14-20 20-8 7-11 10-16 12-14 9-18 10h-2l2-4 10-15 11-23 3-12v-12l-2-11-5-8v-2l-5-2-7-5-3 1-3-5-9-3-3-2 1-6 14-29 15-29z" fill="#0043F9"/>
<path transform="translate(0,297)" d="m0 0 10 2 12 4 19 4 20 8 20 5 26 8 28 10 22 8 10 4 19 4 5 2 3 4h2l-1 14-3 23-7 1-2 5-6 2h-8l-12-5-10-3-11-4-26-8-21-7-35-11-24-8-28-8-2-2z" fill="#DCDCDC"/>
<path transform="translate(37,240)" d="m0 0 5 3 10 9 27 18 23 12 12 5 25 7 20 4 25 3h15l2-6h1v15l-5 46-2 6-3-1-2-5-10-2-15-4-10-4-40-14-14-5-31-9-12-3-20-8-19-4-12-4-7-2v-40l18-7 5-2 9-4 4-1z" fill="#F7F7F7"/>
<path transform="translate(1388,1098)" d="m0 0h10l10 4 2 3v12l-8 20-6 12-12 11-3 3-14 29-13 28-3 6h-105l2-5 10-18 8-14 12-22 5-7 12-5 3-1h17l16 1h20l-6-5-5-1h-24l-1 3-2 1h-8l-5-1v-2h-8l1-5 8-8 2-1h13l1 6h26l6-7 14-7 1-5 7-10 5-8 7-6z" fill="#0043F9"/>
<path transform="translate(1352,1241)" d="m0 0h15l18 2 16 5 9 5 14 10 5 6 2 5v12l-4 14-8 16-9 14-8 10-11 8-9 3-6 1h-15l-15-3-25-9-20-9-3-2 12-5 20-8-1-6-7-9-13-11 4-2 33-8 5-3-1-5-11-13-5-8-2-6 12-3z" fill="#618C38"/>
<path transform="translate(299,558)" d="m0 0 6 8v2h2l5 5 6 5 7 8 4 5v2l3 1 7 10 6 9 3 7 3 6v5l13-1 4-2v3l-5 3-2 4-4 2-1 26-8 15-9 11-6 5-9 6-8 12-4 11-20 14-12 11-6 5v-7h-13l-16 2h-24l-16-4-14-5-6 1-14 10-7 7h-2l-2 4-9 6-12 11-6 4-5 5-11 7-4 1h-10l-14-4v-2h-2l-9-12-3-11-1-7v-12l4-8 8-7 15-9 8-4 21-5 9-1-2 1-1 4-8 3-13 3-13 6-10 6-7 5-2 5-1 8v10l4 12 5 8 11 6h13l7-3 10-7h2l1-4 9-7 10-8 10-9 8-7 4-6 2-7 3-7 5-5 13-2 10 4 8 3 16 1 13-1 12-3 28-14 4-1 3-3 4-1 11-14v-5l-5-5 1-6 5-12 3-9 2-7v-9l-1-3v-7l-4-8-4-6v-4h-2l-3-13-5-8-5-10 2-6 5-2 1-2-3-1v-2l4-1z" fill="#B55332"/>
<path transform="translate(963,1364)" d="m0 0 39 1 25 5 11 6 7 9v15l-4 6-7 4-7 1h-20l-30-4h-9l-6 3h-11l-17 10-11 7-14 6-12 3-5 1h-31l-9-2-6-4-4-5-1-3v-9l4-9 9-8 13-8 11-6 15-7 12-4 16-3 18-3z" fill="#996552"/>
<path transform="translate(114,719)" d="m0 0h6l-4 2-11 4-16 9-10 8-4 8v12l3 15 4 7 5 6v2h2v2l14 3h10l8-3 10-7 5-5 10-9 10-8 5-3 12-12 12-8 6-1 24 8 6 1h24l16-2h13l1 2-3 9-11 15-12 20-8 15-3 11-11 25-11 34-13 52-6 23-3 10-6 19-5 21-3 10-6 24-1 12-3 12-3 13-1 15-2 8-1 22-3 7-1 15-3 7-7 7-14 11-12 12-8 7-10 11-10 13-9 12-10 11-3 2-73 1v-3l13-1 9-7h13l13 2 10-2 1-1 11-2 5-5 4-2 2-5 6-8 3-5h2l1-3 9-1 9-6 17-17 1-2h2l1-11 3-6 11-12 5-5 3-18v-14l1-12 1-3h2v-2l3-2 4-13 2-14 2-9 2-13 6-28 5-16 5-19 3-9 5-17 5-18 3-18 5-19 3-12 8-24 5-14 10-21 1-10-4-9-10-8-13-5-5-1h-21l-12 4-11 6-13 10-16 9-3 1h-8l-13-4-9-7-11-9-6-7-6-16-2-12v-9l4-10 7-8 19-11z" fill="#06609C"/>
<path transform="translate(342)" d="m0 0h238l-1 6-8 3-20 4-40 14-24 10-21 9-23 11-16 8-25 13-21 13-19 12-38 28-13 10-3 3-3-1h2v-2l-2-1 10-8 14-11 5-5 9-7 18-10 4-1v-2l15-9 21-14 6-7 7-4v-2l-4-1-17-1-7-4-3-4-1-3v-10l6-20 1-3-5-1h-2v2l-3 2h-3v2l-4 2-3 4-7 1-5-3-5-5-5-4-1-4h-2z" fill="#EDEAE5"/>
<path transform="translate(985)" d="m0 0h73v95l-1 30-7-1-35-10-30-9z" fill="#0D8D94"/>
<path transform="translate(574,1277)" d="m0 0 11 1 41 8 32 8 42 14v2l-15 9-1 5 5 4 16 8-4 2-46 12-6 2 1 6 5 6 6 5v1l-13-1-50-7-23-5-9-3-1-1 1-10 8-37 1-7v-12z" fill="#618C39"/>
<path transform="translate(578,441)" d="m0 0h105l7 2h7l17 5 14 5 31 17 23 13 14 10 8 7 10 8 15 15 8 5 5-2 10-6 16-8 22-10 22-9 21-6 55-12 25-5 16-2 7-1 24-1 15-2h35l2 2 23 1h6l8 2 15 1 12 3 10 1 9 2 10 1v2l8 1 7 2 13 2 1 3h5l4-1 12 6 7 2 12 6 11 6 5 2 9 9 8 14 9 19 13 40 3 12-1 4v-2h-2l-1 10h-1l-4-20-6-20-9-25-7-16-7-10-7-7-11-7-12-6-20-8-25-7-29-6-36-6-37-4-18-1-40 1-29 3-35 6-42 9-27 7-23 8-28 12-16 8-13 7-10-2-4-1-5 1-13-11-12-11-11-9-12-9-20-12-26-14-24-10-14-4-24-4h-47l-54 3-21 3-23 6-17 6-25 12-11 6-16 11-14 11-12 11-7 7-11 14-13 21-11 23-12 36-3 12-6 5-4-1 4-1v-8l6-24 7-20 14-28 10-17 9-12 9-10 14-13 14-11 14-10 27-14 21-9 23-7 17-4 9-1h16z" fill="#4B1915"/>
<path transform="translate(312,410)" d="m0 0 4 1 6 4v2l3 1 4 7 6 10 3 6-1 10-3 8h-2l-2 6-1 5v3h-2l1 6-2 6v3 8h-2v20l-1 2v11l-1 2 8 16 6 8 4 4 7 14v2l4 2 5 5 5 1 1-3 4-1 1 2 5-6 4-7 3-2v3l4-8 2-9h2v-2h2l2-5 5-8 10-13 2-2 5-2 2-4 3-5 6-8 5-3 6-1 1-2 7-6 4-1v-2h2l1-3h2v-2h3v-2l7-4 10-5 9-4 3 1-19 10-14 10-11 9-14 12-9 9-11 15-13 23-11 22-9 27-5 22-4 3h-13l-3-10-3-5-4-7-10-15-4-4-7-8-2-4-4-2-7-6v-2h-2l-6-10-5-13v-9l8-23 2-13v-30l-1-19 7-6 5-13v-14z" fill="#BE1F24"/>
<path transform="translate(66,1246)" d="m0 0 3 1-2 13-6 19-2 8v32l3 10 2 3v3l5 2 9 8 4 4 10 6 12 5 45 14 27 8 19 4 16 2 30 5 34 3 42 1 44-1 33-2 45-7 20-4 19-3h10l5-1h8l2 4 6 8 7 7 9 11 12 15 9 12 11 13 10 13 7 9 5 5 7 9 14 19 7 10 1 4 3 1 9 14 15 25 10 17 7 12 6 10v3h-11l-12-22-9-15-17-28-10-15-20-26-13-17-13-16-10-13-11-14-14-18-12-14-11-13-2-3-8 1-41 9-30 5-22 3-13 1-31 1h-51l-42-2-31-4-37-7-28-7-38-12-20-7-23-12-11-8-7-7-5-8-3-13v-30l3-17 6-20 2-4z" fill="#090608"/>
<path transform="translate(372,627)" d="m0 0h1l-1 9-1 4-2 35-4 27-15 63-10 21-6 8-5 1-3-3 2-6 11-23 8-31 5-23v-4l-12 9-12 8-16 11-14 10-12 11-9 9-13 18-12 21-13 27-12 31-6 19-7 24-7 27-6 21-13 49-8 34-4 20-4 23-4 31-2 23-1 32h-1l-1-18h-2l-3 7v12l1 9v13h-1l-2-21v-8l-7 4-10 8-7 7-8 7-4 5-7 8-12 14-9 11-10 12-8 16-6 13-7 24v33l2 7 4 6v2l4 2 5 5 10 8 19 9 33 11 49 14 13 3v1l-9-1-23-5-57-18-12-4-14-7-7-5-5-5-7-6-2-1-4-8-2-8v-32l6-21 4-16v-3l-4 1 2-6 2-3-7 1h-61v-4l8-1 65-1 9-8 13-17 7-9 12-14 7-7 8-7 8-8 14-11 6-7 1-4 1-15 3-7 1-22 2-8 1-15 3-13 3-12 2-16 3-12 4-15 5-19 4-15 3-9 5-18 4-15 10-40 6-22 10-29 10-22 2-9 10-19 12-19 10-14 2-2 7-6 7-7 18-13 4-3h2l2-8 4-8 7-9 11-7 8-9 7-11 4-8 1-26 5-3 2-4 7-1z" fill="#0D152C"/>
<path transform="translate(642)" d="m0 0h198v61l-2 1-52-15-27-8-25-7-24-8-54-15-11-3z" fill="#0D8D94"/>
<path transform="translate(1221,274)" d="m0 0h1l1 5v40l-3 27-4 19-6 19-7 18-9 17-5 10-4 7-2 3h-2l-2 6h-2l-1 4-5 8h-2l-2 4-6 7 10 2h8l8 2 16 2 6 3 7 1 11 3 8 1 2 2 8 1 4 1 5-2v-2h3l1 5 4-1 6-4 2-2 7-3 13-9 9-7 8-6 7-6h2l1-3 5-3 4-4h2l2-4 10-10 5-2 1-3 6-4 7-9 8-8 13-17 7-11 4-7h2l2-5 3-5 2 1-8 16-10 16-12 18-8 13-7 9-1 2h-2l-2 4-6 8h-2v2h-2l-2 4-5 5-5 4-2 3h-2v2l-8 7-18 18-5 4-2 1v7l1 2-1 2h3l5 5 5 6 4 2v2l3-1 1 3 5 2 2 7 2-1 10 1 9-6h2v-2l4-2 9-7 5-2v2h2l-2 6-4 6-5 4-1 2h-2v3l-4 1v2l-5 3h-2l-2 4-4 5-4 4-1 8v4h2v4h-2v3h-2l2 6-1 4-12-35-11-22-7-9-6-6-10-4-14-8-4-2-9-2-9-5-6 1-3-1-1-2-13-2-7-2-8-2v-2h-10l-15-3-10-1-6-2-21-2-2-1h-11l-18-1v-1l16-1h10l7-6 8-10 21-28 8-13 10-19 8-18 2-6 2-1 2-7 5-12 4-11 3-12 1-8 1-29z" fill="#D5262A"/>
<path transform="translate(215,467)" d="m0 0 5 1 8 6 8 8 10 14 8 15 2 5 1 1 1 9v9l-9 7-12 6-7 2-12 3-8 1h-16l-11-2-9-3-9-7-8-9-3-7v-14l4-10 7-11 9-10 6-5h1l1 9 4 6 2 2h10l10-6 3-4-1-7h7v-7z" fill="#D8CAC2"/>
<path transform="translate(1083,1411)" d="m0 0h72l19 3 6 2 16 5 6 4-1 6-7 5-52 22-21 6-10 1h-25l-16-3-10-5-5-6-4-9v-9l4-6 9-8 14-7z" fill="#0B0A08"/>
<path transform="translate(1565,1177)" d="m0 0h23l9 2v66h-2l-3-5-1-1h-17l-2 3-5 1h-17l-19-1-6-8-9-20-9-10-7-5-8-4-9-6-5-2 1-4 26-2 39-2 16-1z" fill="#CB643B"/>
<path transform="translate(1593,1051)" d="m0 0h4v128l-9-1h-23l-5 1-31 2-36 2-14 1-1 2-9-2-23-8v-1l21-1 22 1 26-2 15-4 4-1 2-4 6-9 6-8 5-12 6-15 12-31 4-10 9-21 5-5z" fill="#047AB6"/>
<path transform="translate(580)" d="m0 0h62l3 5 37 10 23 7 17 5 25 8 29 8 44 13 18 5 8 3 31 8 29 8 28 9 26 8 22 7 16 4 58 17 17 5 7 1 7 3 31 9 41 13 102 30 21 6 7 3 96 29 33 10 35 9 29 8 26 6 21 6 26 8 26 7 7 2h9v6h-8l-11-3v-2l-8-1-27-8-16-4-10-3-12-2-29-6-9-3-12-3-25-7-15-6-12-4-10-2-12-3-30-10-17-4-15-6-12-3-31-10-11-3-14-3-16-5-53-17-7-3-15-5-15-3-17-6-26-6-31-9-13-5-11-2-15-5-26-7-12-5-6-2-15-6-20-6-17-4-16-4-17-5-14-4-24-6-1-1-9-2-6-2-14-4-6-2-16-4-15-6v-2l-6 1-15-4-8-4-12-4-18-4-21-7-16-4-18-4-15-6-17-4-14-4-8-3-14 1-25 4h-13l-7-1 4-2 4-1z" fill="#BE663F"/>
<path transform="translate(904,1448)" d="m0 0h17l10 3 11 7 12 7-2 4-13 14-12 9-19 10-28 12-20 7-15 3h-18l-10-4-7-6-1-3v-9l5-25 2-6 3 1 5 5 16 8 20 8h15l12-5 9-6 7-8 2-6v-14z" fill="#F6F6F5"/>
<path transform="translate(694,120)" d="m0 0 5 1-4 3-7 3-22 6-16 6-16 5-20 6-26 10-25 10-18 7-18 10-22 12-17 10-9 5-16 10-8 6-19 14-4 2-2 4-8 7-10 9-11 11-7 8-11 16-9 12-2 2-1-2 6-10 10-17 10-15 7-11 11-13 5-5 4-5 8-7 3-1v-2l14-11 8-7 18-13 32-17 8-5 16-8 15-7 21-8 18-6 22-7 18-4 10-3 16-3 29-6z" fill="#D5252A"/>
<path transform="translate(412)" d="m0 0h167l-3 4-9 4-22 5-17 6-16 4-9 2v3l-4 2-12 2-26 10-10 4h-4v-3l-10-3-8-4-6-5-8-13-3-9z" fill="#F7F7F7"/>
<path transform="translate(220,234)" d="m0 0 2 1-2 8-5 10h-2l-2 5-3 16v7l2 12v7l5 9 5 7 4 8 5 6 5 8 5 5 4 9 5 5 7 9 3 6 5 5 1 3 4 1 11 7 4 4v3h2v2h2v2l5 1-4 3-14 1-8-7-19-8-4-1h-28l-15 4-7 2v-12l5-43 6-54 4-26 4-14 2-3h2l2-4z" fill="#D5252A"/>
<path transform="translate(672,96)" d="m0 0h11l-2 2-17 5-8 2-19 4-7 2-2-1v2l-9 1-9 3-20 5-7 3-14 3-22 6-18 7-18 5-27 11-20 8-25 12-16 10-12 8-10 7-12 10h-2v2l-8 6-1 2h-2v2l-5 3 1-5 6-8 9-10 7-8 14-12 13-11 18-12 16-9 21-10 27-11 29-10 25-7 32-8 29-4 13-1z" fill="#BF1F24"/>
<path transform="translate(0,320)" d="m0 0h1l1 5 14 6 9 3 17 8 13 5 19 5v2l9 2 16 2 19 4 12 4 13 5 22 9 17 4 6 1 1 5-1 5 1 2-4 1-2 5-6 2h-8l-12-5-10-3-11-4-26-8-21-7-35-11-24-8-28-8-2-2z" fill="#D9CBC3"/>
<path transform="translate(963,1364)" d="m0 0 39 1 25 5 11 6 7 9v15l-4 6-7 4-7 1h-20l-30-4h-9l-6 3h-11l-17 10-11 7-14 6-12 3-5 1h-31l-9-2-6-4-4-5-1-3v-9l4-9 9-8 13-8 11-6 15-7 12-4 16-3 18-3zm-1 9-9 1-1 1h-8l-5 1-16 1-10 2-7 2-25 10-14 8-12 8-5 7v9l6 4 9 2h25l21-6 14-7 18-11 12-5 13-2h8l31 4h22l5-3 3-3v-7l-5-5-8-5-12-3-23-3z" fill="#090706"/>
<path transform="translate(185,397)" d="m0 0h7l-1 2 2 5 2 2-2 8-4 6-1 7-3 5-3 10-1 11 1 3-10-1-1 4h5l1 4-4 3-4-2-1-3-2 1 1 5 6 7 9 1-1 2-5 3-8 8-9 14-6 15-2-4-3-8-5-21v-33l-3-3v-2l-3-1-3-8 1-18 1 3 4 2 6 1 6-2 2-6 4-2v2l4 1 1-4-2-1 2-4-6-1v-3l4-2 16 1 6-2z" fill="#CB653B"/>
<path transform="translate(1594,761)" d="m0 0h3v33l-15 9-6 7-8 7-12 11-13 12-5 4-6 8-3 9-2 15-6 18-7 11-2 4 1 7 3 7v8l-3 10-7 9-11 9-14 10-15 10-2-1 17-12 18-14 7-7 4-6 3-9v-7l-4-11v-6l10-18 3-11 1-3 1-15 4-2v-29l-8-18 1-3 11-6 19-13 10-8 14-9 11-6z" fill="#06609C"/>
<path transform="translate(372,627)" d="m0 0h1l-1 9-1 4-2 35-4 27-15 63-10 21-6 8-5 1-3-3 2-6 11-23 8-31 5-23v-4l-12 9-12 8-16 11-14 10-12 11-9 9-5 4-1 2h-2l-1 4h-2l2-6 8-11 6-8 11-10 16-11 3-1 2-8 4-8 7-9 11-7 8-9 7-11 4-8 1-26 5-3 2-4 7-1z" fill="#0C152C"/>
<path transform="translate(1388,1098)" d="m0 0h10l10 4 2 3v12l-8 20-6 12-12 11-3 3-4 9-3-3-2-9h-7l-3-2v-2l-11-1-6-5-5-1h-24l-1 3-2 1h-8l-5-1v-2h-8l1-5 8-8 2-1h13l1 6h26l6-7 14-7 1-5 7-10 5-8 7-6z" fill="#0578B1"/>
<path transform="translate(231,831)" d="m0 0 1 3-6 14-10 31-13 52-6 23-3 10-6 19-5 21-3 10-6 24-1 12-3 12-3 13-1 15-2 8-1 22-3 7-1 15-3 7-7 7-14 11-12 12-8 7-10 11-10 13-9 12-10 11-3 2-73 1v-3l13-1 9-7h13l13 2 10-2 1-1 11-2 5-5 4-2 2-5 6-8 3-5h2l1-3 9-1 9-6 17-17 1-2h2l1-11 3-6 11-12 5-5 3-18v-14l1-12 1-3h2v-2l3-2 4-13 2-14 2-9 2-13 6-28 5-16 5-19 3-9 5-17 5-18 3-18 5-19 3-12 7-21 4-1 2-9 5-12z" fill="#06629B"/>
<path transform="translate(642)" d="m0 0h125v41l-16-4-17-5-24-8-54-15-11-3z" fill="#5E9B9B"/>
<path transform="translate(1099,1523)" d="m0 0h6l1 1v6l-9 6-10 6-10 11-7 9-7 7-12 6-6 2-22 4-2 1-19 3-16 3-7 1h-27l-30-2-16-3-12-5-9-7-9-9-7-8-8-7-17-1-1-1v-6l1-1h18l7 3 6 5 7 8 6 7 9 7 8 4 13 3 25 2 5 1h27l64-11 16-6 8-6 11-14 6-7 11-8z" fill="#0D0C09"/>
<path transform="translate(1594,1294)" d="m0 0h3v213l-4-4-8-16-10-19-9-17-8-15-8-14-8-16-14-26-7-11-6-11-8-13-4-7v-2h-2l-4-7-7-11-3-6-2-1-2-4-2-1 1-4 4-3h2v2h2l8 11 7 11 11 18 17 28 13 23 16 30 12 22 14 27 5 9 1-20z" fill="#0B0807"/>
<path transform="translate(0,349)" d="m0 0 19 6 33 10 33 11 44 14 16 5 8 3 15 5-4 1-6 1-1 2 6 2-1 4 1 5h-3l-3-2-3 2-2 6-6 2-7-2-2-2v-7l8-10-2-2-5 2-4 5-7-1-29-10-23-10-9-3-14-6-1-1-14-2-11-4-4-4-1-7-10-5-10-3z" fill="#9CA987"/>
<path transform="translate(1502,944)" d="m0 0 3 1-14 14-11 9-24 16-7 6h-2l-1 3-18 5-26 5-27 4-41 4-17 1h-26l2 8-1 2-6-1-16-14-10-6-1-3 3-4 5 1 11 7h33l42-3 34-4 29-5 23-6 14-6 21-13 19-14 6-4z" fill="#030205"/>
<path transform="translate(153,1157)" d="m0 0h3l2 19v10h-1l-2-15-4-2h-6l-8 7-14 12-9 10-11 12-11 14-10 14-3 8-4 10-5 12-2 6-3 17v23l2 10 3 5 9 9 2 1v2l5 2 5 3v2l5 2 14 7 17 6 34 11 48 11 20 4 20 2 33 1 46 2 15-1 11-1h27l33-3 17-2 23-7 22-5h15l-3 2-39 9-41 7-14 2-33 2-44 1-42-1-34-3-30-5-28-6-38-11-32-10-15-6-15-8-8-7-10-10-4-7-1-5v-33l5-18 7-17 8-16 7-9 22-26 7-8 7-9 7-7 16-14z" fill="#0848A1"/>
<path transform="translate(26,173)" d="m0 0h18l22 3 23 5 18 4 19 6 13 4 12 5 13 5 15 7 15 8 6 3 16 9 4 2-2 5-2 3h-2l-3 9-2 4h-4l-1 3-2 7-3 5h-11l-22-3-21-5-23-8-4-3 7-1 27 7 14 5 9 1h9l7-4 3-9 1-9-5-10-4-3v-2l-7-2-2-4-6-2-5-4-15-7-16-8-8-3-9-3-13-4-12-1-16-3-11-4-24-3-5-2h-5l-1 2-2-3z" fill="#628D3A"/>
<path transform="translate(1466,1183)" d="m0 0 9 2 10 4 12 8 6 3 12 11 13 26 3 4 21 1h15l5-1 2-3h17l4 4v3h2v15l-3-3-3-11h-61l-10 19-9 12-11 12-12 12v-2l-6 4-1 3 2 1-5 3-14 12-18 13-12 8-3-1v-2l-10 3h-6l4-3 21-12 16-12 14-11 10-10 8-7 14-14 12-18 4-9 1-12-3-11-7-10-5-6-9-7-20-12-9-5z" fill="#081120"/>
<path transform="translate(0,297)" d="m0 0 10 2 12 4 19 4 20 8 20 5 26 8 28 10 22 8 10 4 19 4 5 2 3 4h2l-1 14-2 11h-2l-1-15-1-5-10-3-16-5-9-4-24-8-37-12-17-4-16-3-22-7-31-11-6-1-1-2z" fill="#EDEAE5"/>
<path transform="translate(252,72)" d="m0 0h36l19 1 22 4 14 7 9 1 2 1h6l5-5 7-5h5l2 4v8l-10 7-4 2-15-1-13-5-7-2-6-3h-29l-12-1h-59l-7-2 4-3 5-3 10-4z" fill="#DACCC4"/>
<path transform="translate(66,1246)" d="m0 0 3 1-2 13-6 19-2 8v32l3 10 2 3v3l5 2 9 8 4 4 10 6 12 5 45 14 27 8 19 4 16 2 30 5 8 1v1h-9l-29-4-13-2 2 4 6 1 6-1-2 1v2l2 1-10-1-36-8-39-12-26-9-23-12-11-8-7-7-5-8-3-13v-30l3-17 6-20 2-4z" fill="#060D1F"/>
<path transform="translate(91,77)" d="m0 0h6l-5 4-14 10-12 9-13 11-14 11-13 12-8 7-16 16h-2v-59l5 1 4 2 3 6v5l-2 2-1 6 3-3 8 1 8-5-3-5 2-4h2l2 6 6-2 9-6 9-4h3l5-5 14-8 4-2 3-3z" fill="#9E6D4F"/>
<path transform="translate(1157,1346)" d="m0 0 14 1 14 4 28 10 24 12 20 13 8 7 4 6 1 50-5-5 1-10-4-1-1-4 3-5v-5l-6-2 1-4 2-3v-5l-6-2v-3l2-1v-5h-5l-4 2-5-5-5 1-9 7h-3l8-9 2-3-1-5h-5l-5 3v-10l-3-1-9 6-4 3h-2l2-4 6-8v-3l-7-1-11 7-18 12 1-3 8-7 5-4 2-4v-4l-6-1-3 1 1-9-11 1-4-2-5 1-16 13-8 6-5 4-2-1 16-15 5-6 2-5-7-2v-1l5-1z" fill="#F3F2F1"/>
<path transform="translate(648,130)" d="m0 0h9v2l-11 4-13 5-18 4-12 5-5 1-1 1-9 1-11 4-11 3-5 2 1 3-6 4h-4v2l-5 2-7 1-11 4-4 2h-3v2l-12 6-1 2-8 3-12 4-13 2 4-4 6-5 26-14 19-10 15-7 21-8 18-6 12-2 15-4 34-8z" fill="#BF1F24"/>
<path transform="translate(179,595)" d="m0 0h3l-1 6-7 15-1 4v8l-3 15-1 2-1 13-1 1v11l3 23 1 9-3 8-2-1-2-19-1-3h-6l-1-7 1-7-3-8-4-10-1-11 1-15 6-10 12-14z" fill="#B25332"/>
<path transform="translate(764,1143)" d="m0 0 15 3 4 1-1 5-3 6-1 5 5-2 7-7 3-5 30 1-6 8-9 8-16 8-20 8-14 6-3-1 6-25z" fill="#D5262A"/>
<path transform="translate(1391,1105)" d="m0 0 12 3 3 2-1 5-4 9-5 15h-2l-2 5-7 2-5 4-4 7-3 2-8 1-3-2v-2l-8-1-1-2 3-1 2-5 2-7 4-6 4-1 2-5 9-17 4-3h2v-2z" fill="#008BC3"/>
<path transform="translate(1433,1175)" d="m0 0 9 1 24 7 16 9 13 8 11 9 8 10 4 7 2 9-1 12-7 14-10 14-20 20-8 7-11 10-16 12-14 9-18 10h-2l2-4 10-15 11-23 3-12v-12l-2-11-5-8v-2l-2-1 4 1 1 3h2l4 10 1 11 1 3-3 14-6 15 1 8 7 2 14-10 12-9 1-2h2l2-4 8-6 5-6 5-4 1-2h2l2-4h2l1-5 4-2 10-18 2-9-1-11-3-9-11-13-14-8-7-6-6-4-11-5-19-5h-6l-5 6-3 2-6 12-3 9-6 12-4 4-2 7v7l1 4-5-2-2-1 1-6 14-29 15-29z" fill="#0848A1"/>
<path transform="translate(136,716)" d="m0 0 3 1h-2l-1 4-8 3-13 3-13 6-10 6-7 5-2 5-1 8v10l4 12 5 8 11 6h13l7-3 10-7h2l1-4 9-7 10-8 10-9 8-7 13-9 6-2 12 5 22 3 35-2h12l-3 2-7 2-14 2-4 1h-29l-24-8-6 1-14 10-7 7h-2l-2 4-9 6-12 11-6 4-5 5-11 7-4 1h-10l-14-4v-2h-2l-9-12-3-11-1-7v-12l4-8 8-7 15-9 8-4 21-5z" fill="#95614F"/>
<path transform="translate(1465,1075)" d="m0 0 8 1-3 9-6 9-8 17h-2l-2 6-9 17-4 10-11 22h-2l-2 6-3 5-1 4h-2l-2 8-2 4h-2l-2 6-14 28-4 9-9-1 2-6 17-33 2-1 4-10 7-14h2l1-5 3-6h2l2-6 4-9 8-16 13-25h2l2-6 9-19z" fill="#E2DBD2"/>
<path transform="translate(672,96)" d="m0 0h11l-2 2-17 5-8 2-19 4-7 2-2-1v2l-9 1-9 3-20 5-7 3-14 3-22 6-18 7-18 5-27 11-20 8-5 1 4-4h2v-4l7-1 10-5 9-3 4-3 5-1 10-4 7-3 5-5 4-3 21-5 11-1 5-1 15-5 8-1v-2l8-2h4 11l28-6 20-4 5-2h-8l-38 5-22 2-19 4-24 6-4-1 14-4 28-7 29-4 13-1z" fill="#D6262B"/>
<path transform="translate(965,1375)" d="m0 0h16l24 4 11 3 1 4-2 5-42-6-18 2-23 5-19 7-15 8-12 10-4-1-1-5 11-11 13-8 16-7 12-4 23-5z" fill="#080304"/>
<path transform="translate(783,817)" d="m0 0h15l10 5 6 7-1 14-4 6-6 5-5 2h-11l-7-4-5-6-2-6v-7l5-12z" fill="#F5F5F4"/>
<path transform="translate(1138,1419)" d="m0 0 17 1 33 6 1 2-21 9-25 10-11 5-14 3-8 1h-26l-16-5-5-5-2-4v-9l3-3 3 1 6 10 12 6 13 3h28l8-3 7-8v-11z" fill="#F5F4F4"/>
<path transform="translate(972,982)" d="m0 0h5l1 6-11 8-18 10-16 7-38 13-31 8-10 2h-6v-8l16-5 38-10 30-10 23-11 15-9z" fill="#030205"/>
<path transform="translate(1463,1022)" d="m0 0h6l22 9 6 5v7l-6 13-3 13-7 8-3 3 1-9-8-4-11-4-11-5-5-3 3-1 39 13v-8l4-11-2 1-4 8-32-10 2-5 7-11 1-3-4 1v-2l2-1-1-2z" fill="#AD7745"/>
<path transform="translate(0,193)" d="m0 0 4 4 10 15 12 14 11 12-1 5-12 5-2 2-20 7h-2z" fill="#AF7945"/>
<path transform="translate(162,1143)" d="m0 0 2 2 1 18 1 1 2 24 5 24 4 12 1 2 3 2h-4l1 2h7l18-3 34-3-4 2-53 12-20 6-5 2h-4l-1-7 8-5 9-3-6-24-2-12-1-22-1-9v-12l3-7z" fill="#030D21"/>
<path transform="translate(299,1209)" d="m0 0h20l23 2 30 3 41 7 22 5 7 1 8 3 13 2 10 1 20 9 16 5 2 3 15 4 1 3-6-1-28-10-28-8-45-10-49-8-27-3-15-1h-29l-21 2-32 5-10 1 3-2 30-5 16-5z" fill="#030D21"/>
<path transform="translate(1336,625)" d="m0 0 5 2 39 1 20 5 12 5 13 9 12 11 8 8 9 12 8 8 10 15 12 21 2 6-3-3-1-2-6-1-10-17-10-13-10-11-10-13-10-11-10-8-17-9-13-4-12-2h-36z" fill="#4B1915"/>
<path transform="translate(135,1164)" d="m0 0 2 1-14 14-8 7-10 11-10 13-9 12-10 11-3 2-73 1v-3l13-1 9-7h13l13 2 10-2 1-1 11-2 5-5 4-2 2-5 6-8 3-5h2l1-3 9-1 9-6 17-17 1-2 5-3z" fill="#06609C"/>
<path transform="translate(85,743)" d="m0 0h2l1 6 9 17 5 5 8 6 9-1 7-2 4-3 9-1 4 2-2 4-6 4-1 3-15 10-4 1h-13l-11-6-6-9-4-12v-10l2-11z" fill="#B45332"/>
<path transform="translate(0)" d="m0 0h44v2l-8 5-4 1-1 2 2 1-4-1v-2l-1 2h-2l-2 6-1 2h-9v7h-3l-3-3 3 5v3l-2 2 2 7v11l-2 4-1 5 1 9h-3l-2-3-2 6 1 5h2v3h-2l-3-4z" fill="#A06D4E"/>
<path transform="translate(1233,179)" d="m0 0 7 1 29 8 13 4 7 3 96 29 33 10 35 9 29 8 26 6 21 6 26 8 26 7 7 2h9v6h-8l-11-3v-2l-8-1-27-8-16-4-26-8-23-5-30-10-20-4-11-4-22-7-21-5-18-7-14-3-12-4-10-4-14-4-18-6-14-4-25-8-16-5z" fill="#8E6B4C"/>
<path transform="translate(1115,1080)" d="m0 0h37l33 4 80 13 41 5 65 6-2 5-5 9-7 6-6 3-2-1 11-9 3-3 2-6-12-1-16-2-10-1-33-3-12-2-11-1-5-1-52-8-8-1-17-3-10-2-15-2-24-2h-21l-24 5-16 4-17 5-10 2 1-4 46-12z" fill="#9C694C"/>
<path transform="translate(1137,153)" d="m0 0h8l40 12 25 8 29 8 33 10 11 4 18 5 14 5 14 4 7 3 13 4 9 2 20 7 24 6 22 7 8 3 19 4 30 10 20 4 12 4v1l-8-1-29-6-9-3-12-3-25-7-15-6-12-4-10-2-12-3-30-10-17-4-15-6-12-3-31-10-11-3-14-3-16-5-53-17-7-3-15-5-15-3-8-3z" fill="#CD653B"/>
<path transform="translate(364,694)" d="m0 0h1v8l-15 63-10 21-6 8-5 1-3-3 2-6 11-23 8-31 5-23 3-8 5-4h2v-2z" fill="#030204"/>
<path transform="translate(979,105)" d="m0 0h9l85 25 7 1 7 3 31 9 41 13 54 16 20 6-4 1-29-8-28-9-27-8-14-2-29-7-31-9-13-5-11-2-15-5-26-7-12-5-6-2-9-4z" fill="#BC663F"/>
<path transform="translate(567,1282)" d="m0 0h1l1 14v11l-4 28-5 20-7 4-5 5v2l-20 9-22 7-4-1-1-1h-8l-10 1-11 1-9 1 4-2 32-8 26-8 16-7 14-7 10-47 1-3z" fill="#081324"/>
<path transform="translate(361,637)" d="m0 0h1l1 5v11l-2 1-2 9 1 3 1 13v12l-7 6-7 4-12 8-11 6-3 1v2l-5 4h-3l3-9 9-12 11-7 8-9 7-11 4-8 1-26z" fill="#0D8C93"/>
<path transform="translate(1594,761)" d="m0 0h3v6l-8 4-11 8-5 5-5 4h-3l-1 2-5 5-16 8-7 5-3 5-1 7 2 5-1 7-1 3-2 17-2 4v-28l-8-18 1-3 11-6 19-13 10-8 14-9 11-6z" fill="#0748A0"/>
<path transform="translate(49,522)" d="m0 0 11 2 9 3 24 7 25 8 16 4 25 7 14 6 10 7 4 2v2l-18 11-14 10-15 14-9 11-6 7-4 8-3-3 1-7 9-10 8-7 11-12 11-9 14-9 5-2v-7l-6-2-9-4-26-8-42-11-26-8-18-7z" fill="#101B31"/>
<path transform="translate(580)" d="m0 0h62l3 5 37 10 23 7 17 5 25 8 18 5-4 1-29-8-23-5-15-4-12-3-13-5-17-4-14-4-8-3-14 1-25 4h-13l-7-1 4-2 4-1z" fill="#CC643A"/>
<path transform="translate(1298,1154)" d="m0 0h17l16 1h28l3 1v2l-13 2-38 1-16 1-8 2-5 4-7 11-3 7-2 4-2 7-4 10-4 12 1 1 12 1 4 4v1h-31l2-5 10-18 8-14 12-22 5-7 12-5z" fill="#0748A0"/>
<path transform="translate(292,400)" d="m0 0 8 1 10 5 1 4-3-1v-2h-4l5 4v2l5 2 2 3v14l-1 2-4-1-1-4-5 1-2 9h-4l-4-6-5-5-2-5 6 3-2-4-3-1v-2h-5l-1-6 2-4-7-1-1-4 2-1 9-1z" fill="#C8653B"/>
<path transform="translate(1442,1063)" d="m0 0h2l-1 7-8 16-8 15-7 14-10 19-10 21-11 22h-2l-2 6-4 9-16 33-4 7h-4l2-5 9-19 8-15 7-14 4-10 10-19 9-20 6-12 1-4h2l3-9 9-16 6-11h2l2-7z" fill="#DDD7CD"/>
<path transform="translate(1565,1177)" d="m0 0h23l9 2v6l-13-1-4-2h-16l-22 2-15 2-14 4-3-1-1 3-7 3-2 1 2 3-7-2-12-8-5-2 1-4 26-2 39-2 16-1z" fill="#A7724A"/>
<path transform="translate(1466,1183)" d="m0 0 9 2 10 4 12 8 6 3 12 11 13 26 1 4-5-1-2 9-5 12h-2l-1 4-3 4h-2l-2 4-5 5-4 5-5 4-6 7-8 6-8 7-12 10-5 5-10 8-11 7-10 2 3-3 17-10 13-10 14-11 10-10 8-7 14-14 12-18 4-9 1-12-3-11-7-10-5-6-9-7-20-12-9-5z" fill="#10152A"/>
<path transform="translate(66,1246)" d="m0 0 3 1-2 13-6 19-2 8v32l3 10 5 9 12 11 4 4v3l-5-1-11-8-7-7-5-8-3-13v-30l3-17 6-20 2-4z" fill="#060D1E"/>
<path transform="translate(1452,1069)" d="m0 0 5 1-1 5-9 18h-2l-2 6-5 10-10 19-10 21-7 11-3 7-16 30-8 16-8 17-2 2h-3l2-6 11-21 9-19 8-16 5-9 29-58z" fill="#D7CFC3"/>
<path transform="translate(1589,753)" d="m0 0 4 1 4 2v5l-15 7-12 7-17 12-16 12-14 8-4 1-3-5 1-2 5-2 16-11h3v-2l6-4 11-9 5-3h2v-2l7-4 3-3 7-4h2v-2z" fill="#855734"/>
<path transform="translate(1594,748)" d="m0 0h3v8l-5-1-3-1-5 1v2l-10 6-6 5h-3v2l-9 6-9 7-4 3h-2v2l-9 5-11 8-4 1-4-4-1-4 3-7v-30l2 1 2 9 3 3 1 7 5 2 2 2 6 1 12-4 9-7h2v-2l7-4 14-10z" fill="#BE1F24"/>
<path transform="translate(450,217)" d="m0 0 2 2-1 5-4 5-11 8-5 5-9 8h-2l-2 5-3 4h-2l-2 4-9 10-4 5-2 5-7 9-9 13-7 10-2-2 6-10 10-17 10-15 7-11 11-13 5-5 4-5 8-7 3-1v-2l12-9z" fill="#C12025"/>
<path transform="translate(1221,274)" d="m0 0h1l1 5v40l-1 10-2 7-4 21-8 26-3 7-4 1-1 6-3 6-5 5h-2l-1-4 3-7 3-5 2-7 6-12 9-25 3-14 3-12 1-8 1-29z" fill="#BF1F24"/>
<path transform="translate(1517,805)" d="m0 0 3 3 9 20v23l-1 6-3 2-1 17-3 9-8 16-3 5 1 9 3 8v7l-4 11-11 12-4 2 6-7 3-3-4 2-3 3-2-1 8-8 6-11v-8l-3-8 2-10 1-3-5 6v-3l7-10 6-14 3-14 2-14v-22l-3-12 2-2-4-9z" fill="#162839"/>
<path transform="translate(1459,981)" d="m0 0 2 1-2 3h-2v18l3 6v2l4 2v2l4 2 7 3 5 4 11 5 2 1v2l4 1 1 2v8h-1l-1-7-9-6-18-7h-6l-8 5-8-1-4-3 1-5 2-6 2-23 8-7z" fill="#0479B5"/>
<path transform="translate(139 1e3)" d="m0 0 10 1 6 3 1 1v7l-3 5-8 2-17 2-9-3-3-3-1-4 2-3h2v-2l10-4z" fill="#047BB7"/>
<path transform="translate(141,603)" d="m0 0 2 1-9 10-10 15v8l-1 3v19l3 15 10 18 9 1 10-5 5-2 4 1v5l-5 3-9 1-6 2-7-1-11-8-5-8-4-10-2-10v-9l2-7 1-13 3-2 5-10 12-13z" fill="#609A92"/>
<path transform="translate(1278,1389)" d="m0 0h5l3 9 1 1h6l5-1 3 5 5 3v3h-2l-2 4-12 12-7-1-5-3z" fill="#D5C7BD"/>
<path transform="translate(1399,900)" d="m0 0 7 1 5 3 3 5-1 9-4 6-5 4-3 1h-7l-5-4-2-3v-8l4-8z" fill="#F3F3F1"/>
<path transform="translate(1245,1040)" d="m0 0h19l43 5 53 4h35l19-5 6-2h5l-3 3-15 6-16 3h-29l-11-2h-17l-16-2-14-1-8-2-13-1-25-3h-12l-6-1v-1z" fill="#9C6A4D"/>
<path transform="translate(1419,1248)" d="m0 0 7 4 6 4 6 10 2 11v12l-3 12-12 25-10 14-2 3 2 1-6 2 2-4 9-17 1-4h-2v-2l-2-1 8-16 3-8 6-3 1-3v-15l-6-11-3-5-4-4v-2l-4-2z" fill="#030D20"/>
<path transform="translate(0,193)" d="m0 0 4 4 10 15 12 14 11 12-1 5-12 5-2 1v-6l2-6-6-3-4-7-3-2-5-9v-2h-6z" fill="#9F7052"/>
<path transform="translate(164,690)" d="m0 0h1l2 21-31 6h-6l3-1v-2h3v-2l2-1v-10l-10-9h3l8 5 9-1 6-2 8-1z" fill="#0E8D94"/>
<path transform="translate(231,831)" d="m0 0 1 3-6 14-10 31-13 52-6 23-3 10-6 19-1 5-3-3 1-7 5-16 5-17 5-18 3-18 5-19 3-12 7-21 4-1 2-9 5-12z" fill="#076C99"/>
<path transform="translate(1570,1170)" d="m0 0h14l11 2 2 1v6l-9-1h-23l-5 1-31 2-33 1v-1l12-2 9-2 35-5 6-1z" fill="#06629B"/>
<path transform="translate(1463,1022)" d="m0 0h6l22 9 6 5v7l-6 13-3 13-7 8-3 3 1-9-8-4-11-4-11-5-5-3 3-1 39 13v-8l4-11-2-1 3-9-13-6-12-5h-2l-2 2h-4v-2l2-1-1-2z" fill="#050D20"/>
<path transform="translate(189,737)" d="m0 0 6 2 8 3 22 3 35-2h12l-3 2-7 2-14 2-4 1h-29l-24-8-6 1-14 10-7 7h-2l-2 4-9 6-12 11-5 3 1-5 9-7 10-8 10-9 8-7 13-9z" fill="#986250"/>
<path transform="translate(186,473)" d="m0 0h11l12 3 3 3-1 5-5 5-4 3-4 2h-10l-6-7-1-2v-8l3-3z" fill="#090505"/>
<path transform="translate(772,882)" d="m0 0h7l7 4 3 6v8l-6 8-1 1h-8l-5-3-3-4v-11l3-6z" fill="#F4F4F3"/>
<path transform="translate(871,507)" d="m0 0 5 1-4 3-16 8-13 7-4 3-5-2-8-6-5-6 3-5 3-1 15 2 12 1 5-2 9-2z" fill="#D4252A"/>
<path transform="translate(1064,1430)" d="m0 0 3 1 6 10 12 6 13 3h30v3l-18 3h-26l-16-5-5-5-2-4v-9z" fill="#F0F0EE"/>
<path transform="translate(188,741)" d="m0 0 10 2 14 5 9 2h24l16-2h13l1 2-3 9-3 4h-2l-2-8-6-2-10 1-7 1-3 1-17 1h-2v-2l-4-1v-2h-5l-7-4-13-4-12 7-10 8-9 7-2 1 2-4 13-13 12-8z" fill="#0849A0"/>
<path transform="translate(1043,1098)" d="m0 0h5l-4 4-15 5-16 4-23 7-20 8-16 6-17 4-9 3-14 3h-5l1-3 52-15 23-8 27-9 28-8z" fill="#9C6A4C"/>
<path transform="translate(1596,794)" d="m0 0h1v7l-8 2-5 3-8 7h-2v2l-11 9-9 9-8 7-12 13-3 9-4 24-4 12-3 4h-2l-1 7 1 17-2 11-2 2 1-16-4-9 1-8 7-10 4-10 3-10 3-19 4-8 8-9 11-9 12-12 8-7 4-2 1-3h2l2-4 12-8z" fill="#047BB7"/>
<path transform="translate(209,254)" d="m0 0 1 3-2 9-2 14-2-4-23-2-23-4-26-7-5-3-1-3h7l23 7 23 4 9 1h11l3-6 1-7z" fill="#D0C6BA"/>
<path transform="translate(148,398)" d="m0 0 9 1 11 4-4 1-6 1-1 2 6 2-1 4 1 5h-3l-3-2-3 2-2 6-6 2-7-2-2-2v-7l8-10-2-2-3-1z" fill="#AE7C4A"/>
<path transform="translate(253,508)" d="m0 0 4 2 7 14v11l-4 6-8 6-15 6-22 5h-19l-5-2v-1l27-1v-2l18-4 10-6 7-4 4-3v-9l-1-9-2-2z" fill="#53221B"/>
<path transform="translate(367,628)" d="m0 0 1 3-5 3-2 4-4 2-1 26-8 15-9 11-6 5-9 6-8 12-4 11-2-1 3-10 6-11 8-11 6-4 8-9h2l2-5 7-10 1-6-2-22 3-6 10-1z" fill="#94614A"/>
<path transform="translate(1406,1110)" d="m0 0 4 1v6l-8 20-6 12-12 11-3 3-4 9-3-3-2-10 4-2 2-5 7-7 7-3 3-5 4-8 3-12 1-2h2z" fill="#0479B4"/>
<path transform="translate(1137,1400)" d="m0 0 10 5 4 4h8l8-5 4 1-2 7h12l1 4h-7l-1-1-19-3-11-1-53-1 2-4 7-5h2l1 7h7l10-6 4-1 2 2h8z" fill="#F5F5F5"/>
<path transform="translate(875,879)" d="m0 0h8l5 3 2 4v9l-6 7h-11l-5-4-1-2v-7l5-8z" fill="#F4F3F2"/>
<path transform="translate(330,716)" d="m0 0 3 1-5 5-16 11-14 10-12 11-9 9-5 4-1 2h-2l-1 4h-2l2-6 8-11 6-8 11-10 16-11 9-4z" fill="#090406"/>
<path transform="translate(169,620)" d="m0 0h4v8l-3 15-1 2-1 13h-11l-2-3-1-15 2-3h4l8-16z" fill="#638A39"/>
<path transform="translate(65,1169)" d="m0 0 9 3-1 5-4 3h-17l-5 6-7 1-5-3-4-5v-4l9-2 6 1 12-4z" fill="#06619C"/>
<path transform="translate(204,285)" d="m0 0h1l1 19-2 9v14l-1 5v15l-5 39-1 5 3 1-7 2v-12l5-43z" fill="#BF2928"/>
<path transform="translate(1310,1345)" d="m0 0 8 2-2 8-9 18h-2l-2 6-6 10-5 1v-9l8-16 9-19z" fill="#CFBEB1"/>
<path transform="translate(799,1408)" d="m0 0 5 2 2 6v3l9 3 2 1v6l12 11 5 5-8 4h-4l-16-20-6-10-1-3z" fill="#F2F1F0"/>
<path transform="translate(162,1143)" d="m0 0 2 2 1 18 1 1 2 24v9l-7 1-2-3-1-22-1-9v-12l3-7z" fill="#020205"/>
<path transform="translate(1339,842)" d="m0 0h6l6 5 2 3v6l-4 6-6 3h-7l-4-4-1-3v-7l3-5z" fill="#F4F4F3"/>
<path transform="translate(1538,1181)" d="m0 0h26v1l-22 2-15 2-14 4-3-1-1 3-7 3-2 1 2 3-7-2-7-5-3-5 21-4z" fill="#A06D4F"/>
<path transform="translate(1594,1294)" d="m0 0h3v126l-2-1-1-4z" fill="#020102"/>
<path transform="translate(579)" d="m0 0 1 2-1 4-8 3-20 4-40 14-24 10-21 9-23 11-4 2-3-1 26-13 3-2 9-3 1-1-2-2 12-5 7-2 11-2v-3l15-5 16-4 18-6 18-4 8-5z" fill="#DACCC5"/>
<path transform="translate(380,87)" d="m0 0m-3 1 3 1 1 2-19 12-38 28-13 10-3 3-3-1h2v-2l-2-1 10-8 14-11 5-5 9-7 18-10 4-1v-2l10-6z" fill="#EAE6E0"/>
<path transform="translate(1233,179)" d="m0 0 7 1 29 8 13 4 7 3 96 29 16 5 1 2-7-1-21-5-18-7-14-3-12-4-10-4-14-4-18-6-14-4-25-8-16-5z" fill="#9A6351"/>
<path transform="translate(1153,457)" d="m0 0h5l2 3-4 2-1 6 13 1 3 1h8l8 2 16 2 6 3 7 1 11 3 8 1 2 2 8 1 2 1-1 2-6-1-3 1-3-1-1-2-13-2-7-2-8-2v-2h-10l-15-3-10-1-6-2-21-2-2-1h-11l-18-1v-1l16-1h10l6-1v3h7l-1-4 2-4z" fill="#BE1F24"/>
<path transform="translate(1273,1174)" d="m0 0 1 2-14 26-8 14-6 10h-4l2-5 3-6-1-3 2-4 1-7 9-16 4-5 1 4h3z" fill="#040E21"/>
<path transform="translate(1493,736)" d="m0 0 4 2 11 9 6 7 2 6v27l-3 9 2 5-5-5-2-7 2-12v-11l-3-10-7-6-2-1-1-7z" fill="#4C1A16"/>
<path transform="translate(1303,1136)" d="m0 0h13l1 11h22v1l-23 1-1 3-2 1h-8l-5-1v-2h-8l1-5 8-8z" fill="#0E669C"/>
<path transform="translate(1137,153)" d="m0 0h8l40 12 25 8 29 8 16 5-3 1v2l-9-1-36-12-25-8-7-3-15-5-15-3-8-3z" fill="#C96239"/>
<path transform="translate(1074,131)" d="m0 0h6l7 3 31 9 41 13 54 16 20 6-4 1-29-8-28-9-34-10-16-5-11-1-15-5-10-2-3-1-1-4-8-2z" fill="#996451"/>
<path transform="translate(93,1011)" d="m0 0 8 1 3 4-2 4-7 4-5 1h-8l-10-2-1-6 7-4z" fill="#047BB7"/>
<path transform="translate(1398,354)" d="m0 0 2 1-8 16-10 16-11 16-5 5-12 16-6 7-5 2v-5l3-1 2-4 8-8 10-13 3-6 9-11 9-14 4-7h2l2-5z" fill="#C22025"/>
<path transform="translate(1316,1148)" d="m0 0h24l7 2 4 4 4 2h-24l-16-1h-17l-13 5-4 4-5 8-1-2 6-10 7-4 9-3 1-2-4-1h6v2h15z" fill="#0B142B"/>
<path transform="translate(1574,1238)" d="m0 0h17l4 4v3h2v15l-3-3-3-11h-62v-6l2 1 21 1h15l5-1z" fill="#481915"/>
<path transform="translate(190,506)" d="m0 0 2 3 1 7 6 10v2h12l7-2 3-3h5l-1 3-12 6-1 1h-12l-5-4v-2h-2v-3h-2l-1-2-2 3-2 6-2 2h-10l-6-5-2-6 4 2 3 4h7l4-4 4-8 1-9z" fill="#32241A"/>
<path transform="translate(1413,1148)" d="m0 0 3 1-1 4-4 7-3 7-16 30-8 16-8 17-2 2h-3l2-6 11-21 9-19 8-16 5-9z" fill="#E8E4E0"/>
<path transform="translate(793,1149)" d="m0 0 30 1-6 8-9 8h-5v-4l-3-1-1-5-6-1-2-1z" fill="#B45232"/>
<path transform="translate(878,1146)" d="m0 0h10l-1 2-13 3-13 2h-10l-11 1-5 3-8 10-8 7-8 5-3-1 5-5 8-7 7-7 7-9 29-2z" fill="#9C6A4C"/>
<path transform="translate(628)" d="m0 0h14l3 5 37 10 23 7 17 5 25 8 18 5-4 1-29-8-14-3v-2l-7-1-14-4-8-2-20-7-24-6-17-7z" fill="#9B6551"/>
<path transform="translate(1524,1239)" d="m0 0 6 3-3 9-8 16-9 11-9 10-3 3h-2l1-5 6-8 6-9h2l4-8h2l3-10 2-5z" fill="#060305"/>
<path transform="translate(764,1143)" d="m0 0 15 3 4 1-1 5-2 2v-4l-2-1 1 4h-2v-2h-7l-3 6v5l-2 5-1 6h-2l1 7 4 2v2l-9 4-3-1 6-25z" fill="#EA352E"/>
<path transform="translate(1267,487)" d="m0 0h17l-3 8h-2v2h-2v4h6l2 3 6 2 9 10 5 8-1 3-7-11-8-8-10-4-14-8-4-2-9-2-1-3 10 1z" fill="#BE1F24"/>
<path transform="translate(1327,1352)" d="m0 0h6l-2 6-6 14-10 19-2 6-3-1-2-3 1-7 9-16 4-8 3-7h2z" fill="#D1C0B2"/>
<path transform="translate(962,1373)" d="m0 0h27l23 3 3 2v3l-10-1-24-4h-16l-12 2-20 4h-5l-1-5 4-1h12l1-1h8l1-1z" fill="#A18F74"/>
<path transform="translate(175,454)" d="m0 0 6 2 6 5 1 3-1 4 2 1-6 4-1 2-6 1-5-3-6-7 1-5h2l3 4 6-2-1-3-5-1 1-4z" fill="#0E0505"/>
<path transform="translate(185,984)" d="m0 0h1v8l-8 30-4 16-1 12-3 12-2 9-2-1 1-14 2-9 2-13 6-28 5-16 2-5z" fill="#06669A"/>
<path transform="translate(245,446)" d="m0 0 7 1 5 3 1 7-4 8-10 1-4-4-1-8 4-5h2z" fill="#190C09"/>
<path transform="translate(1431,1052)" d="m0 0 3 3 1 3-14 26-8 9-9 4-16 2h-22l-6-1 1-2h18l16-1 7-3 10-3 6-8 6-12h2l1-4 1-2h2z" fill="#9C6A4C"/>
<path transform="translate(1283,1402)" d="m0 0 8 1 7 1 1 7-6 11h-6l-2-1v-2l-4-2v-13z" fill="#9CA987"/>
<path transform="translate(99,1027)" d="m0 0h12l4 4-1 7-7 3h-9l-6-3-2-5 5-4z" fill="#047BB7"/>
<path transform="translate(1405,1195)" d="m0 0 1 2-6 13-1 4 3-1-2 6-8 17-9-1 2-6 17-33z" fill="#D1C2B6"/>
<path transform="translate(430,179)" d="m0 0 2 1-30 20-10 9-5 2v2l-8 6-1 2h-2v2l-5 3 1-5 6-8 9-10 7-8 8-7 2 1-17 17-1 3 13-11 11-7 5-4 10-5z" fill="#D5252A"/>
<path transform="translate(1406,234)" d="m0 0 8 1 10 3 8 3 19 4 30 10 20 4 12 4v1l-8-1-29-6-9-3-12-3-25-7-15-6-9-3z" fill="#B85533"/>
<path transform="translate(1312,914)" d="m0 0h7l5 4v9l-5 6h-6l-5-3-1-2v-8z" fill="#F2F3F1"/>
<path transform="translate(2,507)" d="m0 0 21 6 11 2 8 3 7 3v2l2 1-4 1-27-7-7-2h-7l-1 2-2-1v7h-1z" fill="#0A4389"/>
<path transform="translate(206,465)" d="m0 0h7l4 2 1 2v7l-5 1-6-1-10-2h-11l-4 1 1-3 8-4z" fill="#9DA786"/>
<path transform="translate(1346,1133)" d="m0 0 4 1-6 8-1 1h-26l-1-1v-7l28-1z" fill="#030205"/>
<path transform="translate(1508,1269)" d="m0 0v3l-5 4-5 7-5 4-6 7-8 6-8 7-12 10-5 5-10 8-11 7-10 2 3-3 17-10 13-10 14-11 10-10 8-7 17-17z" fill="#0D162D"/>
<path transform="translate(135,1164)" d="m0 0 2 1-14 14-8 7-10 11-10 13-9 12-10 11-3 2h-56v-1l43-1 11-1 6-3 10-13 8-10 7-9 3-4h2l2-4 19-19 1-2 5-3z" fill="#0748A0"/>
<path transform="translate(1451,674)" d="m0 0 5 4 2-1 5 3 3 5 1 5 7 11h2l1 3 2 1v2h2l8 11 2 3v5h-2l1 6-4-4-10-19-12-19-11-12z" fill="#BE1F24"/>
<path transform="translate(54,1318)" d="m0 0h3l3 11 1 4 4 2 4 5 8 7 5 4 1 5-5-1-11-8-7-7-5-8-1-3z" fill="#080406"/>
<path transform="translate(89,733)" d="m0 0 2 1-9 10-2 6v19l3 10 6 10h-4l-7-9-3-11-1-7v-12l4-8 8-7z" fill="#618D39"/>
<path transform="translate(567,1282)" d="m0 0h1l1 14v11l-3 21-3 8-2-2 1 6-2 9-5 5-5 2-3-1 8-4 10-47 1-3z" fill="#0B142A"/>
<path transform="translate(909,1380)" d="m0 0h2l-1 3-15 5-18 10-12 5-9 8-4 8-1 3h10l2 1v4h-7l-6-4v-9l5-7 17-11 16-8z" fill="#B6AC97"/>
<path transform="translate(1594,761)" d="m0 0h3v4l-11 4-11 6-15 10-16 11-17 12-7 2 1-3 11-6 19-13 10-8 14-9 11-6z" fill="#0D8D94"/>
<path transform="translate(1324,1105)" d="m0 0h15l32 3-2 5-5 9-7 6-6 3-2-1 11-9 3-3 2-6-12-1-16-2-10-1v-2z" fill="#9E6E4B"/>
<path transform="translate(708,1080)" d="m0 0h67l22 1 2 2-25 1-69-2z" fill="#986749"/>
<path transform="translate(1387,1174)" d="m0 0 1 3-5 10-3 7-15 31-4 7h-4l2-5 9-19 8-15 8-16z" fill="#E5E3DE"/>
<path transform="translate(236,3)" d="m0 0 3 1-17 9-18 9-16 6-10 2 3-3 25-12 27-11z" fill="#DACCC4"/>
<path transform="translate(1511,901)" d="m0 0 1 2-2 3 1 9 3 8v7l-4 11-11 12-4 2 6-7 3-3-4 2-3 3-2-1 8-8 6-11v-8l-3-8 2-10z" fill="#0D162D"/>
<path transform="translate(114,719)" d="m0 0h6l-4 2-11 4-16 9-10 8-4 8v12l3 15 4 7 5 6v2h2l-1 2-8-7-4-8-3-10-1-8v-9l4-10 7-8 19-11z" fill="#0B8495"/>
<path transform="translate(725,31)" d="m0 0 7 1 21 6 8 2 12 2 27 8-4 2-4 1-15-4-8-4-12-4-18-4-14-5z" fill="#BB603A"/>
<path transform="translate(580)" d="m0 0h30l-1 4-3 2-21 2-8-2h2z" fill="#9B6653"/>
<path transform="translate(294,407)" d="m0 0h7l2 2 2 5 2 4-4 7h-2l-2-3v-3h-2l-2-2-7-3v2l-4-1 1-3 4-4z" fill="#9EA37F"/>
<path transform="translate(207,906)" d="m0 0 1 4-7 29-5 18-5 16-4 15-3-3 1-7 5-16 3-11h2l3-9 6-26z" fill="#0C8C94"/>
<path transform="translate(1544,1179)" d="m0 0h10v1l-16 2-32 2-20 4 2 3-10-4 1-4 26-2z" fill="#60904D"/>
<path transform="translate(163,1232)" d="m0 0h2l1 3 3 1 11 1-4 2-21 7h-4l-1-7 8-5z" fill="#0D162D"/>
<path transform="translate(1478,1033)" d="m0 0 7 1 6 3 1 3-5 12-1-3-7 2-5-5v-6l7-2v2h5l1-2-5-2-4-2z" fill="#A06D4E"/>
<path transform="translate(146,409)" d="m0 0 3 2 2-1h9l-1 3-7 3-6 1 2 6 1 2-5 1-5-2-2-2v-7z" fill="#D3C8BD"/>
<path transform="translate(1334,622)" d="m0 0 10 1 15 1 13 1 14 3 15 4 5 2-3 1-19-5-4-1-39-1-5-3z" fill="#BE1F24"/>
<path transform="translate(521,1256)" d="m0 0 9 2 23 10 10 6 4 8v19l-2 3-1-19-3-9-9-4-12-5-10-6-9-4z" fill="#0848A1"/>
<path transform="translate(1594,1294)" d="m0 0h3v26l-1 4-1 91h-1z" fill="#4C1A16"/>
<path transform="translate(187,738)" d="m0 0 4 1v2l-9 4-11 8-7 7h-2l-2 4-9 6-12 11-5 3 1-5 9-7 10-8 10-9 8-7 13-9z" fill="#845939"/>
<path transform="translate(1510,913)" d="m0 0 3 3 3 7v8l-3 10-7 9-11 9-14 10-15 10-2-1 17-12 18-14 7-7 4-6 3-9v-7z" fill="#06619B"/>
<path transform="translate(154,591)" d="m0 0v3l-6 7h-2l-1 4-8 11-4 5-6 13-3 7-2 2 1-8v-6l6-9 7-9 6-8 6-7z" fill="#B07945"/>
<path transform="translate(1114,1345)" d="m0 0h29v1h-7v2l-6 3-10 9-7 6h-2l-1 3h-2v-2h2l2-4 8-9v-4l-6-4z" fill="#EEECEA"/>
<path transform="translate(1419,1248)" d="m0 0 7 4 6 4 6 10 2 11v12l-3 12-6 13-1-3 2-8 5-11v-20l-2-5-3-3v-2l-4-1-3-6-3-2v-2l-4-2z" fill="#0D162D"/>
<path transform="translate(892,1473)" d="m0 0 2 1-9 6-10 5-3 1h-10l-13-6-5-3 4-2 4 2 7-1 9 7 7-1 14-8z" fill="#E4E2DB"/>
<path transform="translate(1459,981)" d="m0 0 2 1-2 3-5 3-3 4-1 17 1 11 2 8-6-1-4-3 1-5 2-6 2-23 8-7z" fill="#05619C"/>
<path transform="translate(156,765)" d="m0 0h2v2h-2v2l-8 7-8 8-14 11-9 4h-16l-9-3 3-1 8 2h10l8-3 10-7 5-5 10-9z" fill="#0F162C"/>
<path transform="translate(175,550)" d="m0 0 8 1 11 2h24v1l-7 1-18 1 3 1 18 1v1h-33l-6-3z" fill="#86603C"/>
<path transform="translate(1328,211)" d="m0 0h6l15 5 9 2 20 7 24 6 5 2-2 2-4-2-17-3-33-11-17-4-6-3z" fill="#CA633A"/>
<path transform="translate(707,1114)" d="m0 0 4 2 15 10 30 15-1 5-1-3-5-2-17-7-11-7-7-4v-2l-4-1-3-4z" fill="#9C6A4C"/>
<path transform="translate(1570,1175)" d="m0 0h17l10 1v3l-9-1h-23l-5 1-31 2h-18v-1l44-4z" fill="#0D8D94"/>
<path transform="translate(1128,147)" d="m0 0 9 2 39 12 25 7 22 7 10 3-4 1-29-8-28-9-34-10-10-3z" fill="#95664F"/>
<path transform="translate(98,535)" d="m0 0 10 2 6 1 41 11 5 2v2l3 1-7-1-22-6-10-2-6-2-19-6z" fill="#929C75"/>
<path transform="translate(136,716)" d="m0 0 3 1h-2l-1 4-8 3-13 3-13 6-7 4-2-1 6-5 14-6 7-6z" fill="#AB7845"/>
<path transform="translate(1444,1054)" d="m0 0 10 2 13 5 17 5v4l-5 1-8-4-11-4-11-5-5-3z" fill="#C0C2B3"/>
<path transform="translate(1245,1040)" d="m0 0h19l33 4-1 3-13-1-25-3h-12l-6-1v-1z" fill="#9A684B"/>
<path transform="translate(188,741)" d="m0 0 10 2 14 5v1l-8-1-13-4-12 7-10 8-9 7-2 1 2-4 13-13 12-8z" fill="#0D8D94"/>
<path transform="translate(272,743)" d="m0 0h5l1 1v5l5-2-6 7-3 2v-7h-13l-16 2h-24v-1l23-1 9-2 14-2z" fill="#805834"/>
<path transform="translate(275,763)" d="m0 0v3l-11 15-11 19h-3l1-5 10-19 6-8v3l-1 2h2l1-4h2l2-4z" fill="#040D20"/>
<path transform="translate(116,720)" d="m0 0 3 1h-2l-1 3-20 10-6 7-5 2 2-6 5-6 17-9z" fill="#95724B"/>
<path transform="translate(1189,473)" d="m0 0h7l9 2 6 2 5 1 11 3 8 1 2 2 8 1 2 1-1 2-6-1-3 1-3-1-1-2-13-2-7-2-8-2v-2h-10v-2l-6-1z" fill="#CD2328"/>
<path transform="translate(182,785)" d="m0 0h21l13 4 8 4 8 7 4 9-1 10-2-4-1-7-4-6-12-10-9-4-5-1-20-1z" fill="#047BB7"/>
<path transform="translate(145,408)" d="m0 0h15l3 1-1 4 1 5h-3l-3-2-3 2-2 6h-4l-2-2-1-5 7-2 7-3 1-2-9 1-3 1-2-2-6 4-2-1 4-4z" fill="#AE865B"/>
<path transform="translate(1492,1033)" d="m0 0 4 2 1 1v7l-6 13-3 13-7 8-3 3 2-9 4-2 3-12 7-18-1-4z" fill="#0C152C"/>
<path transform="translate(895,1346)" d="m0 0h11l4 2v3l-10-1-7 4-2 2-7-1-6-1 1-2z" fill="#DAD7CD"/>
<path transform="translate(953,1374)" d="m0 0h16l-4 2-12 2-20 4h-5l-1-5 4-1h12l1-1h8z" fill="#8D7F62"/>
<path transform="translate(1410,1090)" d="m0 0m-3 1 4 1v2l-7 3-16 2h-22l-6-1 1-2h18l16-1 7-3z" fill="#99674B"/>
<path transform="translate(571)" d="m0 0h8l-3 4-9 4-22 5-17 6h-5l4-2 39-14z" fill="#EDEAE5"/>
<path transform="translate(1167,1404)" d="m0 0 4 1-2 7h12l1 4h-7l-1-1-19-3-11-1v-1h5l1-3 1 2h8z" fill="#E5E4DE"/>
<path transform="translate(220,234)" d="m0 0 2 1-2 8-5 10h-2l-2 5-3 16-1 9-2 2 1-13 2-13 4-14 2-3h2l2-4z" fill="#C5643C"/>
<path transform="translate(610)" d="m0 0h10l-2 1-1 3-6 3-20 3h-13l-7-1 4-2 9-1 2 1 20-2 3-2z" fill="#B65332"/>
<path transform="translate(871,1423)" d="m0 0 6 1 5 2 3-2h15l-2 3-8 2h-25v-2l5-3z" fill="#DBD3CA"/>
<path transform="translate(120,1364)" d="m0 0 12 3 30 9 25 7 13 3v1l-9-1-23-5-41-13-7-3z" fill="#0D162D"/>
<path transform="translate(185,984)" d="m0 0h1v8l-8 30-3-2 1-11 5-16 3-8z" fill="#086E99"/>
<path transform="translate(231,831)" d="m0 0 1 3-6 14-10 31-5 19h-1l1-8 4-18-1-2 4-13 4-1 2-9 5-12z" fill="#0B8196"/>
<path transform="translate(1506,1183)" d="m0 0h16v1l-24 5h-4l1 4 1 2-5-1-5-5-1-2z" fill="#9A6352"/>
<path transform="translate(904,1086)" d="m0 0h26l-3 3h-51l-8-1v-1z" fill="#9F6C4F"/>
<path transform="translate(651,128)" d="m0 0m-5 1h5l-1 2-18 4-25 6-14 4-4-1 8-3 22-6 10-2 6-2z" fill="#D6262B"/>
<path transform="translate(1513,264)" d="m0 0 7 1 27 7 31 9v1l-10-1-12-4-16-3-16-5-11-4z" fill="#B95633"/>
<path transform="translate(695,21)" d="m0 0 15 2 18 6 26 8 11 3-4 1-29-8-14-3v-2l-7-1-16-5z" fill="#9E6750"/>
<path transform="translate(1099,1437)" d="m0 0h13l2 2 7 1v-2l7 2-1 2-5 1h-14l-14-1v-2z" fill="#E9E9E4"/>
<path transform="translate(261,748)" d="m0 0h13l1 2-3 9-3 2 1-3v-7l-18 1-14 1-19-1-4-2h30z" fill="#0D8D94"/>
<path transform="translate(160,551)" d="m0 0 9 2 12 5 5 4 1 6-6-2-10-7-10-4z" fill="#A97645"/>
<path transform="translate(227,473)" d="m0 0 4 2 11 11 2 5h2l10 14 3 6-1 2-4-4-1 2-9-17-11-14z" fill="#784E33"/>
<path transform="translate(1356,216)" d="m0 0 10 2 35 11 1 2-7-1-21-5-18-7z" fill="#9A6351"/>
<path transform="translate(1491,1055)" d="m0 0 1 3-4 17-8 13-5 3h-2l2-5 6-10 6-7 3-13z" fill="#047AB4"/>
<path transform="translate(1413,1148)" d="m0 0 3 1-1 4-4 7-3 7-7 14-3-2 3-9 5-9z" fill="#DCD7CE"/>
<path transform="translate(1398,1147)" d="m0 0 3 4-2 5-10 21-2-2-3 2 2-5 8-16z" fill="#D9D5CB"/>
<path transform="translate(162,559)" d="m0 0 6 1 9 5 1 5-4 4-4 1-4-6v-7z" fill="#0748A0"/>
<path transform="translate(209,254)" d="m0 0 1 3-3 12-2 3-17-1v-1l11-1 3-6 1-7z" fill="#9BA785"/>
<path transform="translate(371,1219)" d="m0 0 21 1 36 7 10 3-4 1-26-5-37-6z" fill="#0D162D"/>
<path transform="translate(1317,1143)" d="m0 0h27v5l-27-1z" fill="#C8CBC6"/>
<path transform="translate(1594,748)" d="m0 0h3v8l-5-1-3-1-5 1v2l-10 6-6 5-3-1 10-9 16-9z" fill="#BD2425"/>
<path transform="translate(1326,567)" d="m0 0 2 1 1 9 2 5 1 6 3 10h-4l-3-8-4-17v-3h2z" fill="#E7312D"/>
<path transform="translate(579)" d="m0 0 1 2-1 4-8 3-20 4-20 7-3-1 9-4 15-5 18-4 8-5z" fill="#DACCC4"/>
<path transform="translate(1299,1341)" d="m0 0h3l-1 5-8 15-8 16-3 3 3-9 7-16 4-8 2-5z" fill="#A9977F"/>
<path transform="translate(620)" d="m0 0h8l20 8 1 2-8-1-11-4-17 1 5-5z" fill="#CD653B"/>
<path transform="translate(118,628)" d="m0 0 2 1-1 3-1 13-2 7v9l4 16 3 6-1 2-6-12-2-9v-21l3-14z" fill="#0E8B94"/>
<path transform="translate(1228,178)" d="m0 0 25 7 2 2h-3v2l-9-1-12-5-4-4z" fill="#B65432"/>
<path transform="translate(367,628)" d="m0 0 1 3-5 3-2 4-4 2-1 26-2 2v-28l-1-8 1-1 10-1z" fill="#805834"/>
<path transform="translate(1315,1149)" d="m0 0h21l1 4-1 1h-19l-2-1z" fill="#020C1F"/>
<path transform="translate(277,397)" d="m0 0h10v2l5 1-4 3-14 1-4-4 3-2z" fill="#BE1F24"/>
<path transform="translate(1538,1181)" d="m0 0h26v1l-22 2-15 2-14 4-2-2 15-4-2-2z" fill="#A87249"/>
<path transform="translate(353,633)" d="m0 0h1l1 7v25l-4 8-6 4 2-5 5-7 1-6-2-22z" fill="#9C6650"/>
<path transform="translate(979,105)" d="m0 0 7 1 31 9v1l-11 1-12-5-6-2-9-4z" fill="#C55F38"/>
<path transform="translate(1e3 1359)" d="m0 0 4 1 10 4 2 2-1 2-8-1-13-2 1-3h2v-2z" fill="#E9E8E4"/>
<path transform="translate(1327,1352)" d="m0 0h6l-2 6-5 12-3 1-1-1 1-9 2-6h2z" fill="#DED7CD"/>
<path transform="translate(348,1405)" d="m0 0h37v1l-5 1-27 1h-16l-10-1v-1z" fill="#95614C"/>
<path transform="translate(1373,1107)" d="m0 0 1 2-7 12-3 5-1 3-13 6-2-3 12-7 7-9 4-8z" fill="#131824"/>
<path transform="translate(1015,1395)" d="m0 0h8l2 7h-18l-9-2v-1h8l7 1 1-4z" fill="#9F7658"/>
<path transform="translate(75,745)" d="m0 0 1 2-1 3v12l3 15 4 7 5 6v2h2l-1 2-8-7-4-8-3-10-1-8v-9z" fill="#118D94"/>
<path transform="translate(235,823)" d="m0 0 1 2-3 6h-2l-2 6-6 16-1 3-3 1 2-10 6-14 4-8z" fill="#076A9A"/>
<path transform="translate(849,1434)" d="m0 0 12 2 21 1v1h-15v2l-17 1-1-1z" fill="#E8E7E3"/>
<path transform="translate(294,407)" d="m0 0h7l2 2 1 10-1 2-3-2 1-3h-2l-1 2-3-5v-2l-3 2h-3v-3h2z" fill="#D5C9BF"/>
<path transform="translate(1489,958)" d="m0 0 2 1-11 9-24 16h-3l5-5 21-14z" fill="#071126"/>
<path transform="translate(1517,805)" d="m0 0 3 3 6 13v15l-3-2-4-16 2-2-4-9z" fill="#111824"/>
<path transform="translate(858,1405)" d="m0 0h2l-2 4-5 7-2 6h10l2 1v4h-7l-6-4v-9l5-7z" fill="#DCD2CB"/>
<path transform="translate(1421,1160)" d="m0 0h1l-1 7-5 11-7 13-4 2 2-6 8-16h2l1-5z" fill="#C9B3A2"/>
<path transform="translate(120,711)" d="m0 0 1 2 4-1 1 4-7 2h-5l-4 2-6 1 2-4 8-4z" fill="#037BB7"/>
<path transform="translate(1508,1269)" d="m0 0v3l-5 4-5 7-5 4-6 7-8 6-2-1 28-28z" fill="#0C152C"/>
<path transform="translate(1565,1177)" d="m0 0h23l3 1v2h-22l-1 1h-21v-1z" fill="#837447"/>
<path transform="translate(1433,1166)" d="m0 0 5 5 5 3 23 8-3 1-24-7h-6l-2 2z" fill="#0C152C"/>
<path transform="translate(1316,1148)" d="m0 0h24l7 2 3 5h-13l-1-3v-3h-20z" fill="#040E22"/>
<path transform="translate(380,87)" d="m0 0m-3 1 3 1 1 2-19 12-8 6h-2l1-3 6-4v-2l6-2v-2l10-6z" fill="#E7E2DD"/>
<path transform="translate(192,958)" d="m0 0 2 2-1 8-5 15-1 5-3-3 1-7 5-16z" fill="#0C8695"/>
<path transform="translate(204,278)" d="m0 0h1l-1 16-1 7-2-2-3 3 1-7v-14z" fill="#E9E5DF"/>
<path transform="translate(169,620)" d="m0 0h2l-1 7-5 12-4 3-1-4 6-14z" fill="#11162B"/>
<path transform="translate(143,402)" d="m0 0 1 2 2 1-8 10-1 2-3-1v-8l5-5z" fill="#C7683C"/>
<path transform="translate(66,1246)" d="m0 0 3 1-1 6-4 10h-3l-1-4 2-9z" fill="#020204"/>
<path transform="translate(24,174)" d="m0 0h5l13 19-1 2-7-6-7-9-3-4z" fill="#D7CAC1"/>
<path transform="translate(1373,1158)" d="m0 0h12l-4 5-4 9-3-3-2-10z" fill="#0749A0"/>
<path transform="translate(1447,990)" d="m0 0h1v15l-2 12-2 4v4h-2l1-12 1-5 1-14-2-1 3-1z" fill="#071025"/>
<path transform="translate(355,699)" d="m0 0 2 1-2 2-1 5-2-2-12 9-7 4-3-3 10-6 13-8z" fill="#030D20"/>
<path transform="translate(185,397)" d="m0 0h7l-3 2-2 1v2h-2l-1 3-9 7-5-1 1-2v-3-1l12-3z" fill="#AC6E4D"/>
<path transform="translate(1419,1248)" d="m0 0 7 4 6 4 6 10-1 3-5-5v-2l-4-1-3-6-3-2v-2l-4-2z" fill="#0C152C"/>
<path transform="translate(307,721)" d="m0 0h3l1 4-5 5-7 5h-3v-2h2l2-5 2-3h2l1-3z" fill="#BF633A"/>
<path transform="translate(2,137)" d="m0 0h4l-1 9-1 4v5l-4 2v-18z" fill="#AE7948"/>
<path transform="translate(1100,1401)" d="m0 0h2l1 7h7l4-1-2 3h-21l2-4z" fill="#F4F3F2"/>
<path transform="translate(764,1143)" d="m0 0 15 3 4 1-1 5-2 2v-4l-2-1 1 4h-2v-2h-6l-2-3 2-1-4-1-3 3z" fill="#BF5A36"/>
<path transform="translate(642)" d="m0 0h6l4 4 13 5 10 3-4 1-26-7z" fill="#618D39"/>
<path transform="translate(187,738)" d="m0 0 4 1v2l-9 4-11 8-7 7-2-1 11-12z" fill="#845938"/>
<path transform="translate(1411,1116)" d="m0 0h2l-2 6-5 10-9 20-2-3 8-16 6-16z" fill="#31292A"/>
<path transform="translate(1233,179)" d="m0 0 7 1 29 8 13 4-3 2-10-3-36-11z" fill="#8E6D4C"/>
<path transform="translate(1369,1108)" d="m0 0h2l-2 5-5 9-7 6-6 3-2-1 11-9 3-3 3-6v-3z" fill="#A2AB8D"/>
<path transform="translate(74,1231)" d="m0 0m-3 1h3l-1 3h-56v-1l43-1z" fill="#0848A1"/>
<path transform="translate(1445,1141)" d="m0 0 1 3-4 10-1 7-3 3-3 4-1-3 4-11z" fill="#0C8894"/>
<path transform="translate(867,1382)" d="m0 0h5l3 3-5 4-11 6-2-1 4-2 2-5h2z" fill="#D7D5CB"/>
<path transform="translate(167,621)" d="m0 0v3l-6 14h-5l-2 2 1-6 9-10z" fill="#916346"/>
<path transform="translate(131,544)" d="m0 0 9 1 17 5 3 1v2l3 1-7-1-24-7z" fill="#C8C2B2"/>
<path transform="translate(166,522)" d="m0 0 4 2 3 4h7l5-4-2 6-1 1 2 2h-10l-6-5z" fill="#5E4632"/>
<path transform="translate(1268,1407)" d="m0 0h1l1 42-5-5 1-10h2z" fill="#E4DDD8"/>
<path transform="translate(1031,1386)" d="m0 0 5 2 1 1v7l-4 4h-3z" fill="#E3DCD6"/>
<path transform="translate(1324,1105)" d="m0 0h15l9 1 1 3h-18l-4-1v-2z" fill="#9F6C4B"/>
<path transform="translate(941,1084)" d="m0 0h20v1l-13 2h-8l-10 1v-2h-11v-1z" fill="#976648"/>
<path transform="translate(172,1041)" d="m0 0h1v9l-3 12-2 9-2-1 1-14 3-8h2z" fill="#076C99"/>
<path transform="translate(1457,1041)" d="m0 0 5 2 1 3h2v3l4 2-7-1-10-3 1-2z" fill="#C5643C"/>
<path transform="translate(1311,539)" d="m0 0 6 1 7 1-2 4-3 1v2l-4 2-4-9z" fill="#BE1F24"/>
<path transform="translate(281,1214)" d="m0 0m-4 1 10 1v1l-35 5-10 2h-5l3-2 30-5z" fill="#081126"/>
<path transform="translate(328,697)" d="m0 0 3 1-7 5-8 12-4 11-2-1 3-10 6-11z" fill="#875B3C"/>
<path transform="translate(1555,272)" d="m0 0 8 1 25 7h9v3l-13-1-29-9z" fill="#618D39"/>
<path transform="translate(1207,174)" d="m0 0h7l14 4 3 5-11-3-13-4z" fill="#CC643A"/>
<path transform="translate(1530,1240)" d="m0 0h43l-1 2-5 1h-17l-19-1z" fill="#A45432"/>
<path transform="translate(1219,481)" d="m0 0h13l5 3 8 1 2 1-1 2-6-1-3 1-3-1-1-2-13-2z" fill="#C52226"/>
<path transform="translate(1367,1214)" d="m0 0h1l-1 7-6 11h-4l2-5 6-12z" fill="#DFDBD2"/>
<path transform="translate(386,288)" d="m0 0 1 2-3 6-1 5-9 12-2 2-1-2 6-10z" fill="#D5252A"/>
<path transform="translate(1137,153)" d="m0 0h8l27 8-4 2-16-5-9-2-6-2z" fill="#CB633A"/>
<path transform="translate(496,1246)" d="m0 0 13 1 2 3 15 4 1 3-6-1-25-9z" fill="#071126"/>
<path transform="translate(1504,950)" d="m0 0 2 1-11 11-11 7-5 3-2-1 15-11 10-8z" fill="#047BB7"/>
<path transform="translate(1509,935)" d="m0 0 1 3-4 8-9 9-2-1 9-9-4 2-3 3-2-1 13-13z" fill="#060F24"/>
<path transform="translate(301,145)" d="m0 0h3v2l-11 9-6 5h-2l2-4 9-9z" fill="#EAE4DF"/>
<path transform="translate(791,1150)" d="m0 0 1 2-7 8-3 3h-4l1-7 3-4 1 3 5-1z" fill="#4C1A16"/>
<path transform="translate(1164,469)" d="m0 0 14 1 9 2 8 3v1l-9-1-16-2-6-2z" fill="#C42025"/>
<path transform="translate(132,783)" d="m0 0 2 1-5 5-10 7-2 1h-11v-1l10-2 12-8z" fill="#92946F"/>
<path transform="translate(152,415)" d="m0 0 4 1-2 2-2 6h-4l-2-2-1-5z" fill="#A0AB8B"/>
<path transform="translate(204,285)" d="m0 0h1l1 19-3 9-2 1 2-20z" fill="#B93E32"/>
<path transform="translate(237)" d="m0 0h6l-4 3-24 9-6 2 3-3 21-9z" fill="#9CA987"/>
<path transform="translate(559,1336)" d="m0 0 3 4-2 9-5 5-5 2-3-1 8-4 3-14z" fill="#0D162D"/>
<path transform="translate(1379,1214)" d="m0 0 3 2-2 5-5 10-4 1 2-6z" fill="#D4D1C5"/>
<path transform="translate(1307,1103)" d="m0 0h10l11 1-1 3h-12l-9-1z" fill="#9B694B"/>
<path transform="translate(1410,1090)" d="m0 0m-3 1 4 1v2l-7 3-11 1 4-4z" fill="#996849"/>
<path transform="translate(252,785)" d="m0 0 1 2-7 12-6 13h-1l1-9 2-5h2l2-5z" fill="#0848A1"/>
<path transform="translate(1109,146)" d="m0 0h13l19 6v1l-10-1-22-5z" fill="#CD653B"/>
<path transform="translate(951,95)" d="m0 0 9 2 22 7v1h-7l-22-7v-2z" fill="#AD6449"/>
<path transform="translate(676,14)" d="m0 0 17 4 10 3v1h-12l-15-6z" fill="#9A6352"/>
<path transform="translate(1405,1134)" d="m0 0 2 2-1 6-5 9-2-1 1-7z" fill="#E8E6E0"/>
<path transform="translate(97,792)" d="m0 0 5 1h16l-2 2-3 2v1h-10l-5-2z" fill="#986A48"/>
<path transform="translate(127,622)" d="m0 0 2 2-1 8-4 9-2 2 1-8v-6z" fill="#A16D4E"/>
<path transform="translate(539,1359)" d="m0 0 2 1-5 5-11 4h-4-5l3-2 16-6z" fill="#0D162D"/>
<path transform="translate(1491,1055)" d="m0 0 1 3-3 13-6 8-6 5 2-5 5-7 3-3 3-13z" fill="#065F9C"/>
<path transform="translate(909,1380)" d="m0 0h2l-1 3-15 5-7 4-2-1-1-2z" fill="#959572"/>
<path transform="translate(953,1374)" d="m0 0h16l-4 2-12 2h-10l1-3h8z" fill="#C5C6B2"/>
<path transform="translate(1478,1033)" d="m0 0 7 1 6 3 1 3-4 8-2-1 1-9-5-2-4-2z" fill="#979573"/>
<path transform="translate(962,1373)" d="m0 0h27v3h-17l-10-2z" fill="#ABAA8D"/>
<path transform="translate(69,1239)" d="m0 0h4l-1 7-3 7-1-3v-3l-4 1 2-6z" fill="#020C1E"/>
<path transform="translate(892,1473)" d="m0 0 2 1-9 6-10 5-6 1v-2l10-4 10-6z" fill="#C6C2B4"/>
<path transform="translate(1594,748)" d="m0 0h3v8l-5-1-3-1-7 2 4-4z" fill="#BE1F24"/>
<path transform="translate(799,1408)" d="m0 0 5 2 2 6-5 4-2-4z" fill="#E4E2DB"/>
<path transform="translate(141,603)" d="m0 0 2 1-9 10-10 15-1-4 6-8 9-10z" fill="#839D76"/>
<path transform="translate(1157,1346)" d="m0 0 14 1 2 2-2 1-14 1-5-2v-1l5-1z" fill="#D2CFC2"/>
<path transform="translate(1463,1108)" d="m0 0 1 3-6 12-3 7-5 4 2-6 10-18z" fill="#0D8D94"/>
<path transform="translate(1114,1345)" d="m0 0h29v1l-19 1-2 4-8-5z" fill="#D4D3C6"/>
<path transform="translate(1299,1341)" d="m0 0h3l-1 5-6 11h-2l2-9 3-6z" fill="#CDC3B6"/>
<path transform="translate(829,521)" d="m0 0 7 2 3 1 7-1-4 4-5 2-9-6z" fill="#BC2124"/>
<path transform="translate(610)" d="m0 0h10l-2 1-1 3-6 3h-5z" fill="#B55332"/>
<path transform="translate(182,572)" d="m0 0 2 1-10 7-11 7h-2l-1 3-4 1v-2l15-10z" fill="#7F9B78"/>
<path transform="translate(1583,1179)" d="m0 0h14v6l-7-1v-2l-7-2z" fill="#97674F"/>
<path transform="translate(1444,1054)" d="m0 0 10 2 8 3-3 3-13-5z" fill="#B7AA95"/>
<path transform="translate(1336,435)" d="m0 0h2l-1 5-4 6-6-1 2-1 2-4 3-3h2z" fill="#BE1F24"/>
<path transform="translate(433,229)" d="m0 0 2 1-23 23v-3l5-6 5-4 5-5z" fill="#CE2328"/>
<path transform="translate(1479,1183)" d="m0 0h14v1l-8 1 3 6-10-4z" fill="#549899"/>
<path transform="translate(966,1111)" d="m0 0m-3 1h3v2l-23 7h-2v-2z" fill="#99674B"/>
<path transform="translate(1079,1433)" d="m0 0 6 1v2h7l2 1v3l-8-1-5-2z" fill="#DFDCD4"/>
<path transform="translate(1018,1398)" d="m0 0h3v4h-14l-9-2v-1h19z" fill="#BAB4A1"/>
<path transform="translate(771,1191)" d="m0 0 4 1-2 3 5 1v1h-13l-3-2z" fill="#926344"/>
<path transform="translate(1491,1186)" d="m0 0h2l2 7 1 2-5-1-5-5-1-2z" fill="#999C7B"/>
<path transform="translate(1452,1069)" d="m0 0 5 1-1 5-3 5-1-4-3 1 2-6z" fill="#C4B5A4"/>
<path transform="translate(895,1452)" d="m0 0h2l1 2v8l-4 1-1-1 1-9z" fill="#C9C9B7"/>
<path transform="translate(871,1423)" d="m0 0 6 1 3 3-1 1h-14l5-4z" fill="#EFEDEB"/>
<path transform="translate(135,1164)" d="m0 0 2 1-14 14-5 2 6-7 5-6 5-3z" fill="#074F9F"/>
<path transform="translate(813,1151)" d="m0 0h9l-4 6-6 6-2-1 4-4v-5z" fill="#C66139"/>
<path transform="translate(1327,1149)" d="m0 0h9l1 4-1 1h-9z" fill="#020102"/>
<path transform="translate(1373,1107)" d="m0 0 1 2-7 12-4 6-2-3 6-8 4-8z" fill="#201D2B"/>
<path transform="translate(1464,1026)" d="m0 0 6 2 3 3-3 1-4 1h-5l2-6z" fill="#917E5B"/>
<path transform="translate(154,585)" d="m0 0 2 1-11 9-8 9-1-2 2-4h2l2-4z" fill="#0848A1"/>
<path transform="translate(160,551)" d="m0 0 9 2 6 3-2 2-6-1-6-2z" fill="#9A9E7D"/>
<path transform="translate(533,165)" d="m0 0 3 1-12 7-9 4-3-1 19-10z" fill="#D6262B"/>
<path transform="translate(808,1384)" d="m0 0 2 1-7 11-3 6h-1v-6l6-9z" fill="#D1CCC2"/>
<path transform="translate(1508,1189)" d="m0 0h2l-1 3-7 3-2 1 2 3-7-2-1-2 12-5z" fill="#A77145"/>
<path transform="translate(1297,1141)" d="m0 0h2v7l-1 2h-6l1-5z" fill="#1498C6"/>
<path transform="translate(1302,1142)" d="m0 0 4 2 6-1 1 2-3 3h-9z" fill="#047BB7"/>
<path transform="translate(164,542)" d="m0 0 4 2 8 5v6l-3 1-2-5-7-8z" fill="#AE5A36"/>
<path transform="translate(1413,1148)" d="m0 0 3 1-1 4-4 7-4 1 2-5z" fill="#E8E2DE"/>
<path transform="translate(114,724)" d="m0 0m-1 1m-2 1h2v2l-11 5-7 4-2-1 6-5z" fill="#B07945"/>
<path transform="translate(163,683)" d="m0 0 3 4 1 6v16h-1l-2-19-1-3-3-2z" fill="#825C39"/>
<path transform="translate(227,473)" d="m0 0 4 2 11 11 2 5-4-2-8-10z" fill="#865B3B"/>
<path transform="translate(1321,452)" d="m0 0 2 1-2 5-4 1-1 3h-3l-1 2v-4z" fill="#BE1F24"/>
<path transform="translate(836,1452)" d="m0 0 3 1-9 6-2 7h-2l-1-6 8-6z" fill="#DBD9CF"/>
<path transform="translate(145,771)" d="m0 0 2 1-7 8-6 4 1-5 9-7z" fill="#8D6547"/>
<path transform="translate(191,743)" d="m0 0 2 2-10 6-6 4v-3l5-4z" fill="#0749A0"/>
<path transform="translate(1585,282)" d="m0 0 12 1v3h-8l-8-2z" fill="#AC6147"/>
<path transform="translate(1328,211)" d="m0 0h6l14 5v1l-10-1-10-4z" fill="#B65432"/>
<path transform="translate(500,25)" d="m0 0h3v3l-4 2-12 1 3-2z" fill="#E8E6E3"/>
<path transform="translate(1121,1438)" d="m0 0 7 2-1 2-5 1h-14v-1l8-1v-1h5z" fill="#D8D7CC"/>
<path transform="translate(1151,1363)" d="m0 0 2 3-15 12-2-1z" fill="#CCCABC"/>
<path transform="translate(1330,586)" d="m0 0 3 4 2 8h-4l-2-4v-6z" fill="#EA332E"/>
<path transform="translate(24,184)" d="m0 0 5 4 8 14-1 2-12-18z" fill="#DACCC4"/>
<path transform="translate(765,41)" d="m0 0 8 1 6 2v2l4 1-2 2h-4v-3l-5-1v-2l-7-1z" fill="#A55F3D"/>
<path transform="translate(1169,1412)" d="m0 0h12l1 4h-7l-1-1-7-1z" fill="#DBDBD1"/>
<path transform="translate(564,1330)" d="m0 0h1l-1 8-2 9-2 1 1-9-1-5 3-1z" fill="#020C1F"/>
<path transform="translate(145,408)" d="m0 0h10l4 2-11 2-2-2-6 4-2-1 4-4z" fill="#9CA987"/>
<path transform="translate(402,188)" d="m0 0 2 1-15 15-1-3 7-7z" fill="#CD2328"/>
<path transform="translate(581,6)" d="m0 0 4 1 3 3h-10l-7-1 4-2z" fill="#CD653B"/>
<path transform="translate(579)" d="m0 0 1 2-1 4-8 3-4-1 10-6z" fill="#D8CBC2"/>
<path transform="translate(852,1423)" d="m0 0h11v4h-7l-4-2z" fill="#E7E4DF"/>
<path transform="translate(1092,1344)" d="m0 0h12v4h-6l-6-2z" fill="#D6D4CE"/>
<path transform="translate(1468,1075)" d="m0 0 5 1-3 9-4 6-1-2 3-6z" fill="#9F8E6E"/>
<path transform="translate(188,972)" d="m0 0h1v7l-2 9-3-3 1-7 1-3h2z" fill="#0A7A97"/>
<path transform="translate(188,469)" d="m0 0 7 1 1 3-10 1-4 1 1-3z" fill="#966343"/>
<path transform="translate(1493,1183)" d="m0 0h7v2l-9 2h-6v-2z" fill="#618D39"/>
<path transform="translate(1447,990)" d="m0 0h1v15l-3-2v-9l-2-1 3-1z" fill="#0B1427"/>
<path transform="translate(1195,1368)" d="m0 0 1 3-1 2-2-1zm-3 5m-1 1m-2 1 2 1-1 3-6 4-5 3 1-3 8-7z" fill="#D9D5CC"/>
<path transform="translate(1442,1063)" d="m0 0h2l-1 7-3 4-1-2-2 1 2-6z" fill="#C9BEB0"/>
<path transform="translate(1245,1040)" d="m0 0 13 1v2h-12l-6-1v-1z" fill="#9F6C4F"/>
<path transform="translate(154,591)" d="m0 0v3l-6 7-3 2-3-1z" fill="#9F875E"/>
<path transform="translate(186,476)" d="m0 0h6l1 1v5h-4l-1-3h-2z" fill="#C1BDAC"/>
<path transform="translate(304,414)" d="m0 0 3 2-2 6-2 3h-2l-2-5 4-1z" fill="#9CA987"/>
<path transform="translate(1419,1248)" d="m0 0 7 4 4 3-1 4-3-1-1-3-3-2v-2l-4-2z" fill="#071025"/>
<path transform="translate(1405,1195)" d="m0 0 1 2-3 7-5 2 2-6 3-4z" fill="#BCA88F"/>
<path transform="translate(166,522)" d="m0 0 4 2 3 4 5 1-4 1v2l-4-2-4-6z" fill="#463429"/>
<path transform="translate(1418,1333)" d="m0 0v3l-5 7 2 1-6 2 2-4 4-7z" fill="#09142C"/>
<path transform="translate(1386,1203)" d="m0 0 1 4-5 9-2-1 2-6z" fill="#F0EEEC"/>
<path transform="translate(1484,1028)" d="m0 0h6l3 2v2l4 1 1 2v8h-1l-1-7-9-6z" fill="#0566A7"/>
<path transform="translate(1464,975)" d="m0 0 2 1-5 5-6 4-2-1 5-5z" fill="#061025"/>
<path transform="translate(1490,732)" d="m0 0 5 2 7 5v2h2l1 3-5-2-10-9z" fill="#BE1F24"/>
<path transform="translate(1123,465)" d="m0 0h9l3 1v2l-23-1v-1z" fill="#C52126"/>
<path transform="translate(1,116)" d="m0 0 2 1 1 9-2 2-2-1v-10z" fill="#B07945"/>
<path transform="translate(1050,1385)" d="m0 0 2 3-1 4-1 1-1 10h-1v-17z" fill="#E8E5E1"/>
<path transform="translate(1069,1342)" d="m0 0h7l-1 3-5 3-3 1 1-4z" fill="#B8BDA8"/>
<path transform="translate(1334,1267)" d="m0 0 4 3v3l-8 1z" fill="#E9E5E0"/>
<path transform="translate(1235,1388)" d="m0 0 3 3-4 4-6 5-2-1 8-9z" fill="#E1DED8"/>
<path transform="translate(927,1377)" d="m0 0h8l-2 5h-5z" fill="#D1C6BC"/>
<path transform="translate(941,92)" d="m0 0 7 1 3 1v2l2 1-9-1-3-3z" fill="#BE6741"/>
<path transform="translate(95,1361)" d="m0 0 6 1 4 4h-6l-4-2z" fill="#090405"/>
<path transform="translate(1379,1214)" d="m0 0 3 2-2 5-3 4-1-5z" fill="#DCDAD2"/>
<path transform="translate(771,1147)" d="m0 0 7 1 1 5h-2v-2h-6l-2-3z" fill="#B85131"/>
<path transform="translate(1431,1052)" d="m0 0 3 3 1 3-3 6-2-2z" fill="#9A694A"/>
<path transform="translate(278,752)" d="m0 0v3l-7 9-2-1 2-4 3-4z" fill="#161628"/>
<path transform="translate(220,234)" d="m0 0 2 1-2 5-2 3h-3l-2 5-1-3 2-3h2l2-4z" fill="#9D785D"/>
<path transform="translate(1389,229)" d="m0 0 9 1 9 3-2 2-4-2-10-2z" fill="#CD653B"/>
<path transform="translate(1412,1181)" d="m0 0 1 2-4 8-4 2 2-6 2-4z" fill="#C9AB97"/>
<path transform="translate(1411,1116)" d="m0 0h2l-2 6-2 4h-2l1-7z" fill="#222319"/>
<path transform="translate(1587,755)" d="m0 0 4 1-8 4-5 3-2-1 8-6z" fill="#9A6352"/>
<path transform="translate(122,541)" d="m0 0 10 2v3l-8-1-3-3z" fill="#A0A786"/>
<path transform="translate(187,522)" d="m0 0 1 3-2 6-1 1h-5l3-3 3-6z" fill="#0B0405"/>
<path transform="translate(1254,482)" d="m0 0h3l-1 2zm-2 2 3 1v3l-6 2-2-1v-2l5-2z" fill="#D22429"/>
<path transform="translate(303,406)" d="m0 0 5 1 1 2 4 1 1 5-5-2v-2l-3-1v-2l-3-1z" fill="#E32E2D"/>
<path transform="translate(1378,226)" d="m0 0 9 1 2 1v2l2 1-7-1-6-3z" fill="#BA5734"/>
<path transform="translate(1266,1436)" d="m0 0 2 3 2 2v8l-5-5z" fill="#D0CDC4"/>
<path transform="translate(1317,1242)" d="m0 0 2 2v3h-14v-1l9-2z" fill="#98624F"/>
<path transform="translate(1154,1042)" d="m0 0h7l2 2-9 1-12-1v-1z" fill="#916244"/>
<path transform="translate(122,790)" d="m0 0m-1 1m-2 1h2v3l-4 2h-11v-1l10-2z" fill="#979474"/>
<path transform="translate(173,747)" d="m0 0 2 1-9 10-4 2 6-8z" fill="#855A3A"/>
<path transform="translate(164,633)" d="m0 0h3l-2 6-4 3-1-4h2z" fill="#4C1A16"/>
<path transform="translate(289,408)" d="m0 0h3l-1 3-2-1v3l2 1h-3v2l-4-1 1-3z" fill="#A0AB8B"/>
<path transform="translate(1398,354)" d="m0 0 2 1-6 11h-3v-2h2l2-5z" fill="#D6262B"/>
<path transform="translate(1214,337)" d="m0 0 1 4-4 12h-2l2-8z" fill="#D6262B"/>
<path transform="translate(357,101)" d="m0 0 3 1-9 6h-3v-2z" fill="#F5F5F4"/>
<path transform="translate(870,1397)" d="m0 0 2 1 1 2-9 4-4 2-1-2z" fill="#9D9679"/>
<path transform="translate(57,1319)" d="m0 0h2l3 10 2 5-3-1-3-6z" fill="#020C1F"/>
<path transform="translate(281,1214)" d="m0 0m-4 1 10 1v1l-8 1h-9l3-2z" fill="#060F24"/>
<path transform="translate(1339,1106)" d="m0 0h9l1 3h-11z" fill="#9C6A4C"/>
<path transform="translate(172,1041)" d="m0 0h1v9l-2 6-2-2v-5l3-1z" fill="#0A7B97"/>
<path transform="translate(1445,1033)" d="m0 0h5l-2 5-3 1-3-5z" fill="#98694B"/>
<path transform="translate(372,627)" d="m0 0h1l-1 9h-4v-4h2z" fill="#0A0405"/>
<path transform="translate(1137,153)" d="m0 0h8l5 3v1l-7-1-6-2z" fill="#BB5834"/>
<path transform="translate(757,1180)" d="m0 0 2 1v3h3v2l-4 2-3-1z" fill="#B96038"/>
<path transform="translate(1409,1159)" d="m0 0h1l-1 7-4 1-2 1 2-4 1-3z" fill="#D2CCC0"/>
<path transform="translate(82,735)" d="m0 0 4 1-7 6-2 3-2-1 6-8z" fill="#0D8D94"/>
<path transform="translate(290,404)" d="m0 0h7l2 1-1 3h-6v-2h-2z" fill="#A88A5D"/>
<path transform="translate(965,101)" d="m0 0h7l10 3v1h-7l-10-3z" fill="#B46446"/>
<path transform="translate(848,1475)" d="m0 0 4 2v3l-6-1-2-3z" fill="#E1DDD5"/>
<path transform="translate(851,1395)" d="m0 0h5v2l-7 5-2-1 2-4h2z" fill="#D0D1C5"/>
<path transform="translate(924,1365)" d="m0 0 5 1v3h-7v-3z" fill="#94A27A"/>
<path transform="translate(1367,1214)" d="m0 0h1l-1 7-2 2-1-2-2 1 2-5z" fill="#D6CEC3"/>
<path transform="translate(1389,1197)" d="m0 0 2 1-2 6-2 2-2-4 2-4z" fill="#CAC7B7"/>
<path transform="translate(1421,1160)" d="m0 0h1l-1 7-1 3-3 1 1-5zm-6 11 2 1-2 1z" fill="#BCA188"/>
<path transform="translate(204,912)" d="m0 0 1 4-3 9-1-4 1-7z" fill="#07699A"/>
<path transform="translate(167,753)" d="m0 0m-1 1m-2 1 2 1-3 3-3 5-4 1 6-8z" fill="#805739"/>
<path transform="translate(172,620)" d="m0 0h1v8l-2 5-2-2 1-7z" fill="#9AA381"/>
<path transform="translate(1,603)" d="m0 0 14 2v1l-13 1z" fill="#047BB7"/>
<path transform="translate(326,601)" d="m0 0h3l-1 9-3-2-1-4z" fill="#CD653B"/>
<path transform="translate(258,185)" d="m0 0h2l-2 4-5 6h-2l2-5z" fill="#E8E2DC"/>
</svg>
