<svg width="379" height="80" viewBox="0 0 379 80" fill="none" xmlns="http://www.w3.org/2000/svg">
<g clip-path="url(#clip0_2514_117)">
<path d="M50.5155 27.3995H27.8745C26.9126 27.3995 26.1328 28.1793 26.1328 29.1411V51.7821C26.1328 52.7439 26.9126 53.5236 27.8745 53.5236H50.5155C51.4773 53.5236 52.2571 52.7439 52.2571 51.7821V29.1411C52.2571 28.1793 51.4773 27.3995 50.5155 27.3995Z" fill="white"/>
<path d="M24.3787 1.26996H1.73771C0.775841 1.26996 -0.00390625 2.0497 -0.00390625 3.01157V25.6525C-0.00390625 26.6143 0.775841 27.3941 1.73771 27.3941H24.3787C25.3405 27.3941 26.1202 26.6143 26.1202 25.6525V3.01157C26.1202 2.0497 25.3405 1.26996 24.3787 1.26996Z" fill="white"/>
<path d="M76.6295 1.27075H53.9885C53.0266 1.27075 52.2468 2.0505 52.2468 3.01236V25.6532C52.2468 26.6152 53.0266 27.3949 53.9885 27.3949H76.6295C77.5913 27.3949 78.3711 26.6152 78.3711 25.6532V3.01236C78.3711 2.0505 77.5913 1.27075 76.6295 1.27075Z" fill="white"/>
<path d="M24.3787 53.514H1.73771C0.775841 53.514 -0.00390625 54.2938 -0.00390625 55.2556V77.8966C-0.00390625 78.8584 0.775841 79.6381 1.73771 79.6381H24.3787C25.3405 79.6381 26.1202 78.8584 26.1202 77.8966V55.2556C26.1202 54.2938 25.3405 53.514 24.3787 53.514Z" fill="white"/>
<path d="M76.6295 53.514H53.9885C53.0266 53.514 52.2468 54.2938 52.2468 55.2556V77.8966C52.2468 78.8584 53.0266 79.6381 53.9885 79.6381H76.6295C77.5913 79.6381 78.3711 78.8584 78.3711 77.8966V55.2556C78.3711 54.2938 77.5913 53.514 76.6295 53.514Z" fill="white"/>
<path d="M148.789 5.0813H157.112L171.997 61.3872L186.98 5.0813H196.281L176.991 75.3903H167.786L152.804 20.651L137.919 75.3903H128.714L109.326 5.0813H119.02L134.002 61.3872L148.789 5.0813ZM213.9 76.2716C204.598 76.2716 197.058 70.7879 197.058 61.5831C197.058 51.399 204.989 47.1884 216.447 44.8382L228.883 42.2922V40.1379C228.883 34.2625 225.652 30.933 218.797 30.933C212.335 30.933 208.514 33.9688 206.949 39.6483L198.625 37.494C201.073 29.1704 208.612 23.1972 219.091 23.1972C230.549 23.1972 237.598 28.7787 237.598 39.7462V64.7165C237.598 68.046 239.654 69.1232 243.082 68.3397V75.3903C235.247 76.3694 230.743 74.509 229.667 69.6127C226.532 73.6275 220.854 76.2716 213.9 76.2716ZM228.883 57.9599V49.1467L218.895 51.3012C211.061 52.8679 205.773 55.0222 205.773 61.1913C205.773 66.1854 209.396 69.1232 214.978 69.1232C222.518 69.1232 228.883 64.5208 228.883 57.9599ZM261.43 5.0813V75.3903H252.617V5.0813H261.43ZM284.953 5.0813V75.3903H276.14V5.0813H284.953ZM320.132 76.4674C305.933 76.4674 296.14 65.598 296.14 49.8323C296.14 34.5562 305.835 23.1972 319.74 23.1972C334.036 23.1972 341.577 34.0666 341.577 48.2654V51.2032H304.562C305.051 61.9748 311.221 68.8293 320.132 68.8293C326.986 68.8293 331.882 65.1084 333.45 59.037L341.185 61.7789C338.052 70.8858 330.315 76.4674 320.132 76.4674ZM319.642 30.7372C312.199 30.7372 306.619 35.7314 305.051 44.4465H332.666C332.47 37.2001 328.553 30.7372 319.642 30.7372ZM353.918 63.1498V31.7165H345.987V24.1764H353.918V9.19408H362.633V24.1764H374.287V31.7165H362.633V61.7789C362.633 67.1647 365.278 68.1439 369.783 68.1439C371.838 68.1439 373.308 68.046 375.365 67.5564V75.0964C373.112 75.5861 370.566 75.8798 367.628 75.8798C358.913 75.8798 353.918 72.9422 353.918 63.1498Z" fill="white"/>
</g>
<defs>
<clipPath id="clip0_2514_117">
<rect width="378.776" height="80" fill="white"/>
</clipPath>
</defs>
</svg>
