<svg xmlns:dc="http://purl.org/dc/elements/1.1/" xmlns:cc="http://creativecommons.org/ns#" xmlns:rdf="http://www.w3.org/1999/02/22-rdf-syntax-ns#" xmlns:svg="http://www.w3.org/2000/svg" xmlns="http://www.w3.org/2000/svg" id="svg2" xml:space="preserve" width="1066.6667" height="1066.6667" viewBox="0 0 1066.6667 1066.6667">
                                      <metadata></metadata>
                                      <defs id="defs6">
                                        <clipPath clipPathUnits="userSpaceOnUse" id="clipPath18">
                                          <path d="M 0,800 H 800 V 0 H 0 Z" id="path16"></path>
                                        </clipPath>
                                      </defs>
                                      <g id="g10" transform="matrix(1.3333333,0,0,-1.3333333,0,1066.6667)">
                                        <g id="g12">
                                          <g id="g14" clip-path="url(#clipPath18)">
                                            <g id="g20" transform="translate(266.6621,725.9058)">
                                              <path d="m 0,0 c -9.943,1.533 -10.362,1.712 -5.684,2.427 8.968,1.371 30.142,-0.497 44.733,-3.945 34.064,-8.048 65.06,-28.664 98.146,-65.277 l 8.79,-9.727 12.575,2.009 c 52.974,8.461 106.866,1.736 151.94,-18.96 12.399,-5.694 31.953,-17.027 34.396,-19.94 0.777,-0.928 2.205,-6.902 3.172,-13.278 3.347,-22.058 1.671,-38.966 -5.113,-51.594 -3.696,-6.872 -3.902,-9.05 -1.417,-14.931 1.983,-4.693 7.509,-8.166 12.982,-8.159 11.199,0.015 23.254,18.012 28.843,43.054 l 2.221,9.946 4.394,-4.948 c 24.111,-27.152 43.051,-64.181 46.303,-90.538 l 0.846,-6.872 -4.05,6.247 c -6.974,10.751 -13.986,18.069 -22.959,23.971 -16.18,10.639 -33.285,14.26 -78.584,16.633 -40.916,2.142 -64.072,5.615 -87.033,13.057 -39.066,12.66 -58.761,29.52 -105.166,90.033 -20.612,26.878 -33.352,41.749 -46.024,53.725 C 64.515,-19.855 36.22,-5.584 0,0" style="fill: #ffffff; fill-opacity: 1; fill-rule: nonzero; stroke: none" id="path22"></path>
                                            </g>
                                            <g id="g24" transform="translate(620.7852,665.8936)">
                                              <path d="m 0,0 c 1.03,18.011 3.484,29.89 8.428,40.739 1.957,4.294 3.786,7.809 4.071,7.809 0.28,0 -0.57,-3.169 -1.893,-7.043 C 7.017,30.977 6.424,16.575 8.898,-0.18 c 3.141,-21.259 4.928,-24.327 27.539,-47.292 10.601,-10.771 22.937,-24.356 27.405,-30.189 l 8.133,-10.605 -8.133,7.579 c -9.941,9.269 -32.804,27.344 -37.854,29.928 -3.389,1.733 -3.891,1.703 -5.98,-0.364 -1.925,-1.903 -2.332,-4.765 -2.596,-18.292 -0.418,-21.082 -3.31,-34.613 -10.285,-48.143 -3.775,-7.318 -4.373,-5.756 -0.957,2.504 2.549,6.167 2.808,8.878 2.792,29.286 -0.042,41.006 -4.939,50.865 -33.661,67.752 -7.276,4.278 -19.268,10.448 -26.645,13.711 -7.377,3.264 -13.236,6.107 -13.023,6.319 0.813,0.804 28.823,-7.322 40.101,-11.633 16.773,-6.411 19.538,-7.242 21.575,-6.469 1.369,0.519 2.03,4.471 2.691,16.088" style="fill: #ffffff; fill-opacity: 1; fill-rule: nonzero; stroke: none" id="path26"></path>
                                            </g>
                                            <g id="g28" transform="translate(285.9771,595.7446)">
                                              <path d="m 0,0 c -20.186,27.622 -32.676,69.971 -29.972,101.63 l 0.836,9.797 4.595,-0.834 C -15.912,109.029 -1.035,103.525 5.932,99.319 25.05,87.78 33.327,72.586 41.747,33.573 44.213,22.145 47.449,9.213 48.938,4.835 c 2.397,-7.047 11.455,-23.507 18.82,-34.197 5.304,-7.699 1.781,-11.347 -9.945,-10.295 C 39.905,-38.051 15.648,-21.412 0,0" style="fill: #ffffff; fill-opacity: 1; fill-rule: nonzero; stroke: none" id="path30"></path>
                                            </g>
                                            <g id="g32" transform="translate(596.2979,390.1719)">
                                              <path d="m 0,0 c -94.334,37.75 -127.559,70.519 -127.559,125.808 0,8.136 0.283,14.794 0.625,14.794 0.344,0 3.995,-2.685 8.111,-5.968 19.13,-15.25 40.551,-21.763 99.851,-30.362 34.898,-5.06 54.536,-9.147 72.652,-15.118 57.576,-18.979 93.199,-57.494 101.696,-109.955 2.47,-15.243 1.02,-43.829 -2.982,-58.895 -3.157,-11.9 -12.801,-33.349 -15.361,-34.174 -0.708,-0.228 -1.401,2.474 -1.586,6.15 -0.968,19.699 -10.982,38.876 -27.802,53.242 C 88.52,-38.145 62.827,-25.141 0,0" style="fill: #ffffff; fill-opacity: 1; fill-rule: nonzero; stroke: none" id="path34"></path>
                                            </g>
                                            <g id="g36" transform="translate(530.0732,374.4883)">
                                              <path d="m 0,0 c -1.183,6.991 -3.232,15.918 -4.556,19.839 l -2.407,7.128 4.471,-4.988 C 3.695,15.077 8.585,6.245 12.729,-5.519 c 3.162,-8.978 3.518,-11.648 3.494,-26.238 -0.025,-14.323 -0.419,-17.326 -3.339,-25.408 -4.605,-12.742 -10.321,-21.778 -19.91,-31.478 -17.233,-17.432 -39.387,-27.083 -71.358,-31.085 -5.557,-0.693 -21.755,-1.867 -35.995,-2.601 -35.887,-1.857 -59.506,-5.69 -80.729,-13.098 -3.051,-1.062 -5.775,-1.713 -6.052,-1.438 -0.859,0.851 13.591,9.412 25.526,15.128 16.829,8.058 33.582,12.452 71.116,18.665 18.541,3.072 37.69,6.795 42.552,8.276 C -16.049,-80.804 7.554,-44.695 0,0" style="fill: #ffffff; fill-opacity: 1; fill-rule: nonzero; stroke: none" id="path38"></path>
                                            </g>
                                            <g id="g40" transform="translate(573.3174,298.1562)">
                                              <path d="m 0,0 c -12.533,26.779 -15.412,52.636 -8.545,76.748 0.735,2.577 1.916,4.686 2.627,4.686 0.71,0 3.668,-1.589 6.571,-3.531 5.778,-3.865 17.363,-10.373 48.221,-27.096 38.51,-20.87 60.469,-37.028 75.401,-55.49 13.077,-16.167 21.166,-34.584 25.063,-57.04 2.205,-12.716 0.91,-43.321 -2.374,-56.128 -10.353,-40.386 -34.417,-72.106 -68.738,-90.619 -5.029,-2.712 -9.545,-4.938 -10.032,-4.949 -0.491,-0.01 1.344,4.622 4.073,10.29 11.542,23.99 12.859,47.324 4.129,73.297 C 71.05,-113.927 60.152,-94.521 38.15,-61.723 12.563,-23.594 6.293,-13.446 0,0" style="fill: #ffffff; fill-opacity: 1; fill-rule: nonzero; stroke: none" id="path42"></path>
                                            </g>
                                            <g id="g44" transform="translate(218.9834,153.667)">
                                              <path d="m 0,0 c 35.007,29.378 78.565,50.248 118.241,56.656 17.1,2.761 45.585,1.666 61.42,-2.363 25.38,-6.456 48.085,-20.918 59.893,-38.145 11.539,-16.835 16.49,-31.508 21.644,-64.154 2.034,-12.881 4.245,-25.809 4.914,-28.738 3.871,-16.921 11.405,-30.441 20.74,-37.235 14.825,-10.788 40.355,-11.454 65.469,-1.719 4.262,1.655 7.962,2.797 8.221,2.538 0.915,-0.899 -11.733,-9.312 -20.654,-13.742 -12.005,-5.959 -21.551,-8.265 -34.236,-8.265 -23.001,0 -42.097,11.627 -58.032,35.343 -3.136,4.669 -10.183,18.643 -15.662,31.064 -16.824,38.139 -25.132,49.756 -44.666,62.473 -17,11.061 -38.925,13.045 -55.417,5.008 -21.666,-10.56 -27.711,-38.076 -12.194,-55.515 6.168,-6.933 17.668,-12.907 27.072,-14.07 17.594,-2.179 32.713,11.125 32.713,28.78 0,11.463 -4.433,18.004 -15.593,23.012 -15.242,6.837 -31.625,-1.158 -31.547,-15.387 0.034,-6.07 2.693,-9.878 8.813,-12.633 3.927,-1.765 4.018,-1.903 0.816,-1.242 -13.984,2.882 -17.261,19.638 -6.017,30.763 13.5,13.351 41.416,7.461 51.002,-10.771 4.028,-7.656 4.495,-22.906 0.984,-32.111 -7.858,-20.611 -30.771,-31.445 -54.015,-25.55 -15.825,4.019 -22.269,8.365 -41.349,27.898 -33.154,33.946 -46.025,40.524 -93.823,47.937 l -9.159,1.422 z" style="fill: #ffffff; fill-opacity: 1; fill-rule: nonzero; stroke: none" id="path46"></path>
                                            </g>
                                            <g id="g48" transform="translate(114.9858,242.208)">
                                              <path d="m 0,0 c 5.039,8.872 2.362,20.272 -6.067,25.846 -7.964,5.26 -20.337,2.781 -20.337,-4.077 0,-2.094 1.165,-3.617 3.789,-4.96 4.419,-2.258 4.74,-4.801 1.263,-9.994 -3.521,-5.261 -3.237,-9.887 0.802,-13.028 C -14.041,-11.279 -4.826,-8.492 0,0 M -51.567,518.988 C 59.153,385.425 135.412,330.319 143.886,318.677 c 6.997,-9.613 4.364,-18.256 -7.623,-25.029 -6.666,-3.766 -20.371,-7.582 -27.233,-7.582 -7.76,0 -10.425,2.976 -10.425,2.976 -4.5,4.242 -7.034,3.5 -30.143,44.269 -32.082,49.478 -58.931,90.522 -59.663,91.21 -1.694,1.589 -1.665,1.536 56.392,-101.71 9.38,-21.519 1.866,-29.418 1.866,-32.483 0,-6.234 -1.712,-9.512 -9.45,-18.091 C 44.707,257.934 38.94,241.862 34.777,208.601 30.111,171.314 16.988,144.977 -19.378,99.898 -40.666,73.512 -44.149,68.675 -49.52,58.04 -56.286,44.646 -58.146,37.146 -58.9,20.235 c -0.797,-17.882 0.755,-29.436 6.251,-46.531 4.812,-14.969 9.835,-24.851 22.676,-44.616 11.081,-17.058 17.462,-29.737 17.462,-34.697 0,-3.945 0.758,-3.951 17.929,-0.096 41.094,9.222 74.462,25.444 93.228,45.325 11.615,12.305 14.342,19.1 14.43,35.956 0.058,11.03 -0.332,13.341 -3.332,19.686 -4.882,10.327 -13.771,18.914 -33.363,32.222 -25.67,17.443 -36.634,31.484 -39.662,50.794 -2.485,15.844 0.398,27.024 14.598,56.606 14.699,30.619 18.342,43.668 20.806,74.532 1.591,19.939 3.795,27.803 9.559,34.115 6.012,6.582 11.424,8.812 26.301,10.832 24.256,3.293 39.702,9.531 52.397,21.158 11.013,10.087 15.621,19.806 16.328,34.437 l 0.538,11.09 -6.155,7.132 c -22.288,25.829 -237.584,211.112 -238.956,211.112 -0.293,0 7.041,-9.137 16.298,-20.304" style="fill: #ffffff; fill-opacity: 1; fill-rule: nonzero; stroke: none" id="path50"></path>
                                            </g>
                                            <g id="g52" transform="translate(337.8525,467.1938)">
                                              <path d="M 0,0 C 3.999,5.647 2.249,11.751 -4.552,15.879 -17.504,23.74 -37.09,17.235 -37.09,5.074 c 0,-6.053 10.214,-12.658 19.576,-12.658 6.232,0 14.76,3.693 17.514,7.584 M -30.314,23.56 C -41.701,20.083 -52.77,8.089 -56.196,-4.488 c -2.091,-7.673 -0.905,-21.132 2.226,-25.289 5.058,-6.713 9.95,-8.482 23.195,-8.39 25.931,0.18 48.475,11.234 51.096,25.053 2.148,11.327 -7.753,27.026 -21.391,33.917 -7.037,3.555 -22.003,4.966 -29.244,2.757" style="fill: #ffffff; fill-opacity: 1; fill-rule: nonzero; stroke: none" id="path54"></path>
                                            </g>
                                          </g>
                                        </g>
                                      </g>
                                    </svg>