<?xml version="1.0" encoding="UTF-8"?>
<!DOCTYPE svg PUBLIC "-//W3C//DTD SVG 1.1//EN" "http://www.w3.org/Graphics/SVG/1.1/DTD/svg11.dtd">
<!-- Creator: CorelDRAW -->
<svg xmlns="http://www.w3.org/2000/svg" xml:space="preserve" width="257.135mm" height="58.3128mm" version="1.1" style="shape-rendering:geometricPrecision; text-rendering:geometricPrecision; image-rendering:optimizeQuality; fill-rule:evenodd; clip-rule:evenodd"
viewBox="0 0 25542.98 5792.6"
 xmlns:xlink="http://www.w3.org/1999/xlink"
 xmlns:xodm="http://www.corel.com/coreldraw/odm/2003">
 <defs>
  <style type="text/css">
   <![CDATA[
    .str0 {stroke:#1D8EEE;stroke-width:315.39;stroke-miterlimit:22.9256}
    .fil1 {fill:none}
    .fil0 {fill:#1243BA}
    .fil2 {fill:#1243BA;fill-rule:nonzero}
    .fil3 {fill:#1D8EEE;fill-rule:nonzero}
   ]]>
  </style>
 </defs>
 <g id="Слой_x0020_1">
  <metadata id="CorelCorpID_0Corel-Layer"/>
  <g id="_2006315398752">
   <path class="fil0" d="M8021.48 3141.36l865.66 -1459.49 487.87 0 6.93 2428.88 -562.24 0 -2.93 -1372.86 -667.36 1120.8 -273.79 0 -663.57 -1091.11 0 1343.18 -562.22 0 0 -2428.88 491.22 0 880.42 1459.49zm3458.63 458.44l-0.04 0 -192.28 -463.45 0.34 0 -344.77 -832.31 -346.15 832.31 0.08 0 -404.53 971.48 0.41 0.13 -1.16 2.78 -614.54 0 1082.61 -2428.88 573.84 0 1086.07 2428.88 -627.93 0 -185.62 -447.4 -26.33 -63.55zm2609.17 -54.51l0 -708.7 548.59 0 0 1000.72 -8.84 6.67c-137.84,103.98 -293.41,178.13 -458.25,228.34 -168.73,51.41 -342.61,79.31 -519.13,79.31 -180.27,0 -358.55,-27.36 -527.38,-91.73 -156.61,-59.71 -298.13,-146.29 -419.57,-261.84 -119.6,-113.79 -212.14,-247.46 -277.59,-399.03 -68.92,-159.58 -98.92,-329.34 -98.92,-502.72 0,-173.39 30,-343.14 98.91,-502.73 65.65,-152.01 158.89,-285.56 279.35,-399.1 122.79,-115.71 265.38,-202.13 422.98,-261.79 170.46,-64.53 350.61,-91.7 532.42,-91.7 198.35,0 395.32,30.82 579.11,107.29 169.25,70.42 315.91,173.9 435.77,312.56l14.07 16.29 -386.16 356.44 -15.09 -15.88c-78.83,-82.98 -170.09,-151.93 -275.46,-197.58 -103.23,-44.74 -212.71,-64.6 -324.97,-64.6 -105.39,0 -210.12,15.43 -308.88,53.06 -89.9,34.25 -170.68,84.27 -239.29,151.77 -68.07,66.94 -119.4,145.71 -155.05,234.3 -38.67,96.11 -54.61,198.4 -54.61,301.68 0,102.31 16.3,203.1 54.61,298.26 35.83,89.05 87.34,168.3 155.18,236.14 67.99,68.01 147.8,118.78 237.54,153.38 97.07,37.43 199.92,53.01 303.68,53.01 106.43,0 210.56,-17.29 311.32,-51.62 32.78,-11.16 64.71,-24.68 95.65,-40.18zm2656.94 -456.81l0 -1406.62 589.46 0 0 2428.88 -485.77 0 -1156.08 -1407.38 0 1407.38 -589.46 0 0 -2428.88 489.2 0 1152.64 1406.62zm1703.34 -446.04l1107.07 0 0 473.67 -1107.07 0 0 507.36 1297.81 0 0 487.28 -1890.69 0 0 -1468.82 592.87 0 0 0.52zm-592.87 -476.13l0 -484.45 1846.41 0 0 484.45 -1846.41 0zm2779.56 9.65l-763.01 0 0 -494.09 2122.32 0 0 494.09 -763.03 0 0 1934.79 -596.29 0 0 -1934.79zm1611.2 1934.79l0 -2428.88 596.28 0 0 2428.88 -596.28 0zm2280.63 40.88c-178.26,0 -353.71,-28.1 -520.56,-91.73 -156.23,-59.56 -297.33,-146.03 -417.95,-261.93 -118.7,-114.03 -210.54,-247.79 -275.8,-398.94 -68.93,-159.58 -98.93,-329.34 -98.93,-502.72 0,-173.39 30,-343.14 98.91,-502.73 65.45,-151.59 158,-285.25 277.6,-399.03 121.07,-115.19 261.81,-201.91 417.82,-261.83 167.18,-64.21 343.66,-91.73 522.32,-91.73 195.53,0 388.73,31.8 569.09,109.08 168.89,72.39 312.65,179.34 429.12,321.44l13.29 16.21 -386.42 356.68 -15.04 -17.13c-74.6,-85 -162.31,-156.09 -265.18,-204.02 -100.23,-46.71 -207.2,-67.75 -317.62,-67.75 -102.16,0 -203.08,15.74 -298.5,52.99 -88.35,34.49 -167.14,84.64 -234.21,151.71 -67.23,67.23 -117.99,146.2 -153.49,234.42 -38.67,96.11 -54.61,198.4 -54.61,301.68 0,103.28 15.93,205.57 54.61,301.68 35.49,88.2 86.25,167.19 153.49,234.42 67.06,67.06 145.86,117.24 234.21,151.71 95.41,37.22 196.34,52.98 298.5,52.98 110.42,0 217.39,-21.05 317.62,-67.76 103.49,-48.22 191.01,-120.86 265,-207.21l15.01 -17.51 386.63 356.87 -13.29 16.2c-116.59,142.23 -260.37,249.67 -429.02,323.09 -181.1,78.84 -375.84,110.85 -572.61,110.85z"/>
   <circle class="fil1 str0" cx="2896.3" cy="2896.3" r="2738.6"/>
   <path class="fil2" d="M1557.9 4236.75c-4.34,-4.25 -8.68,-8.51 -12.98,-12.82 -326.63,-326.63 -489.95,-754.79 -489.95,-1182.94 0,-428.14 163.32,-856.3 489.95,-1182.93l0.88 0.88 952.43 -944.83 439.07 442.54 -950.69 943.1 0.83 0.83c-204.47,204.48 -306.71,472.49 -306.71,740.41 0,267.93 102.24,535.93 306.71,740.42 3.51,3.5 7.03,6.97 10.57,10.41l-440.11 444.94z"/>
   <path class="fil3" d="M3910.8 4223.93c-326.64,326.63 -754.79,489.96 -1182.94,489.95 -422.5,0 -845.01,-159.07 -1169.96,-477.12l440.11 -444.94c203.1,197.54 466.5,296.3 729.85,296.3 267.94,0 535.92,-102.24 740.41,-306.71l0.84 0.83 944.12 -949.95 440.8 440.81 -944.13 949.94 0.9 0.89z"/>
  </g>
 </g>
</svg>
