<svg xmlns="http://www.w3.org/2000/svg" version="1.1" width="636px" height="499px" style="shape-rendering:geometricPrecision; text-rendering:geometricPrecision; image-rendering:optimizeQuality; fill-rule:evenodd; clip-rule:evenodd" xmlns:xlink="http://www.w3.org/1999/xlink">
<g><path style="opacity:0.873" fill="#f1f5f9" d="M -0.5,256.5 C -0.5,246.167 -0.5,235.833 -0.5,225.5C 27.0074,220.826 43.5074,204.826 49,177.5C 49.0629,146.473 49.7296,115.473 51,84.5C 57.588,50.5761 76.7547,26.7427 108.5,13C 124,7.2504 140,5.08374 156.5,6.5C 156.5,16.8333 156.5,27.1667 156.5,37.5C 126.392,34.6377 103.559,45.9711 88,71.5C 84.2493,79.0856 81.9159,87.0856 81,95.5C 80.6667,123.833 80.3333,152.167 80,180.5C 76.1174,205.782 63.9507,225.948 43.5,241C 63.9507,256.052 76.1174,276.218 80,301.5C 80.3333,333.833 80.6667,366.167 81,398.5C 85.7419,429.576 103.242,449.409 133.5,458C 138.448,459.05 143.448,459.55 148.5,459.5C 148.5,469.833 148.5,480.167 148.5,490.5C 112.187,489.918 84.0203,474.251 64,443.5C 55.9365,430.309 51.2698,415.975 50,400.5C 50.1561,368.112 49.3228,335.945 47.5,304C 48.2547,300.128 47.7547,296.295 46,292.5C 37.3788,272.457 21.8788,260.457 -0.5,256.5 Z"/></g>
<g><path style="opacity:0.871" fill="#f1f5f9" d="M 635.5,225.5 C 635.5,235.833 635.5,246.167 635.5,256.5C 608.45,261.05 591.95,276.717 586,303.5C 585.937,338.191 585.27,372.857 584,407.5C 573.914,454.594 545.414,482.094 498.5,490C 494.179,490.499 489.846,490.666 485.5,490.5C 485.5,480.167 485.5,469.833 485.5,459.5C 516.35,458.475 537.85,443.808 550,415.5C 551.965,409.639 553.298,403.639 554,397.5C 554.041,363.133 554.708,328.8 556,294.5C 560.981,272.017 572.814,254.184 591.5,241C 570.832,226.518 558.665,206.685 555,181.5C 554.667,152.833 554.333,124.167 554,95.5C 549.479,63.9654 531.312,44.7987 499.5,38C 492.586,37.1888 485.752,37.3555 479,38.5C 478.5,27.8385 478.333,17.1719 478.5,6.5C 523.387,3.68417 556.22,22.0175 577,61.5C 580.346,69.2059 582.68,77.2059 584,85.5C 585.27,116.473 585.937,147.473 586,178.5C 591.95,205.283 608.45,220.95 635.5,225.5 Z"/></g>
<g><path style="opacity:0.869" fill="#f1f5f9" d="M 280.5,231.5 C 271.192,226.705 262.525,220.872 254.5,214C 224.443,184.94 194.109,156.273 163.5,128C 178.833,127.333 194.167,127.333 209.5,128C 234.134,150.3 258.468,172.966 282.5,196C 298.625,207.696 316.291,210.696 335.5,205C 340.446,203.194 345.112,200.861 349.5,198C 374.833,174.667 400.167,151.333 425.5,128C 440.844,127.167 456.178,127.334 471.5,128.5C 445.505,152.496 419.838,176.829 394.5,201.5C 385.606,209.898 376.272,217.731 366.5,225C 338.519,240.462 309.852,242.629 280.5,231.5 Z"/></g>
<g><path style="opacity:0.071" fill="#f1f5f9" d="M 280.5,231.5 C 279.833,232.167 279.833,232.167 280.5,231.5 Z"/></g>
<g><path style="opacity:0.869" fill="#f1f5f9" d="M 308.5,257.5 C 331.623,256.029 352.623,261.862 371.5,275C 405.468,305.966 439.134,337.3 472.5,369C 456.833,369.667 441.167,369.667 425.5,369C 401.167,346 376.833,323 352.5,300C 329.85,285.198 307.35,284.698 285,298.5C 259.506,321.661 234.339,345.161 209.5,369C 193.833,369.667 178.167,369.667 162.5,369C 194.5,339 226.5,309 258.5,279C 273.224,267.134 289.891,259.967 308.5,257.5 Z"/></g>
</svg>
