<?xml version="1.0" encoding="UTF-8"?> <svg xmlns="http://www.w3.org/2000/svg" width="368" height="11" viewBox="0 0 368 11" fill="none"><path d="M0.763224 10.2843V0.24556C0.763224 0.179795 0.786435 0.125636 0.832857 0.0830825C0.879279 0.040529 0.935373 0.0192522 1.00114 0.0192522H2.77098C2.83674 0.0192522 2.8909 0.040529 2.93346 0.0830825C2.97601 0.125636 2.99729 0.179795 2.99729 0.24556V0.907075C2.99729 0.972839 2.97601 1.02893 2.93346 1.07535C2.8909 1.12178 2.83674 1.14499 2.77098 1.14499H1.89476V9.39651H2.78258C2.84835 9.39651 2.90251 9.41972 2.94506 9.46615C2.98762 9.51257 3.00889 9.56866 3.00889 9.63443V10.2843C3.00889 10.3501 2.98762 10.4043 2.94506 10.4468C2.90251 10.4894 2.84835 10.5106 2.78258 10.5106H1.00114C0.935373 10.5106 0.879279 10.4894 0.832857 10.4468C0.786435 10.4043 0.763224 10.3501 0.763224 10.2843ZM24.2143 9.95358L23.0595 8.9439C23.0131 8.89748 22.9899 8.84912 22.9899 8.79883V1.67884C22.9899 1.63242 23.0131 1.586 23.0595 1.53958L24.2027 0.541501C24.2336 0.510553 24.2723 0.495079 24.3187 0.495079H30.3826C30.4484 0.495079 30.5045 0.51829 30.5509 0.564712C30.5973 0.611134 30.6205 0.667227 30.6205 0.732992V2.92644C30.6205 2.9922 30.5973 3.04829 30.5509 3.09472C30.5045 3.14114 30.4484 3.16435 30.3826 3.16435H29.6805C29.6147 3.16435 29.5586 3.14114 29.5122 3.09472C29.4658 3.04829 29.4426 2.9922 29.4426 2.92644V1.73107H24.7597L24.2259 2.18948V8.28819L24.7597 8.76401H30.4638C30.5296 8.76401 30.5857 8.78722 30.6321 8.83365C30.6785 8.88007 30.7018 8.93616 30.7018 9.00193V9.76209C30.7018 9.82785 30.6785 9.88394 30.6321 9.93037C30.5857 9.97679 30.5296 10 30.4638 10H24.3361C24.2742 10 24.2336 9.98453 24.2143 9.95358ZM58.6557 0.732992V9.75048C58.6557 9.81625 58.6345 9.87234 58.5919 9.91876C58.5494 9.96518 58.4952 9.98839 58.4294 9.98839H57.6577C57.5919 9.98839 57.5358 9.96518 57.4894 9.91876C57.443 9.87234 57.4197 9.81625 57.4197 9.75048V5.8046H52.1799V9.75048C52.1799 9.81625 52.1566 9.87234 52.1102 9.91876C52.0638 9.96518 52.0077 9.98839 51.9419 9.98839H51.1702C51.1044 9.98839 51.0483 9.96518 51.0019 9.91876C50.9555 9.87234 50.9323 9.81625 50.9323 9.75048V0.732992C50.9323 0.667227 50.9555 0.611134 51.0019 0.564712C51.0483 0.51829 51.1044 0.495079 51.1702 0.495079H51.9419C52.0077 0.495079 52.0638 0.51829 52.1102 0.564712C52.1566 0.611134 52.1799 0.667227 52.1799 0.732992V4.55701H57.4197V0.732992C57.4197 0.667227 57.443 0.611134 57.4894 0.564712C57.5358 0.51829 57.5919 0.495079 57.6577 0.495079H58.4294C58.4952 0.495079 58.5494 0.51829 58.5919 0.564712C58.6345 0.611134 58.6557 0.667227 58.6557 0.732992ZM86.8592 9.75048C86.8592 9.82398 86.8322 9.88394 86.778 9.93037C86.7277 9.97679 86.6639 10 86.5865 10H85.8147C85.7219 10 85.6581 9.95164 85.6233 9.85493L84.5904 7.16245L84.5091 7.17406H80.6213L79.6348 9.85493C79.6116 9.95164 79.5439 10 79.4317 10H78.6599C78.5632 10 78.4897 9.96518 78.4394 9.89555C78.3891 9.82592 78.3795 9.74661 78.4104 9.65764L81.718 0.634345C81.7528 0.541501 81.8186 0.495079 81.9153 0.495079H83.1919C83.3041 0.495079 83.366 0.541501 83.3776 0.634345L86.836 9.64603C86.8515 9.70793 86.8592 9.74274 86.8592 9.75048ZM81.0739 5.93807H84.1261L82.6754 2.10825H82.4898L81.0739 5.93807ZM106.585 9.76209V0.732992C106.585 0.667227 106.608 0.611134 106.655 0.564712C106.701 0.51829 106.757 0.495079 106.823 0.495079H107.595C107.66 0.495079 107.716 0.51829 107.763 0.564712C107.809 0.611134 107.833 0.667227 107.833 0.732992V9.76209C107.833 9.82785 107.809 9.88394 107.763 9.93037C107.716 9.97679 107.66 10 107.595 10H106.823C106.757 10 106.701 9.97679 106.655 9.93037C106.608 9.88394 106.585 9.82785 106.585 9.76209ZM128.04 9.76209V0.732992C128.04 0.667227 128.063 0.611134 128.109 0.564712C128.156 0.51829 128.212 0.495079 128.278 0.495079H128.922C128.988 0.495079 129.038 0.51829 129.073 0.564712L134.527 7.49321V0.732992C134.527 0.667227 134.551 0.611134 134.597 0.564712C134.643 0.51829 134.699 0.495079 134.765 0.495079H135.537C135.603 0.495079 135.657 0.51829 135.699 0.564712C135.742 0.611134 135.763 0.667227 135.763 0.732992V9.76209C135.763 9.82785 135.742 9.88394 135.699 9.93037C135.657 9.97679 135.603 10 135.537 10H135.05C134.988 10 134.933 9.97679 134.887 9.93037L129.276 2.75235V9.76209C129.276 9.82785 129.255 9.88394 129.212 9.93037C129.169 9.97679 129.115 10 129.049 10H128.278C128.212 10 128.156 9.97679 128.109 9.93037C128.063 9.88394 128.04 9.82785 128.04 9.76209ZM155.744 3.77364V2.82199C155.744 2.75622 155.767 2.70013 155.814 2.65371C155.86 2.60728 155.916 2.58407 155.982 2.58407H156.934C157 2.58407 157.056 2.60728 157.102 2.65371C157.149 2.70013 157.172 2.75622 157.172 2.82199V3.77364C157.172 3.8394 157.149 3.8955 157.102 3.94192C157.056 3.98834 157 4.01155 156.934 4.01155H155.982C155.916 4.01155 155.86 3.98834 155.814 3.94192C155.767 3.8955 155.744 3.8394 155.744 3.77364ZM155.744 8.14892V7.19727C155.744 7.1315 155.767 7.07541 155.814 7.02899C155.86 6.98256 155.916 6.95935 155.982 6.95935H156.934C157 6.95935 157.056 6.98256 157.102 7.02899C157.149 7.07541 157.172 7.1315 157.172 7.19727V8.14892C157.172 8.21468 157.149 8.26884 157.102 8.3114C157.06 8.35008 157.003 8.36942 156.934 8.36942H155.982C155.913 8.36942 155.855 8.35008 155.808 8.3114C155.766 8.26884 155.744 8.21468 155.744 8.14892ZM200.546 9.95358L199.426 9.00193C199.387 8.96324 199.368 8.91488 199.368 8.85686V7.64408C199.368 7.58218 199.391 7.52996 199.437 7.4874C199.484 7.44485 199.536 7.42357 199.594 7.42357H200.366C200.432 7.42357 200.486 7.44485 200.528 7.4874C200.571 7.52609 200.592 7.57831 200.592 7.64408V8.34621L201.114 8.76401H205.356L205.844 8.34621V6.30364L205.252 5.85103H200.72C200.685 5.85103 200.646 5.83555 200.604 5.8046L199.426 4.79492C199.387 4.75624 199.368 4.70788 199.368 4.64985L199.356 1.5976C199.356 1.53958 199.376 1.49122 199.414 1.45253L200.494 0.541501C200.524 0.510553 200.565 0.495079 200.615 0.495079H205.809C205.855 0.495079 205.894 0.510553 205.925 0.541501L207.01 1.49315C207.049 1.53184 207.068 1.57826 207.068 1.63242V2.78717C207.068 2.85293 207.047 2.90903 207.004 2.95545C206.962 3.00187 206.908 3.02508 206.842 3.02508H206.07C206.016 3.02508 205.964 2.99994 205.913 2.94965C205.867 2.89936 205.844 2.84906 205.844 2.79877V2.14306L205.356 1.73107H201.114L200.604 2.14306L200.592 4.15082L201.161 4.60343H205.687C205.726 4.60343 205.766 4.61891 205.809 4.64985L207.01 5.65954C207.049 5.69822 207.068 5.74658 207.068 5.8046L207.08 8.90908C207.08 8.96324 207.06 9.00966 207.022 9.04835L206 9.95358C205.969 9.98453 205.925 10 205.867 10H200.662C200.627 10 200.588 9.98453 200.546 9.95358ZM228.407 9.95358L227.264 8.96711C227.217 8.93229 227.194 8.88394 227.194 8.82204V1.66724C227.194 1.60921 227.217 1.56279 227.264 1.52797L228.407 0.541501C228.438 0.510553 228.477 0.495079 228.523 0.495079H233.577C233.624 0.495079 233.662 0.510553 233.693 0.541501L234.848 1.52797C234.894 1.57439 234.918 1.62081 234.918 1.66724V8.82204C234.918 8.87233 234.894 8.92069 234.848 8.96711L233.693 9.95358C233.662 9.98453 233.624 10 233.577 10H228.523C228.477 10 228.438 9.98453 228.407 9.95358ZM228.976 8.76401H233.125L233.67 8.29979L233.682 2.17788L233.125 1.73107H228.976L228.43 2.17788V8.29979L228.976 8.76401ZM261.757 9.03674V9.76209C261.757 9.82785 261.736 9.88394 261.694 9.93037C261.651 9.97679 261.597 10 261.531 10H255.328C255.262 10 255.206 9.97679 255.16 9.93037C255.113 9.88394 255.09 9.82785 255.09 9.76209V0.732992C255.09 0.667227 255.113 0.611134 255.16 0.564712C255.206 0.51829 255.262 0.495079 255.328 0.495079H256.088C256.154 0.495079 256.21 0.51829 256.256 0.564712C256.303 0.611134 256.326 0.667227 256.326 0.732992V8.79883H261.531C261.597 8.79883 261.651 8.82204 261.694 8.86846C261.736 8.91488 261.757 8.97098 261.757 9.03674ZM289.833 9.75048C289.833 9.82398 289.806 9.88394 289.752 9.93037C289.702 9.97679 289.638 10 289.561 10H288.789C288.696 10 288.632 9.95164 288.597 9.85493L287.564 7.16245L287.483 7.17406H283.595L282.609 9.85493C282.586 9.95164 282.518 10 282.406 10H281.634C281.537 10 281.464 9.96518 281.413 9.89555C281.363 9.82592 281.354 9.74661 281.384 9.65764L284.692 0.634345C284.727 0.541501 284.793 0.495079 284.889 0.495079H286.166C286.278 0.495079 286.34 0.541501 286.352 0.634345L289.81 9.64603C289.826 9.70793 289.833 9.74274 289.833 9.75048ZM284.048 5.93807H287.1L285.65 2.10825H285.464L284.048 5.93807ZM309.559 9.76209V0.732992C309.559 0.667227 309.582 0.611134 309.629 0.564712C309.675 0.51829 309.731 0.495079 309.797 0.495079H310.441C310.507 0.495079 310.557 0.51829 310.592 0.564712L316.046 7.49321V0.732992C316.046 0.667227 316.07 0.611134 316.116 0.564712C316.163 0.51829 316.219 0.495079 316.284 0.495079H317.056C317.122 0.495079 317.176 0.51829 317.219 0.564712C317.261 0.611134 317.282 0.667227 317.282 0.732992V9.76209C317.282 9.82785 317.261 9.88394 317.219 9.93037C317.176 9.97679 317.122 10 317.056 10H316.569C316.507 10 316.453 9.97679 316.406 9.93037L310.795 2.75235V9.76209C310.795 9.82785 310.774 9.88394 310.731 9.93037C310.689 9.97679 310.634 10 310.569 10H309.797C309.731 10 309.675 9.97679 309.629 9.93037C309.582 9.88394 309.559 9.82785 309.559 9.76209ZM345.486 9.75048C345.486 9.82398 345.459 9.88394 345.405 9.93037C345.354 9.97679 345.291 10 345.213 10H344.441C344.349 10 344.285 9.95164 344.25 9.85493L343.217 7.16245L343.136 7.17406H339.248L338.262 9.85493C338.238 9.95164 338.171 10 338.058 10H337.287C337.19 10 337.116 9.96518 337.066 9.89555C337.016 9.82592 337.006 9.74661 337.037 9.65764L340.345 0.634345C340.38 0.541501 340.445 0.495079 340.542 0.495079H341.819C341.931 0.495079 341.993 0.541501 342.004 0.634345L345.463 9.64603C345.478 9.70793 345.486 9.74274 345.486 9.75048ZM339.701 5.93807H342.753L341.302 2.10825H341.116L339.701 5.93807ZM364.974 10.2727V9.61702C364.974 9.55125 364.995 9.49903 365.038 9.46034C365.084 9.41779 365.142 9.39651 365.212 9.39651H366.105V1.13338H365.223C365.157 1.13338 365.101 1.11017 365.055 1.06375C365.009 1.01733 364.985 0.961234 364.985 0.895469V0.24556C364.985 0.179795 365.009 0.123702 365.055 0.0772798C365.101 0.0308577 365.157 0.00764665 365.223 0.00764665H366.993C367.059 0.00764665 367.113 0.0308577 367.156 0.0772798C367.198 0.123702 367.219 0.179795 367.219 0.24556V10.2727C367.219 10.3385 367.198 10.3946 367.156 10.441C367.113 10.4874 367.059 10.5106 366.993 10.5106H365.212C365.146 10.5106 365.09 10.4874 365.043 10.441C364.997 10.3946 364.974 10.3385 364.974 10.2727Z" fill="white"></path></svg> 