<?xml version="1.0" encoding="UTF-8"?> <svg xmlns="http://www.w3.org/2000/svg" width="31" height="32" viewBox="0 0 31 32" fill="none"><path fill-rule="evenodd" clip-rule="evenodd" d="M0.513514 31.2432L31 31.2432L31 11.5517L20.2051 0.756753L0.513516 0.756751L0.513514 31.2432Z" fill="#D0FD1B"></path><path d="M13.5817 8.49223C12.9862 8.66246 12.2204 9.08356 11.4122 9.66594L10.74 10.1498L10.4678 10.0064C10.3146 9.92577 10.1019 9.78241 9.99134 9.69282C9.65953 9.41507 9.61699 9.4957 9.85522 9.95265C10.3657 10.9472 11.7185 12.3359 13.0883 13.3035C13.9135 13.877 13.9391 13.8859 14.8409 13.644C15.1727 13.5634 15.2918 13.5723 15.5556 13.6799C15.7343 13.7605 15.9725 13.8232 16.1001 13.8232C16.5595 13.8232 18.3462 12.4793 19.214 11.4758C19.7245 10.8844 20.5328 9.69282 20.5328 9.52258C20.5328 9.37923 20.4052 9.41507 20.2265 9.62114C20.0138 9.86305 19.6564 10.0602 19.4182 10.0602C19.3076 10.0602 19.0098 9.88097 18.7546 9.66594C18.2271 9.23588 17.5805 8.86853 16.8743 8.6087C16.2362 8.36679 14.2283 8.29511 13.5817 8.49223Z" fill="black"></path><path d="M9.82975 12.0492C9.49793 12.7749 9.39584 13.4379 9.30225 15.5165C9.1491 19.1004 9.00447 20.1218 8.43443 21.7345C8.24726 22.2721 8.11964 22.729 8.13665 22.7559C8.16218 22.7828 8.53653 22.514 8.97044 22.1646C9.39584 21.8062 9.79571 21.5374 9.84676 21.5553C9.89781 21.5733 10.2126 22.0481 10.5529 22.6036C10.8847 23.1681 11.1995 23.6429 11.2506 23.6608C11.2931 23.6788 11.642 23.401 12.0163 23.0605L12.6969 22.4244L12.8501 22.6394C12.9437 22.7559 13.4031 23.5085 13.8881 24.3149C14.8665 25.9635 15.0452 26.2233 15.1643 26.1516C15.2068 26.1247 15.7173 25.3005 16.2958 24.3328C16.8659 23.3652 17.3678 22.5319 17.3934 22.4871C17.4274 22.4423 17.7507 22.6932 18.1336 23.0426C18.5079 23.3921 18.8482 23.6788 18.8993 23.6788C18.9503 23.6788 19.2822 23.1949 19.6395 22.6036C19.9968 22.0123 20.3286 21.5285 20.3712 21.5285C20.4222 21.5285 20.8221 21.8331 21.2645 22.2094C21.7069 22.5857 22.0813 22.8814 22.1068 22.8634C22.1238 22.8455 21.9707 22.3527 21.7665 21.7793C21.1624 20.0949 21.1284 19.8351 20.8732 15.0327C20.7881 13.3214 20.7285 13.0078 20.3882 12.1836L20.167 11.6639L19.9543 11.87C19.8437 11.9864 19.631 12.2284 19.4949 12.4165L19.2311 12.7659L19.3842 13.411C19.5289 14.0203 19.5289 14.074 19.3928 14.522C19.2141 15.0775 18.644 15.6599 18.1166 15.8032C17.5465 15.9556 17.3423 16.0989 17.3168 16.3408C17.2828 16.6634 17.4955 16.9053 18.3122 17.4339C18.7121 17.6937 19.0439 17.9446 19.0609 17.9894C19.078 18.0432 18.7717 18.2851 18.3888 18.527C17.019 19.3961 16.6702 19.9874 15.7173 23.0426C15.394 24.0551 15.1302 24.9062 15.1132 24.9242C15.0537 25.0048 14.9941 24.8346 14.7559 23.9386C14.4241 22.6932 13.7179 20.749 13.3436 20.0501C13.0032 19.3961 12.6884 19.0825 11.8632 18.5718C11.5399 18.3657 11.2251 18.1507 11.1825 18.088C11.1059 17.9984 11.2846 17.8371 11.9142 17.3981L12.748 16.8246V16.0272L12.263 15.8749C11.5909 15.6689 11.208 15.3911 10.9698 14.961C10.6891 14.4414 10.6465 14.0472 10.7912 13.42C10.9018 12.9003 10.9018 12.8734 10.7061 12.524C10.5955 12.3269 10.3913 12.0492 10.2551 11.9148L9.99991 11.6639L9.82975 12.0492Z" fill="black"></path><path d="M11.6847 13.9128C11.6847 14.2891 11.8804 14.6654 12.1526 14.7908C12.4929 14.9521 13.3012 14.9342 13.3012 14.764C13.3012 14.6296 11.9569 13.644 11.7783 13.644C11.7272 13.644 11.6847 13.7694 11.6847 13.9128Z" fill="black"></path><path d="M17.887 13.8949C17.7168 14.0293 17.4021 14.2443 17.1808 14.3787C16.6108 14.7371 16.6533 14.8984 17.3255 14.8984C18.1508 14.8984 18.6783 14.4504 18.5421 13.877C18.4741 13.5813 18.2869 13.5903 17.887 13.8949Z" fill="black"></path><path d="M14.6792 14.6832C14.1517 14.9699 13.8624 15.5792 13.7348 16.6991C13.6668 17.2278 13.5987 17.4786 13.5051 17.5413C13.4285 17.5861 13.2669 17.7116 13.1563 17.8101L12.9521 17.9893L13.4881 18.5807C14.0836 19.2347 14.441 19.8709 14.7983 20.9281C15.0706 21.7524 15.1046 21.7434 15.513 20.6593C15.8703 19.6827 16.2787 18.9928 16.8062 18.4284L17.2316 17.9625L16.8573 17.6937L16.4744 17.4159L16.4234 16.6723C16.3127 15.1491 15.513 14.2442 14.6792 14.6832Z" fill="black"></path></svg> 