<?xml version="1.0" encoding="UTF-8"?> <svg xmlns="http://www.w3.org/2000/svg" width="250" height="296" viewBox="0 0 250 296" fill="none"><g filter="url(#filter0_b_28_468)"><rect width="250" height="296" fill="#1E1E1E" fill-opacity="0.47"></rect><rect x="0.5" y="0.5" width="249" height="295" stroke="#3B3B3B" stroke-opacity="0.24"></rect></g><path d="M232.094 19.3197C231.243 19.7507 230.436 20.4138 229.663 21.32L229.022 21.32C229.387 20.5354 229.74 19.9386 230.083 19.5518L227.442 19.5518L227.442 23.7291L226.657 23.7291L226.657 18.7672L230.083 18.7672C229.74 18.3804 229.387 17.7836 229.022 17.0101L229.663 17.0101C230.436 17.9163 231.243 18.5793 232.094 18.9993L232.094 19.3197Z" fill="white"></path><path d="M32.818 25V17.8278H30.6078V16.9217H36.0228V17.8278H33.8126V25H32.818ZM37.212 25V16.9327H38.2066V20.3806H40.7926V16.9327H41.7872V25H40.7926V21.2868H38.2066V25H37.212ZM43.4737 25V16.9327H48.1151V17.8389H44.4572V20.3364H47.7284V21.2316H44.4572V24.0938H48.1151V25H43.4737ZM55.7539 25V16.9327H58.2514C58.7303 16.9327 59.1502 17.0322 59.5112 17.2311C59.8722 17.4226 60.1522 17.6915 60.3511 18.0378C60.55 18.3841 60.6495 18.7893 60.6495 19.2534C60.6495 19.7986 60.5058 20.2665 60.2185 20.6569C59.9385 21.0474 59.5554 21.3163 59.0692 21.4637L60.76 25H59.5886L58.0414 21.5742H56.7485V25H55.7539ZM56.7485 20.679H58.2514C58.664 20.679 58.9955 20.5501 59.246 20.2922C59.4965 20.027 59.6217 19.6807 59.6217 19.2534C59.6217 18.8188 59.4965 18.4725 59.246 18.2146C58.9955 17.9568 58.664 17.8278 58.2514 17.8278H56.7485V20.679ZM62.0266 25V16.9327H66.668V17.8389H63.0101V20.3364H66.2812V21.2316H63.0101V24.0938H66.668V25H62.0266ZM70.4653 25.1105C69.9348 25.1105 69.478 25.0221 69.0949 24.8453C68.7192 24.6685 68.4282 24.4143 68.2219 24.0828C68.0156 23.7512 67.9088 23.3571 67.9014 22.9003H68.896C68.896 23.3055 69.0323 23.626 69.3049 23.8617C69.5849 24.0975 69.9717 24.2154 70.4653 24.2154C70.9294 24.2154 71.2904 24.1012 71.5483 23.8728C71.8135 23.6444 71.9461 23.3276 71.9461 22.9224C71.9461 22.5982 71.8577 22.3146 71.6809 22.0715C71.5114 21.8283 71.2646 21.6589 70.9405 21.5631L69.8464 21.2205C69.2939 21.0511 68.8666 20.7674 68.5645 20.3696C68.2698 19.9718 68.1224 19.5039 68.1224 18.9661C68.1224 18.5314 68.2182 18.1557 68.4098 17.8389C68.6087 17.5147 68.885 17.2642 69.2386 17.0874C69.5922 16.9032 70.0085 16.8111 70.4874 16.8111C71.1946 16.8111 71.7619 17.0101 72.1892 17.4079C72.6166 17.7984 72.8339 18.3215 72.8413 18.9772H71.8467C71.8467 18.5793 71.7251 18.2699 71.482 18.0489C71.2462 17.8205 70.911 17.7063 70.4763 17.7063C70.049 17.7063 69.7138 17.8094 69.4707 18.0157C69.2349 18.222 69.117 18.5093 69.117 18.8777C69.117 19.2092 69.2055 19.4966 69.3823 19.7397C69.5591 19.9828 69.8133 20.1559 70.1448 20.2591L71.2499 20.6127C71.7877 20.7822 72.204 21.0695 72.4987 21.4747C72.7934 21.8799 72.9407 22.3551 72.9407 22.9003C72.9407 23.3423 72.8376 23.7291 72.6313 24.0607C72.425 24.3922 72.134 24.65 71.7583 24.8342C71.3899 25.0184 70.9589 25.1105 70.4653 25.1105ZM74.3067 25V16.9327H76.9037C77.4047 16.9327 77.8394 17.0322 78.2078 17.2311C78.5761 17.4226 78.8598 17.6952 79.0587 18.0489C79.265 18.4025 79.3681 18.8224 79.3681 19.3087C79.3681 19.7876 79.265 20.2075 79.0587 20.5685C78.8598 20.9221 78.5761 21.1984 78.2078 21.3973C77.8394 21.5889 77.4047 21.6847 76.9037 21.6847H75.3013V25H74.3067ZM75.3013 20.7895H76.9037C77.3384 20.7895 77.6847 20.6569 77.9425 20.3917C78.2078 20.1191 78.3404 19.7581 78.3404 19.3087C78.3404 18.8519 78.2078 18.4909 77.9425 18.2257C77.6847 17.9605 77.3384 17.8278 76.9037 17.8278H75.3013V20.7895ZM82.7897 25.1105C82.3034 25.1105 81.8835 25.0184 81.5298 24.8342C81.1836 24.65 80.9147 24.3848 80.7231 24.0386C80.5389 23.6849 80.4468 23.2687 80.4468 22.7898V19.1429C80.4468 18.6567 80.5389 18.2404 80.7231 17.8942C80.9147 17.5479 81.1836 17.2827 81.5298 17.0985C81.8835 16.9143 82.3034 16.8222 82.7897 16.8222C83.2759 16.8222 83.6922 16.9143 84.0384 17.0985C84.3921 17.2827 84.661 17.5479 84.8452 17.8942C85.0367 18.2404 85.1325 18.653 85.1325 19.1319V22.7898C85.1325 23.2687 85.0367 23.6849 84.8452 24.0386C84.661 24.3848 84.3921 24.65 84.0384 24.8342C83.6922 25.0184 83.2759 25.1105 82.7897 25.1105ZM82.7897 24.2154C83.2243 24.2154 83.5559 24.0938 83.7843 23.8507C84.02 23.6002 84.1379 23.2466 84.1379 22.7898V19.1429C84.1379 18.6861 84.02 18.3362 83.7843 18.0931C83.5559 17.8426 83.2243 17.7173 82.7897 17.7173C82.3623 17.7173 82.0308 17.8426 81.7951 18.0931C81.5593 18.3362 81.4414 18.6861 81.4414 19.1429V22.7898C81.4414 23.2466 81.5593 23.6002 81.7951 23.8507C82.0308 24.0938 82.3623 24.2154 82.7897 24.2154ZM86.6532 25V16.9327H87.9794L90.4437 23.8396C90.429 23.6555 90.4106 23.4307 90.3885 23.1655C90.3738 22.8929 90.359 22.6093 90.3443 22.3146C90.3369 22.0125 90.3332 21.7289 90.3332 21.4637V16.9327H91.2947V25H89.9685L87.5152 18.0931C87.5299 18.2699 87.5447 18.4946 87.5594 18.7672C87.5741 19.0324 87.5852 19.3161 87.5926 19.6181C87.6073 19.9128 87.6147 20.1965 87.6147 20.4691V25H86.6532ZM95.2024 25.1105C94.672 25.1105 94.2152 25.0221 93.8321 24.8453C93.4564 24.6685 93.1654 24.4143 92.9591 24.0828C92.7528 23.7512 92.646 23.3571 92.6386 22.9003H93.6332C93.6332 23.3055 93.7695 23.626 94.0421 23.8617C94.322 24.0975 94.7088 24.2154 95.2024 24.2154C95.6666 24.2154 96.0276 24.1012 96.2854 23.8728C96.5507 23.6444 96.6833 23.3276 96.6833 22.9224C96.6833 22.5982 96.5949 22.3146 96.4181 22.0715C96.2486 21.8283 96.0018 21.6589 95.6776 21.5631L94.5836 21.2205C94.031 21.0511 93.6037 20.7674 93.3017 20.3696C93.007 19.9718 92.8596 19.5039 92.8596 18.9661C92.8596 18.5314 92.9554 18.1557 93.1469 17.8389C93.3459 17.5147 93.6221 17.2642 93.9758 17.0874C94.3294 16.9032 94.7457 16.8111 95.2245 16.8111C95.9318 16.8111 96.4991 17.0101 96.9264 17.4079C97.3537 17.7984 97.5711 18.3215 97.5784 18.9772H96.5838C96.5838 18.5793 96.4623 18.2699 96.2191 18.0489C95.9834 17.8205 95.6482 17.7063 95.2135 17.7063C94.7862 17.7063 94.451 17.8094 94.2078 18.0157C93.9721 18.222 93.8542 18.5093 93.8542 18.8777C93.8542 19.2092 93.9426 19.4966 94.1194 19.7397C94.2963 19.9828 94.5504 20.1559 94.882 20.2591L95.9871 20.6127C96.5249 20.7822 96.9411 21.0695 97.2358 21.4747C97.5305 21.8799 97.6779 22.3551 97.6779 22.9003C97.6779 23.3423 97.5747 23.7291 97.3685 24.0607C97.1622 24.3922 96.8712 24.65 96.4954 24.8342C96.127 25.0184 95.6961 25.1105 95.2024 25.1105ZM99.1323 25V16.9327H103.774V17.8389H100.116V20.3364H103.387V21.2316H100.116V24.0938H103.774V25H99.1323ZM113.711 25.1105C113.225 25.1105 112.805 25.0184 112.451 24.8342C112.105 24.65 111.836 24.3848 111.645 24.0386C111.46 23.6849 111.368 23.2687 111.368 22.7898V19.1429C111.368 18.6567 111.46 18.2404 111.645 17.8942C111.836 17.5479 112.105 17.2827 112.451 17.0985C112.805 16.9143 113.225 16.8222 113.711 16.8222C114.197 16.8222 114.614 16.9143 114.96 17.0985C115.314 17.2827 115.582 17.5479 115.767 17.8942C115.958 18.2404 116.054 18.653 116.054 19.1319V22.7898C116.054 23.2687 115.958 23.6849 115.767 24.0386C115.582 24.3848 115.314 24.65 114.96 24.8342C114.614 25.0184 114.197 25.1105 113.711 25.1105ZM113.711 24.2154C114.146 24.2154 114.477 24.0938 114.706 23.8507C114.941 23.6002 115.059 23.2466 115.059 22.7898V19.1429C115.059 18.6861 114.941 18.3362 114.706 18.0931C114.477 17.8426 114.146 17.7173 113.711 17.7173C113.284 17.7173 112.952 17.8426 112.717 18.0931C112.481 18.3362 112.363 18.6861 112.363 19.1429V22.7898C112.363 23.2466 112.481 23.6002 112.717 23.8507C112.952 24.0938 113.284 24.2154 113.711 24.2154ZM117.63 25V16.9217H122.382V17.8278H118.602V20.5133H122.095V21.4194H118.625V25H117.63ZM132.308 25.1105C131.822 25.1105 131.398 25.0184 131.037 24.8342C130.684 24.65 130.407 24.3848 130.208 24.0386C130.017 23.6849 129.921 23.2687 129.921 22.7898V19.1429C129.921 18.6567 130.017 18.2404 130.208 17.8942C130.407 17.5479 130.684 17.2827 131.037 17.0985C131.398 16.9143 131.822 16.8222 132.308 16.8222C132.794 16.8222 133.214 16.918 133.568 17.1095C133.922 17.2937 134.194 17.5589 134.386 17.9052C134.577 18.2515 134.673 18.664 134.673 19.1429H133.679C133.679 18.6861 133.557 18.3362 133.314 18.0931C133.078 17.8426 132.743 17.7173 132.308 17.7173C131.874 17.7173 131.531 17.8389 131.28 18.082C131.037 18.3251 130.916 18.6751 130.916 19.1319V22.7898C130.916 23.2466 131.037 23.6002 131.28 23.8507C131.531 24.0938 131.874 24.2154 132.308 24.2154C132.743 24.2154 133.078 24.0938 133.314 23.8507C133.557 23.6002 133.679 23.2466 133.679 22.7898H134.673C134.673 23.2613 134.577 23.6739 134.386 24.0275C134.194 24.3738 133.922 24.6427 133.568 24.8342C133.214 25.0184 132.794 25.1105 132.308 25.1105ZM136.161 25V16.9327H137.155V20.3806H139.741V16.9327H140.736V25H139.741V21.2868H137.155V25H136.161ZM141.87 25L143.97 16.9327H145.307L147.395 25H146.39L145.859 22.8561H143.417L142.886 25H141.87ZM143.616 22.0162H145.649L145.03 19.5297C144.913 19.0582 144.82 18.664 144.754 18.3472C144.688 18.0304 144.647 17.8242 144.633 17.7284C144.618 17.8242 144.577 18.0304 144.511 18.3472C144.445 18.664 144.353 19.0545 144.235 19.5187L143.616 22.0162ZM150.32 25V17.8278H148.109V16.9217H153.524V17.8278H151.314V25H150.32ZM157.045 25.1105C156.559 25.1105 156.135 25.0184 155.774 24.8342C155.421 24.65 155.145 24.3848 154.946 24.0386C154.754 23.6849 154.658 23.2687 154.658 22.7898V19.1429C154.658 18.6567 154.754 18.2404 154.946 17.8942C155.145 17.5479 155.421 17.2827 155.774 17.0985C156.135 16.9143 156.559 16.8222 157.045 16.8222C157.532 16.8222 157.952 16.918 158.305 17.1095C158.659 17.2937 158.931 17.5589 159.123 17.9052C159.315 18.2515 159.41 18.664 159.41 19.1429H158.416C158.416 18.6861 158.294 18.3362 158.051 18.0931C157.815 17.8426 157.48 17.7173 157.045 17.7173C156.611 17.7173 156.268 17.8389 156.018 18.082C155.774 18.3251 155.653 18.6751 155.653 19.1319V22.7898C155.653 23.2466 155.774 23.6002 156.018 23.8507C156.268 24.1012 156.611 24.2264 157.045 24.2264C157.48 24.2264 157.815 24.1012 158.051 23.8507C158.294 23.6002 158.416 23.2466 158.416 22.7898V21.7952H156.78V20.889H159.41V22.7898C159.41 23.2613 159.315 23.6739 159.123 24.0275C158.931 24.3738 158.659 24.6427 158.305 24.8342C157.952 25.0184 157.532 25.1105 157.045 25.1105ZM160.887 25V16.9327H163.484C163.985 16.9327 164.419 17.0322 164.788 17.2311C165.156 17.4226 165.44 17.6952 165.639 18.0489C165.845 18.4025 165.948 18.8224 165.948 19.3087C165.948 19.7876 165.845 20.2075 165.639 20.5685C165.44 20.9221 165.156 21.1984 164.788 21.3973C164.419 21.5889 163.985 21.6847 163.484 21.6847H161.881V25H160.887ZM161.881 20.7895H163.484C163.918 20.7895 164.265 20.6569 164.523 20.3917C164.788 20.1191 164.92 19.7581 164.92 19.3087C164.92 18.8519 164.788 18.4909 164.523 18.2257C164.265 17.9605 163.918 17.8278 163.484 17.8278H161.881V20.7895ZM168.872 25V17.8278H166.662V16.9217H172.077V17.8278H169.867V25H168.872Z" fill="white"></path><g clip-path="url(#clip0_28_468)"><path d="M25.2114 19.5022C25.3348 19.1319 25.3776 18.7395 25.3369 18.3513C25.2963 17.9631 25.1733 17.5881 24.976 17.2513C24.3758 16.2063 23.1692 15.6686 21.9908 15.9217C21.7317 15.6298 21.4133 15.3965 21.0568 15.2376C20.7004 15.0787 20.3141 14.9977 19.9238 15.0001C18.7192 14.9973 17.6505 15.7728 17.2799 16.9189C16.8974 16.9972 16.5361 17.1563 16.22 17.3856C15.904 17.6148 15.6405 17.9089 15.4473 18.2482C14.8427 19.2905 14.9805 20.6043 15.7884 21.4981C15.665 21.8684 15.6223 22.2608 15.6629 22.649C15.7035 23.0372 15.8265 23.4122 16.0238 23.749C16.624 24.794 17.8306 25.3317 19.009 25.0787C19.268 25.3706 19.5865 25.6038 19.9429 25.7627C20.2994 25.9216 20.6858 26.0025 21.076 25.9999C22.2812 26.003 23.3503 25.2268 23.7209 24.0797C24.1034 24.0014 24.4648 23.8423 24.7808 23.613C25.0969 23.3838 25.3603 23.0897 25.5535 22.7504C26.1575 21.7081 26.0193 20.3953 25.2118 19.5015L25.2114 19.5022ZM21.0767 25.2811C20.5945 25.2819 20.1273 25.113 19.757 24.804C19.779 24.7924 19.8007 24.7801 19.822 24.7672L22.0124 23.5022C22.0675 23.4709 22.1131 23.4256 22.1448 23.3708C22.1765 23.316 22.193 23.2537 22.1926 23.1904V20.1024L23.1183 20.637C23.1283 20.6418 23.1348 20.6514 23.1362 20.6624V23.2196C23.1348 24.3568 22.2139 25.2787 21.0767 25.2811ZM16.6477 23.3894C16.4061 22.9722 16.3191 22.4832 16.402 22.0082C16.4181 22.0179 16.4466 22.0354 16.4669 22.0471L18.6573 23.3121C18.712 23.344 18.7741 23.3608 18.8373 23.3608C18.9005 23.3608 18.9627 23.344 19.0173 23.3121L21.6914 21.7679V22.837C21.6916 22.8425 21.6906 22.8479 21.6883 22.8529C21.686 22.8578 21.6826 22.8622 21.6783 22.8655L19.4642 24.144C18.4779 24.7119 17.2184 24.3743 16.6481 23.3894L16.6477 23.3894ZM16.0713 18.6081C16.3118 18.1903 16.6916 17.8704 17.1441 17.7044C17.1441 17.7233 17.1431 17.7566 17.1431 17.78V20.3104C17.1428 20.3736 17.1592 20.4357 17.1908 20.4905C17.2224 20.5452 17.268 20.5905 17.3229 20.6218L19.997 22.1657L19.0712 22.7002C19.0667 22.7032 19.0614 22.7051 19.056 22.7056C19.0505 22.7061 19.045 22.7052 19.04 22.703L16.8255 21.4235C15.8413 20.8535 15.5037 19.5944 16.0709 18.6085L16.0713 18.6081ZM23.6772 20.3781L21.0031 18.834L21.9289 18.2998C21.9334 18.2967 21.9387 18.2949 21.9442 18.2944C21.9496 18.2939 21.9551 18.2948 21.9602 18.297L24.1746 19.5754C25.1605 20.145 25.4984 21.4063 24.9289 22.3922C24.688 22.8095 24.3085 23.1291 23.8563 23.2956V20.6896C23.8568 20.6265 23.8405 20.5644 23.8091 20.5096C23.7777 20.4549 23.7323 20.4095 23.6776 20.3781H23.6772ZM24.5985 18.9914C24.5824 18.9814 24.5538 18.9642 24.5335 18.9526L22.3431 17.6875C22.2885 17.6556 22.2264 17.6388 22.1632 17.6388C22.0999 17.6388 22.0378 17.6556 21.9832 17.6875L19.3091 19.2317V18.1626C19.3089 18.1571 19.3099 18.1517 19.3122 18.1467C19.3145 18.1418 19.3179 18.1374 19.3222 18.1341L21.5363 16.8567C22.5226 16.2877 23.7835 16.6264 24.352 17.6129C24.5923 18.0297 24.6793 18.5173 24.5978 18.9914H24.5985ZM18.8059 20.8968L17.8798 20.3623C17.8749 20.3599 17.8707 20.3563 17.8676 20.3519C17.8645 20.3474 17.8625 20.3423 17.8619 20.3369V17.7797C17.8626 16.6411 18.7863 15.7185 19.9248 15.7192C20.4064 15.7192 20.8725 15.8883 21.2428 16.1963C21.2208 16.208 21.1991 16.2203 21.1778 16.2331L18.9874 17.4981C18.9324 17.5293 18.8867 17.5746 18.855 17.6294C18.8233 17.6841 18.8069 17.7463 18.8072 17.8096L18.8059 20.8962V20.8968ZM19.3088 19.8126L20.4999 19.1248L21.691 19.8123V21.1877L20.4999 21.8752L19.3088 21.1877V19.8126Z" fill="white"></path></g><line x1="16" y1="35.5" x2="233" y2="35.5" stroke="#3B3B3B" stroke-opacity="0.24"></line><rect x="16" y="47" width="149" height="56" fill="white" fill-opacity="0.06"></rect><path d="M83.5038 65.0862C83.5038 65.1491 83.4806 65.2005 83.4342 65.2403C83.3911 65.2801 83.3364 65.3 83.2701 65.3H82.6087C82.5291 65.3 82.4744 65.2585 82.4446 65.1757L81.5595 62.8683L81.4898 62.8783H78.1581L77.3128 65.1757C77.2929 65.2585 77.2349 65.3 77.1387 65.3H76.4774C76.3945 65.3 76.3315 65.2702 76.2884 65.2105C76.2453 65.1508 76.237 65.0828 76.2636 65.0066L79.098 57.2741C79.1278 57.1945 79.1842 57.1547 79.2671 57.1547H80.361C80.4572 57.1547 80.5102 57.1945 80.5202 57.2741L83.4839 64.9967C83.4971 65.0497 83.5038 65.0795 83.5038 65.0862ZM78.546 61.8191H81.1616L79.9185 58.5371H79.7593L78.546 61.8191ZM84.3292 65.0961L84.3193 57.3586C84.3193 57.3023 84.3392 57.2542 84.379 57.2144C84.4188 57.1746 84.4668 57.1547 84.5232 57.1547H90.376C90.4324 57.1547 90.4805 57.1746 90.5202 57.2144C90.56 57.2542 90.5799 57.3023 90.5799 57.3586V58.01C90.5799 58.0664 90.56 58.1145 90.5202 58.1542C90.4805 58.194 90.4324 58.2139 90.376 58.2139H85.3884V60.7152H90.0826C90.139 60.7152 90.1871 60.7351 90.2268 60.7748C90.2666 60.8146 90.2865 60.8627 90.2865 60.9191V61.5804C90.2865 61.6368 90.2666 61.6832 90.2268 61.7197C90.1871 61.7561 90.139 61.7744 90.0826 61.7744H85.3884V64.2408H90.376C90.4324 64.2408 90.4805 64.2607 90.5202 64.3005C90.56 64.3403 90.5799 64.3883 90.5799 64.4447V65.0961C90.5799 65.1525 90.56 65.2005 90.5202 65.2403C90.4805 65.2801 90.4324 65.3 90.376 65.3H84.5331C84.4768 65.3 84.4287 65.2801 84.3889 65.2403C84.3491 65.2005 84.3292 65.1525 84.3292 65.0961ZM92.8375 65.2602L91.8579 64.4149C91.8181 64.3751 91.7982 64.3336 91.7982 64.2905V58.1692C91.7982 58.1294 91.8181 58.0896 91.8579 58.0498L92.8375 57.1945C92.8541 57.168 92.8872 57.1547 92.937 57.1547H98.213C98.2693 57.1547 98.3174 57.1746 98.3572 57.2144C98.397 57.2542 98.4169 57.3023 98.4169 57.3586V58.01C98.4169 58.0664 98.397 58.1145 98.3572 58.1542C98.3174 58.194 98.2693 58.2139 98.213 58.2139H93.3248L92.8673 58.6068L92.8574 63.8629L93.3049 64.2408H97.3477V61.7545H95.3338C95.2774 61.7545 95.2294 61.7346 95.1896 61.6948C95.1498 61.655 95.1299 61.6069 95.1299 61.5506V60.9539C95.1299 60.8975 95.1498 60.8494 95.1896 60.8097C95.2294 60.7699 95.2774 60.75 95.3338 60.75H98.213C98.2693 60.75 98.3174 60.7699 98.3572 60.8097C98.397 60.8494 98.4169 60.8975 98.4169 60.9539V65.0961C98.4169 65.1525 98.397 65.2005 98.3572 65.2403C98.3174 65.2801 98.2693 65.3 98.213 65.3H92.937C92.8872 65.3 92.8541 65.2867 92.8375 65.2602ZM99.7545 65.0961V57.3586C99.7545 57.3023 99.7744 57.2542 99.8142 57.2144C99.854 57.1746 99.902 57.1547 99.9584 57.1547H100.62C100.676 57.1547 100.724 57.1746 100.764 57.2144C100.804 57.2542 100.824 57.3023 100.824 57.3586V65.0961C100.824 65.1525 100.804 65.2005 100.764 65.2403C100.724 65.2801 100.676 65.3 100.62 65.3H99.9584C99.902 65.3 99.854 65.2801 99.8142 65.2403C99.7744 65.2005 99.7545 65.1525 99.7545 65.0961ZM103.121 65.2602L102.161 64.4447C102.128 64.4115 102.112 64.3701 102.112 64.3204V63.2811C102.112 63.228 102.131 63.1833 102.171 63.1468C102.211 63.1103 102.256 63.0921 102.305 63.0921H102.967C103.023 63.0921 103.07 63.1103 103.106 63.1468C103.143 63.18 103.161 63.2247 103.161 63.2811V63.8828L103.608 64.2408H107.243L107.661 63.8828V62.1324L107.154 61.7445H103.27C103.24 61.7445 103.207 61.7313 103.171 61.7047L102.161 60.8395C102.128 60.8063 102.112 60.7649 102.112 60.7152L102.102 58.0995C102.102 58.0498 102.118 58.0084 102.151 57.9752L103.076 57.1945C103.103 57.168 103.138 57.1547 103.181 57.1547H107.631C107.671 57.1547 107.704 57.168 107.731 57.1945L108.661 58.01C108.694 58.0432 108.71 58.083 108.71 58.1294V59.1189C108.71 59.1753 108.692 59.2234 108.656 59.2632C108.619 59.3029 108.573 59.3228 108.516 59.3228H107.855C107.809 59.3228 107.764 59.3013 107.721 59.2582C107.681 59.2151 107.661 59.172 107.661 59.1289V58.567L107.243 58.2139H103.608L103.171 58.567L103.161 60.2875L103.648 60.6754H107.527C107.56 60.6754 107.595 60.6887 107.631 60.7152L108.661 61.5804C108.694 61.6136 108.71 61.655 108.71 61.7047L108.72 64.3651C108.72 64.4115 108.704 64.4513 108.671 64.4845L107.795 65.2602C107.769 65.2867 107.731 65.3 107.681 65.3H103.22C103.191 65.3 103.157 65.2867 103.121 65.2602ZM109.715 65.0961V64.2806C109.715 64.2275 109.735 64.1828 109.774 64.1463C109.818 64.1065 109.862 64.0867 109.909 64.0867H110.61C110.666 64.0867 110.714 64.1049 110.754 64.1414C110.794 64.1778 110.814 64.2242 110.814 64.2806V65.0961C110.814 65.1525 110.794 65.2005 110.754 65.2403C110.714 65.2801 110.666 65.3 110.61 65.3H109.909C109.852 65.3 109.806 65.2801 109.769 65.2403C109.733 65.2005 109.715 65.1525 109.715 65.0961ZM112.062 57.1547H117.104C117.144 57.1547 117.177 57.168 117.204 57.1945L118.114 57.9752C118.153 58.015 118.173 58.0598 118.173 58.1095V61.1528C118.173 61.1959 118.153 61.2373 118.114 61.2771L117.204 62.0429C117.184 62.0628 117.151 62.0727 117.104 62.0727H112.927V65.0961C112.927 65.1525 112.907 65.2005 112.867 65.2403C112.828 65.2801 112.78 65.3 112.723 65.3H112.062C112.006 65.3 111.957 65.2801 111.918 65.2403C111.878 65.2005 111.858 65.1525 111.858 65.0961V57.3586C111.858 57.3023 111.878 57.2542 111.918 57.2144C111.957 57.1746 112.006 57.1547 112.062 57.1547ZM112.927 61.0235H116.667L117.114 60.6456V58.5869L116.667 58.2139H112.927V61.0235ZM119.347 65.0961V57.3586C119.347 57.3023 119.367 57.2542 119.407 57.2144C119.446 57.1746 119.494 57.1547 119.551 57.1547H120.103C120.159 57.1547 120.202 57.1746 120.232 57.2144L124.906 63.1518V57.3586C124.906 57.3023 124.926 57.2542 124.966 57.2144C125.006 57.1746 125.054 57.1547 125.11 57.1547H125.772C125.828 57.1547 125.874 57.1746 125.911 57.2144C125.947 57.2542 125.966 57.3023 125.966 57.3586V65.0961C125.966 65.1525 125.947 65.2005 125.911 65.2403C125.874 65.2801 125.828 65.3 125.772 65.3H125.354C125.301 65.3 125.254 65.2801 125.215 65.2403L120.406 59.0891V65.0961C120.406 65.1525 120.388 65.2005 120.351 65.2403C120.315 65.2801 120.268 65.3 120.212 65.3H119.551C119.494 65.3 119.446 65.2801 119.407 65.2403C119.367 65.2005 119.347 65.1525 119.347 65.0961ZM128.342 65.2602L127.363 64.4149C127.323 64.3751 127.303 64.3336 127.303 64.2905V58.1692C127.303 58.1294 127.323 58.0896 127.363 58.0498L128.342 57.1945C128.359 57.168 128.392 57.1547 128.442 57.1547H133.718C133.774 57.1547 133.822 57.1746 133.862 57.2144C133.902 57.2542 133.922 57.3023 133.922 57.3586V58.01C133.922 58.0664 133.902 58.1145 133.862 58.1542C133.822 58.194 133.774 58.2139 133.718 58.2139H128.83L128.372 58.6068L128.362 63.8629L128.81 64.2408H132.853V61.7545H130.839C130.782 61.7545 130.734 61.7346 130.695 61.6948C130.655 61.655 130.635 61.6069 130.635 61.5506V60.9539C130.635 60.8975 130.655 60.8494 130.695 60.8097C130.734 60.7699 130.782 60.75 130.839 60.75H133.718C133.774 60.75 133.822 60.7699 133.862 60.8097C133.902 60.8494 133.922 60.8975 133.922 60.9539V65.0961C133.922 65.1525 133.902 65.2005 133.862 65.2403C133.822 65.2801 133.774 65.3 133.718 65.3H128.442C128.392 65.3 128.359 65.2867 128.342 65.2602Z" fill="white"></path><path opacity="0.6" d="M76.6631 76.7188V76.1146H78.1218V71.8931L76.6631 72.9835V72.2467L77.8787 71.3406H78.7849V76.1146H79.9784V76.7188H76.6631ZM82.3331 76.7924C82.1464 76.7924 81.9966 76.7384 81.8837 76.6303C81.7756 76.5223 81.7216 76.3774 81.7216 76.1957C81.7216 76.0041 81.7756 75.8519 81.8837 75.7389C81.9966 75.6259 82.1464 75.5694 82.3331 75.5694C82.5197 75.5694 82.6671 75.6259 82.7751 75.7389C82.8881 75.8519 82.9446 76.0041 82.9446 76.1957C82.9446 76.3774 82.8881 76.5223 82.7751 76.6303C82.6671 76.7384 82.5197 76.7924 82.3331 76.7924ZM86.3749 76.7924C86.0507 76.7924 85.7659 76.7286 85.5203 76.6009C85.2796 76.4683 85.093 76.2865 84.9604 76.0557C84.8277 75.8248 84.7614 75.5547 84.7614 75.2453H85.4245C85.4245 75.5449 85.508 75.7806 85.675 75.9525C85.8469 76.1195 86.0827 76.203 86.3823 76.203C86.6868 76.203 86.9225 76.1146 87.0895 75.9378C87.2565 75.761 87.34 75.5301 87.34 75.2453V74.8622C87.34 74.5576 87.2565 74.3219 87.0895 74.1549C86.9225 73.9879 86.6868 73.9044 86.3823 73.9044H85.8297V73.2413L87.1632 71.9447H84.9825V71.3406H87.8336V72.0036L86.397 73.3961V73.315C86.8882 73.315 87.2786 73.455 87.5684 73.735C87.8582 74.0149 88.0031 74.3907 88.0031 74.8622V75.2453C88.0031 75.5547 87.9343 75.8248 87.7968 76.0557C87.6642 76.2865 87.4751 76.4683 87.2295 76.6009C86.9839 76.7286 86.6991 76.7924 86.3749 76.7924ZM93.0514 76.7188V71.3406H93.9207L94.4806 73.0793C94.5347 73.2364 94.5838 73.3936 94.628 73.5508C94.6722 73.703 94.7041 73.8209 94.7238 73.9044C94.7483 73.8209 94.7802 73.703 94.8195 73.5508C94.8588 73.3936 94.903 73.234 94.9522 73.0719L95.4826 71.3406H96.352V76.7188H95.7036V74.7664C95.7036 74.5503 95.711 74.3047 95.7257 74.0297C95.7405 73.7546 95.7601 73.4746 95.7847 73.1898C95.8092 72.9 95.8338 72.6249 95.8583 72.3646C95.8878 72.0994 95.9124 71.8686 95.932 71.6721L95.0627 74.3612H94.3628L93.486 71.6721C93.5106 71.8636 93.5352 72.0871 93.5597 72.3425C93.5843 72.593 93.6064 72.8607 93.626 73.1456C93.6457 73.4255 93.6629 73.7055 93.6776 73.9854C93.6923 74.2654 93.6997 74.5257 93.6997 74.7664V76.7188H93.0514ZM97.2995 76.7188V71.3406H98.8245C99.3157 71.3406 99.6988 71.4633 99.9738 71.7089C100.254 71.9545 100.394 72.2959 100.394 72.733C100.394 72.9786 100.342 73.1922 100.239 73.374C100.136 73.5557 99.9886 73.6957 99.797 73.7939C99.6104 73.8921 99.3844 73.9388 99.1192 73.9339V73.8234C99.4041 73.8185 99.6497 73.8725 99.856 73.9854C100.067 74.0984 100.229 74.2605 100.342 74.4717C100.46 74.6829 100.519 74.9334 100.519 75.2232C100.519 75.5277 100.455 75.7929 100.327 76.0188C100.2 76.2448 100.018 76.4191 99.7823 76.5419C99.5465 76.6598 99.2641 76.7188 98.935 76.7188H97.2995ZM97.9478 76.122H98.8614C99.1708 76.122 99.4139 76.041 99.5907 75.8789C99.7725 75.7119 99.8633 75.4859 99.8633 75.2011C99.8633 74.9064 99.7725 74.6682 99.5907 74.4864C99.4139 74.2998 99.1708 74.2065 98.8614 74.2065H97.9478V76.122ZM97.9478 73.6318H98.8172C99.102 73.6318 99.3255 73.5557 99.4876 73.4034C99.6546 73.2512 99.7381 73.0449 99.7381 72.7846C99.7381 72.5242 99.657 72.318 99.495 72.1657C99.3329 72.0134 99.1094 71.9373 98.8245 71.9373H97.9478V73.6318Z" fill="white"></path><path d="M76.7775 93.2632V87.0941H78.3747C78.7747 87.0941 79.1184 87.1702 79.4057 87.3223C79.6986 87.4744 79.924 87.6885 80.0818 87.9646C80.2451 88.2406 80.3268 88.5674 80.3268 88.9449V91.4041C80.3268 91.7815 80.2451 92.1111 80.0818 92.3928C79.924 92.6689 79.6986 92.883 79.4057 93.0351C79.1184 93.1872 78.7747 93.2632 78.3747 93.2632H76.7775ZM77.5381 92.5872H78.3747C78.7465 92.5872 79.0367 92.483 79.2451 92.2745C79.4592 92.066 79.5663 91.7759 79.5663 91.4041V88.9449C79.5663 88.5787 79.4592 88.2913 79.2451 88.0829C79.0367 87.8744 78.7465 87.7702 78.3747 87.7702H77.5381V92.5872ZM83.2644 93.3478C82.8926 93.3478 82.5714 93.2773 82.301 93.1365C82.0362 92.9956 81.8306 92.7928 81.6841 92.528C81.5433 92.2576 81.4728 91.9393 81.4728 91.5731V88.7843C81.4728 88.4125 81.5433 88.0942 81.6841 87.8294C81.8306 87.5646 82.0362 87.3617 82.301 87.2209C82.5714 87.0801 82.8926 87.0096 83.2644 87.0096C83.6362 87.0096 83.9546 87.0801 84.2194 87.2209C84.4898 87.3617 84.6954 87.5646 84.8363 87.8294C84.9827 88.0942 85.056 88.4097 85.056 88.7759V91.5731C85.056 91.9393 84.9827 92.2576 84.8363 92.528C84.6954 92.7928 84.4898 92.9956 84.2194 93.1365C83.9546 93.2773 83.6362 93.3478 83.2644 93.3478ZM83.2644 92.6632C83.5968 92.6632 83.8503 92.5703 84.025 92.3844C84.2053 92.1928 84.2954 91.9224 84.2954 91.5731V88.7843C84.2954 88.435 84.2053 88.1674 84.025 87.9815C83.8503 87.7899 83.5968 87.6941 83.2644 87.6941C82.9376 87.6941 82.6841 87.7899 82.5038 87.9815C82.3236 88.1674 82.2334 88.435 82.2334 88.7843V91.5731C82.2334 91.9224 82.3236 92.1928 82.5038 92.3844C82.6841 92.5703 82.9376 92.6632 83.2644 92.6632ZM86.3795 93.2632L85.6696 87.0941H86.3964L86.8612 91.6576C86.8724 91.7815 86.8837 91.9111 86.895 92.0463C86.9062 92.1759 86.9147 92.2999 86.9203 92.4182C86.9316 92.5365 86.9372 92.6351 86.9372 92.7139C86.9485 92.6351 86.9569 92.5365 86.9626 92.4182C86.9738 92.2999 86.9851 92.1759 86.9964 92.0463C87.0133 91.9111 87.0302 91.7815 87.0471 91.6576L87.6217 87.0941H88.4077L88.9316 91.6576C88.9485 91.7815 88.9626 91.9111 88.9739 92.0463C88.9908 92.1759 89.0049 92.2999 89.0161 92.4182C89.033 92.5365 89.0443 92.6351 89.0499 92.7139C89.0556 92.6351 89.0612 92.5365 89.0668 92.4182C89.0781 92.2999 89.0894 92.1759 89.1006 92.0463C89.1175 91.9111 89.1316 91.7815 89.1429 91.6576L89.6246 87.0941H90.3176L89.5908 93.2632H88.6358L88.1119 88.6153C88.1006 88.4857 88.0865 88.3589 88.0696 88.235C88.0584 88.1111 88.0471 87.9956 88.0358 87.8885C88.0246 87.7815 88.0161 87.6941 88.0105 87.6265C88.0048 87.6941 87.9936 87.7815 87.9767 87.8885C87.9654 87.9956 87.9541 88.1111 87.9429 88.235C87.9316 88.3589 87.9175 88.4857 87.9006 88.6153L87.3344 93.2632H86.3795ZM90.9481 93.2632V87.0941H91.9622L93.8467 92.3759C93.8354 92.2351 93.8213 92.0632 93.8044 91.8604C93.7932 91.652 93.7819 91.435 93.7706 91.2097C93.765 90.9787 93.7622 90.7618 93.7622 90.559V87.0941H94.4974V93.2632H93.4833L91.6072 87.9815C91.6185 88.1167 91.6298 88.2885 91.641 88.497C91.6523 88.6998 91.6608 88.9167 91.6664 89.1477C91.6777 89.373 91.6833 89.59 91.6833 89.7984V93.2632H90.9481ZM95.8885 93.2632V87.0941H96.6491V92.5703H99.4378V93.2632H95.8885ZM102.181 93.3478C101.809 93.3478 101.488 93.2773 101.218 93.1365C100.953 92.9956 100.747 92.7928 100.601 92.528C100.46 92.2576 100.389 91.9393 100.389 91.5731V88.7843C100.389 88.4125 100.46 88.0942 100.601 87.8294C100.747 87.5646 100.953 87.3617 101.218 87.2209C101.488 87.0801 101.809 87.0096 102.181 87.0096C102.553 87.0096 102.871 87.0801 103.136 87.2209C103.406 87.3617 103.612 87.5646 103.753 87.8294C103.899 88.0942 103.973 88.4097 103.973 88.7759V91.5731C103.973 91.9393 103.899 92.2576 103.753 92.528C103.612 92.7928 103.406 92.9956 103.136 93.1365C102.871 93.2773 102.553 93.3478 102.181 93.3478ZM102.181 92.6632C102.513 92.6632 102.767 92.5703 102.942 92.3844C103.122 92.1928 103.212 91.9224 103.212 91.5731V88.7843C103.212 88.435 103.122 88.1674 102.942 87.9815C102.767 87.7899 102.513 87.6941 102.181 87.6941C101.854 87.6941 101.601 87.7899 101.42 87.9815C101.24 88.1674 101.15 88.435 101.15 88.7843V91.5731C101.15 91.9224 101.24 92.1928 101.42 92.3844C101.601 92.5703 101.854 92.6632 102.181 92.6632ZM104.798 93.2632L106.403 87.0941H107.426L109.023 93.2632H108.254L107.848 91.6238H105.981L105.575 93.2632H104.798ZM106.133 90.9815H107.688L107.214 89.0801C107.124 88.7195 107.054 88.4181 107.003 88.1758C106.952 87.9336 106.921 87.7758 106.91 87.7026C106.899 87.7758 106.868 87.9336 106.817 88.1758C106.767 88.4181 106.696 88.7167 106.606 89.0716L106.133 90.9815ZM109.882 93.2632V87.0941H111.479C111.879 87.0941 112.222 87.1702 112.51 87.3223C112.803 87.4744 113.028 87.6885 113.186 87.9646C113.349 88.2406 113.431 88.5674 113.431 88.9449V91.4041C113.431 91.7815 113.349 92.1111 113.186 92.3928C113.028 92.6689 112.803 92.883 112.51 93.0351C112.222 93.1872 111.879 93.2632 111.479 93.2632H109.882ZM110.642 92.5872H111.479C111.851 92.5872 112.141 92.483 112.349 92.2745C112.563 92.066 112.67 91.7759 112.67 91.4041V88.9449C112.67 88.5787 112.563 88.2913 112.349 88.0829C112.141 87.8744 111.851 87.7702 111.479 87.7702H110.642V92.5872Z" fill="#0DBBEC"></path><defs><filter id="filter0_b_28_468" x="-18.4" y="-18.4" width="286.8" height="332.8" filterUnits="userSpaceOnUse" color-interpolation-filters="sRGB"><feFlood flood-opacity="0" result="BackgroundImageFix"></feFlood><feGaussianBlur in="BackgroundImageFix" stdDeviation="9.2"></feGaussianBlur><feComposite in2="SourceAlpha" operator="in" result="effect1_backgroundBlur_28_468"></feComposite><feBlend mode="normal" in="SourceGraphic" in2="effect1_backgroundBlur_28_468" result="shape"></feBlend></filter><clipPath id="clip0_28_468"><rect width="11" height="11" fill="white" transform="translate(15 15)"></rect></clipPath></defs></svg> 