<?xml version="1.0" encoding="UTF-8"?> <svg xmlns="http://www.w3.org/2000/svg" width="250" height="296" viewBox="0 0 250 296" fill="none"><g filter="url(#filter0_b_32_559)"><rect width="250" height="296" fill="#1E1E1E" fill-opacity="0.47"></rect><rect x="0.5" y="0.5" width="249" height="295" stroke="#3B3B3B" stroke-opacity="0.24"></rect></g><path d="M232.094 19.3197C231.243 19.7507 230.436 20.4138 229.663 21.32L229.022 21.32C229.387 20.5354 229.74 19.9386 230.083 19.5518L227.442 19.5518L227.442 23.7291L226.657 23.7291L226.657 18.7672L230.083 18.7672C229.74 18.3804 229.387 17.7836 229.022 17.0101L229.663 17.0101C230.436 17.9163 231.243 18.5793 232.094 18.9993L232.094 19.3197Z" fill="white"></path><path d="M32.818 25V17.8278H30.6078V16.9217H36.0228V17.8278H33.8126V25H32.818ZM37.212 25V16.9327H38.2066V20.3806H40.7926V16.9327H41.7872V25H40.7926V21.2868H38.2066V25H37.212ZM43.4737 25V16.9327H48.1151V17.8389H44.4572V20.3364H47.7284V21.2316H44.4572V24.0938H48.1151V25H43.4737ZM55.7539 25V16.9327H58.2514C58.7303 16.9327 59.1502 17.0322 59.5112 17.2311C59.8722 17.4226 60.1522 17.6915 60.3511 18.0378C60.55 18.3841 60.6495 18.7893 60.6495 19.2534C60.6495 19.7986 60.5058 20.2665 60.2185 20.6569C59.9385 21.0474 59.5554 21.3163 59.0692 21.4637L60.76 25H59.5886L58.0414 21.5742H56.7485V25H55.7539ZM56.7485 20.679H58.2514C58.664 20.679 58.9955 20.5501 59.246 20.2922C59.4965 20.027 59.6217 19.6807 59.6217 19.2534C59.6217 18.8188 59.4965 18.4725 59.246 18.2146C58.9955 17.9568 58.664 17.8278 58.2514 17.8278H56.7485V20.679ZM62.0266 25V16.9327H66.668V17.8389H63.0101V20.3364H66.2812V21.2316H63.0101V24.0938H66.668V25H62.0266ZM70.4653 25.1105C69.9348 25.1105 69.478 25.0221 69.0949 24.8453C68.7192 24.6685 68.4282 24.4143 68.2219 24.0828C68.0156 23.7512 67.9088 23.3571 67.9014 22.9003H68.896C68.896 23.3055 69.0323 23.626 69.3049 23.8617C69.5849 24.0975 69.9717 24.2154 70.4653 24.2154C70.9294 24.2154 71.2904 24.1012 71.5483 23.8728C71.8135 23.6444 71.9461 23.3276 71.9461 22.9224C71.9461 22.5982 71.8577 22.3146 71.6809 22.0715C71.5114 21.8283 71.2646 21.6589 70.9405 21.5631L69.8464 21.2205C69.2939 21.0511 68.8666 20.7674 68.5645 20.3696C68.2698 19.9718 68.1224 19.5039 68.1224 18.9661C68.1224 18.5314 68.2182 18.1557 68.4098 17.8389C68.6087 17.5147 68.885 17.2642 69.2386 17.0874C69.5922 16.9032 70.0085 16.8111 70.4874 16.8111C71.1946 16.8111 71.7619 17.0101 72.1892 17.4079C72.6166 17.7984 72.8339 18.3215 72.8413 18.9772H71.8467C71.8467 18.5793 71.7251 18.2699 71.482 18.0489C71.2462 17.8205 70.911 17.7063 70.4763 17.7063C70.049 17.7063 69.7138 17.8094 69.4707 18.0157C69.2349 18.222 69.117 18.5093 69.117 18.8777C69.117 19.2092 69.2055 19.4966 69.3823 19.7397C69.5591 19.9828 69.8133 20.1559 70.1448 20.2591L71.2499 20.6127C71.7877 20.7822 72.204 21.0695 72.4987 21.4747C72.7934 21.8799 72.9407 22.3551 72.9407 22.9003C72.9407 23.3423 72.8376 23.7291 72.6313 24.0607C72.425 24.3922 72.134 24.65 71.7583 24.8342C71.3899 25.0184 70.9589 25.1105 70.4653 25.1105ZM74.3067 25V16.9327H76.9037C77.4047 16.9327 77.8394 17.0322 78.2078 17.2311C78.5761 17.4226 78.8598 17.6952 79.0587 18.0489C79.265 18.4025 79.3681 18.8224 79.3681 19.3087C79.3681 19.7876 79.265 20.2075 79.0587 20.5685C78.8598 20.9221 78.5761 21.1984 78.2078 21.3973C77.8394 21.5889 77.4047 21.6847 76.9037 21.6847H75.3013V25H74.3067ZM75.3013 20.7895H76.9037C77.3384 20.7895 77.6847 20.6569 77.9425 20.3917C78.2078 20.1191 78.3404 19.7581 78.3404 19.3087C78.3404 18.8519 78.2078 18.4909 77.9425 18.2257C77.6847 17.9605 77.3384 17.8278 76.9037 17.8278H75.3013V20.7895ZM82.7897 25.1105C82.3034 25.1105 81.8835 25.0184 81.5298 24.8342C81.1836 24.65 80.9147 24.3848 80.7231 24.0386C80.5389 23.6849 80.4468 23.2687 80.4468 22.7898V19.1429C80.4468 18.6567 80.5389 18.2404 80.7231 17.8942C80.9147 17.5479 81.1836 17.2827 81.5298 17.0985C81.8835 16.9143 82.3034 16.8222 82.7897 16.8222C83.2759 16.8222 83.6922 16.9143 84.0384 17.0985C84.3921 17.2827 84.661 17.5479 84.8452 17.8942C85.0367 18.2404 85.1325 18.653 85.1325 19.1319V22.7898C85.1325 23.2687 85.0367 23.6849 84.8452 24.0386C84.661 24.3848 84.3921 24.65 84.0384 24.8342C83.6922 25.0184 83.2759 25.1105 82.7897 25.1105ZM82.7897 24.2154C83.2243 24.2154 83.5559 24.0938 83.7843 23.8507C84.02 23.6002 84.1379 23.2466 84.1379 22.7898V19.1429C84.1379 18.6861 84.02 18.3362 83.7843 18.0931C83.5559 17.8426 83.2243 17.7173 82.7897 17.7173C82.3623 17.7173 82.0308 17.8426 81.7951 18.0931C81.5593 18.3362 81.4414 18.6861 81.4414 19.1429V22.7898C81.4414 23.2466 81.5593 23.6002 81.7951 23.8507C82.0308 24.0938 82.3623 24.2154 82.7897 24.2154ZM86.6532 25V16.9327H87.9794L90.4437 23.8396C90.429 23.6555 90.4106 23.4307 90.3885 23.1655C90.3738 22.8929 90.359 22.6093 90.3443 22.3146C90.3369 22.0125 90.3332 21.7289 90.3332 21.4637V16.9327H91.2947V25H89.9685L87.5152 18.0931C87.5299 18.2699 87.5447 18.4946 87.5594 18.7672C87.5741 19.0324 87.5852 19.3161 87.5926 19.6181C87.6073 19.9128 87.6147 20.1965 87.6147 20.4691V25H86.6532ZM95.2024 25.1105C94.672 25.1105 94.2152 25.0221 93.8321 24.8453C93.4564 24.6685 93.1654 24.4143 92.9591 24.0828C92.7528 23.7512 92.646 23.3571 92.6386 22.9003H93.6332C93.6332 23.3055 93.7695 23.626 94.0421 23.8617C94.322 24.0975 94.7088 24.2154 95.2024 24.2154C95.6666 24.2154 96.0276 24.1012 96.2854 23.8728C96.5507 23.6444 96.6833 23.3276 96.6833 22.9224C96.6833 22.5982 96.5949 22.3146 96.4181 22.0715C96.2486 21.8283 96.0018 21.6589 95.6776 21.5631L94.5836 21.2205C94.031 21.0511 93.6037 20.7674 93.3017 20.3696C93.007 19.9718 92.8596 19.5039 92.8596 18.9661C92.8596 18.5314 92.9554 18.1557 93.1469 17.8389C93.3459 17.5147 93.6221 17.2642 93.9758 17.0874C94.3294 16.9032 94.7457 16.8111 95.2245 16.8111C95.9318 16.8111 96.4991 17.0101 96.9264 17.4079C97.3537 17.7984 97.5711 18.3215 97.5784 18.9772H96.5838C96.5838 18.5793 96.4623 18.2699 96.2191 18.0489C95.9834 17.8205 95.6482 17.7063 95.2135 17.7063C94.7862 17.7063 94.451 17.8094 94.2078 18.0157C93.9721 18.222 93.8542 18.5093 93.8542 18.8777C93.8542 19.2092 93.9426 19.4966 94.1194 19.7397C94.2963 19.9828 94.5504 20.1559 94.882 20.2591L95.9871 20.6127C96.5249 20.7822 96.9411 21.0695 97.2358 21.4747C97.5305 21.8799 97.6779 22.3551 97.6779 22.9003C97.6779 23.3423 97.5747 23.7291 97.3685 24.0607C97.1622 24.3922 96.8712 24.65 96.4954 24.8342C96.127 25.0184 95.6961 25.1105 95.2024 25.1105ZM99.1323 25V16.9327H103.774V17.8389H100.116V20.3364H103.387V21.2316H100.116V24.0938H103.774V25H99.1323ZM113.711 25.1105C113.225 25.1105 112.805 25.0184 112.451 24.8342C112.105 24.65 111.836 24.3848 111.645 24.0386C111.46 23.6849 111.368 23.2687 111.368 22.7898V19.1429C111.368 18.6567 111.46 18.2404 111.645 17.8942C111.836 17.5479 112.105 17.2827 112.451 17.0985C112.805 16.9143 113.225 16.8222 113.711 16.8222C114.197 16.8222 114.614 16.9143 114.96 17.0985C115.314 17.2827 115.582 17.5479 115.767 17.8942C115.958 18.2404 116.054 18.653 116.054 19.1319V22.7898C116.054 23.2687 115.958 23.6849 115.767 24.0386C115.582 24.3848 115.314 24.65 114.96 24.8342C114.614 25.0184 114.197 25.1105 113.711 25.1105ZM113.711 24.2154C114.146 24.2154 114.477 24.0938 114.706 23.8507C114.941 23.6002 115.059 23.2466 115.059 22.7898V19.1429C115.059 18.6861 114.941 18.3362 114.706 18.0931C114.477 17.8426 114.146 17.7173 113.711 17.7173C113.284 17.7173 112.952 17.8426 112.717 18.0931C112.481 18.3362 112.363 18.6861 112.363 19.1429V22.7898C112.363 23.2466 112.481 23.6002 112.717 23.8507C112.952 24.0938 113.284 24.2154 113.711 24.2154ZM117.63 25V16.9217H122.382V17.8278H118.602V20.5133H122.095V21.4194H118.625V25H117.63ZM132.308 25.1105C131.822 25.1105 131.398 25.0184 131.037 24.8342C130.684 24.65 130.407 24.3848 130.208 24.0386C130.017 23.6849 129.921 23.2687 129.921 22.7898V19.1429C129.921 18.6567 130.017 18.2404 130.208 17.8942C130.407 17.5479 130.684 17.2827 131.037 17.0985C131.398 16.9143 131.822 16.8222 132.308 16.8222C132.794 16.8222 133.214 16.918 133.568 17.1095C133.922 17.2937 134.194 17.5589 134.386 17.9052C134.577 18.2515 134.673 18.664 134.673 19.1429H133.679C133.679 18.6861 133.557 18.3362 133.314 18.0931C133.078 17.8426 132.743 17.7173 132.308 17.7173C131.874 17.7173 131.531 17.8389 131.28 18.082C131.037 18.3251 130.916 18.6751 130.916 19.1319V22.7898C130.916 23.2466 131.037 23.6002 131.28 23.8507C131.531 24.0938 131.874 24.2154 132.308 24.2154C132.743 24.2154 133.078 24.0938 133.314 23.8507C133.557 23.6002 133.679 23.2466 133.679 22.7898H134.673C134.673 23.2613 134.577 23.6739 134.386 24.0275C134.194 24.3738 133.922 24.6427 133.568 24.8342C133.214 25.0184 132.794 25.1105 132.308 25.1105ZM136.161 25V16.9327H137.155V20.3806H139.741V16.9327H140.736V25H139.741V21.2868H137.155V25H136.161ZM141.87 25L143.97 16.9327H145.307L147.395 25H146.39L145.859 22.8561H143.417L142.886 25H141.87ZM143.616 22.0162H145.649L145.03 19.5297C144.913 19.0582 144.82 18.664 144.754 18.3472C144.688 18.0304 144.647 17.8242 144.633 17.7284C144.618 17.8242 144.577 18.0304 144.511 18.3472C144.445 18.664 144.353 19.0545 144.235 19.5187L143.616 22.0162ZM150.32 25V17.8278H148.109V16.9217H153.524V17.8278H151.314V25H150.32ZM157.045 25.1105C156.559 25.1105 156.135 25.0184 155.774 24.8342C155.421 24.65 155.145 24.3848 154.946 24.0386C154.754 23.6849 154.658 23.2687 154.658 22.7898V19.1429C154.658 18.6567 154.754 18.2404 154.946 17.8942C155.145 17.5479 155.421 17.2827 155.774 17.0985C156.135 16.9143 156.559 16.8222 157.045 16.8222C157.532 16.8222 157.952 16.918 158.305 17.1095C158.659 17.2937 158.931 17.5589 159.123 17.9052C159.315 18.2515 159.41 18.664 159.41 19.1429H158.416C158.416 18.6861 158.294 18.3362 158.051 18.0931C157.815 17.8426 157.48 17.7173 157.045 17.7173C156.611 17.7173 156.268 17.8389 156.018 18.082C155.774 18.3251 155.653 18.6751 155.653 19.1319V22.7898C155.653 23.2466 155.774 23.6002 156.018 23.8507C156.268 24.1012 156.611 24.2264 157.045 24.2264C157.48 24.2264 157.815 24.1012 158.051 23.8507C158.294 23.6002 158.416 23.2466 158.416 22.7898V21.7952H156.78V20.889H159.41V22.7898C159.41 23.2613 159.315 23.6739 159.123 24.0275C158.931 24.3738 158.659 24.6427 158.305 24.8342C157.952 25.0184 157.532 25.1105 157.045 25.1105ZM160.887 25V16.9327H163.484C163.985 16.9327 164.419 17.0322 164.788 17.2311C165.156 17.4226 165.44 17.6952 165.639 18.0489C165.845 18.4025 165.948 18.8224 165.948 19.3087C165.948 19.7876 165.845 20.2075 165.639 20.5685C165.44 20.9221 165.156 21.1984 164.788 21.3973C164.419 21.5889 163.985 21.6847 163.484 21.6847H161.881V25H160.887ZM161.881 20.7895H163.484C163.918 20.7895 164.265 20.6569 164.523 20.3917C164.788 20.1191 164.92 19.7581 164.92 19.3087C164.92 18.8519 164.788 18.4909 164.523 18.2257C164.265 17.9605 163.918 17.8278 163.484 17.8278H161.881V20.7895ZM168.872 25V17.8278H166.662V16.9217H172.077V17.8278H169.867V25H168.872Z" fill="white"></path><g clip-path="url(#clip0_32_559)"><path d="M25.2114 19.5022C25.3348 19.1319 25.3776 18.7395 25.3369 18.3513C25.2963 17.9631 25.1733 17.5881 24.976 17.2513C24.3758 16.2063 23.1692 15.6686 21.9908 15.9217C21.7317 15.6298 21.4133 15.3965 21.0568 15.2376C20.7004 15.0787 20.3141 14.9977 19.9238 15.0001C18.7192 14.9973 17.6505 15.7728 17.2799 16.9189C16.8974 16.9972 16.5361 17.1563 16.22 17.3856C15.904 17.6148 15.6405 17.9089 15.4473 18.2482C14.8427 19.2905 14.9805 20.6043 15.7884 21.4981C15.665 21.8684 15.6223 22.2608 15.6629 22.649C15.7035 23.0372 15.8265 23.4122 16.0238 23.749C16.624 24.794 17.8306 25.3317 19.009 25.0787C19.268 25.3706 19.5865 25.6038 19.9429 25.7627C20.2994 25.9216 20.6858 26.0025 21.076 25.9999C22.2812 26.003 23.3503 25.2268 23.7209 24.0797C24.1034 24.0014 24.4648 23.8423 24.7808 23.613C25.0969 23.3838 25.3603 23.0897 25.5535 22.7504C26.1575 21.7081 26.0193 20.3953 25.2118 19.5015L25.2114 19.5022ZM21.0767 25.2811C20.5945 25.2819 20.1273 25.113 19.757 24.804C19.779 24.7924 19.8007 24.7801 19.822 24.7672L22.0124 23.5022C22.0675 23.4709 22.1131 23.4256 22.1448 23.3708C22.1765 23.316 22.193 23.2537 22.1926 23.1904V20.1024L23.1183 20.637C23.1283 20.6418 23.1348 20.6514 23.1362 20.6624V23.2196C23.1348 24.3568 22.2139 25.2787 21.0767 25.2811ZM16.6477 23.3894C16.4061 22.9722 16.3191 22.4832 16.402 22.0082C16.4181 22.0179 16.4466 22.0354 16.4669 22.0471L18.6573 23.3121C18.712 23.344 18.7741 23.3608 18.8373 23.3608C18.9005 23.3608 18.9627 23.344 19.0173 23.3121L21.6914 21.7679V22.837C21.6916 22.8425 21.6906 22.8479 21.6883 22.8529C21.686 22.8578 21.6826 22.8622 21.6783 22.8655L19.4642 24.144C18.4779 24.7119 17.2184 24.3743 16.6481 23.3894L16.6477 23.3894ZM16.0713 18.6081C16.3118 18.1903 16.6916 17.8704 17.1441 17.7044C17.1441 17.7233 17.1431 17.7566 17.1431 17.78V20.3104C17.1428 20.3736 17.1592 20.4357 17.1908 20.4905C17.2224 20.5452 17.268 20.5905 17.3229 20.6218L19.997 22.1657L19.0712 22.7002C19.0667 22.7032 19.0614 22.7051 19.056 22.7056C19.0505 22.7061 19.045 22.7052 19.04 22.703L16.8255 21.4235C15.8413 20.8535 15.5037 19.5944 16.0709 18.6085L16.0713 18.6081ZM23.6772 20.3781L21.0031 18.834L21.9289 18.2998C21.9334 18.2967 21.9387 18.2949 21.9442 18.2944C21.9496 18.2939 21.9551 18.2948 21.9602 18.297L24.1746 19.5754C25.1605 20.145 25.4984 21.4063 24.9289 22.3922C24.688 22.8095 24.3085 23.1291 23.8563 23.2956V20.6896C23.8568 20.6265 23.8405 20.5644 23.8091 20.5096C23.7777 20.4549 23.7323 20.4095 23.6776 20.3781H23.6772ZM24.5985 18.9914C24.5824 18.9814 24.5538 18.9642 24.5335 18.9526L22.3431 17.6875C22.2885 17.6556 22.2264 17.6388 22.1632 17.6388C22.0999 17.6388 22.0378 17.6556 21.9832 17.6875L19.3091 19.2317V18.1626C19.3089 18.1571 19.3099 18.1517 19.3122 18.1467C19.3145 18.1418 19.3179 18.1374 19.3222 18.1341L21.5363 16.8567C22.5226 16.2877 23.7835 16.6264 24.352 17.6129C24.5923 18.0297 24.6793 18.5173 24.5978 18.9914H24.5985ZM18.8059 20.8968L17.8798 20.3623C17.8749 20.3599 17.8707 20.3563 17.8676 20.3519C17.8645 20.3474 17.8625 20.3423 17.8619 20.3369V17.7797C17.8626 16.6411 18.7863 15.7185 19.9248 15.7192C20.4064 15.7192 20.8725 15.8883 21.2428 16.1963C21.2208 16.208 21.1991 16.2203 21.1778 16.2331L18.9874 17.4981C18.9324 17.5293 18.8867 17.5746 18.855 17.6294C18.8233 17.6841 18.8069 17.7463 18.8072 17.8096L18.8059 20.8962V20.8968ZM19.3088 19.8126L20.4999 19.1248L21.691 19.8123V21.1877L20.4999 21.8752L19.3088 21.1877V19.8126Z" fill="white"></path></g><line x1="16" y1="35.5" x2="233" y2="35.5" stroke="#3B3B3B" stroke-opacity="0.24"></line><rect x="16" y="47" width="149" height="56" fill="white" fill-opacity="0.06"></rect><path d="M78.4217 65.852C78.372 65.852 78.3322 65.8371 78.3024 65.8073C77.8548 65.4724 77.4819 65.0597 77.1835 64.5691C76.5967 63.6541 76.3033 62.5435 76.3033 61.2374C76.3033 60.1036 76.5553 59.0925 77.0592 58.204C77.394 57.5675 77.8018 57.057 78.2825 56.6724C78.3388 56.6393 78.3819 56.6227 78.4118 56.6227C78.4714 56.6227 78.5261 56.6575 78.5758 56.7271L78.8842 57.2045C78.904 57.2344 78.914 57.2642 78.914 57.294C78.914 57.3504 78.8858 57.4018 78.8295 57.4482C78.4747 57.7399 78.1217 58.1941 77.7703 58.8107C77.4255 59.4174 77.2531 60.2263 77.2531 61.2374C77.2531 62.2651 77.4222 63.0789 77.7603 63.679C78.1117 64.2856 78.4681 64.7282 78.8295 65.0067C78.8858 65.0531 78.914 65.0995 78.914 65.1459C78.914 65.1857 78.904 65.2205 78.8842 65.2503L78.5957 65.7476C78.546 65.8172 78.488 65.852 78.4217 65.852ZM86.5222 60.6357L85.9503 61.1677L86.5321 61.7247C86.5587 61.7512 86.5719 61.7893 86.5719 61.8391V64.211C86.5719 64.2409 86.5553 64.284 86.5222 64.3403L85.4531 65.2603C85.4265 65.2868 85.3901 65.3 85.3437 65.3H81.1865C81.1434 65.3 81.1086 65.2868 81.0821 65.2603L80.013 64.3403C79.9732 64.2906 79.9533 64.2475 79.9533 64.211V63.2712C79.9533 63.2148 79.9732 63.1668 80.013 63.127C80.0527 63.0872 80.1008 63.0673 80.1572 63.0673H80.8185C80.8749 63.0673 80.923 63.0855 80.9627 63.122C81.0025 63.1585 81.0224 63.2049 81.0224 63.2612V63.8132L81.4998 64.2309H85.0254L85.5127 63.8132V62.0429L85.0354 61.6053H81.7037C81.6473 61.6053 81.5992 61.5871 81.5595 61.5506C81.5197 61.5142 81.4998 61.4678 81.4998 61.4114V60.9092C81.4998 60.8528 81.5197 60.8047 81.5595 60.765C81.5992 60.7252 81.6473 60.7053 81.7037 60.7053H85.0851L85.105 60.6755L85.5127 60.2776V58.6615L85.0254 58.2239H81.4898L81.0224 58.6615V59.1886C81.0224 59.245 81.0025 59.2914 80.9627 59.3279C80.923 59.3643 80.8749 59.3826 80.8185 59.3826H80.1572C80.1008 59.3826 80.0527 59.3643 80.013 59.3279C79.9732 59.2914 79.9533 59.245 79.9533 59.1886V58.3433C79.9533 58.3035 79.9699 58.267 80.003 58.2339L81.0821 57.1946C81.1086 57.1681 81.1467 57.1548 81.1965 57.1548H85.3288C85.3785 57.1548 85.4166 57.1681 85.4431 57.1946L86.5321 58.2339C86.5587 58.2604 86.5719 58.2969 86.5719 58.3433V60.5213C86.5719 60.5644 86.5553 60.6025 86.5222 60.6357ZM88.1035 65.852C88.0239 65.852 87.9692 65.8172 87.9394 65.7476L87.656 65.2503C87.6361 65.2205 87.6261 65.1857 87.6261 65.1459C87.6261 65.0962 87.6527 65.0498 87.7057 65.0067C88.077 64.7116 88.43 64.2657 88.7649 63.669C89.1063 63.0623 89.2771 62.2518 89.2771 61.2374C89.2771 60.2296 89.0997 59.4174 88.745 58.8008C88.3936 58.1709 88.0438 57.7233 87.6958 57.4581C87.6427 57.415 87.6162 57.3603 87.6162 57.294C87.6162 57.2642 87.6261 57.2344 87.646 57.2045L87.9494 56.7271C87.9991 56.6575 88.0571 56.6227 88.1234 56.6227C88.1566 56.6227 88.2013 56.6393 88.2577 56.6724C88.745 57.0802 89.1527 57.5907 89.4809 58.204C89.9815 59.1057 90.2318 60.1169 90.2318 61.2374C90.2318 62.5269 89.9368 63.6375 89.3467 64.5691C89.0483 65.0597 88.6754 65.4724 88.2278 65.8073C88.198 65.8371 88.1566 65.852 88.1035 65.852ZM101.147 65.0862C101.147 65.1492 101.124 65.2006 101.077 65.2404C101.034 65.2802 100.979 65.3 100.913 65.3H100.252C100.172 65.3 100.118 65.2586 100.088 65.1757L99.2025 62.8684L99.1329 62.8784H95.8012L94.9559 65.1757C94.936 65.2586 94.878 65.3 94.7818 65.3H94.1205C94.0376 65.3 93.9746 65.2702 93.9315 65.2105C93.8884 65.1509 93.8801 65.0829 93.9066 65.0067L96.7411 57.2741C96.7709 57.1946 96.8273 57.1548 96.9101 57.1548H98.0041C98.1003 57.1548 98.1533 57.1946 98.1632 57.2741L101.127 64.9967C101.14 65.0498 101.147 65.0796 101.147 65.0862ZM96.1891 61.8192H98.8047L97.5616 58.5372H97.4024L96.1891 61.8192ZM101.972 65.0962L101.962 57.3587C101.962 57.3023 101.982 57.2542 102.022 57.2145C102.062 57.1747 102.11 57.1548 102.166 57.1548H108.019C108.075 57.1548 108.124 57.1747 108.163 57.2145C108.203 57.2542 108.223 57.3023 108.223 57.3587V58.0101C108.223 58.0665 108.203 58.1145 108.163 58.1543C108.124 58.1941 108.075 58.214 108.019 58.214H103.032V60.7152H107.726C107.782 60.7152 107.83 60.7351 107.87 60.7749C107.91 60.8147 107.93 60.8628 107.93 60.9191V61.5805C107.93 61.6368 107.91 61.6833 107.87 61.7197C107.83 61.7562 107.782 61.7744 107.726 61.7744H103.032V64.2409H108.019C108.075 64.2409 108.124 64.2608 108.163 64.3005C108.203 64.3403 108.223 64.3884 108.223 64.4447V65.0962C108.223 65.1525 108.203 65.2006 108.163 65.2404C108.124 65.2802 108.075 65.3 108.019 65.3H102.176C102.12 65.3 102.072 65.2802 102.032 65.2404C101.992 65.2006 101.972 65.1525 101.972 65.0962ZM110.481 65.2603L109.501 64.4149C109.461 64.3751 109.441 64.3337 109.441 64.2906V58.1692C109.441 58.1294 109.461 58.0897 109.501 58.0499L110.481 57.1946C110.497 57.1681 110.53 57.1548 110.58 57.1548H115.856C115.912 57.1548 115.96 57.1747 116 57.2145C116.04 57.2542 116.06 57.3023 116.06 57.3587V58.0101C116.06 58.0665 116.04 58.1145 116 58.1543C115.96 58.1941 115.912 58.214 115.856 58.214H110.968L110.51 58.6068L110.5 63.8629L110.948 64.2409H114.991V61.7545H112.977C112.921 61.7545 112.872 61.7346 112.833 61.6949C112.793 61.6551 112.773 61.607 112.773 61.5506V60.9539C112.773 60.8976 112.793 60.8495 112.833 60.8097C112.872 60.7699 112.921 60.75 112.977 60.75H115.856C115.912 60.75 115.96 60.7699 116 60.8097C116.04 60.8495 116.06 60.8976 116.06 60.9539V65.0962C116.06 65.1525 116.04 65.2006 116 65.2404C115.96 65.2802 115.912 65.3 115.856 65.3H110.58C110.53 65.3 110.497 65.2868 110.481 65.2603ZM117.398 65.0962V57.3587C117.398 57.3023 117.417 57.2542 117.457 57.2145C117.497 57.1747 117.545 57.1548 117.601 57.1548H118.263C118.319 57.1548 118.367 57.1747 118.407 57.2145C118.447 57.2542 118.467 57.3023 118.467 57.3587V65.0962C118.467 65.1525 118.447 65.2006 118.407 65.2404C118.367 65.2802 118.319 65.3 118.263 65.3H117.601C117.545 65.3 117.497 65.2802 117.457 65.2404C117.417 65.2006 117.398 65.1525 117.398 65.0962ZM120.764 65.2603L119.804 64.4447C119.771 64.4116 119.755 64.3702 119.755 64.3204V63.2811C119.755 63.2281 119.775 63.1833 119.814 63.1469C119.854 63.1104 119.899 63.0922 119.949 63.0922H120.61C120.666 63.0922 120.713 63.1104 120.749 63.1469C120.786 63.18 120.804 63.2248 120.804 63.2811V63.8828L121.251 64.2409H124.886L125.304 63.8828V62.1324L124.797 61.7446H120.913C120.883 61.7446 120.85 61.7313 120.814 61.7048L119.804 60.8396C119.771 60.8064 119.755 60.765 119.755 60.7152L119.745 58.0996C119.745 58.0499 119.761 58.0084 119.794 57.9753L120.719 57.1946C120.746 57.1681 120.781 57.1548 120.824 57.1548H125.274C125.314 57.1548 125.347 57.1681 125.374 57.1946L126.304 58.0101C126.337 58.0432 126.353 58.083 126.353 58.1294V59.119C126.353 59.1754 126.335 59.2234 126.299 59.2632C126.262 59.303 126.216 59.3229 126.159 59.3229H125.498C125.452 59.3229 125.407 59.3013 125.364 59.2582C125.324 59.2151 125.304 59.172 125.304 59.1289V58.567L124.886 58.214H121.251L120.814 58.567L120.804 60.2876L121.291 60.6755H125.17C125.203 60.6755 125.238 60.6887 125.274 60.7152L126.304 61.5805C126.337 61.6136 126.353 61.6551 126.353 61.7048L126.363 64.3652C126.363 64.4116 126.347 64.4514 126.314 64.4845L125.438 65.2603C125.412 65.2868 125.374 65.3 125.324 65.3H120.864C120.834 65.3 120.801 65.2868 120.764 65.2603ZM127.358 65.0962V64.2806C127.358 64.2276 127.378 64.1829 127.418 64.1464C127.461 64.1066 127.505 64.0867 127.552 64.0867H128.253C128.309 64.0867 128.357 64.1049 128.397 64.1414C128.437 64.1779 128.457 64.2243 128.457 64.2806V65.0962C128.457 65.1525 128.437 65.2006 128.397 65.2404C128.357 65.2802 128.309 65.3 128.253 65.3H127.552C127.495 65.3 127.449 65.2802 127.413 65.2404C127.376 65.2006 127.358 65.1525 127.358 65.0962ZM129.705 57.1548H134.747C134.787 57.1548 134.82 57.1681 134.847 57.1946L135.757 57.9753C135.797 58.0151 135.816 58.0598 135.816 58.1095V61.1528C135.816 61.1959 135.797 61.2374 135.757 61.2771L134.847 62.0429C134.827 62.0628 134.794 62.0728 134.747 62.0728H130.57V65.0962C130.57 65.1525 130.55 65.2006 130.511 65.2404C130.471 65.2802 130.423 65.3 130.366 65.3H129.705C129.649 65.3 129.601 65.2802 129.561 65.2404C129.521 65.2006 129.501 65.1525 129.501 65.0962V57.3587C129.501 57.3023 129.521 57.2542 129.561 57.2145C129.601 57.1747 129.649 57.1548 129.705 57.1548ZM130.57 61.0235H134.31L134.757 60.6456V58.5869L134.31 58.214H130.57V61.0235ZM136.99 65.0962V57.3587C136.99 57.3023 137.01 57.2542 137.05 57.2145C137.089 57.1747 137.137 57.1548 137.194 57.1548H137.746C137.802 57.1548 137.845 57.1747 137.875 57.2145L142.549 63.1518V57.3587C142.549 57.3023 142.569 57.2542 142.609 57.2145C142.649 57.1747 142.697 57.1548 142.753 57.1548H143.415C143.471 57.1548 143.517 57.1747 143.554 57.2145C143.59 57.2542 143.609 57.3023 143.609 57.3587V65.0962C143.609 65.1525 143.59 65.2006 143.554 65.2404C143.517 65.2802 143.471 65.3 143.415 65.3H142.997C142.944 65.3 142.898 65.2802 142.858 65.2404L138.049 59.0892V65.0962C138.049 65.1525 138.031 65.2006 137.994 65.2404C137.958 65.2802 137.912 65.3 137.855 65.3H137.194C137.137 65.3 137.089 65.2802 137.05 65.2404C137.01 65.2006 136.99 65.1525 136.99 65.0962ZM145.986 65.2603L145.006 64.4149C144.966 64.3751 144.946 64.3337 144.946 64.2906V58.1692C144.946 58.1294 144.966 58.0897 145.006 58.0499L145.986 57.1946C146.002 57.1681 146.035 57.1548 146.085 57.1548H151.361C151.417 57.1548 151.465 57.1747 151.505 57.2145C151.545 57.2542 151.565 57.3023 151.565 57.3587V58.0101C151.565 58.0665 151.545 58.1145 151.505 58.1543C151.465 58.1941 151.417 58.214 151.361 58.214H146.473L146.015 58.6068L146.005 63.8629L146.453 64.2409H150.496V61.7545H148.482C148.425 61.7545 148.377 61.7346 148.338 61.6949C148.298 61.6551 148.278 61.607 148.278 61.5506V60.9539C148.278 60.8976 148.298 60.8495 148.338 60.8097C148.377 60.7699 148.425 60.75 148.482 60.75H151.361C151.417 60.75 151.465 60.7699 151.505 60.8097C151.545 60.8495 151.565 60.8976 151.565 60.9539V65.0962C151.565 65.1525 151.545 65.2006 151.505 65.2404C151.465 65.2802 151.417 65.3 151.361 65.3H146.085C146.035 65.3 146.002 65.2868 145.986 65.2603Z" fill="white"></path><path opacity="0.6" d="M76.6778 76.7188V76.041L78.3207 74.2949C78.6007 73.9953 78.8045 73.73 78.9322 73.4992C79.0599 73.2634 79.1238 73.0375 79.1238 72.8214C79.1238 72.5218 79.0403 72.286 78.8733 72.1141C78.7112 71.9422 78.4877 71.8563 78.2028 71.8563C77.8885 71.8563 77.6405 71.9447 77.4587 72.1215C77.2819 72.2983 77.1935 72.5414 77.1935 72.8509H76.5305C76.5403 72.5267 76.6139 72.2467 76.7515 72.011C76.8939 71.7703 77.0879 71.5861 77.3335 71.4584C77.584 71.3307 77.8738 71.2669 78.2028 71.2669C78.527 71.2669 78.807 71.3307 79.0427 71.4584C79.2834 71.5812 79.4676 71.758 79.5953 71.9889C79.723 72.2197 79.7868 72.4948 79.7868 72.814C79.7868 73.1186 79.7058 73.4206 79.5437 73.7202C79.3816 74.0198 79.1164 74.3612 78.748 74.7443L77.4219 76.1146H79.8752V76.7188H76.6778ZM82.3331 76.7924C82.1464 76.7924 81.9966 76.7384 81.8837 76.6303C81.7756 76.5223 81.7216 76.3774 81.7216 76.1957C81.7216 76.0041 81.7756 75.8519 81.8837 75.7389C81.9966 75.6259 82.1464 75.5694 82.3331 75.5694C82.5197 75.5694 82.6671 75.6259 82.7751 75.7389C82.8881 75.8519 82.9446 76.0041 82.9446 76.1957C82.9446 76.3774 82.8881 76.5223 82.7751 76.6303C82.6671 76.7384 82.5197 76.7924 82.3331 76.7924ZM86.4559 76.7924C86.1269 76.7924 85.8395 76.7286 85.594 76.6009C85.3533 76.4683 85.1666 76.2841 85.034 76.0483C84.9014 75.8076 84.8351 75.5277 84.8351 75.2084V72.8509C84.8351 72.5267 84.9014 72.2467 85.034 72.011C85.1666 71.7752 85.3533 71.5935 85.594 71.4658C85.8395 71.3332 86.1269 71.2669 86.4559 71.2669C86.7899 71.2669 87.0773 71.3332 87.3179 71.4658C87.5586 71.5935 87.7452 71.7752 87.8778 72.011C88.0105 72.2467 88.0768 72.5267 88.0768 72.8509V75.2084C88.0768 75.5277 88.0105 75.8076 87.8778 76.0483C87.7452 76.2841 87.5561 76.4683 87.3106 76.6009C87.0699 76.7286 86.785 76.7924 86.4559 76.7924ZM86.4559 76.2251C86.7506 76.2251 86.9864 76.1318 87.1632 75.9452C87.3449 75.7536 87.4358 75.508 87.4358 75.2084V72.8509C87.4358 72.5513 87.3449 72.3081 87.1632 72.1215C86.9864 71.9299 86.7506 71.8342 86.4559 71.8342C86.1612 71.8342 85.923 71.9299 85.7413 72.1215C85.5645 72.3081 85.4761 72.5513 85.4761 72.8509V75.2084C85.4761 75.508 85.5645 75.7536 85.7413 75.9452C85.923 76.1318 86.1612 76.2251 86.4559 76.2251ZM86.4559 74.4643C86.3233 74.4643 86.2153 74.4226 86.1318 74.3391C86.0532 74.2556 86.0139 74.1451 86.0139 74.0076C86.0139 73.8749 86.0532 73.7693 86.1318 73.6908C86.2153 73.6073 86.3233 73.5655 86.4559 73.5655C86.5886 73.5655 86.6942 73.6073 86.7727 73.6908C86.8562 73.7693 86.898 73.8749 86.898 74.0076C86.898 74.1451 86.8562 74.2556 86.7727 74.3391C86.6942 74.4226 86.5886 74.4643 86.4559 74.4643ZM93.0514 76.7188V71.3406H93.9207L94.4806 73.0793C94.5347 73.2364 94.5838 73.3936 94.628 73.5508C94.6722 73.703 94.7041 73.8209 94.7238 73.9044C94.7483 73.8209 94.7802 73.703 94.8195 73.5508C94.8588 73.3936 94.903 73.234 94.9522 73.0719L95.4826 71.3406H96.352V76.7188H95.7036V74.7664C95.7036 74.5503 95.711 74.3047 95.7257 74.0297C95.7405 73.7546 95.7601 73.4746 95.7847 73.1898C95.8092 72.9 95.8338 72.6249 95.8583 72.3646C95.8878 72.0994 95.9124 71.8686 95.932 71.6721L95.0627 74.3612H94.3628L93.486 71.6721C93.5106 71.8636 93.5352 72.0871 93.5597 72.3425C93.5843 72.593 93.6064 72.8607 93.626 73.1456C93.6457 73.4255 93.6629 73.7055 93.6776 73.9854C93.6923 74.2654 93.6997 74.5257 93.6997 74.7664V76.7188H93.0514ZM97.2995 76.7188V71.3406H98.8245C99.3157 71.3406 99.6988 71.4633 99.9738 71.7089C100.254 71.9545 100.394 72.2959 100.394 72.733C100.394 72.9786 100.342 73.1922 100.239 73.374C100.136 73.5557 99.9886 73.6957 99.797 73.7939C99.6104 73.8921 99.3844 73.9388 99.1192 73.9339V73.8234C99.4041 73.8185 99.6497 73.8725 99.856 73.9854C100.067 74.0984 100.229 74.2605 100.342 74.4717C100.46 74.6829 100.519 74.9334 100.519 75.2232C100.519 75.5277 100.455 75.7929 100.327 76.0188C100.2 76.2448 100.018 76.4191 99.7823 76.5419C99.5465 76.6598 99.2641 76.7188 98.935 76.7188H97.2995ZM97.9478 76.122H98.8614C99.1708 76.122 99.4139 76.041 99.5907 75.8789C99.7725 75.7119 99.8633 75.4859 99.8633 75.2011C99.8633 74.9064 99.7725 74.6682 99.5907 74.4864C99.4139 74.2998 99.1708 74.2065 98.8614 74.2065H97.9478V76.122ZM97.9478 73.6318H98.8172C99.102 73.6318 99.3255 73.5557 99.4876 73.4034C99.6546 73.2512 99.7381 73.0449 99.7381 72.7846C99.7381 72.5242 99.657 72.318 99.495 72.1657C99.3329 72.0134 99.1094 71.9373 98.8245 71.9373H97.9478V73.6318Z" fill="white"></path><path d="M76.7775 93.2632V87.0941H78.3747C78.7747 87.0941 79.1184 87.1701 79.4057 87.3223C79.6986 87.4744 79.924 87.6885 80.0818 87.9645C80.2451 88.2406 80.3268 88.5673 80.3268 88.9448V91.404C80.3268 91.7815 80.2451 92.1111 80.0818 92.3927C79.924 92.6688 79.6986 92.8829 79.4057 93.035C79.1184 93.1871 78.7747 93.2632 78.3747 93.2632H76.7775ZM77.5381 92.5871H78.3747C78.7465 92.5871 79.0367 92.4829 79.2451 92.2744C79.4592 92.066 79.5663 91.7758 79.5663 91.404V88.9448C79.5663 88.5786 79.4592 88.2913 79.2451 88.0828C79.0367 87.8744 78.7465 87.7701 78.3747 87.7701H77.5381V92.5871ZM83.2644 93.3477C82.8926 93.3477 82.5714 93.2773 82.301 93.1364C82.0362 92.9956 81.8306 92.7928 81.6841 92.528C81.5433 92.2575 81.4728 91.9392 81.4728 91.573V88.7842C81.4728 88.4124 81.5433 88.0941 81.6841 87.8293C81.8306 87.5645 82.0362 87.3617 82.301 87.2208C82.5714 87.08 82.8926 87.0096 83.2644 87.0096C83.6362 87.0096 83.9546 87.08 84.2194 87.2208C84.4898 87.3617 84.6954 87.5645 84.8363 87.8293C84.9827 88.0941 85.056 88.4096 85.056 88.7758V91.573C85.056 91.9392 84.9827 92.2575 84.8363 92.528C84.6954 92.7928 84.4898 92.9956 84.2194 93.1364C83.9546 93.2773 83.6362 93.3477 83.2644 93.3477ZM83.2644 92.6632C83.5968 92.6632 83.8503 92.5702 84.025 92.3843C84.2053 92.1927 84.2954 91.9223 84.2954 91.573V88.7842C84.2954 88.4349 84.2053 88.1673 84.025 87.9814C83.8503 87.7899 83.5968 87.6941 83.2644 87.6941C82.9376 87.6941 82.6841 87.7899 82.5038 87.9814C82.3236 88.1673 82.2334 88.4349 82.2334 88.7842V91.573C82.2334 91.9223 82.3236 92.1927 82.5038 92.3843C82.6841 92.5702 82.9376 92.6632 83.2644 92.6632ZM86.3795 93.2632L85.6696 87.0941H86.3964L86.8612 91.6575C86.8724 91.7815 86.8837 91.9111 86.895 92.0463C86.9062 92.1758 86.9147 92.2998 86.9203 92.4181C86.9316 92.5364 86.9372 92.635 86.9372 92.7139C86.9485 92.635 86.9569 92.5364 86.9626 92.4181C86.9738 92.2998 86.9851 92.1758 86.9964 92.0463C87.0133 91.9111 87.0302 91.7815 87.0471 91.6575L87.6217 87.0941H88.4077L88.9316 91.6575C88.9485 91.7815 88.9626 91.9111 88.9739 92.0463C88.9908 92.1758 89.0049 92.2998 89.0161 92.4181C89.033 92.5364 89.0443 92.635 89.0499 92.7139C89.0556 92.635 89.0612 92.5364 89.0668 92.4181C89.0781 92.2998 89.0894 92.1758 89.1006 92.0463C89.1175 91.9111 89.1316 91.7815 89.1429 91.6575L89.6246 87.0941H90.3176L89.5908 93.2632H88.6358L88.1119 88.6152C88.1006 88.4856 88.0865 88.3589 88.0696 88.2349C88.0584 88.111 88.0471 87.9955 88.0358 87.8885C88.0246 87.7814 88.0161 87.6941 88.0105 87.6265C88.0048 87.6941 87.9936 87.7814 87.9767 87.8885C87.9654 87.9955 87.9541 88.111 87.9429 88.2349C87.9316 88.3589 87.9175 88.4856 87.9006 88.6152L87.3344 93.2632H86.3795ZM90.9481 93.2632V87.0941H91.9622L93.8467 92.3758C93.8354 92.235 93.8213 92.0632 93.8044 91.8603C93.7932 91.6519 93.7819 91.435 93.7706 91.2096C93.765 90.9786 93.7622 90.7617 93.7622 90.5589V87.0941H94.4974V93.2632H93.4833L91.6072 87.9814C91.6185 88.1166 91.6298 88.2885 91.641 88.4969C91.6523 88.6997 91.6608 88.9166 91.6664 89.1476C91.6777 89.373 91.6833 89.5899 91.6833 89.7983V93.2632H90.9481ZM95.8885 93.2632V87.0941H96.6491V92.5702H99.4378V93.2632H95.8885ZM102.181 93.3477C101.809 93.3477 101.488 93.2773 101.218 93.1364C100.953 92.9956 100.747 92.7928 100.601 92.528C100.46 92.2575 100.389 91.9392 100.389 91.573V88.7842C100.389 88.4124 100.46 88.0941 100.601 87.8293C100.747 87.5645 100.953 87.3617 101.218 87.2208C101.488 87.08 101.809 87.0096 102.181 87.0096C102.553 87.0096 102.871 87.08 103.136 87.2208C103.406 87.3617 103.612 87.5645 103.753 87.8293C103.899 88.0941 103.973 88.4096 103.973 88.7758V91.573C103.973 91.9392 103.899 92.2575 103.753 92.528C103.612 92.7928 103.406 92.9956 103.136 93.1364C102.871 93.2773 102.553 93.3477 102.181 93.3477ZM102.181 92.6632C102.513 92.6632 102.767 92.5702 102.942 92.3843C103.122 92.1927 103.212 91.9223 103.212 91.573V88.7842C103.212 88.4349 103.122 88.1673 102.942 87.9814C102.767 87.7899 102.513 87.6941 102.181 87.6941C101.854 87.6941 101.601 87.7899 101.42 87.9814C101.24 88.1673 101.15 88.4349 101.15 88.7842V91.573C101.15 91.9223 101.24 92.1927 101.42 92.3843C101.601 92.5702 101.854 92.6632 102.181 92.6632ZM104.798 93.2632L106.403 87.0941H107.426L109.023 93.2632H108.254L107.848 91.6237H105.981L105.575 93.2632H104.798ZM106.133 90.9815H107.688L107.214 89.08C107.124 88.7195 107.054 88.418 107.003 88.1758C106.952 87.9335 106.921 87.7758 106.91 87.7025C106.899 87.7758 106.868 87.9335 106.817 88.1758C106.767 88.418 106.696 88.7166 106.606 89.0716L106.133 90.9815ZM109.882 93.2632V87.0941H111.479C111.879 87.0941 112.222 87.1701 112.51 87.3223C112.803 87.4744 113.028 87.6885 113.186 87.9645C113.349 88.2406 113.431 88.5673 113.431 88.9448V91.404C113.431 91.7815 113.349 92.1111 113.186 92.3927C113.028 92.6688 112.803 92.8829 112.51 93.035C112.222 93.1871 111.879 93.2632 111.479 93.2632H109.882ZM110.642 92.5871H111.479C111.851 92.5871 112.141 92.4829 112.349 92.2744C112.563 92.066 112.67 91.7758 112.67 91.404V88.9448C112.67 88.5786 112.563 88.2913 112.349 88.0828C112.141 87.8744 111.851 87.7701 111.479 87.7701H110.642V92.5871Z" fill="#0DBBEC"></path><defs><filter id="filter0_b_32_559" x="-18.4" y="-18.4" width="286.8" height="332.8" filterUnits="userSpaceOnUse" color-interpolation-filters="sRGB"><feFlood flood-opacity="0" result="BackgroundImageFix"></feFlood><feGaussianBlur in="BackgroundImageFix" stdDeviation="9.2"></feGaussianBlur><feComposite in2="SourceAlpha" operator="in" result="effect1_backgroundBlur_32_559"></feComposite><feBlend mode="normal" in="SourceGraphic" in2="effect1_backgroundBlur_32_559" result="shape"></feBlend></filter><clipPath id="clip0_32_559"><rect width="11" height="11" fill="white" transform="translate(15 15)"></rect></clipPath></defs></svg> 