<?xml version="1.0" encoding="UTF-8"?> <svg xmlns="http://www.w3.org/2000/svg" width="31" height="32" viewBox="0 0 31 32" fill="none"><path fill-rule="evenodd" clip-rule="evenodd" d="M30.4865 0.75676H0V20.4483L10.7949 31.2432H30.4865V0.75676Z" fill="#D0FD1B"></path><path d="M7.92957 15.2828L11.1434 16.3519L18.7742 11.7825C18.885 11.7165 18.9983 11.8636 18.9029 11.9496L13.1261 17.1579L12.9115 20.0737C12.908 20.1225 12.9197 20.1712 12.9451 20.2134C12.9705 20.2556 13.0085 20.2892 13.0538 20.3097C13.0992 20.3303 13.1499 20.3369 13.1991 20.3286C13.2484 20.3203 13.2939 20.2975 13.3297 20.2633L15.1082 18.55L18.36 20.9609C18.7103 21.2209 19.2178 21.0376 19.3121 20.6172L21.5763 10.5477C21.7055 9.97336 21.1306 9.48846 20.5702 9.69865L7.9136 14.446C7.51637 14.5951 7.52735 15.1489 7.92957 15.2828Z" fill="black"></path></svg> 