<?xml version="1.0" encoding="UTF-8"?> <svg xmlns="http://www.w3.org/2000/svg" width="226" height="140" viewBox="0 0 226 140" fill="none"><mask id="path-1-inside-1_30_542" fill="white"><path fill-rule="evenodd" clip-rule="evenodd" d="M0 36.0624V140H226V0H36.0625L36.1249 0.0623779L0.0624452 36.1248L0 36.0624Z"></path></mask><path fill-rule="evenodd" clip-rule="evenodd" d="M0 36.0624V140H226V0H36.0625L36.1249 0.0623779L0.0624452 36.1248L0 36.0624Z" fill="#1E1E1E" fill-opacity="0.47"></path><path d="M0 140H-1V141H0V140ZM0 36.0624L0.707115 35.3553L-1 33.6481L-1 36.0624H0ZM226 140V141H227V140H226ZM226 0H227V-1H226V0ZM36.0625 0V-1H33.6483L35.3554 0.707107L36.0625 0ZM36.1249 0.0623779L36.832 0.769485L37.5391 0.0623779L36.832 -0.644729L36.1249 0.0623779ZM0.0624452 36.1248L-0.644669 36.8319L0.0624375 37.539L0.769552 36.8319L0.0624452 36.1248ZM1 140V36.0624H-1V140H1ZM226 139H0V141H226V139ZM225 0V140H227V0H225ZM36.0625 1H226V-1H36.0625V1ZM35.3554 0.707107L35.4178 0.769485L36.832 -0.644729L36.7696 -0.707107L35.3554 0.707107ZM35.4178 -0.644729L-0.644662 35.4177L0.769552 36.8319L36.832 0.769485L35.4178 -0.644729ZM0.76956 35.4177L0.707115 35.3553L-0.707115 36.7695L-0.644669 36.8319L0.76956 35.4177Z" fill="#3B3B3B" fill-opacity="0.24" mask="url(#path-1-inside-1_30_542)"></path><path d="M93.164 65V53.7471H89.6963V52.3254H98.1923V53.7471H94.7245V65H93.164ZM103.647 65.1387C102.884 65.1387 102.225 64.9942 101.671 64.7052C101.116 64.4163 100.682 64.0001 100.37 63.4568C100.07 62.902 99.9194 62.2489 99.9194 61.4976V58.9661C99.9194 58.2032 100.07 57.5501 100.37 57.0068C100.682 56.4635 101.116 56.0474 101.671 55.7584C102.225 55.4695 102.884 55.325 103.647 55.325C104.41 55.325 105.069 55.4695 105.624 55.7584C106.179 56.0474 106.606 56.4635 106.907 57.0068C107.219 57.5501 107.375 58.1974 107.375 58.9488V61.4976C107.375 62.2489 107.219 62.902 106.907 63.4568C106.606 64.0001 106.179 64.4163 105.624 64.7052C105.069 64.9942 104.41 65.1387 103.647 65.1387ZM103.647 63.7516C104.329 63.7516 104.861 63.5609 105.242 63.1794C105.624 62.798 105.815 62.2374 105.815 61.4976V58.9661C105.815 58.2263 105.624 57.6657 105.242 57.2842C104.861 56.9028 104.329 56.7121 103.647 56.7121C102.977 56.7121 102.445 56.9028 102.052 57.2842C101.671 57.6657 101.48 58.2263 101.48 58.9661V61.4976C101.48 62.2374 101.671 62.798 102.052 63.1794C102.445 63.5609 102.977 63.7516 103.647 63.7516ZM114.39 65C113.57 65 112.928 64.7804 112.466 64.3411C112.015 63.9019 111.79 63.2835 111.79 62.4859V56.8855H109.102V55.4637H111.79V52.7762H113.35V55.4637H117.165V56.8855H113.35V62.4859C113.35 63.2141 113.697 63.5782 114.39 63.5782H116.991V65H114.39ZM122.221 65.1734C121.215 65.1734 120.423 64.9191 119.845 64.4105C119.267 63.8903 118.978 63.191 118.978 62.3125C118.978 61.4224 119.267 60.7231 119.845 60.2145C120.423 59.7059 121.204 59.4516 122.186 59.4516H125.134V58.498C125.134 57.9084 124.955 57.4576 124.596 57.1455C124.249 56.8219 123.752 56.6601 123.105 56.6601C122.539 56.6601 122.065 56.7814 121.683 57.0242C121.302 57.2553 121.082 57.5732 121.024 57.9778H119.464C119.568 57.1571 119.955 56.504 120.626 56.0185C121.296 55.533 122.134 55.2903 123.14 55.2903C124.238 55.2903 125.105 55.5735 125.741 56.1399C126.376 56.7063 126.694 57.475 126.694 58.4459V65H125.168V63.1794H124.908L125.168 62.9193C125.168 63.6129 124.897 64.162 124.354 64.5665C123.822 64.9711 123.111 65.1734 122.221 65.1734ZM122.602 63.9423C123.342 63.9423 123.949 63.7574 124.423 63.3875C124.897 63.0176 125.134 62.5437 125.134 61.9657V60.6133H122.221C121.701 60.6133 121.29 60.7578 120.99 61.0468C120.689 61.3357 120.539 61.7288 120.539 62.2258C120.539 62.7575 120.718 63.1794 121.076 63.4915C121.446 63.7921 121.955 63.9423 122.602 63.9423ZM134.056 65C133.502 65 133.016 64.8902 132.6 64.6706C132.184 64.4509 131.86 64.1388 131.629 63.7343C131.398 63.3297 131.282 62.8558 131.282 62.3125V53.7645H128.075V52.3427H132.843V62.3125C132.843 62.7055 132.953 63.0176 133.172 63.2488C133.392 63.4684 133.687 63.5782 134.056 63.5782H137.091V65H134.056ZM69.4095 88.1734C68.5773 88.1734 67.8606 88.0347 67.2595 87.7573C66.67 87.4798 66.2134 87.081 65.8897 86.5609C65.5661 86.0407 65.3985 85.4223 65.3869 84.7056H66.9474C66.9474 85.3414 67.1613 85.8442 67.5889 86.2141C68.0282 86.584 68.635 86.7689 69.4095 86.7689C70.1377 86.7689 70.7041 86.5898 71.1087 86.2314C71.5248 85.8731 71.7329 85.3761 71.7329 84.7403C71.7329 84.2317 71.5942 83.7867 71.3168 83.4052C71.0509 83.0238 70.6637 82.7579 70.1551 82.6076L68.4385 82.0701C67.5716 81.8043 66.9012 81.3593 66.4272 80.7351C65.9649 80.1109 65.7337 79.3769 65.7337 78.533C65.7337 77.851 65.884 77.2615 66.1845 76.7645C66.4966 76.2559 66.9301 75.8629 67.4849 75.5854C68.0398 75.2965 68.6928 75.152 69.4442 75.152C70.5539 75.152 71.4439 75.4641 72.1144 76.0883C72.7848 76.7009 73.1258 77.5216 73.1374 78.5504H71.5769C71.5769 77.9262 71.3861 77.4407 71.0047 77.0939C70.6348 76.7356 70.1088 76.5564 69.4269 76.5564C68.7564 76.5564 68.2305 76.7182 67.849 77.0419C67.4791 77.3656 67.2942 77.8164 67.2942 78.3943C67.2942 78.9145 67.4329 79.3653 67.7103 79.7467C67.9877 80.1282 68.3865 80.3998 68.9067 80.5617L70.6406 81.1165C71.4844 81.3824 72.1375 81.8332 72.5998 82.4689C73.0622 83.1047 73.2934 83.8503 73.2934 84.7056C73.2934 85.3992 73.1316 86.006 72.8079 86.5262C72.4843 87.0464 72.0277 87.4509 71.4382 87.7399C70.8602 88.0289 70.184 88.1734 69.4095 88.1734ZM79.0258 88.1734C77.9276 88.1734 77.0491 87.8497 76.3903 87.2024C75.7314 86.5435 75.402 85.6535 75.402 84.5322V78.4637H76.9624V84.5322C76.9624 85.2489 77.1474 85.8095 77.5173 86.2141C77.8872 86.6071 78.39 86.8036 79.0258 86.8036C79.6731 86.8036 80.1817 86.6071 80.5516 86.2141C80.933 85.8095 81.1237 85.2489 81.1237 84.5322V78.4637H82.6842V84.5322C82.6842 85.6535 82.349 86.5435 81.6786 87.2024C81.0082 87.8497 80.1239 88.1734 79.0258 88.1734ZM85.1396 91.121V78.4637H86.7001V80.2842H87.0122L86.7001 80.6484C86.7001 79.9201 86.937 79.348 87.411 78.9318C87.8964 78.5041 88.5322 78.2903 89.3182 78.2903C90.2776 78.2903 91.0405 78.6082 91.6069 79.2439C92.1849 79.8681 92.4739 80.7293 92.4739 81.8274V84.6189C92.4739 85.3472 92.3409 85.9771 92.0751 86.5089C91.8208 87.0406 91.4567 87.4509 90.9827 87.7399C90.5204 88.0289 89.9655 88.1734 89.3182 88.1734C88.5438 88.1734 87.9138 87.9595 87.4283 87.5319C86.9428 87.1042 86.7001 86.532 86.7001 85.8153L87.0122 86.1794H86.6654L86.7001 88.3468V91.121H85.1396ZM88.7981 86.821C89.4569 86.821 89.9713 86.6245 90.3412 86.2314C90.7227 85.8384 90.9134 85.272 90.9134 84.5322V81.9314C90.9134 81.1916 90.7227 80.6252 90.3412 80.2322C89.9713 79.8392 89.4569 79.6427 88.7981 79.6427C88.1623 79.6427 87.6537 79.845 87.2722 80.2496C86.8908 80.6541 86.7001 81.2148 86.7001 81.9314V84.5322C86.7001 85.2489 86.8908 85.8095 87.2722 86.2141C87.6537 86.6187 88.1623 86.821 88.7981 86.821ZM94.8425 91.121V78.4637H96.403V80.2842H96.7151L96.403 80.6484C96.403 79.9201 96.64 79.348 97.1139 78.9318C97.5994 78.5041 98.2351 78.2903 99.0212 78.2903C99.9806 78.2903 100.743 78.6082 101.31 79.2439C101.888 79.8681 102.177 80.7293 102.177 81.8274V84.6189C102.177 85.3472 102.044 85.9771 101.778 86.5089C101.524 87.0406 101.16 87.4509 100.686 87.7399C100.223 88.0289 99.6685 88.1734 99.0212 88.1734C98.2467 88.1734 97.6167 87.9595 97.1312 87.5319C96.6457 87.1042 96.403 86.532 96.403 85.8153L96.7151 86.1794H96.3683L96.403 88.3468V91.121H94.8425ZM98.501 86.821C99.1599 86.821 99.6743 86.6245 100.044 86.2314C100.426 85.8384 100.616 85.272 100.616 84.5322V81.9314C100.616 81.1916 100.426 80.6252 100.044 80.2322C99.6743 79.8392 99.1599 79.6427 98.501 79.6427C97.8652 79.6427 97.3566 79.845 96.9752 80.2496C96.5937 80.6541 96.403 81.2148 96.403 81.9314V84.5322C96.403 85.2489 96.5937 85.8095 96.9752 86.2141C97.3566 86.6187 97.8652 86.821 98.501 86.821ZM109.452 88C108.897 88 108.412 87.8902 107.996 87.6706C107.58 87.4509 107.256 87.1388 107.025 86.7343C106.794 86.3297 106.678 85.8558 106.678 85.3125V76.7645H103.47V75.3427H108.239V85.3125C108.239 85.7055 108.348 86.0176 108.568 86.2488C108.788 86.4684 109.082 86.5782 109.452 86.5782H112.487V88H109.452ZM115.74 91.121L117.144 87.4105L113.607 78.4637H115.341L117.56 84.3589C117.641 84.5554 117.716 84.7923 117.785 85.0697C117.855 85.3356 117.913 85.561 117.959 85.746C118.005 85.561 118.063 85.3356 118.132 85.0697C118.202 84.7923 118.271 84.5554 118.34 84.3589L120.421 78.4637H122.103L117.404 91.121H115.74ZM127.558 80.8911C127.13 80.8911 126.783 80.7755 126.517 80.5443C126.252 80.3016 126.119 79.9837 126.119 79.5907C126.119 79.1977 126.252 78.8856 126.517 78.6544C126.783 78.4117 127.13 78.2903 127.558 78.2903C127.997 78.2903 128.344 78.4117 128.598 78.6544C128.864 78.8856 128.997 79.1977 128.997 79.5907C128.997 79.9837 128.864 80.3016 128.598 80.5443C128.344 80.7755 127.997 80.8911 127.558 80.8911ZM127.558 88.1734C127.13 88.1734 126.783 88.0578 126.517 87.8266C126.252 87.5839 126.119 87.266 126.119 86.873C126.119 86.48 126.252 86.1679 126.517 85.9367C126.783 85.6939 127.13 85.5726 127.558 85.5726C127.997 85.5726 128.344 85.6939 128.598 85.9367C128.864 86.1679 128.997 86.48 128.997 86.873C128.997 87.266 128.864 87.5839 128.598 87.8266C128.344 88.0578 127.997 88.1734 127.558 88.1734ZM143.323 88V86.5782H146.756V76.6431L143.323 79.2092V77.4754L146.183 75.3427H148.316V86.5782H151.125V88H143.323ZM153.077 88V75.3427H156.667C157.823 75.3427 158.724 75.6317 159.371 76.2096C160.03 76.7876 160.36 77.591 160.36 78.6197C160.36 79.1977 160.238 79.7005 159.996 80.1282C159.753 80.5559 159.406 80.8853 158.955 81.1165C158.516 81.3477 157.984 81.4575 157.36 81.4459V81.1859C158.031 81.1743 158.609 81.3015 159.094 81.5673C159.591 81.8332 159.973 82.2146 160.238 82.7117C160.516 83.2087 160.655 83.7982 160.655 84.4802C160.655 85.1969 160.504 85.8211 160.204 86.3528C159.903 86.8845 159.475 87.2949 158.921 87.5839C158.366 87.8613 157.701 88 156.927 88H153.077ZM154.603 86.5956H156.753C157.482 86.5956 158.054 86.4048 158.47 86.0234C158.898 85.6304 159.111 85.0986 159.111 84.4282C159.111 83.7347 158.898 83.174 158.47 82.7464C158.054 82.3071 157.482 82.0875 156.753 82.0875H154.603V86.5956ZM154.603 80.7351H156.649C157.32 80.7351 157.846 80.5559 158.227 80.1976C158.62 79.8392 158.817 79.3537 158.817 78.7411C158.817 78.1285 158.626 77.643 158.244 77.2846C157.863 76.9263 157.337 76.7471 156.667 76.7471H154.603V80.7351Z" fill="white"></path></svg> 