<?xml version="1.0" encoding="UTF-8"?> <svg xmlns="http://www.w3.org/2000/svg" width="420" height="210" viewBox="0 0 420 210" fill="none"><rect width="420" height="210" fill="#1E1E1E" fill-opacity="0.47"></rect><rect x="0.5" y="0.5" width="419" height="209" stroke="#3B3B3B" stroke-opacity="0.24"></rect><path d="M403.094 19.3197C402.243 19.7507 401.436 20.4138 400.663 21.32L400.022 21.32C400.387 20.5354 400.74 19.9386 401.083 19.5518L398.442 19.5518L398.442 23.7291L397.657 23.7291L397.657 18.7672L401.083 18.7672C400.74 18.3804 400.387 17.7836 400.022 17.0101L400.663 17.0101C401.436 17.9163 402.243 18.5793 403.094 18.9993L403.094 19.3197Z" fill="white"></path><path d="M32.818 25V17.8278H30.6078V16.9217H36.0228V17.8278H33.8126V25H32.818ZM37.212 25V16.9327H38.2066V20.3806H40.7926V16.9327H41.7872V25H40.7926V21.2868H38.2066V25H37.212ZM43.4737 25V16.9327H48.1151V17.8389H44.4572V20.3364H47.7284V21.2316H44.4572V24.0938H48.1151V25H43.4737ZM55.7539 25V16.9327H58.2514C58.7303 16.9327 59.1502 17.0322 59.5112 17.2311C59.8722 17.4226 60.1522 17.6915 60.3511 18.0378C60.55 18.3841 60.6495 18.7893 60.6495 19.2534C60.6495 19.7986 60.5058 20.2665 60.2185 20.6569C59.9385 21.0474 59.5554 21.3163 59.0692 21.4637L60.76 25H59.5886L58.0414 21.5742H56.7485V25H55.7539ZM56.7485 20.679H58.2514C58.664 20.679 58.9955 20.5501 59.246 20.2922C59.4965 20.027 59.6217 19.6807 59.6217 19.2534C59.6217 18.8188 59.4965 18.4725 59.246 18.2146C58.9955 17.9568 58.664 17.8278 58.2514 17.8278H56.7485V20.679ZM62.0266 25V16.9327H66.668V17.8389H63.0101V20.3364H66.2812V21.2316H63.0101V24.0938H66.668V25H62.0266ZM70.4653 25.1105C69.9348 25.1105 69.478 25.0221 69.0949 24.8453C68.7192 24.6685 68.4282 24.4143 68.2219 24.0828C68.0156 23.7512 67.9088 23.3571 67.9014 22.9003H68.896C68.896 23.3055 69.0323 23.626 69.3049 23.8617C69.5849 24.0975 69.9717 24.2154 70.4653 24.2154C70.9294 24.2154 71.2904 24.1012 71.5483 23.8728C71.8135 23.6444 71.9461 23.3276 71.9461 22.9224C71.9461 22.5982 71.8577 22.3146 71.6809 22.0715C71.5114 21.8283 71.2646 21.6589 70.9405 21.5631L69.8464 21.2205C69.2939 21.0511 68.8666 20.7674 68.5645 20.3696C68.2698 19.9718 68.1224 19.5039 68.1224 18.9661C68.1224 18.5314 68.2182 18.1557 68.4098 17.8389C68.6087 17.5147 68.885 17.2642 69.2386 17.0874C69.5922 16.9032 70.0085 16.8111 70.4874 16.8111C71.1946 16.8111 71.7619 17.0101 72.1892 17.4079C72.6166 17.7984 72.8339 18.3215 72.8413 18.9772H71.8467C71.8467 18.5793 71.7251 18.2699 71.482 18.0489C71.2462 17.8205 70.911 17.7063 70.4763 17.7063C70.049 17.7063 69.7138 17.8094 69.4707 18.0157C69.2349 18.222 69.117 18.5093 69.117 18.8777C69.117 19.2092 69.2055 19.4966 69.3823 19.7397C69.5591 19.9828 69.8133 20.1559 70.1448 20.2591L71.2499 20.6127C71.7877 20.7822 72.204 21.0695 72.4987 21.4747C72.7934 21.8799 72.9407 22.3551 72.9407 22.9003C72.9407 23.3423 72.8376 23.7291 72.6313 24.0607C72.425 24.3922 72.134 24.65 71.7583 24.8342C71.3899 25.0184 70.9589 25.1105 70.4653 25.1105ZM74.3067 25V16.9327H76.9037C77.4047 16.9327 77.8394 17.0322 78.2078 17.2311C78.5761 17.4226 78.8598 17.6952 79.0587 18.0489C79.265 18.4025 79.3681 18.8224 79.3681 19.3087C79.3681 19.7876 79.265 20.2075 79.0587 20.5685C78.8598 20.9221 78.5761 21.1984 78.2078 21.3973C77.8394 21.5889 77.4047 21.6847 76.9037 21.6847H75.3013V25H74.3067ZM75.3013 20.7895H76.9037C77.3384 20.7895 77.6847 20.6569 77.9425 20.3917C78.2078 20.1191 78.3404 19.7581 78.3404 19.3087C78.3404 18.8519 78.2078 18.4909 77.9425 18.2257C77.6847 17.9605 77.3384 17.8278 76.9037 17.8278H75.3013V20.7895ZM82.7897 25.1105C82.3034 25.1105 81.8835 25.0184 81.5298 24.8342C81.1836 24.65 80.9147 24.3848 80.7231 24.0386C80.5389 23.6849 80.4468 23.2687 80.4468 22.7898V19.1429C80.4468 18.6567 80.5389 18.2404 80.7231 17.8942C80.9147 17.5479 81.1836 17.2827 81.5298 17.0985C81.8835 16.9143 82.3034 16.8222 82.7897 16.8222C83.2759 16.8222 83.6922 16.9143 84.0384 17.0985C84.3921 17.2827 84.661 17.5479 84.8452 17.8942C85.0367 18.2404 85.1325 18.653 85.1325 19.1319V22.7898C85.1325 23.2687 85.0367 23.6849 84.8452 24.0386C84.661 24.3848 84.3921 24.65 84.0384 24.8342C83.6922 25.0184 83.2759 25.1105 82.7897 25.1105ZM82.7897 24.2154C83.2243 24.2154 83.5559 24.0938 83.7843 23.8507C84.02 23.6002 84.1379 23.2466 84.1379 22.7898V19.1429C84.1379 18.6861 84.02 18.3362 83.7843 18.0931C83.5559 17.8426 83.2243 17.7173 82.7897 17.7173C82.3623 17.7173 82.0308 17.8426 81.7951 18.0931C81.5593 18.3362 81.4414 18.6861 81.4414 19.1429V22.7898C81.4414 23.2466 81.5593 23.6002 81.7951 23.8507C82.0308 24.0938 82.3623 24.2154 82.7897 24.2154ZM86.6532 25V16.9327H87.9794L90.4437 23.8396C90.429 23.6555 90.4106 23.4307 90.3885 23.1655C90.3738 22.8929 90.359 22.6093 90.3443 22.3146C90.3369 22.0125 90.3332 21.7289 90.3332 21.4637V16.9327H91.2947V25H89.9685L87.5152 18.0931C87.5299 18.2699 87.5447 18.4946 87.5594 18.7672C87.5741 19.0324 87.5852 19.3161 87.5926 19.6181C87.6073 19.9128 87.6147 20.1965 87.6147 20.4691V25H86.6532ZM95.2024 25.1105C94.672 25.1105 94.2152 25.0221 93.8321 24.8453C93.4564 24.6685 93.1654 24.4143 92.9591 24.0828C92.7528 23.7512 92.646 23.3571 92.6386 22.9003H93.6332C93.6332 23.3055 93.7695 23.626 94.0421 23.8617C94.322 24.0975 94.7088 24.2154 95.2024 24.2154C95.6666 24.2154 96.0276 24.1012 96.2854 23.8728C96.5507 23.6444 96.6833 23.3276 96.6833 22.9224C96.6833 22.5982 96.5949 22.3146 96.4181 22.0715C96.2486 21.8283 96.0018 21.6589 95.6776 21.5631L94.5836 21.2205C94.031 21.0511 93.6037 20.7674 93.3017 20.3696C93.007 19.9718 92.8596 19.5039 92.8596 18.9661C92.8596 18.5314 92.9554 18.1557 93.1469 17.8389C93.3459 17.5147 93.6221 17.2642 93.9758 17.0874C94.3294 16.9032 94.7457 16.8111 95.2245 16.8111C95.9318 16.8111 96.4991 17.0101 96.9264 17.4079C97.3537 17.7984 97.5711 18.3215 97.5784 18.9772H96.5838C96.5838 18.5793 96.4623 18.2699 96.2191 18.0489C95.9834 17.8205 95.6482 17.7063 95.2135 17.7063C94.7862 17.7063 94.451 17.8094 94.2078 18.0157C93.9721 18.222 93.8542 18.5093 93.8542 18.8777C93.8542 19.2092 93.9426 19.4966 94.1194 19.7397C94.2963 19.9828 94.5504 20.1559 94.882 20.2591L95.9871 20.6127C96.5249 20.7822 96.9411 21.0695 97.2358 21.4747C97.5305 21.8799 97.6779 22.3551 97.6779 22.9003C97.6779 23.3423 97.5747 23.7291 97.3685 24.0607C97.1622 24.3922 96.8712 24.65 96.4954 24.8342C96.127 25.0184 95.6961 25.1105 95.2024 25.1105ZM99.1323 25V16.9327H103.774V17.8389H100.116V20.3364H103.387V21.2316H100.116V24.0938H103.774V25H99.1323ZM113.711 25.1105C113.225 25.1105 112.805 25.0184 112.451 24.8342C112.105 24.65 111.836 24.3848 111.645 24.0386C111.46 23.6849 111.368 23.2687 111.368 22.7898V19.1429C111.368 18.6567 111.46 18.2404 111.645 17.8942C111.836 17.5479 112.105 17.2827 112.451 17.0985C112.805 16.9143 113.225 16.8222 113.711 16.8222C114.197 16.8222 114.614 16.9143 114.96 17.0985C115.314 17.2827 115.582 17.5479 115.767 17.8942C115.958 18.2404 116.054 18.653 116.054 19.1319V22.7898C116.054 23.2687 115.958 23.6849 115.767 24.0386C115.582 24.3848 115.314 24.65 114.96 24.8342C114.614 25.0184 114.197 25.1105 113.711 25.1105ZM113.711 24.2154C114.146 24.2154 114.477 24.0938 114.706 23.8507C114.941 23.6002 115.059 23.2466 115.059 22.7898V19.1429C115.059 18.6861 114.941 18.3362 114.706 18.0931C114.477 17.8426 114.146 17.7173 113.711 17.7173C113.284 17.7173 112.952 17.8426 112.717 18.0931C112.481 18.3362 112.363 18.6861 112.363 19.1429V22.7898C112.363 23.2466 112.481 23.6002 112.717 23.8507C112.952 24.0938 113.284 24.2154 113.711 24.2154ZM117.63 25V16.9217H122.382V17.8278H118.602V20.5133H122.095V21.4194H118.625V25H117.63ZM132.308 25.1105C131.822 25.1105 131.398 25.0184 131.037 24.8342C130.684 24.65 130.407 24.3848 130.208 24.0386C130.017 23.6849 129.921 23.2687 129.921 22.7898V19.1429C129.921 18.6567 130.017 18.2404 130.208 17.8942C130.407 17.5479 130.684 17.2827 131.037 17.0985C131.398 16.9143 131.822 16.8222 132.308 16.8222C132.794 16.8222 133.214 16.918 133.568 17.1095C133.922 17.2937 134.194 17.5589 134.386 17.9052C134.577 18.2515 134.673 18.664 134.673 19.1429H133.679C133.679 18.6861 133.557 18.3362 133.314 18.0931C133.078 17.8426 132.743 17.7173 132.308 17.7173C131.874 17.7173 131.531 17.8389 131.28 18.082C131.037 18.3251 130.916 18.6751 130.916 19.1319V22.7898C130.916 23.2466 131.037 23.6002 131.28 23.8507C131.531 24.0938 131.874 24.2154 132.308 24.2154C132.743 24.2154 133.078 24.0938 133.314 23.8507C133.557 23.6002 133.679 23.2466 133.679 22.7898H134.673C134.673 23.2613 134.577 23.6739 134.386 24.0275C134.194 24.3738 133.922 24.6427 133.568 24.8342C133.214 25.0184 132.794 25.1105 132.308 25.1105ZM136.161 25V16.9327H137.155V20.3806H139.741V16.9327H140.736V25H139.741V21.2868H137.155V25H136.161ZM141.87 25L143.97 16.9327H145.307L147.395 25H146.39L145.859 22.8561H143.417L142.886 25H141.87ZM143.616 22.0162H145.649L145.03 19.5297C144.913 19.0582 144.82 18.664 144.754 18.3472C144.688 18.0304 144.647 17.8242 144.633 17.7284C144.618 17.8242 144.577 18.0304 144.511 18.3472C144.445 18.664 144.353 19.0545 144.235 19.5187L143.616 22.0162ZM150.32 25V17.8278H148.109V16.9217H153.524V17.8278H151.314V25H150.32ZM157.045 25.1105C156.559 25.1105 156.135 25.0184 155.774 24.8342C155.421 24.65 155.145 24.3848 154.946 24.0386C154.754 23.6849 154.658 23.2687 154.658 22.7898V19.1429C154.658 18.6567 154.754 18.2404 154.946 17.8942C155.145 17.5479 155.421 17.2827 155.774 17.0985C156.135 16.9143 156.559 16.8222 157.045 16.8222C157.532 16.8222 157.952 16.918 158.305 17.1095C158.659 17.2937 158.931 17.5589 159.123 17.9052C159.315 18.2515 159.41 18.664 159.41 19.1429H158.416C158.416 18.6861 158.294 18.3362 158.051 18.0931C157.815 17.8426 157.48 17.7173 157.045 17.7173C156.611 17.7173 156.268 17.8389 156.018 18.082C155.774 18.3251 155.653 18.6751 155.653 19.1319V22.7898C155.653 23.2466 155.774 23.6002 156.018 23.8507C156.268 24.1012 156.611 24.2264 157.045 24.2264C157.48 24.2264 157.815 24.1012 158.051 23.8507C158.294 23.6002 158.416 23.2466 158.416 22.7898V21.7952H156.78V20.889H159.41V22.7898C159.41 23.2613 159.315 23.6739 159.123 24.0275C158.931 24.3738 158.659 24.6427 158.305 24.8342C157.952 25.0184 157.532 25.1105 157.045 25.1105ZM160.887 25V16.9327H163.484C163.985 16.9327 164.419 17.0322 164.788 17.2311C165.156 17.4226 165.44 17.6952 165.639 18.0489C165.845 18.4025 165.948 18.8224 165.948 19.3087C165.948 19.7876 165.845 20.2075 165.639 20.5685C165.44 20.9221 165.156 21.1984 164.788 21.3973C164.419 21.5889 163.985 21.6847 163.484 21.6847H161.881V25H160.887ZM161.881 20.7895H163.484C163.918 20.7895 164.265 20.6569 164.523 20.3917C164.788 20.1191 164.92 19.7581 164.92 19.3087C164.92 18.8519 164.788 18.4909 164.523 18.2257C164.265 17.9605 163.918 17.8278 163.484 17.8278H161.881V20.7895ZM168.872 25V17.8278H166.662V16.9217H172.077V17.8278H169.867V25H168.872Z" fill="white"></path><g clip-path="url(#clip0_29_517)"><path d="M25.2114 19.5022C25.3348 19.1319 25.3776 18.7395 25.3369 18.3513C25.2963 17.9631 25.1733 17.5881 24.976 17.2513C24.3758 16.2063 23.1692 15.6686 21.9908 15.9217C21.7317 15.6298 21.4133 15.3965 21.0568 15.2376C20.7004 15.0787 20.3141 14.9977 19.9238 15.0001C18.7192 14.9973 17.6505 15.7728 17.2799 16.9189C16.8974 16.9972 16.5361 17.1563 16.22 17.3856C15.904 17.6148 15.6405 17.9089 15.4473 18.2482C14.8427 19.2905 14.9805 20.6043 15.7884 21.4981C15.665 21.8684 15.6223 22.2608 15.6629 22.649C15.7035 23.0372 15.8265 23.4122 16.0238 23.749C16.624 24.794 17.8306 25.3317 19.009 25.0787C19.268 25.3706 19.5865 25.6038 19.9429 25.7627C20.2994 25.9216 20.6858 26.0025 21.076 25.9999C22.2812 26.003 23.3503 25.2268 23.7209 24.0797C24.1034 24.0014 24.4648 23.8423 24.7808 23.613C25.0969 23.3838 25.3603 23.0897 25.5535 22.7504C26.1575 21.7081 26.0193 20.3953 25.2118 19.5015L25.2114 19.5022ZM21.0767 25.2811C20.5945 25.2819 20.1273 25.113 19.757 24.804C19.779 24.7924 19.8007 24.7801 19.822 24.7672L22.0124 23.5022C22.0675 23.4709 22.1131 23.4256 22.1448 23.3708C22.1765 23.316 22.193 23.2537 22.1926 23.1904V20.1024L23.1183 20.637C23.1283 20.6418 23.1348 20.6514 23.1362 20.6624V23.2196C23.1348 24.3568 22.2139 25.2787 21.0767 25.2811ZM16.6477 23.3894C16.4061 22.9722 16.3191 22.4832 16.402 22.0082C16.4181 22.0179 16.4466 22.0354 16.4669 22.0471L18.6573 23.3121C18.712 23.344 18.7741 23.3608 18.8373 23.3608C18.9005 23.3608 18.9627 23.344 19.0173 23.3121L21.6914 21.7679V22.837C21.6916 22.8425 21.6906 22.8479 21.6883 22.8529C21.686 22.8578 21.6826 22.8622 21.6783 22.8655L19.4642 24.144C18.4779 24.7119 17.2184 24.3743 16.6481 23.3894L16.6477 23.3894ZM16.0713 18.6081C16.3118 18.1903 16.6916 17.8704 17.1441 17.7044C17.1441 17.7233 17.1431 17.7566 17.1431 17.78V20.3104C17.1428 20.3736 17.1592 20.4357 17.1908 20.4905C17.2224 20.5452 17.268 20.5905 17.3229 20.6218L19.997 22.1657L19.0712 22.7002C19.0667 22.7032 19.0614 22.7051 19.056 22.7056C19.0505 22.7061 19.045 22.7052 19.04 22.703L16.8255 21.4235C15.8413 20.8535 15.5037 19.5944 16.0709 18.6085L16.0713 18.6081ZM23.6772 20.3781L21.0031 18.834L21.9289 18.2998C21.9334 18.2967 21.9387 18.2949 21.9442 18.2944C21.9496 18.2939 21.9551 18.2948 21.9602 18.297L24.1746 19.5754C25.1605 20.145 25.4984 21.4063 24.9289 22.3922C24.688 22.8095 24.3085 23.1291 23.8563 23.2956V20.6896C23.8568 20.6265 23.8405 20.5644 23.8091 20.5096C23.7777 20.4549 23.7323 20.4095 23.6776 20.3781H23.6772ZM24.5985 18.9914C24.5824 18.9814 24.5538 18.9642 24.5335 18.9526L22.3431 17.6875C22.2885 17.6556 22.2264 17.6388 22.1632 17.6388C22.0999 17.6388 22.0378 17.6556 21.9832 17.6875L19.3091 19.2317V18.1626C19.3089 18.1571 19.3099 18.1517 19.3122 18.1467C19.3145 18.1418 19.3179 18.1374 19.3222 18.1341L21.5363 16.8567C22.5226 16.2877 23.7835 16.6264 24.352 17.6129C24.5923 18.0297 24.6793 18.5173 24.5978 18.9914H24.5985ZM18.8059 20.8968L17.8798 20.3623C17.8749 20.3599 17.8707 20.3563 17.8676 20.3519C17.8645 20.3474 17.8625 20.3423 17.8619 20.3369V17.7797C17.8626 16.6411 18.7863 15.7185 19.9248 15.7192C20.4064 15.7192 20.8725 15.8883 21.2428 16.1963C21.2208 16.208 21.1991 16.2203 21.1778 16.2331L18.9874 17.4981C18.9324 17.5293 18.8867 17.5746 18.855 17.6294C18.8233 17.6841 18.8069 17.7463 18.8072 17.8096L18.8059 20.8962V20.8968ZM19.3088 19.8126L20.4999 19.1248L21.691 19.8123V21.1877L20.4999 21.8752L19.3088 21.1877V19.8126Z" fill="white"></path></g><line x1="16" y1="35.5" x2="404" y2="35.5" stroke="#3B3B3B" stroke-opacity="0.24"></line><rect x="16" y="47" width="149" height="56" fill="white" fill-opacity="0.06"></rect><rect x="174" y="47" width="149" height="56" fill="white" fill-opacity="0.06"></rect><path d="M78.4217 65.852C78.372 65.852 78.3322 65.8371 78.3024 65.8073C77.8548 65.4724 77.4819 65.0597 77.1835 64.5691C76.5967 63.6541 76.3033 62.5435 76.3033 61.2374C76.3033 60.1036 76.5553 59.0925 77.0592 58.204C77.394 57.5675 77.8018 57.057 78.2825 56.6724C78.3388 56.6393 78.3819 56.6227 78.4118 56.6227C78.4714 56.6227 78.5261 56.6575 78.5758 56.7271L78.8842 57.2045C78.904 57.2344 78.914 57.2642 78.914 57.294C78.914 57.3504 78.8858 57.4018 78.8295 57.4482C78.4747 57.7399 78.1217 58.1941 77.7703 58.8107C77.4255 59.4174 77.2531 60.2263 77.2531 61.2374C77.2531 62.2651 77.4222 63.0789 77.7603 63.679C78.1117 64.2856 78.4681 64.7282 78.8295 65.0067C78.8858 65.0531 78.914 65.0995 78.914 65.1459C78.914 65.1857 78.904 65.2205 78.8842 65.2503L78.5957 65.7476C78.546 65.8172 78.488 65.852 78.4217 65.852ZM80.6445 65.0962V58.2239H80.003C79.9467 58.2239 79.8986 58.204 79.8588 58.1642C79.819 58.1245 79.7991 58.0764 79.7991 58.02V57.3587C79.7991 57.3023 79.819 57.2542 79.8588 57.2145C79.8986 57.1747 79.9467 57.1548 80.003 57.1548H81.5097C81.5661 57.1548 81.6142 57.1747 81.6539 57.2145C81.6937 57.2542 81.7136 57.3023 81.7136 57.3587V65.0962C81.7136 65.1525 81.6937 65.2006 81.6539 65.2404C81.6142 65.2802 81.5661 65.3 81.5097 65.3H80.8484C80.792 65.3 80.7439 65.2802 80.7042 65.2404C80.6644 65.2006 80.6445 65.1525 80.6445 65.0962ZM83.2402 65.852C83.1607 65.852 83.106 65.8172 83.0761 65.7476L82.7927 65.2503C82.7728 65.2205 82.7628 65.1857 82.7628 65.1459C82.7628 65.0962 82.7894 65.0498 82.8424 65.0067C83.2137 64.7116 83.5668 64.2657 83.9016 63.669C84.2431 63.0623 84.4138 62.2518 84.4138 61.2374C84.4138 60.2296 84.2364 59.4174 83.8817 58.8008C83.5303 58.1709 83.1806 57.7233 82.8325 57.4581C82.7794 57.415 82.7529 57.3603 82.7529 57.294C82.7529 57.2642 82.7628 57.2344 82.7827 57.2045L83.0861 56.7271C83.1358 56.6575 83.1938 56.6227 83.2601 56.6227C83.2933 56.6227 83.338 56.6393 83.3944 56.6724C83.8817 57.0802 84.2895 57.5907 84.6177 58.204C85.1182 59.1057 85.3685 60.1169 85.3685 61.2374C85.3685 62.5269 85.0735 63.6375 84.4834 64.5691C84.185 65.0597 83.8121 65.4724 83.3645 65.8073C83.3347 65.8371 83.2933 65.852 83.2402 65.852ZM96.2836 65.0862C96.2836 65.1492 96.2604 65.2006 96.214 65.2404C96.1709 65.2802 96.1162 65.3 96.0499 65.3H95.3885C95.3089 65.3 95.2542 65.2586 95.2244 65.1757L94.3393 62.8684L94.2696 62.8784H90.9379L90.0926 65.1757C90.0727 65.2586 90.0147 65.3 89.9185 65.3H89.2572C89.1743 65.3 89.1113 65.2702 89.0682 65.2105C89.0251 65.1509 89.0168 65.0829 89.0433 65.0067L91.8778 57.2741C91.9076 57.1946 91.964 57.1548 92.0468 57.1548H93.1408C93.237 57.1548 93.29 57.1946 93.3 57.2741L96.2637 64.9967C96.2769 65.0498 96.2836 65.0796 96.2836 65.0862ZM91.3258 61.8192H93.9414L92.6983 58.5372H92.5391L91.3258 61.8192ZM97.109 65.0962L97.0991 57.3587C97.0991 57.3023 97.119 57.2542 97.1588 57.2145C97.1985 57.1747 97.2466 57.1548 97.303 57.1548H103.156C103.212 57.1548 103.26 57.1747 103.3 57.2145C103.34 57.2542 103.36 57.3023 103.36 57.3587V58.0101C103.36 58.0665 103.34 58.1145 103.3 58.1543C103.26 58.1941 103.212 58.214 103.156 58.214H98.1682V60.7152H102.862C102.919 60.7152 102.967 60.7351 103.007 60.7749C103.046 60.8147 103.066 60.8628 103.066 60.9191V61.5805C103.066 61.6368 103.046 61.6833 103.007 61.7197C102.967 61.7562 102.919 61.7744 102.862 61.7744H98.1682V64.2409H103.156C103.212 64.2409 103.26 64.2608 103.3 64.3005C103.34 64.3403 103.36 64.3884 103.36 64.4447V65.0962C103.36 65.1525 103.34 65.2006 103.3 65.2404C103.26 65.2802 103.212 65.3 103.156 65.3H97.3129C97.2566 65.3 97.2085 65.2802 97.1687 65.2404C97.1289 65.2006 97.109 65.1525 97.109 65.0962ZM105.617 65.2603L104.638 64.4149C104.598 64.3751 104.578 64.3337 104.578 64.2906V58.1692C104.578 58.1294 104.598 58.0897 104.638 58.0499L105.617 57.1946C105.634 57.1681 105.667 57.1548 105.717 57.1548H110.993C111.049 57.1548 111.097 57.1747 111.137 57.2145C111.177 57.2542 111.197 57.3023 111.197 57.3587V58.0101C111.197 58.0665 111.177 58.1145 111.137 58.1543C111.097 58.1941 111.049 58.214 110.993 58.214H106.105L105.647 58.6068L105.637 63.8629L106.085 64.2409H110.128V61.7545H108.114C108.057 61.7545 108.009 61.7346 107.969 61.6949C107.93 61.6551 107.91 61.607 107.91 61.5506V60.9539C107.91 60.8976 107.93 60.8495 107.969 60.8097C108.009 60.7699 108.057 60.75 108.114 60.75H110.993C111.049 60.75 111.097 60.7699 111.137 60.8097C111.177 60.8495 111.197 60.8976 111.197 60.9539V65.0962C111.197 65.1525 111.177 65.2006 111.137 65.2404C111.097 65.2802 111.049 65.3 110.993 65.3H105.717C105.667 65.3 105.634 65.2868 105.617 65.2603ZM112.534 65.0962V57.3587C112.534 57.3023 112.554 57.2542 112.594 57.2145C112.634 57.1747 112.682 57.1548 112.738 57.1548H113.4C113.456 57.1548 113.504 57.1747 113.544 57.2145C113.584 57.2542 113.603 57.3023 113.603 57.3587V65.0962C113.603 65.1525 113.584 65.2006 113.544 65.2404C113.504 65.2802 113.456 65.3 113.4 65.3H112.738C112.682 65.3 112.634 65.2802 112.594 65.2404C112.554 65.2006 112.534 65.1525 112.534 65.0962ZM115.901 65.2603L114.941 64.4447C114.908 64.4116 114.891 64.3702 114.891 64.3204V63.2811C114.891 63.2281 114.911 63.1833 114.951 63.1469C114.991 63.1104 115.036 63.0922 115.085 63.0922H115.747C115.803 63.0922 115.849 63.1104 115.886 63.1469C115.922 63.18 115.941 63.2248 115.941 63.2811V63.8828L116.388 64.2409H120.023L120.441 63.8828V62.1324L119.934 61.7446H116.05C116.02 61.7446 115.987 61.7313 115.951 61.7048L114.941 60.8396C114.908 60.8064 114.891 60.765 114.891 60.7152L114.881 58.0996C114.881 58.0499 114.898 58.0084 114.931 57.9753L115.856 57.1946C115.883 57.1681 115.917 57.1548 115.96 57.1548H120.411C120.451 57.1548 120.484 57.1681 120.51 57.1946L121.44 58.0101C121.474 58.0432 121.49 58.083 121.49 58.1294V59.119C121.49 59.1754 121.472 59.2234 121.435 59.2632C121.399 59.303 121.353 59.3229 121.296 59.3229H120.635C120.588 59.3229 120.544 59.3013 120.501 59.2582C120.461 59.2151 120.441 59.172 120.441 59.1289V58.567L120.023 58.214H116.388L115.951 58.567L115.941 60.2876L116.428 60.6755H120.307C120.34 60.6755 120.375 60.6887 120.411 60.7152L121.44 61.5805C121.474 61.6136 121.49 61.6551 121.49 61.7048L121.5 64.3652C121.5 64.4116 121.483 64.4514 121.45 64.4845L120.575 65.2603C120.549 65.2868 120.51 65.3 120.461 65.3H116C115.97 65.3 115.937 65.2868 115.901 65.2603ZM122.495 65.0962V64.2806C122.495 64.2276 122.514 64.1829 122.554 64.1464C122.597 64.1066 122.642 64.0867 122.689 64.0867H123.39C123.446 64.0867 123.494 64.1049 123.534 64.1414C123.574 64.1779 123.594 64.2243 123.594 64.2806V65.0962C123.594 65.1525 123.574 65.2006 123.534 65.2404C123.494 65.2802 123.446 65.3 123.39 65.3H122.689C122.632 65.3 122.586 65.2802 122.549 65.2404C122.513 65.2006 122.495 65.1525 122.495 65.0962ZM124.842 57.1548H129.884C129.924 57.1548 129.957 57.1681 129.983 57.1946L130.893 57.9753C130.933 58.0151 130.953 58.0598 130.953 58.1095V61.1528C130.953 61.1959 130.933 61.2374 130.893 61.2771L129.983 62.0429C129.964 62.0628 129.93 62.0728 129.884 62.0728H125.707V65.0962C125.707 65.1525 125.687 65.2006 125.647 65.2404C125.607 65.2802 125.559 65.3 125.503 65.3H124.842C124.785 65.3 124.737 65.2802 124.697 65.2404C124.658 65.2006 124.638 65.1525 124.638 65.0962V57.3587C124.638 57.3023 124.658 57.2542 124.697 57.2145C124.737 57.1747 124.785 57.1548 124.842 57.1548ZM125.707 61.0235H129.446L129.894 60.6456V58.5869L129.446 58.214H125.707V61.0235ZM132.127 65.0962V57.3587C132.127 57.3023 132.147 57.2542 132.186 57.2145C132.226 57.1747 132.274 57.1548 132.331 57.1548H132.883C132.939 57.1548 132.982 57.1747 133.012 57.2145L137.686 63.1518V57.3587C137.686 57.3023 137.706 57.2542 137.746 57.2145C137.786 57.1747 137.834 57.1548 137.89 57.1548H138.551C138.608 57.1548 138.654 57.1747 138.691 57.2145C138.727 57.2542 138.745 57.3023 138.745 57.3587V65.0962C138.745 65.1525 138.727 65.2006 138.691 65.2404C138.654 65.2802 138.608 65.3 138.551 65.3H138.134C138.081 65.3 138.034 65.2802 137.994 65.2404L133.186 59.0892V65.0962C133.186 65.1525 133.168 65.2006 133.131 65.2404C133.095 65.2802 133.048 65.3 132.992 65.3H132.331C132.274 65.3 132.226 65.2802 132.186 65.2404C132.147 65.2006 132.127 65.1525 132.127 65.0962ZM141.122 65.2603L140.143 64.4149C140.103 64.3751 140.083 64.3337 140.083 64.2906V58.1692C140.083 58.1294 140.103 58.0897 140.143 58.0499L141.122 57.1946C141.139 57.1681 141.172 57.1548 141.222 57.1548H146.498C146.554 57.1548 146.602 57.1747 146.642 57.2145C146.682 57.2542 146.702 57.3023 146.702 57.3587V58.0101C146.702 58.0665 146.682 58.1145 146.642 58.1543C146.602 58.1941 146.554 58.214 146.498 58.214H141.61L141.152 58.6068L141.142 63.8629L141.59 64.2409H145.632V61.7545H143.619C143.562 61.7545 143.514 61.7346 143.474 61.6949C143.435 61.6551 143.415 61.607 143.415 61.5506V60.9539C143.415 60.8976 143.435 60.8495 143.474 60.8097C143.514 60.7699 143.562 60.75 143.619 60.75H146.498C146.554 60.75 146.602 60.7699 146.642 60.8097C146.682 60.8495 146.702 60.8976 146.702 60.9539V65.0962C146.702 65.1525 146.682 65.2006 146.642 65.2404C146.602 65.2802 146.554 65.3 146.498 65.3H141.222C141.172 65.3 141.139 65.2868 141.122 65.2603Z" fill="white"></path><path d="M236.422 65.852C236.372 65.852 236.332 65.8371 236.302 65.8073C235.855 65.4724 235.482 65.0597 235.183 64.5691C234.597 63.6541 234.303 62.5435 234.303 61.2374C234.303 60.1036 234.555 59.0925 235.059 58.204C235.394 57.5675 235.802 57.057 236.282 56.6724C236.339 56.6393 236.382 56.6227 236.412 56.6227C236.471 56.6227 236.526 56.6575 236.576 56.7271L236.884 57.2045C236.904 57.2344 236.914 57.2642 236.914 57.294C236.914 57.3504 236.886 57.4018 236.829 57.4482C236.475 57.7399 236.122 58.1941 235.77 58.8107C235.426 59.4174 235.253 60.2263 235.253 61.2374C235.253 62.2651 235.422 63.0789 235.76 63.679C236.112 64.2856 236.468 64.7282 236.829 65.0067C236.886 65.0531 236.914 65.0995 236.914 65.1459C236.914 65.1857 236.904 65.2205 236.884 65.2503L236.596 65.7476C236.546 65.8172 236.488 65.852 236.422 65.852ZM239.022 57.1548H243.483C243.533 57.1548 243.571 57.1681 243.597 57.1946L244.472 57.9653C244.506 57.9985 244.522 58.0399 244.522 58.0897V60.9291C244.522 60.9788 244.502 61.0235 244.463 61.0633L243.433 61.9286C243.403 61.9485 243.369 61.9584 243.329 61.9584H239.45L238.963 62.3562L238.973 64.2409H244.318C244.375 64.2409 244.421 64.2608 244.458 64.3005C244.494 64.3403 244.512 64.3884 244.512 64.4447V65.0962C244.512 65.1525 244.494 65.2006 244.458 65.2404C244.421 65.2802 244.375 65.3 244.318 65.3H238.107C238.051 65.3 238.005 65.2802 237.968 65.2404C237.932 65.2006 237.914 65.1525 237.914 65.0962V61.9286C237.914 61.8822 237.93 61.8424 237.963 61.8092L238.973 60.939C239.009 60.9125 239.042 60.8992 239.072 60.8992H242.956L243.463 60.5362V58.567L243.045 58.214H239.41L238.963 58.567V59.1687C238.963 59.2151 238.943 59.2599 238.903 59.303C238.867 59.3428 238.822 59.3627 238.769 59.3627H238.107C238.061 59.3627 238.016 59.3411 237.973 59.298C237.933 59.2549 237.914 59.2118 237.914 59.1687V58.1294C237.914 58.083 237.93 58.0432 237.963 58.0101L238.923 57.1946C238.959 57.1681 238.993 57.1548 239.022 57.1548ZM245.984 65.852C245.905 65.852 245.85 65.8172 245.82 65.7476L245.537 65.2503C245.517 65.2205 245.507 65.1857 245.507 65.1459C245.507 65.0962 245.533 65.0498 245.586 65.0067C245.958 64.7116 246.311 64.2657 246.646 63.669C246.987 63.0623 247.158 62.2518 247.158 61.2374C247.158 60.2296 246.98 59.4174 246.626 58.8008C246.274 58.1709 245.924 57.7233 245.576 57.4581C245.523 57.415 245.497 57.3603 245.497 57.294C245.497 57.2642 245.507 57.2344 245.527 57.2045L245.83 56.7271C245.88 56.6575 245.938 56.6227 246.004 56.6227C246.037 56.6227 246.082 56.6393 246.138 56.6724C246.626 57.0802 247.033 57.5907 247.362 58.204C247.862 59.1057 248.112 60.1169 248.112 61.2374C248.112 62.5269 247.817 63.6375 247.227 64.5691C246.929 65.0597 246.556 65.4724 246.108 65.8073C246.079 65.8371 246.037 65.852 245.984 65.852ZM259.028 65.0862C259.028 65.1492 259.004 65.2006 258.958 65.2404C258.915 65.2802 258.86 65.3 258.794 65.3H258.132C258.053 65.3 257.998 65.2586 257.968 65.1757L257.083 62.8684L257.014 62.8784H253.682L252.837 65.1757C252.817 65.2586 252.759 65.3 252.662 65.3H252.001C251.918 65.3 251.855 65.2702 251.812 65.2105C251.769 65.1509 251.761 65.0829 251.787 65.0067L254.622 57.2741C254.652 57.1946 254.708 57.1548 254.791 57.1548H255.885C255.981 57.1548 256.034 57.1946 256.044 57.2741L259.008 64.9967C259.021 65.0498 259.028 65.0796 259.028 65.0862ZM254.07 61.8192H256.685L255.442 58.5372H255.283L254.07 61.8192ZM259.853 65.0962L259.843 57.3587C259.843 57.3023 259.863 57.2542 259.903 57.2145C259.942 57.1747 259.991 57.1548 260.047 57.1548H265.9C265.956 57.1548 266.004 57.1747 266.044 57.2145C266.084 57.2542 266.104 57.3023 266.104 57.3587V58.0101C266.104 58.0665 266.084 58.1145 266.044 58.1543C266.004 58.1941 265.956 58.214 265.9 58.214H260.912V60.7152H265.606C265.663 60.7152 265.711 60.7351 265.751 60.7749C265.79 60.8147 265.81 60.8628 265.81 60.9191V61.5805C265.81 61.6368 265.79 61.6833 265.751 61.7197C265.711 61.7562 265.663 61.7744 265.606 61.7744H260.912V64.2409H265.9C265.956 64.2409 266.004 64.2608 266.044 64.3005C266.084 64.3403 266.104 64.3884 266.104 64.4447V65.0962C266.104 65.1525 266.084 65.2006 266.044 65.2404C266.004 65.2802 265.956 65.3 265.9 65.3H260.057C260.001 65.3 259.952 65.2802 259.913 65.2404C259.873 65.2006 259.853 65.1525 259.853 65.0962ZM268.361 65.2603L267.382 64.4149C267.342 64.3751 267.322 64.3337 267.322 64.2906V58.1692C267.322 58.1294 267.342 58.0897 267.382 58.0499L268.361 57.1946C268.378 57.1681 268.411 57.1548 268.461 57.1548H273.737C273.793 57.1548 273.841 57.1747 273.881 57.2145C273.921 57.2542 273.941 57.3023 273.941 57.3587V58.0101C273.941 58.0665 273.921 58.1145 273.881 58.1543C273.841 58.1941 273.793 58.214 273.737 58.214H268.849L268.391 58.6068L268.381 63.8629L268.829 64.2409H272.871V61.7545H270.858C270.801 61.7545 270.753 61.7346 270.713 61.6949C270.674 61.6551 270.654 61.607 270.654 61.5506V60.9539C270.654 60.8976 270.674 60.8495 270.713 60.8097C270.753 60.7699 270.801 60.75 270.858 60.75H273.737C273.793 60.75 273.841 60.7699 273.881 60.8097C273.921 60.8495 273.941 60.8976 273.941 60.9539V65.0962C273.941 65.1525 273.921 65.2006 273.881 65.2404C273.841 65.2802 273.793 65.3 273.737 65.3H268.461C268.411 65.3 268.378 65.2868 268.361 65.2603ZM275.278 65.0962V57.3587C275.278 57.3023 275.298 57.2542 275.338 57.2145C275.378 57.1747 275.426 57.1548 275.482 57.1548H276.143C276.2 57.1548 276.248 57.1747 276.288 57.2145C276.327 57.2542 276.347 57.3023 276.347 57.3587V65.0962C276.347 65.1525 276.327 65.2006 276.288 65.2404C276.248 65.2802 276.2 65.3 276.143 65.3H275.482C275.426 65.3 275.378 65.2802 275.338 65.2404C275.298 65.2006 275.278 65.1525 275.278 65.0962ZM278.645 65.2603L277.685 64.4447C277.652 64.4116 277.635 64.3702 277.635 64.3204V63.2811C277.635 63.2281 277.655 63.1833 277.695 63.1469C277.735 63.1104 277.779 63.0922 277.829 63.0922H278.491C278.547 63.0922 278.593 63.1104 278.63 63.1469C278.666 63.18 278.685 63.2248 278.685 63.2811V63.8828L279.132 64.2409H282.767L283.185 63.8828V62.1324L282.678 61.7446H278.794C278.764 61.7446 278.731 61.7313 278.694 61.7048L277.685 60.8396C277.652 60.8064 277.635 60.765 277.635 60.7152L277.625 58.0996C277.625 58.0499 277.642 58.0084 277.675 57.9753L278.6 57.1946C278.627 57.1681 278.661 57.1548 278.704 57.1548H283.155C283.195 57.1548 283.228 57.1681 283.254 57.1946L284.184 58.0101C284.217 58.0432 284.234 58.083 284.234 58.1294V59.119C284.234 59.1754 284.216 59.2234 284.179 59.2632C284.143 59.303 284.096 59.3229 284.04 59.3229H283.379C283.332 59.3229 283.288 59.3013 283.244 59.2582C283.205 59.2151 283.185 59.172 283.185 59.1289V58.567L282.767 58.214H279.132L278.694 58.567L278.685 60.2876L279.172 60.6755H283.051C283.084 60.6755 283.119 60.6887 283.155 60.7152L284.184 61.5805C284.217 61.6136 284.234 61.6551 284.234 61.7048L284.244 64.3652C284.244 64.4116 284.227 64.4514 284.194 64.4845L283.319 65.2603C283.293 65.2868 283.254 65.3 283.205 65.3H278.744C278.714 65.3 278.681 65.2868 278.645 65.2603ZM285.239 65.0962V64.2806C285.239 64.2276 285.258 64.1829 285.298 64.1464C285.341 64.1066 285.386 64.0867 285.432 64.0867H286.134C286.19 64.0867 286.238 64.1049 286.278 64.1414C286.318 64.1779 286.337 64.2243 286.337 64.2806V65.0962C286.337 65.1525 286.318 65.2006 286.278 65.2404C286.238 65.2802 286.19 65.3 286.134 65.3H285.432C285.376 65.3 285.33 65.2802 285.293 65.2404C285.257 65.2006 285.239 65.1525 285.239 65.0962ZM287.586 57.1548H292.628C292.668 57.1548 292.701 57.1681 292.727 57.1946L293.637 57.9753C293.677 58.0151 293.697 58.0598 293.697 58.1095V61.1528C293.697 61.1959 293.677 61.2374 293.637 61.2771L292.727 62.0429C292.707 62.0628 292.674 62.0728 292.628 62.0728H288.451V65.0962C288.451 65.1525 288.431 65.2006 288.391 65.2404C288.351 65.2802 288.303 65.3 288.247 65.3H287.586C287.529 65.3 287.481 65.2802 287.441 65.2404C287.402 65.2006 287.382 65.1525 287.382 65.0962V57.3587C287.382 57.3023 287.402 57.2542 287.441 57.2145C287.481 57.1747 287.529 57.1548 287.586 57.1548ZM288.451 61.0235H292.19L292.638 60.6456V58.5869L292.19 58.214H288.451V61.0235ZM294.871 65.0962V57.3587C294.871 57.3023 294.891 57.2542 294.93 57.2145C294.97 57.1747 295.018 57.1548 295.074 57.1548H295.626C295.683 57.1548 295.726 57.1747 295.756 57.2145L300.43 63.1518V57.3587C300.43 57.3023 300.45 57.2542 300.49 57.2145C300.53 57.1747 300.578 57.1548 300.634 57.1548H301.295C301.352 57.1548 301.398 57.1747 301.435 57.2145C301.471 57.2542 301.489 57.3023 301.489 57.3587V65.0962C301.489 65.1525 301.471 65.2006 301.435 65.2404C301.398 65.2802 301.352 65.3 301.295 65.3H300.878C300.825 65.3 300.778 65.2802 300.738 65.2404L295.93 59.0892V65.0962C295.93 65.1525 295.912 65.2006 295.875 65.2404C295.839 65.2802 295.792 65.3 295.736 65.3H295.074C295.018 65.3 294.97 65.2802 294.93 65.2404C294.891 65.2006 294.871 65.1525 294.871 65.0962ZM303.866 65.2603L302.887 64.4149C302.847 64.3751 302.827 64.3337 302.827 64.2906V58.1692C302.827 58.1294 302.847 58.0897 302.887 58.0499L303.866 57.1946C303.883 57.1681 303.916 57.1548 303.966 57.1548H309.242C309.298 57.1548 309.346 57.1747 309.386 57.2145C309.426 57.2542 309.446 57.3023 309.446 57.3587V58.0101C309.446 58.0665 309.426 58.1145 309.386 58.1543C309.346 58.1941 309.298 58.214 309.242 58.214H304.354L303.896 58.6068L303.886 63.8629L304.334 64.2409H308.376V61.7545H306.362C306.306 61.7545 306.258 61.7346 306.218 61.6949C306.178 61.6551 306.159 61.607 306.159 61.5506V60.9539C306.159 60.8976 306.178 60.8495 306.218 60.8097C306.258 60.7699 306.306 60.75 306.362 60.75H309.242C309.298 60.75 309.346 60.7699 309.386 60.8097C309.426 60.8495 309.446 60.8976 309.446 60.9539V65.0962C309.446 65.1525 309.426 65.2006 309.386 65.2404C309.346 65.2802 309.298 65.3 309.242 65.3H303.966C303.916 65.3 303.883 65.2868 303.866 65.2603Z" fill="white"></path><path opacity="0.6" d="M76.6778 76.7188V76.041L78.3207 74.2949C78.6007 73.9953 78.8045 73.73 78.9322 73.4992C79.0599 73.2634 79.1238 73.0375 79.1238 72.8214C79.1238 72.5218 79.0403 72.286 78.8733 72.1141C78.7112 71.9422 78.4877 71.8563 78.2028 71.8563C77.8885 71.8563 77.6405 71.9447 77.4587 72.1215C77.2819 72.2983 77.1935 72.5414 77.1935 72.8509H76.5305C76.5403 72.5267 76.6139 72.2467 76.7515 72.011C76.8939 71.7703 77.0879 71.5861 77.3335 71.4584C77.584 71.3307 77.8738 71.2669 78.2028 71.2669C78.527 71.2669 78.807 71.3307 79.0427 71.4584C79.2834 71.5812 79.4676 71.758 79.5953 71.9889C79.723 72.2197 79.7868 72.4948 79.7868 72.814C79.7868 73.1186 79.7058 73.4206 79.5437 73.7202C79.3816 74.0198 79.1164 74.3612 78.748 74.7443L77.4219 76.1146H79.8752V76.7188H76.6778ZM82.3331 76.7924C82.1464 76.7924 81.9966 76.7384 81.8837 76.6303C81.7756 76.5223 81.7216 76.3774 81.7216 76.1957C81.7216 76.0041 81.7756 75.8519 81.8837 75.7389C81.9966 75.6259 82.1464 75.5694 82.3331 75.5694C82.5197 75.5694 82.6671 75.6259 82.7751 75.7389C82.8881 75.8519 82.9446 76.0041 82.9446 76.1957C82.9446 76.3774 82.8881 76.5223 82.7751 76.6303C82.6671 76.7384 82.5197 76.7924 82.3331 76.7924ZM84.9235 76.7188V76.041L86.5665 74.2949C86.8464 73.9953 87.0502 73.73 87.1779 73.4992C87.3056 73.2634 87.3695 73.0375 87.3695 72.8214C87.3695 72.5218 87.286 72.286 87.119 72.1141C86.9569 71.9422 86.7334 71.8563 86.4486 71.8563C86.1342 71.8563 85.8862 71.9447 85.7045 72.1215C85.5276 72.2983 85.4392 72.5414 85.4392 72.8509H84.7762C84.786 72.5267 84.8597 72.2467 84.9972 72.011C85.1396 71.7703 85.3336 71.5861 85.5792 71.4584C85.8297 71.3307 86.1195 71.2669 86.4486 71.2669C86.7727 71.2669 87.0527 71.3307 87.2885 71.4584C87.5291 71.5812 87.7133 71.758 87.841 71.9889C87.9687 72.2197 88.0326 72.4948 88.0326 72.814C88.0326 73.1186 87.9515 73.4206 87.7894 73.7202C87.6274 74.0198 87.3621 74.3612 86.9938 74.7443L85.6676 76.1146H88.121V76.7188H84.9235ZM93.0514 76.7188V71.3406H93.9207L94.4806 73.0793C94.5347 73.2364 94.5838 73.3936 94.628 73.5508C94.6722 73.703 94.7041 73.8209 94.7238 73.9044C94.7483 73.8209 94.7802 73.703 94.8195 73.5508C94.8588 73.3936 94.903 73.234 94.9522 73.0719L95.4826 71.3406H96.352V76.7188H95.7036V74.7664C95.7036 74.5503 95.711 74.3047 95.7257 74.0297C95.7405 73.7546 95.7601 73.4746 95.7847 73.1898C95.8092 72.9 95.8338 72.6249 95.8583 72.3646C95.8878 72.0994 95.9124 71.8686 95.932 71.6721L95.0627 74.3612H94.3628L93.486 71.6721C93.5106 71.8636 93.5352 72.0871 93.5597 72.3425C93.5843 72.593 93.6064 72.8607 93.626 73.1456C93.6457 73.4255 93.6629 73.7055 93.6776 73.9854C93.6923 74.2654 93.6997 74.5257 93.6997 74.7664V76.7188H93.0514ZM97.2995 76.7188V71.3406H98.8245C99.3157 71.3406 99.6988 71.4633 99.9738 71.7089C100.254 71.9545 100.394 72.2959 100.394 72.733C100.394 72.9786 100.342 73.1922 100.239 73.374C100.136 73.5557 99.9886 73.6957 99.797 73.7939C99.6104 73.8921 99.3844 73.9388 99.1192 73.9339V73.8234C99.4041 73.8185 99.6497 73.8725 99.856 73.9854C100.067 74.0984 100.229 74.2605 100.342 74.4717C100.46 74.6829 100.519 74.9334 100.519 75.2232C100.519 75.5277 100.455 75.7929 100.327 76.0188C100.2 76.2448 100.018 76.4191 99.7823 76.5419C99.5465 76.6598 99.2641 76.7188 98.935 76.7188H97.2995ZM97.9478 76.122H98.8614C99.1708 76.122 99.4139 76.041 99.5907 75.8789C99.7725 75.7119 99.8633 75.4859 99.8633 75.2011C99.8633 74.9064 99.7725 74.6682 99.5907 74.4864C99.4139 74.2998 99.1708 74.2065 98.8614 74.2065H97.9478V76.122ZM97.9478 73.6318H98.8172C99.102 73.6318 99.3255 73.5557 99.4876 73.4034C99.6546 73.2512 99.7381 73.0449 99.7381 72.7846C99.7381 72.5242 99.657 72.318 99.495 72.1657C99.3329 72.0134 99.1094 71.9373 98.8245 71.9373H97.9478V73.6318Z" fill="white"></path><path opacity="0.6" d="M234.663 76.7188V76.1146H236.122V71.8931L234.663 72.9835V72.2467L235.879 71.3406H236.785V76.1146H237.978V76.7188H234.663ZM240.333 76.7924C240.146 76.7924 239.997 76.7384 239.884 76.6303C239.776 76.5223 239.722 76.3774 239.722 76.1957C239.722 76.0041 239.776 75.8519 239.884 75.7389C239.997 75.6259 240.146 75.5694 240.333 75.5694C240.52 75.5694 240.667 75.6259 240.775 75.7389C240.888 75.8519 240.945 76.0041 240.945 76.1957C240.945 76.3774 240.888 76.5223 240.775 76.6303C240.667 76.7384 240.52 76.7924 240.333 76.7924ZM244.456 76.7924C244.127 76.7924 243.84 76.7359 243.594 76.623C243.353 76.5051 243.167 76.3381 243.034 76.122C242.901 75.9059 242.835 75.6529 242.835 75.3632C242.835 75.0439 242.921 74.7688 243.093 74.538C243.27 74.3072 243.547 74.1009 243.925 73.9191L244.64 73.5729C244.856 73.4697 245.023 73.3347 245.141 73.1677C245.259 73.0007 245.318 72.8165 245.318 72.6151C245.318 72.3794 245.239 72.1927 245.082 72.0552C244.93 71.9177 244.721 71.8489 244.456 71.8489C244.191 71.8489 243.98 71.9201 243.822 72.0626C243.67 72.2001 243.594 72.3867 243.594 72.6225C243.594 72.8189 243.65 73.0007 243.763 73.1677C243.881 73.3347 244.041 73.4673 244.242 73.5655L244.957 73.9044C245.35 74.0861 245.635 74.2949 245.812 74.5306C245.988 74.7615 246.077 75.039 246.077 75.3632C246.077 75.8003 245.929 76.149 245.635 76.4093C245.345 76.6647 244.952 76.7924 244.456 76.7924ZM244.456 76.203C244.756 76.203 244.991 76.1269 245.163 75.9746C245.34 75.8175 245.428 75.6087 245.428 75.3484C245.428 75.1372 245.372 74.9457 245.259 74.7738C245.146 74.6019 244.984 74.4643 244.773 74.3612L244.065 74.0149C243.673 73.8234 243.388 73.6171 243.211 73.3961C243.034 73.175 242.946 72.9098 242.946 72.6004C242.946 72.3253 243.007 72.0871 243.13 71.8857C243.253 71.6844 243.427 71.5297 243.653 71.4216C243.879 71.3135 244.147 71.2595 244.456 71.2595C244.765 71.2595 245.033 71.3135 245.259 71.4216C245.485 71.5297 245.659 71.6844 245.782 71.8857C245.905 72.0871 245.966 72.3253 245.966 72.6004C245.966 72.9098 245.878 73.175 245.701 73.3961C245.524 73.6122 245.232 73.8209 244.824 74.0223L244.117 74.3686C243.916 74.4668 243.758 74.6019 243.646 74.7738C243.537 74.9408 243.483 75.1274 243.483 75.3337C243.483 75.5989 243.569 75.8101 243.741 75.9673C243.918 76.1244 244.156 76.203 244.456 76.203ZM251.051 76.7188V71.3406H251.921L252.481 73.0793C252.535 73.2364 252.584 73.3936 252.628 73.5508C252.672 73.703 252.704 73.8209 252.724 73.9044C252.748 73.8209 252.78 73.703 252.82 73.5508C252.859 73.3936 252.903 73.234 252.952 73.0719L253.483 71.3406H254.352V76.7188H253.704V74.7664C253.704 74.5503 253.711 74.3047 253.726 74.0297C253.74 73.7546 253.76 73.4746 253.785 73.1898C253.809 72.9 253.834 72.6249 253.858 72.3646C253.888 72.0994 253.912 71.8686 253.932 71.6721L253.063 74.3612H252.363L251.486 71.6721C251.511 71.8636 251.535 72.0871 251.56 72.3425C251.584 72.593 251.606 72.8607 251.626 73.1456C251.646 73.4255 251.663 73.7055 251.678 73.9854C251.692 74.2654 251.7 74.5257 251.7 74.7664V76.7188H251.051ZM255.299 76.7188V71.3406H256.825C257.316 71.3406 257.699 71.4633 257.974 71.7089C258.254 71.9545 258.394 72.2959 258.394 72.733C258.394 72.9786 258.342 73.1922 258.239 73.374C258.136 73.5557 257.989 73.6957 257.797 73.7939C257.61 73.8921 257.384 73.9388 257.119 73.9339V73.8234C257.404 73.8185 257.65 73.8725 257.856 73.9854C258.067 74.0984 258.229 74.2605 258.342 74.4717C258.46 74.6829 258.519 74.9334 258.519 75.2232C258.519 75.5277 258.455 75.7929 258.327 76.0188C258.2 76.2448 258.018 76.4191 257.782 76.5419C257.547 76.6598 257.264 76.7188 256.935 76.7188H255.299ZM255.948 76.122H256.861C257.171 76.122 257.414 76.041 257.591 75.8789C257.772 75.7119 257.863 75.4859 257.863 75.2011C257.863 74.9064 257.772 74.6682 257.591 74.4864C257.414 74.2998 257.171 74.2065 256.861 74.2065H255.948V76.122ZM255.948 73.6318H256.817C257.102 73.6318 257.326 73.5557 257.488 73.4034C257.655 73.2512 257.738 73.0449 257.738 72.7846C257.738 72.5242 257.657 72.318 257.495 72.1657C257.333 72.0134 257.109 71.9373 256.825 71.9373H255.948V73.6318Z" fill="white"></path><path d="M76.7775 93.2633V87.0942H78.3747C78.7747 87.0942 79.1184 87.1703 79.4057 87.3224C79.6986 87.4745 79.924 87.6886 80.0818 87.9646C80.2451 88.2407 80.3268 88.5675 80.3268 88.9449V91.4041C80.3268 91.7816 80.2451 92.1112 80.0818 92.3929C79.924 92.6689 79.6986 92.883 79.4057 93.0351C79.1184 93.1872 78.7747 93.2633 78.3747 93.2633H76.7775ZM77.5381 92.5872H78.3747C78.7465 92.5872 79.0367 92.483 79.2451 92.2746C79.4592 92.0661 79.5663 91.776 79.5663 91.4041V88.9449C79.5663 88.5787 79.4592 88.2914 79.2451 88.0829C79.0367 87.8745 78.7465 87.7703 78.3747 87.7703H77.5381V92.5872ZM83.2644 93.3478C82.8926 93.3478 82.5714 93.2774 82.301 93.1365C82.0362 92.9957 81.8306 92.7929 81.6841 92.5281C81.5433 92.2577 81.4728 91.9393 81.4728 91.5731V88.7844C81.4728 88.4125 81.5433 88.0942 81.6841 87.8294C81.8306 87.5646 82.0362 87.3618 82.301 87.221C82.5714 87.0801 82.8926 87.0097 83.2644 87.0097C83.6362 87.0097 83.9546 87.0801 84.2194 87.221C84.4898 87.3618 84.6954 87.5646 84.8363 87.8294C84.9827 88.0942 85.056 88.4097 85.056 88.7759V91.5731C85.056 91.9393 84.9827 92.2577 84.8363 92.5281C84.6954 92.7929 84.4898 92.9957 84.2194 93.1365C83.9546 93.2774 83.6362 93.3478 83.2644 93.3478ZM83.2644 92.6633C83.5968 92.6633 83.8503 92.5703 84.025 92.3844C84.2053 92.1929 84.2954 91.9224 84.2954 91.5731V88.7844C84.2954 88.4351 84.2053 88.1675 84.025 87.9815C83.8503 87.79 83.5968 87.6942 83.2644 87.6942C82.9376 87.6942 82.6841 87.79 82.5038 87.9815C82.3236 88.1675 82.2334 88.4351 82.2334 88.7844V91.5731C82.2334 91.9224 82.3236 92.1929 82.5038 92.3844C82.6841 92.5703 82.9376 92.6633 83.2644 92.6633ZM86.3795 93.2633L85.6696 87.0942H86.3964L86.8612 91.6576C86.8724 91.7816 86.8837 91.9112 86.895 92.0464C86.9062 92.176 86.9147 92.2999 86.9203 92.4182C86.9316 92.5365 86.9372 92.6351 86.9372 92.714C86.9485 92.6351 86.9569 92.5365 86.9626 92.4182C86.9738 92.2999 86.9851 92.176 86.9964 92.0464C87.0133 91.9112 87.0302 91.7816 87.0471 91.6576L87.6217 87.0942H88.4077L88.9316 91.6576C88.9485 91.7816 88.9626 91.9112 88.9739 92.0464C88.9908 92.176 89.0049 92.2999 89.0161 92.4182C89.033 92.5365 89.0443 92.6351 89.0499 92.714C89.0556 92.6351 89.0612 92.5365 89.0668 92.4182C89.0781 92.2999 89.0894 92.176 89.1006 92.0464C89.1175 91.9112 89.1316 91.7816 89.1429 91.6576L89.6246 87.0942H90.3176L89.5908 93.2633H88.6358L88.1119 88.6153C88.1006 88.4858 88.0865 88.359 88.0696 88.2351C88.0584 88.1111 88.0471 87.9956 88.0358 87.8886C88.0246 87.7815 88.0161 87.6942 88.0105 87.6266C88.0048 87.6942 87.9936 87.7815 87.9767 87.8886C87.9654 87.9956 87.9541 88.1111 87.9429 88.2351C87.9316 88.359 87.9175 88.4858 87.9006 88.6153L87.3344 93.2633H86.3795ZM90.9481 93.2633V87.0942H91.9622L93.8467 92.376C93.8354 92.2351 93.8213 92.0633 93.8044 91.8605C93.7932 91.652 93.7819 91.4351 93.7706 91.2098C93.765 90.9788 93.7622 90.7619 93.7622 90.559V87.0942H94.4974V93.2633H93.4833L91.6072 87.9815C91.6185 88.1168 91.6298 88.2886 91.641 88.497C91.6523 88.6999 91.6608 88.9168 91.6664 89.1478C91.6777 89.3731 91.6833 89.59 91.6833 89.7985V93.2633H90.9481ZM95.8885 93.2633V87.0942H96.6491V92.5703H99.4378V93.2633H95.8885ZM102.181 93.3478C101.809 93.3478 101.488 93.2774 101.218 93.1365C100.953 92.9957 100.747 92.7929 100.601 92.5281C100.46 92.2577 100.389 91.9393 100.389 91.5731V88.7844C100.389 88.4125 100.46 88.0942 100.601 87.8294C100.747 87.5646 100.953 87.3618 101.218 87.221C101.488 87.0801 101.809 87.0097 102.181 87.0097C102.553 87.0097 102.871 87.0801 103.136 87.221C103.406 87.3618 103.612 87.5646 103.753 87.8294C103.899 88.0942 103.973 88.4097 103.973 88.7759V91.5731C103.973 91.9393 103.899 92.2577 103.753 92.5281C103.612 92.7929 103.406 92.9957 103.136 93.1365C102.871 93.2774 102.553 93.3478 102.181 93.3478ZM102.181 92.6633C102.513 92.6633 102.767 92.5703 102.942 92.3844C103.122 92.1929 103.212 91.9224 103.212 91.5731V88.7844C103.212 88.4351 103.122 88.1675 102.942 87.9815C102.767 87.79 102.513 87.6942 102.181 87.6942C101.854 87.6942 101.601 87.79 101.42 87.9815C101.24 88.1675 101.15 88.4351 101.15 88.7844V91.5731C101.15 91.9224 101.24 92.1929 101.42 92.3844C101.601 92.5703 101.854 92.6633 102.181 92.6633ZM104.798 93.2633L106.403 87.0942H107.426L109.023 93.2633H108.254L107.848 91.6238H105.981L105.575 93.2633H104.798ZM106.133 90.9816H107.688L107.214 89.0801C107.124 88.7196 107.054 88.4182 107.003 88.1759C106.952 87.9336 106.921 87.7759 106.91 87.7027C106.899 87.7759 106.868 87.9336 106.817 88.1759C106.767 88.4182 106.696 88.7168 106.606 89.0717L106.133 90.9816ZM109.882 93.2633V87.0942H111.479C111.879 87.0942 112.222 87.1703 112.51 87.3224C112.803 87.4745 113.028 87.6886 113.186 87.9646C113.349 88.2407 113.431 88.5675 113.431 88.9449V91.4041C113.431 91.7816 113.349 92.1112 113.186 92.3929C113.028 92.6689 112.803 92.883 112.51 93.0351C112.222 93.1872 111.879 93.2633 111.479 93.2633H109.882ZM110.642 92.5872H111.479C111.851 92.5872 112.141 92.483 112.349 92.2746C112.563 92.0661 112.67 91.776 112.67 91.4041V88.9449C112.67 88.5787 112.563 88.2914 112.349 88.0829C112.141 87.8745 111.851 87.7703 111.479 87.7703H110.642V92.5872Z" fill="#0DBBEC"></path><path d="M234.777 93.2633V87.0942H236.375C236.775 87.0942 237.118 87.1703 237.406 87.3224C237.699 87.4745 237.924 87.6886 238.082 87.9646C238.245 88.2407 238.327 88.5675 238.327 88.9449V91.4041C238.327 91.7816 238.245 92.1112 238.082 92.3929C237.924 92.6689 237.699 92.883 237.406 93.0351C237.118 93.1872 236.775 93.2633 236.375 93.2633H234.777ZM235.538 92.5872H236.375C236.747 92.5872 237.037 92.483 237.245 92.2746C237.459 92.0661 237.566 91.776 237.566 91.4041V88.9449C237.566 88.5787 237.459 88.2914 237.245 88.0829C237.037 87.8745 236.747 87.7703 236.375 87.7703H235.538V92.5872ZM241.264 93.3478C240.893 93.3478 240.571 93.2774 240.301 93.1365C240.036 92.9957 239.831 92.7929 239.684 92.5281C239.543 92.2577 239.473 91.9393 239.473 91.5731V88.7844C239.473 88.4125 239.543 88.0942 239.684 87.8294C239.831 87.5646 240.036 87.3618 240.301 87.221C240.571 87.0801 240.893 87.0097 241.264 87.0097C241.636 87.0097 241.955 87.0801 242.219 87.221C242.49 87.3618 242.695 87.5646 242.836 87.8294C242.983 88.0942 243.056 88.4097 243.056 88.7759V91.5731C243.056 91.9393 242.983 92.2577 242.836 92.5281C242.695 92.7929 242.49 92.9957 242.219 93.1365C241.955 93.2774 241.636 93.3478 241.264 93.3478ZM241.264 92.6633C241.597 92.6633 241.85 92.5703 242.025 92.3844C242.205 92.1929 242.295 91.9224 242.295 91.5731V88.7844C242.295 88.4351 242.205 88.1675 242.025 87.9815C241.85 87.79 241.597 87.6942 241.264 87.6942C240.938 87.6942 240.684 87.79 240.504 87.9815C240.324 88.1675 240.233 88.4351 240.233 88.7844V91.5731C240.233 91.9224 240.324 92.1929 240.504 92.3844C240.684 92.5703 240.938 92.6633 241.264 92.6633ZM244.379 93.2633L243.67 87.0942H244.396L244.861 91.6576C244.872 91.7816 244.884 91.9112 244.895 92.0464C244.906 92.176 244.915 92.2999 244.92 92.4182C244.932 92.5365 244.937 92.6351 244.937 92.714C244.948 92.6351 244.957 92.5365 244.963 92.4182C244.974 92.2999 244.985 92.176 244.996 92.0464C245.013 91.9112 245.03 91.7816 245.047 91.6576L245.622 87.0942H246.408L246.932 91.6576C246.949 91.7816 246.963 91.9112 246.974 92.0464C246.991 92.176 247.005 92.2999 247.016 92.4182C247.033 92.5365 247.044 92.6351 247.05 92.714C247.056 92.6351 247.061 92.5365 247.067 92.4182C247.078 92.2999 247.089 92.176 247.101 92.0464C247.118 91.9112 247.132 91.7816 247.143 91.6576L247.625 87.0942H248.318L247.591 93.2633H246.636L246.112 88.6153C246.101 88.4858 246.087 88.359 246.07 88.2351C246.058 88.1111 246.047 87.9956 246.036 87.8886C246.025 87.7815 246.016 87.6942 246.01 87.6266C246.005 87.6942 245.994 87.7815 245.977 87.8886C245.965 87.9956 245.954 88.1111 245.943 88.2351C245.932 88.359 245.918 88.4858 245.901 88.6153L245.334 93.2633H244.379ZM248.948 93.2633V87.0942H249.962L251.847 92.376C251.835 92.2351 251.821 92.0633 251.804 91.8605C251.793 91.652 251.782 91.4351 251.771 91.2098C251.765 90.9788 251.762 90.7619 251.762 90.559V87.0942H252.497V93.2633H251.483L249.607 87.9815C249.618 88.1168 249.63 88.2886 249.641 88.497C249.652 88.6999 249.661 88.9168 249.666 89.1478C249.678 89.3731 249.683 89.59 249.683 89.7985V93.2633H248.948ZM253.888 93.2633V87.0942H254.649V92.5703H257.438V93.2633H253.888ZM260.181 93.3478C259.809 93.3478 259.488 93.2774 259.218 93.1365C258.953 92.9957 258.747 92.7929 258.601 92.5281C258.46 92.2577 258.389 91.9393 258.389 91.5731V88.7844C258.389 88.4125 258.46 88.0942 258.601 87.8294C258.747 87.5646 258.953 87.3618 259.218 87.221C259.488 87.0801 259.809 87.0097 260.181 87.0097C260.553 87.0097 260.871 87.0801 261.136 87.221C261.406 87.3618 261.612 87.5646 261.753 87.8294C261.899 88.0942 261.973 88.4097 261.973 88.7759V91.5731C261.973 91.9393 261.899 92.2577 261.753 92.5281C261.612 92.7929 261.406 92.9957 261.136 93.1365C260.871 93.2774 260.553 93.3478 260.181 93.3478ZM260.181 92.6633C260.513 92.6633 260.767 92.5703 260.942 92.3844C261.122 92.1929 261.212 91.9224 261.212 91.5731V88.7844C261.212 88.4351 261.122 88.1675 260.942 87.9815C260.767 87.79 260.513 87.6942 260.181 87.6942C259.854 87.6942 259.601 87.79 259.42 87.9815C259.24 88.1675 259.15 88.4351 259.15 88.7844V91.5731C259.15 91.9224 259.24 92.1929 259.42 92.3844C259.601 92.5703 259.854 92.6633 260.181 92.6633ZM262.798 93.2633L264.403 87.0942H265.426L267.023 93.2633H266.254L265.848 91.6238H263.981L263.575 93.2633H262.798ZM264.133 90.9816H265.688L265.214 89.0801C265.124 88.7196 265.054 88.4182 265.003 88.1759C264.952 87.9336 264.921 87.7759 264.91 87.7027C264.899 87.7759 264.868 87.9336 264.817 88.1759C264.767 88.4182 264.696 88.7168 264.606 89.0717L264.133 90.9816ZM267.882 93.2633V87.0942H269.479C269.879 87.0942 270.222 87.1703 270.51 87.3224C270.803 87.4745 271.028 87.6886 271.186 87.9646C271.349 88.2407 271.431 88.5675 271.431 88.9449V91.4041C271.431 91.7816 271.349 92.1112 271.186 92.3929C271.028 92.6689 270.803 92.883 270.51 93.0351C270.222 93.1872 269.879 93.2633 269.479 93.2633H267.882ZM268.642 92.5872H269.479C269.851 92.5872 270.141 92.483 270.349 92.2746C270.563 92.0661 270.67 91.776 270.67 91.4041V88.9449C270.67 88.5787 270.563 88.2914 270.349 88.0829C270.141 87.8745 269.851 87.7703 269.479 87.7703H268.642V92.5872Z" fill="#0DBBEC"></path><defs><clipPath id="clip0_29_517"><rect width="11" height="11" fill="white" transform="translate(15 15)"></rect></clipPath></defs></svg> 