<?xml version="1.0" encoding="UTF-8"?> <svg xmlns="http://www.w3.org/2000/svg" width="250" height="108" viewBox="0 0 250 108" fill="none"><g filter="url(#filter0_b_47_569)"><rect width="250" height="108" fill="#1E1E1E" fill-opacity="0.47"></rect><rect x="0.5" y="0.5" width="249" height="107" stroke="#3B3B3B" stroke-opacity="0.24"></rect></g><path opacity="0.6" d="M18.3595 58.1105C17.8733 58.1105 17.4497 58.0184 17.0887 57.8342C16.735 57.65 16.4587 57.3848 16.2598 57.0386C16.0683 56.6849 15.9725 56.2687 15.9725 55.7898V52.1429C15.9725 51.6567 16.0683 51.2404 16.2598 50.8942C16.4587 50.5479 16.735 50.2827 17.0887 50.0985C17.4497 49.9143 17.8733 49.8222 18.3595 49.8222C18.8458 49.8222 19.2657 49.918 19.6194 50.1095C19.973 50.2937 20.2456 50.5589 20.4371 50.9052C20.6287 51.2515 20.7245 51.664 20.7245 52.1429H19.7299C19.7299 51.6861 19.6083 51.3362 19.3652 51.0931C19.1294 50.8426 18.7942 50.7173 18.3595 50.7173C17.9249 50.7173 17.5823 50.8389 17.3318 51.082C17.0887 51.3251 16.9671 51.6751 16.9671 52.1319V55.7898C16.9671 56.2466 17.0887 56.6002 17.3318 56.8507C17.5823 57.0938 17.9249 57.2154 18.3595 57.2154C18.7942 57.2154 19.1294 57.0938 19.3652 56.8507C19.6083 56.6002 19.7299 56.2466 19.7299 55.7898H20.7245C20.7245 56.2613 20.6287 56.6739 20.4371 57.0275C20.2456 57.3738 19.973 57.6427 19.6194 57.8342C19.2657 58.0184 18.8458 58.1105 18.3595 58.1105ZM24.4996 58.0884C24.0134 58.0884 23.5934 57.9963 23.2398 57.8121C22.8862 57.6279 22.6099 57.3627 22.411 57.0165C22.2194 56.6628 22.1236 56.2466 22.1236 55.7677V54.1542C22.1236 53.668 22.2194 53.2517 22.411 52.9054C22.6099 52.5592 22.8862 52.294 23.2398 52.1098C23.5934 51.9256 24.0134 51.8335 24.4996 51.8335C24.9859 51.8335 25.4058 51.9256 25.7594 52.1098C26.1131 52.294 26.3857 52.5592 26.5772 52.9054C26.7761 53.2517 26.8756 53.6643 26.8756 54.1432V55.7677C26.8756 56.2466 26.7761 56.6628 26.5772 57.0165C26.3857 57.3627 26.1131 57.6279 25.7594 57.8121C25.4058 57.9963 24.9859 58.0884 24.4996 58.0884ZM24.4996 57.2043C24.9343 57.2043 25.2732 57.0828 25.5163 56.8396C25.7594 56.5965 25.881 56.2392 25.881 55.7677V54.1542C25.881 53.6827 25.7594 53.3254 25.5163 53.0823C25.2732 52.8391 24.9343 52.7176 24.4996 52.7176C24.0723 52.7176 23.7334 52.8391 23.4829 53.0823C23.2398 53.3254 23.1182 53.6827 23.1182 54.1542V55.7677C23.1182 56.2392 23.2398 56.5965 23.4829 56.8396C23.7334 57.0828 24.0723 57.2043 24.4996 57.2043ZM28.098 58V51.9219H28.971V52.6513H29.1699L29.0152 52.9165C29.0152 52.5776 29.1036 52.3087 29.2804 52.1098C29.4646 51.9109 29.7114 51.8114 30.0208 51.8114C30.3597 51.8114 30.6213 51.9366 30.8055 52.1871C30.9897 52.4376 31.0817 52.7913 31.0817 53.248L30.7834 52.6513H31.2475L31.0375 52.9165C31.0375 52.5776 31.1296 52.3087 31.3138 52.1098C31.5054 51.9109 31.7559 51.8114 32.0653 51.8114C32.4484 51.8114 32.7431 51.9551 32.9494 52.2424C33.163 52.5297 33.2699 52.9091 33.2699 53.3806V58H32.3526V53.3696C32.3526 53.1191 32.2974 52.9239 32.1869 52.7839C32.0837 52.6439 31.929 52.5739 31.7227 52.5739C31.5238 52.5739 31.3654 52.6439 31.2475 52.7839C31.137 52.9165 31.0817 53.1081 31.0817 53.3585V58H30.2861V53.3696C30.2861 53.1117 30.2271 52.9165 30.1093 52.7839C29.9987 52.6439 29.8403 52.5739 29.6341 52.5739C29.4278 52.5739 29.2731 52.6439 29.1699 52.7839C29.0668 52.9165 29.0152 53.1081 29.0152 53.3585V58H28.098ZM36.8682 58.1105C36.3893 58.1105 35.9694 58.0147 35.6084 57.8232C35.2547 57.6316 34.9785 57.3627 34.7795 57.0165C34.588 56.6628 34.4922 56.2539 34.4922 55.7898V54.1321C34.4922 53.6606 34.588 53.2517 34.7795 52.9054C34.9785 52.5592 35.2547 52.2903 35.6084 52.0987C35.9694 51.9072 36.3893 51.8114 36.8682 51.8114C37.3471 51.8114 37.7633 51.9072 38.117 52.0987C38.478 52.2903 38.7543 52.5592 38.9458 52.9054C39.1447 53.2517 39.2442 53.6606 39.2442 54.1321V55.2041H35.4647V55.7898C35.4647 56.2687 35.5863 56.637 35.8294 56.8949C36.0725 57.1454 36.4188 57.2706 36.8682 57.2706C37.2513 57.2706 37.5607 57.2043 37.7965 57.0717C38.0322 56.9317 38.1759 56.7254 38.2275 56.4528H39.2221C39.1558 56.9612 38.9053 57.3664 38.4706 57.6685C38.0433 57.9632 37.5092 58.1105 36.8682 58.1105ZM38.2717 54.541V54.1321C38.2717 53.6532 38.1501 53.2849 37.907 53.027C37.6712 52.7692 37.325 52.6402 36.8682 52.6402C36.4188 52.6402 36.0725 52.7692 35.8294 53.027C35.5863 53.2849 35.4647 53.6532 35.4647 54.1321V54.4526H38.349L38.2717 54.541ZM49.2257 58.1105C48.5258 58.1105 47.9659 57.9042 47.546 57.4917C47.126 57.0717 46.9161 56.5044 46.9161 55.7898V51.9219H47.9107V55.7898C47.9107 56.2466 48.0285 56.6039 48.2643 56.8617C48.5 57.1122 48.8205 57.2375 49.2257 57.2375C49.6383 57.2375 49.9625 57.1122 50.1982 56.8617C50.4413 56.6039 50.5629 56.2466 50.5629 55.7898V51.9219H51.5575V55.7898C51.5575 56.5044 51.3439 57.0717 50.9165 57.4917C50.4892 57.9042 49.9256 58.1105 49.2257 58.1105ZM53.1224 59.9892V51.9219H54.117V53.0823H54.316L54.117 53.3143C54.117 52.8502 54.2681 52.4855 54.5701 52.2203C54.8796 51.9477 55.2848 51.8114 55.7858 51.8114C56.3973 51.8114 56.8835 52.014 57.2445 52.4192C57.6129 52.817 57.7971 53.3659 57.7971 54.0658V55.845C57.7971 56.3092 57.7123 56.7107 57.5429 57.0496C57.3808 57.3885 57.1487 57.65 56.8467 57.8342C56.552 58.0184 56.1983 58.1105 55.7858 58.1105C55.2921 58.1105 54.8906 57.9742 54.5812 57.7016C54.2718 57.429 54.117 57.0643 54.117 56.6076L54.316 56.8396H54.0949L54.117 58.221V59.9892H53.1224ZM55.4542 57.2485C55.8742 57.2485 56.202 57.1233 56.4378 56.8728C56.6809 56.6223 56.8025 56.2613 56.8025 55.7898V54.1321C56.8025 53.6606 56.6809 53.2996 56.4378 53.0491C56.202 52.7986 55.8742 52.6734 55.4542 52.6734C55.049 52.6734 54.7249 52.8023 54.4817 53.0602C54.2386 53.318 54.117 53.6753 54.117 54.1321V55.7898C54.117 56.2466 54.2386 56.6039 54.4817 56.8617C54.7249 57.1196 55.049 57.2485 55.4542 57.2485ZM65.8336 58L64.8611 51.9219H65.7452L66.353 56.2318C66.3751 56.3939 66.3972 56.5707 66.4193 56.7623C66.4488 56.9465 66.4709 57.1012 66.4856 57.2264C66.5004 57.1012 66.5225 56.9465 66.5519 56.7623C66.5888 56.5707 66.6182 56.3939 66.6403 56.2318L67.3145 51.9219H68.2649L68.939 56.2318C68.9611 56.3939 68.9869 56.5707 69.0163 56.7623C69.0532 56.9465 69.0789 57.1012 69.0937 57.2264C69.1084 57.1012 69.1305 56.9465 69.16 56.7623C69.1968 56.5707 69.2263 56.3939 69.2484 56.2318L69.8783 51.9219H70.7182L69.7015 58H68.6074L67.9554 53.8006C67.926 53.5943 67.8928 53.388 67.856 53.1817C67.8191 52.9754 67.7933 52.8134 67.7786 52.6955C67.7639 52.8134 67.7418 52.9754 67.7123 53.1817C67.6828 53.388 67.6497 53.5943 67.6128 53.8006L66.9277 58H65.8336ZM71.598 58V57.0938H73.7529V52.8281H71.8742V51.9219H74.7475V57.0938H76.792V58H71.598ZM74.1397 50.8278C73.8966 50.8278 73.705 50.7652 73.5651 50.64C73.4251 50.5147 73.3551 50.3453 73.3551 50.1316C73.3551 49.9106 73.4251 49.7375 73.5651 49.6122C73.705 49.4796 73.8966 49.4133 74.1397 49.4133C74.3828 49.4133 74.5744 49.4796 74.7144 49.6122C74.8544 49.7375 74.9243 49.9106 74.9243 50.1316C74.9243 50.3453 74.8544 50.5147 74.7144 50.64C74.5744 50.7652 74.3828 50.8278 74.1397 50.8278ZM80.8213 58C80.2982 58 79.8893 57.86 79.5946 57.5801C79.3073 57.3001 79.1636 56.9059 79.1636 56.3976V52.8281H77.4507V51.9219H79.1636V50.209H80.1582V51.9219H82.5895V52.8281H80.1582V56.3976C80.1582 56.8617 80.3793 57.0938 80.8213 57.0938H82.479V58H80.8213ZM84.0439 58V49.9327H85.0385V51.9219V53.0823H85.2485L85.0385 53.3143C85.0385 52.8355 85.1822 52.4671 85.4695 52.2092C85.7568 51.944 86.1547 51.8114 86.663 51.8114C87.2745 51.8114 87.7608 51.9993 88.1218 52.375C88.4828 52.7507 88.6633 53.2628 88.6633 53.9111V58H87.6687V54.0216C87.6687 53.5869 87.5508 53.2517 87.315 53.016C87.0866 52.7728 86.7735 52.6513 86.3757 52.6513C85.9631 52.6513 85.6353 52.7802 85.3921 53.0381C85.1564 53.2959 85.0385 53.6606 85.0385 54.1321V58H84.0439ZM98.1807 58.1105C97.5397 58.1105 97.035 57.9484 96.6667 57.6243C96.2983 57.2927 96.1141 56.847 96.1141 56.2871C96.1141 55.7198 96.2983 55.2741 96.6667 54.9499C97.035 54.6257 97.5323 54.4637 98.1586 54.4637H100.037V53.8558C100.037 53.4801 99.923 53.1928 99.6947 52.9939C99.4736 52.7876 99.1568 52.6844 98.7443 52.6844C98.3833 52.6844 98.0812 52.7618 97.8381 52.9165C97.5949 53.0638 97.455 53.2665 97.4181 53.5243H96.4235C96.4898 53.0012 96.7366 52.585 97.164 52.2755C97.5913 51.9661 98.1254 51.8114 98.7664 51.8114C99.4663 51.8114 100.019 51.9919 100.424 52.3529C100.829 52.7139 101.032 53.2038 101.032 53.8227V58H100.059V56.8396H99.8936L100.059 56.6739C100.059 57.1159 99.8862 57.4659 99.5399 57.7237C99.201 57.9816 98.7479 58.1105 98.1807 58.1105ZM98.4238 57.3259C98.8953 57.3259 99.2821 57.208 99.5841 56.9722C99.8862 56.7365 100.037 56.4344 100.037 56.0661V55.2041H98.1807C97.8491 55.2041 97.5876 55.2962 97.396 55.4804C97.2045 55.6645 97.1087 55.915 97.1087 56.2318C97.1087 56.5707 97.2229 56.8396 97.4513 57.0386C97.687 57.2301 98.0112 57.3259 98.4238 57.3259ZM102.597 58V51.9219H103.591V53.0823H103.801L103.591 53.3143C103.591 52.8355 103.735 52.4671 104.022 52.2092C104.31 51.944 104.708 51.8114 105.216 51.8114C105.827 51.8114 106.314 51.9993 106.675 52.375C107.036 52.7507 107.216 53.2628 107.216 53.9111V58H106.222V54.0216C106.222 53.5869 106.104 53.2554 105.868 53.027C105.64 52.7913 105.326 52.6734 104.929 52.6734C104.516 52.6734 104.188 52.7986 103.945 53.0491C103.709 53.2996 103.591 53.6606 103.591 54.1321V58H102.597ZM114.501 58L116.601 49.9327H117.938L120.027 58H119.021L118.491 55.8561H116.048L115.518 58H114.501ZM116.247 55.0162H118.281L117.662 52.5297C117.544 52.0582 117.452 51.664 117.386 51.3472C117.319 51.0304 117.279 50.8242 117.264 50.7284C117.249 50.8242 117.209 51.0304 117.142 51.3472C117.076 51.664 116.984 52.0545 116.866 52.5187L116.247 55.0162ZM124.277 58C123.923 58 123.614 57.93 123.349 57.79C123.084 57.65 122.877 57.4511 122.73 57.1933C122.583 56.9354 122.509 56.6333 122.509 56.2871V50.8389H120.464V49.9327H123.504V56.2871C123.504 56.5376 123.574 56.7365 123.714 56.8838C123.853 57.0238 124.041 57.0938 124.277 57.0938H126.211V58H124.277ZM135.463 58.1105C134.859 58.1105 134.369 57.9079 133.993 57.5027C133.625 57.0975 133.441 56.5486 133.441 55.8561V54.0769C133.441 53.377 133.625 52.8244 133.993 52.4192C134.362 52.014 134.852 51.8114 135.463 51.8114C135.964 51.8114 136.366 51.9477 136.668 52.2203C136.97 52.4929 137.121 52.8576 137.121 53.3143L136.922 53.0823H137.143L137.121 51.7009V49.9327H138.115V58H137.121V56.8396H136.922L137.121 56.6076C137.121 57.0717 136.97 57.4401 136.668 57.7127C136.366 57.9779 135.964 58.1105 135.463 58.1105ZM135.795 57.2485C136.207 57.2485 136.531 57.1196 136.767 56.8617C137.003 56.6039 137.121 56.2466 137.121 55.7898V54.1321C137.121 53.6753 137.003 53.318 136.767 53.0602C136.531 52.8023 136.207 52.6734 135.795 52.6734C135.375 52.6734 135.043 52.7986 134.8 53.0491C134.557 53.2996 134.435 53.6606 134.435 54.1321V55.7898C134.435 56.2613 134.557 56.6223 134.8 56.8728C135.043 57.1233 135.375 57.2485 135.795 57.2485ZM142.001 58.0884C141.515 58.0884 141.095 57.9963 140.741 57.8121C140.388 57.6279 140.111 57.3627 139.912 57.0165C139.721 56.6628 139.625 56.2466 139.625 55.7677V54.1542C139.625 53.668 139.721 53.2517 139.912 52.9054C140.111 52.5592 140.388 52.294 140.741 52.1098C141.095 51.9256 141.515 51.8335 142.001 51.8335C142.487 51.8335 142.907 51.9256 143.261 52.1098C143.615 52.294 143.887 52.5592 144.079 52.9054C144.278 53.2517 144.377 53.6643 144.377 54.1432V55.7677C144.377 56.2466 144.278 56.6628 144.079 57.0165C143.887 57.3627 143.615 57.6279 143.261 57.8121C142.907 57.9963 142.487 58.0884 142.001 58.0884ZM142.001 57.2043C142.436 57.2043 142.775 57.0828 143.018 56.8396C143.261 56.5965 143.383 56.2392 143.383 55.7677V54.1542C143.383 53.6827 143.261 53.3254 143.018 53.0823C142.775 52.8391 142.436 52.7176 142.001 52.7176C141.574 52.7176 141.235 52.8391 140.984 53.0823C140.741 53.3254 140.62 53.6827 140.62 54.1542V55.7677C140.62 56.2392 140.741 56.5965 140.984 56.8396C141.235 57.0828 141.574 57.2043 142.001 57.2043ZM146.649 59.9892V59.083H148.583C148.893 59.083 149.117 59.013 149.257 58.873C149.405 58.7331 149.478 58.5157 149.478 58.221V57.4474L149.501 56.3423H149.302L149.489 56.1766C149.489 56.6186 149.342 56.9686 149.047 57.2264C148.753 57.4843 148.359 57.6132 147.865 57.6132C147.239 57.6132 146.745 57.4106 146.384 57.0054C146.023 56.5928 145.843 56.0403 145.843 55.3477V54.0658C145.843 53.3733 146.023 52.8244 146.384 52.4192C146.745 52.014 147.239 51.8114 147.865 51.8114C148.359 51.8114 148.753 51.9403 149.047 52.1982C149.342 52.456 149.489 52.806 149.489 53.248L149.302 53.0823H149.489V51.9219H150.473V58.221C150.473 58.7662 150.304 59.1972 149.965 59.514C149.633 59.8308 149.169 59.9892 148.572 59.9892H146.649ZM148.163 56.7512C148.576 56.7512 148.9 56.6223 149.136 56.3644C149.372 56.1066 149.489 55.7493 149.489 55.2925V54.1321C149.489 53.6753 149.372 53.318 149.136 53.0602C148.9 52.8023 148.576 52.6734 148.163 52.6734C147.743 52.6734 147.416 52.7986 147.18 53.0491C146.951 53.2996 146.837 53.6606 146.837 54.1321V55.2925C146.837 55.764 146.951 56.125 147.18 56.3755C147.416 56.626 147.743 56.7512 148.163 56.7512ZM159.67 58V53.4359H157.902V52.5297H159.67V51.4799C159.67 51.001 159.821 50.6252 160.123 50.3526C160.425 50.0727 160.841 49.9327 161.372 49.9327H163.151V50.8389H161.372C161.143 50.8389 160.967 50.8942 160.841 51.0047C160.723 51.1078 160.665 51.2662 160.665 51.4799V52.5297H163.151V53.4359H160.665V58H159.67ZM166.738 58.0884C166.252 58.0884 165.832 57.9963 165.478 57.8121C165.125 57.6279 164.849 57.3627 164.65 57.0165C164.458 56.6628 164.362 56.2466 164.362 55.7677V54.1542C164.362 53.668 164.458 53.2517 164.65 52.9054C164.849 52.5592 165.125 52.294 165.478 52.1098C165.832 51.9256 166.252 51.8335 166.738 51.8335C167.225 51.8335 167.645 51.9256 167.998 52.1098C168.352 52.294 168.624 52.5592 168.816 52.9054C169.015 53.2517 169.114 53.6643 169.114 54.1432V55.7677C169.114 56.2466 169.015 56.6628 168.816 57.0165C168.624 57.3627 168.352 57.6279 167.998 57.8121C167.645 57.9963 167.225 58.0884 166.738 58.0884ZM166.738 57.2043C167.173 57.2043 167.512 57.0828 167.755 56.8396C167.998 56.5965 168.12 56.2392 168.12 55.7677V54.1542C168.12 53.6827 167.998 53.3254 167.755 53.0823C167.512 52.8391 167.173 52.7176 166.738 52.7176C166.311 52.7176 165.972 52.8391 165.722 53.0823C165.478 53.3254 165.357 53.6827 165.357 54.1542V55.7677C165.357 56.2392 165.478 56.5965 165.722 56.8396C165.972 57.0828 166.311 57.2043 166.738 57.2043ZM170.834 58V51.9219H171.806V53.0823H172.039L171.718 53.8006C171.718 53.1449 171.858 52.6513 172.138 52.3197C172.425 51.9808 172.849 51.8114 173.409 51.8114C174.05 51.8114 174.558 52.014 174.934 52.4192C175.317 52.817 175.509 53.3585 175.509 54.0437V54.4084H174.514V54.1321C174.514 53.6532 174.396 53.2886 174.16 53.0381C173.932 52.7802 173.604 52.6513 173.177 52.6513C172.757 52.6513 172.425 52.7802 172.182 53.0381C171.946 53.2959 171.829 53.6606 171.829 54.1321V58H170.834ZM183.943 59.9892L184.838 57.6243L182.584 51.9219H183.689L185.103 55.6793C185.155 55.8045 185.203 55.9555 185.247 56.1324C185.291 56.3018 185.328 56.4455 185.357 56.5634C185.387 56.4455 185.424 56.3018 185.468 56.1324C185.512 55.9555 185.556 55.8045 185.601 55.6793L186.927 51.9219H187.999L185.004 59.9892H183.943ZM191.475 58.0884C190.989 58.0884 190.569 57.9963 190.216 57.8121C189.862 57.6279 189.586 57.3627 189.387 57.0165C189.195 56.6628 189.099 56.2466 189.099 55.7677V54.1542C189.099 53.668 189.195 53.2517 189.387 52.9054C189.586 52.5592 189.862 52.294 190.216 52.1098C190.569 51.9256 190.989 51.8335 191.475 51.8335C191.962 51.8335 192.382 51.9256 192.735 52.1098C193.089 52.294 193.362 52.5592 193.553 52.9054C193.752 53.2517 193.851 53.6643 193.851 54.1432V55.7677C193.851 56.2466 193.752 56.6628 193.553 57.0165C193.362 57.3627 193.089 57.6279 192.735 57.8121C192.382 57.9963 191.962 58.0884 191.475 58.0884ZM191.475 57.2043C191.91 57.2043 192.249 57.0828 192.492 56.8396C192.735 56.5965 192.857 56.2392 192.857 55.7677V54.1542C192.857 53.6827 192.735 53.3254 192.492 53.0823C192.249 52.8391 191.91 52.7176 191.475 52.7176C191.048 52.7176 190.709 52.8391 190.459 53.0823C190.216 53.3254 190.094 53.6827 190.094 54.1542V55.7677C190.094 56.2392 190.216 56.5965 190.459 56.8396C190.709 57.0828 191.048 57.2043 191.475 57.2043ZM197.649 58.1105C196.949 58.1105 196.389 57.9042 195.969 57.4917C195.549 57.0717 195.339 56.5044 195.339 55.7898V51.9219H196.334V55.7898C196.334 56.2466 196.452 56.6039 196.687 56.8617C196.923 57.1122 197.244 57.2375 197.649 57.2375C198.061 57.2375 198.385 57.1122 198.621 56.8617C198.864 56.6039 198.986 56.2466 198.986 55.7898V51.9219H199.981V55.7898C199.981 56.5044 199.767 57.0717 199.34 57.4917C198.912 57.9042 198.349 58.1105 197.649 58.1105ZM201.755 58V51.9219H202.728V53.0823H202.96L202.639 53.8006C202.639 53.1449 202.779 52.6513 203.059 52.3197C203.347 51.9808 203.77 51.8114 204.33 51.8114C204.971 51.8114 205.48 52.014 205.855 52.4192C206.238 52.817 206.43 53.3585 206.43 54.0437V54.4084H205.435V54.1321C205.435 53.6532 205.318 53.2886 205.082 53.0381C204.853 52.7802 204.526 52.6513 204.098 52.6513C203.678 52.6513 203.347 52.7802 203.104 53.0381C202.868 53.2959 202.75 53.6606 202.75 54.1321V58H201.755ZM209.84 58.0884C209.428 58.0884 209.067 58.0258 208.757 57.9005C208.455 57.7679 208.212 57.5837 208.028 57.348C207.851 57.1122 207.744 56.8323 207.708 56.5081H208.702C208.746 56.7218 208.864 56.8912 209.056 57.0165C209.255 57.1417 209.516 57.2043 209.84 57.2043H210.305C210.695 57.2043 210.986 57.127 211.178 56.9722C211.369 56.8102 211.465 56.5965 211.465 56.3313C211.465 56.0734 211.377 55.8708 211.2 55.7235C211.03 55.5688 210.776 55.4656 210.437 55.414L209.619 55.2814C209.023 55.1783 208.577 54.9941 208.282 54.7289C207.995 54.4563 207.851 54.0621 207.851 53.5464C207.851 53.0012 208.024 52.5813 208.371 52.2866C208.717 51.9845 209.236 51.8335 209.929 51.8335H210.349C210.931 51.8335 211.399 51.9698 211.752 52.2424C212.106 52.515 212.32 52.8833 212.393 53.3475H211.399C211.354 53.1559 211.244 53.0049 211.067 52.8944C210.89 52.7765 210.651 52.7176 210.349 52.7176H209.929C209.553 52.7176 209.277 52.7876 209.1 52.9276C208.931 53.0675 208.846 53.2775 208.846 53.5575C208.846 53.808 208.92 53.9921 209.067 54.11C209.214 54.2279 209.446 54.3126 209.763 54.3642L210.581 54.4968C211.237 54.5999 211.712 54.7915 212.006 55.0715C212.309 55.3514 212.46 55.7566 212.46 56.2871C212.46 56.847 212.279 57.289 211.918 57.6132C211.564 57.93 211.027 58.0884 210.305 58.0884H209.84ZM216.213 58.1105C215.734 58.1105 215.314 58.0147 214.953 57.8232C214.599 57.6316 214.323 57.3627 214.124 57.0165C213.932 56.6628 213.837 56.2539 213.837 55.7898V54.1321C213.837 53.6606 213.932 53.2517 214.124 52.9054C214.323 52.5592 214.599 52.2903 214.953 52.0987C215.314 51.9072 215.734 51.8114 216.213 51.8114C216.692 51.8114 217.108 51.9072 217.461 52.0987C217.822 52.2903 218.099 52.5592 218.29 52.9054C218.489 53.2517 218.589 53.6606 218.589 54.1321V55.2041H214.809V55.7898C214.809 56.2687 214.931 56.637 215.174 56.8949C215.417 57.1454 215.763 57.2706 216.213 57.2706C216.596 57.2706 216.905 57.2043 217.141 57.0717C217.377 56.9317 217.52 56.7254 217.572 56.4528H218.567C218.5 56.9612 218.25 57.3664 217.815 57.6685C217.388 57.9632 216.854 58.1105 216.213 58.1105ZM217.616 54.541V54.1321C217.616 53.6532 217.495 53.2849 217.251 53.027C217.016 52.7692 216.669 52.6402 216.213 52.6402C215.763 52.6402 215.417 52.7692 215.174 53.027C214.931 53.2849 214.809 53.6532 214.809 54.1321V54.4526H217.693L217.616 54.541ZM223.226 58C222.872 58 222.563 57.93 222.297 57.79C222.032 57.65 221.826 57.4511 221.679 57.1933C221.531 56.9354 221.458 56.6333 221.458 56.2871V50.8389H219.413V49.9327H222.452V56.2871C222.452 56.5376 222.522 56.7365 222.662 56.8838C222.802 57.0238 222.99 57.0938 223.226 57.0938H225.16V58H223.226ZM227.697 58V53.4359H225.929V52.5297H227.697V51.4799C227.697 51.001 227.848 50.6252 228.15 50.3526C228.452 50.0727 228.869 49.9327 229.399 49.9327H231.178V50.8389H229.399C229.171 50.8389 228.994 50.8942 228.869 51.0047C228.751 51.1078 228.692 51.2662 228.692 51.4799V52.5297H231.178V53.4359H228.692V58H227.697ZM233.274 59.7682L234.158 56.3313H235.594L234.158 59.7682H233.274ZM16.7792 74.9892V74.083H18.7132C19.0226 74.083 19.2473 74.013 19.3873 73.873C19.5346 73.7331 19.6083 73.5157 19.6083 73.221V72.4474L19.6304 71.3423H19.4315L19.6194 71.1766C19.6194 71.6186 19.472 71.9686 19.1773 72.2264C18.8826 72.4843 18.4885 72.6132 17.9948 72.6132C17.3686 72.6132 16.875 72.4106 16.514 72.0054C16.153 71.5928 15.9725 71.0403 15.9725 70.3477V69.0658C15.9725 68.3733 16.153 67.8244 16.514 67.4192C16.875 67.014 17.3686 66.8114 17.9948 66.8114C18.4885 66.8114 18.8826 66.9403 19.1773 67.1982C19.472 67.456 19.6194 67.806 19.6194 68.248L19.4315 68.0823H19.6194V66.9219H20.6029V73.221C20.6029 73.7662 20.4335 74.1972 20.0946 74.514C19.763 74.8308 19.2989 74.9892 18.7021 74.9892H16.7792ZM18.2932 71.7512C18.7058 71.7512 19.03 71.6223 19.2657 71.3644C19.5015 71.1066 19.6194 70.7493 19.6194 70.2925V69.1321C19.6194 68.6753 19.5015 68.318 19.2657 68.0602C19.03 67.8023 18.7058 67.6734 18.2932 67.6734C17.8733 67.6734 17.5454 67.7986 17.3097 68.0491C17.0813 68.2996 16.9671 68.6606 16.9671 69.1321V70.2925C16.9671 70.764 17.0813 71.125 17.3097 71.3755C17.5454 71.626 17.8733 71.7512 18.2932 71.7512ZM22.1236 73V72.0938H24.2786V67.8281H22.3999V66.9219H25.2732V72.0938H27.3176V73H22.1236ZM24.6654 65.8278C24.4223 65.8278 24.2307 65.7652 24.0907 65.64C23.9507 65.5147 23.8808 65.3453 23.8808 65.1316C23.8808 64.9106 23.9507 64.7375 24.0907 64.6122C24.2307 64.4796 24.4223 64.4133 24.6654 64.4133C24.9085 64.4133 25.1001 64.4796 25.24 64.6122C25.38 64.7375 25.45 64.9106 25.45 65.1316C25.45 65.3453 25.38 65.5147 25.24 65.64C25.1001 65.7652 24.9085 65.8278 24.6654 65.8278ZM30.0098 73L27.9764 66.9219H28.9931L30.3413 71.0108C30.4224 71.2539 30.496 71.4897 30.5623 71.7181C30.6287 71.9391 30.6765 72.1122 30.706 72.2375C30.7428 72.1122 30.7944 71.9391 30.8607 71.7181C30.927 71.4897 30.997 71.2539 31.0707 71.0108L32.3858 66.9219H33.3914L31.358 73H30.0098ZM36.8682 73.1105C36.3893 73.1105 35.9694 73.0147 35.6084 72.8232C35.2547 72.6316 34.9785 72.3627 34.7795 72.0165C34.588 71.6628 34.4922 71.2539 34.4922 70.7898V69.1321C34.4922 68.6606 34.588 68.2517 34.7795 67.9054C34.9785 67.5592 35.2547 67.2903 35.6084 67.0987C35.9694 66.9072 36.3893 66.8114 36.8682 66.8114C37.3471 66.8114 37.7633 66.9072 38.117 67.0987C38.478 67.2903 38.7543 67.5592 38.9458 67.9054C39.1447 68.2517 39.2442 68.6606 39.2442 69.1321V70.2041H35.4647V70.7898C35.4647 71.2687 35.5863 71.637 35.8294 71.8949C36.0725 72.1454 36.4188 72.2706 36.8682 72.2706C37.2513 72.2706 37.5607 72.2043 37.7965 72.0717C38.0322 71.9317 38.1759 71.7254 38.2275 71.4528H39.2221C39.1558 71.9612 38.9053 72.3664 38.4706 72.6685C38.0433 72.9632 37.5092 73.1105 36.8682 73.1105ZM38.2717 69.541V69.1321C38.2717 68.6532 38.1501 68.2849 37.907 68.027C37.6712 67.7692 37.325 67.6402 36.8682 67.6402C36.4188 67.6402 36.0725 67.7692 35.8294 68.027C35.5863 68.2849 35.4647 68.6532 35.4647 69.1321V69.4526H38.349L38.2717 69.541ZM46.8608 73V72.0938H49.0158V67.8281H47.1371V66.9219H50.0104V72.0938H52.0548V73H46.8608ZM49.4025 65.8278C49.1594 65.8278 48.9679 65.7652 48.8279 65.64C48.6879 65.5147 48.6179 65.3453 48.6179 65.1316C48.6179 64.9106 48.6879 64.7375 48.8279 64.6122C48.9679 64.4796 49.1594 64.4133 49.4025 64.4133C49.6457 64.4133 49.8372 64.4796 49.9772 64.6122C50.1172 64.7375 50.1872 64.9106 50.1872 65.1316C50.1872 65.3453 50.1172 65.5147 49.9772 65.64C49.8372 65.7652 49.6457 65.8278 49.4025 65.8278ZM56.0841 73C55.5611 73 55.1522 72.86 54.8575 72.5801C54.5701 72.3001 54.4265 71.9059 54.4265 71.3976V67.8281H52.7136V66.9219H54.4265V65.209H55.4211V66.9219H57.8523V67.8281H55.4211V71.3976C55.4211 71.8617 55.6421 72.0938 56.0841 72.0938H57.7418V73H56.0841ZM67.2592 73.1105C66.6182 73.1105 66.1136 72.9484 65.7452 72.6243C65.3768 72.2927 65.1927 71.847 65.1927 71.2871C65.1927 70.7198 65.3768 70.2741 65.7452 69.9499C66.1136 69.6257 66.6109 69.4637 67.2371 69.4637H69.1158V68.8558C69.1158 68.4801 69.0016 68.1928 68.7732 67.9939C68.5522 67.7876 68.2354 67.6844 67.8228 67.6844C67.4618 67.6844 67.1597 67.7618 66.9166 67.9165C66.6735 68.0638 66.5335 68.2665 66.4967 68.5243H65.5021C65.5684 68.0012 65.8152 67.585 66.2425 67.2755C66.6698 66.9661 67.2039 66.8114 67.8449 66.8114C68.5448 66.8114 69.0974 66.9919 69.5026 67.3529C69.9078 67.7139 70.1104 68.2038 70.1104 68.8227V73H69.1379V71.8396H68.9721L69.1379 71.6739C69.1379 72.1159 68.9648 72.4659 68.6185 72.7237C68.2796 72.9816 67.8265 73.1105 67.2592 73.1105ZM67.5023 72.3259C67.9738 72.3259 68.3606 72.208 68.6627 71.9722C68.9648 71.7365 69.1158 71.4344 69.1158 71.0661V70.2041H67.2592C66.9277 70.2041 66.6661 70.2962 66.4746 70.4804C66.283 70.6645 66.1872 70.915 66.1872 71.2318C66.1872 71.5707 66.3014 71.8396 66.5298 72.0386C66.7656 72.2301 67.0898 72.3259 67.5023 72.3259ZM77.8596 73V66.9219H78.8542V68.0823H79.0642L78.8542 68.3143C78.8542 67.8355 78.9979 67.4671 79.2852 67.2092C79.5725 66.944 79.9704 66.8114 80.4787 66.8114C81.0902 66.8114 81.5765 66.9993 81.9375 67.375C82.2985 67.7507 82.479 68.2628 82.479 68.9111V73H81.4844V69.0216C81.4844 68.5869 81.3665 68.2554 81.1307 68.027C80.9023 67.7913 80.5892 67.6734 80.1914 67.6734C79.7788 67.6734 79.451 67.7986 79.2078 68.0491C78.9721 68.2996 78.8542 68.6606 78.8542 69.1321V73H77.8596ZM85.8121 73.1105C85.1711 73.1105 84.6665 72.9484 84.2981 72.6243C83.9297 72.2927 83.7455 71.847 83.7455 71.2871C83.7455 70.7198 83.9297 70.2741 84.2981 69.9499C84.6665 69.6257 85.1637 69.4637 85.79 69.4637H87.6687V68.8558C87.6687 68.4801 87.5545 68.1928 87.3261 67.9939C87.1051 67.7876 86.7883 67.6844 86.3757 67.6844C86.0147 67.6844 85.7126 67.7618 85.4695 67.9165C85.2264 68.0638 85.0864 68.2665 85.0496 68.5243H84.055C84.1213 68.0012 84.3681 67.585 84.7954 67.2755C85.2227 66.9661 85.7568 66.8114 86.3978 66.8114C87.0977 66.8114 87.6502 66.9919 88.0555 67.3529C88.4607 67.7139 88.6633 68.2038 88.6633 68.8227V73H87.6908V71.8396H87.525L87.6908 71.6739C87.6908 72.1159 87.5176 72.4659 87.1714 72.7237C86.8325 72.9816 86.3794 73.1105 85.8121 73.1105ZM86.0552 72.3259C86.5267 72.3259 86.9135 72.208 87.2156 71.9722C87.5176 71.7365 87.6687 71.4344 87.6687 71.0661V70.2041H85.8121C85.4805 70.2041 85.219 70.2962 85.0275 70.4804C84.8359 70.6645 84.7401 70.915 84.7401 71.2318C84.7401 71.5707 84.8543 71.8396 85.0827 72.0386C85.3185 72.2301 85.6426 72.3259 86.0552 72.3259ZM89.9409 73V66.9219H90.8139V67.6513H91.0128L90.8581 67.9165C90.8581 67.5776 90.9465 67.3087 91.1233 67.1098C91.3075 66.9109 91.5543 66.8114 91.8638 66.8114C92.2027 66.8114 92.4642 66.9366 92.6484 67.1871C92.8326 67.4376 92.9247 67.7913 92.9247 68.248L92.6263 67.6513H93.0904L92.8805 67.9165C92.8805 67.5776 92.9725 67.3087 93.1567 67.1098C93.3483 66.9109 93.5988 66.8114 93.9082 66.8114C94.2913 66.8114 94.586 66.9551 94.7923 67.2424C95.0059 67.5297 95.1128 67.9091 95.1128 68.3806V73H94.1955V68.3696C94.1955 68.1191 94.1403 67.9239 94.0298 67.7839C93.9266 67.6439 93.7719 67.5739 93.5656 67.5739C93.3667 67.5739 93.2083 67.6439 93.0904 67.7839C92.9799 67.9165 92.9247 68.1081 92.9247 68.3585V73H92.129V68.3696C92.129 68.1117 92.07 67.9165 91.9522 67.7839C91.8417 67.6439 91.6833 67.5739 91.477 67.5739C91.2707 67.5739 91.116 67.6439 91.0128 67.7839C90.9097 67.9165 90.8581 68.1081 90.8581 68.3585V73H89.9409ZM98.7111 73.1105C98.2322 73.1105 97.8123 73.0147 97.4513 72.8232C97.0976 72.6316 96.8214 72.3627 96.6225 72.0165C96.4309 71.6628 96.3351 71.2539 96.3351 70.7898V69.1321C96.3351 68.6606 96.4309 68.2517 96.6225 67.9054C96.8214 67.5592 97.0976 67.2903 97.4513 67.0987C97.8123 66.9072 98.2322 66.8114 98.7111 66.8114C99.19 66.8114 99.6062 66.9072 99.9599 67.0987C100.321 67.2903 100.597 67.5592 100.789 67.9054C100.988 68.2517 101.087 68.6606 101.087 69.1321V70.2041H97.3076V70.7898C97.3076 71.2687 97.4292 71.637 97.6723 71.8949C97.9154 72.1454 98.2617 72.2706 98.7111 72.2706C99.0942 72.2706 99.4036 72.2043 99.6394 72.0717C99.8752 71.9317 100.019 71.7254 100.07 71.4528H101.065C100.999 71.9612 100.748 72.3664 100.314 72.6685C99.8862 72.9632 99.3521 73.1105 98.7111 73.1105ZM100.115 69.541V69.1321C100.115 68.6532 99.993 68.2849 99.7499 68.027C99.5142 67.7692 99.1679 67.6402 98.7111 67.6402C98.2617 67.6402 97.9154 67.7692 97.6723 68.027C97.4292 68.2849 97.3076 68.6532 97.3076 69.1321V69.4526H100.192L100.115 69.541ZM103.404 74.7682L104.288 71.3313H105.724L104.288 74.7682H103.404ZM116.91 73.1105C116.306 73.1105 115.816 72.9079 115.441 72.5027C115.072 72.0975 114.888 71.5486 114.888 70.8561V69.0769C114.888 68.377 115.072 67.8244 115.441 67.4192C115.809 67.014 116.299 66.8114 116.91 66.8114C117.411 66.8114 117.813 66.9477 118.115 67.2203C118.417 67.4929 118.568 67.8576 118.568 68.3143L118.369 68.0823H118.59L118.568 66.7009V64.9327H119.563V73H118.568V71.8396H118.369L118.568 71.6076C118.568 72.0717 118.417 72.4401 118.115 72.7127C117.813 72.9779 117.411 73.1105 116.91 73.1105ZM117.242 72.2485C117.654 72.2485 117.979 72.1196 118.214 71.8617C118.45 71.6039 118.568 71.2466 118.568 70.7898V69.1321C118.568 68.6753 118.45 68.318 118.214 68.0602C117.979 67.8023 117.654 67.6734 117.242 67.6734C116.822 67.6734 116.49 67.7986 116.247 68.0491C116.004 68.2996 115.883 68.6606 115.883 69.1321V70.7898C115.883 71.2613 116.004 71.6223 116.247 71.8728C116.49 72.1233 116.822 72.2485 117.242 72.2485ZM123.448 73.1105C122.969 73.1105 122.549 73.0147 122.188 72.8232C121.835 72.6316 121.559 72.3627 121.36 72.0165C121.168 71.6628 121.072 71.2539 121.072 70.7898V69.1321C121.072 68.6606 121.168 68.2517 121.36 67.9054C121.559 67.5592 121.835 67.2903 122.188 67.0987C122.549 66.9072 122.969 66.8114 123.448 66.8114C123.927 66.8114 124.343 66.9072 124.697 67.0987C125.058 67.2903 125.334 67.5592 125.526 67.9054C125.725 68.2517 125.824 68.6606 125.824 69.1321V70.2041H122.045V70.7898C122.045 71.2687 122.166 71.637 122.409 71.8949C122.653 72.1454 122.999 72.2706 123.448 72.2706C123.831 72.2706 124.141 72.2043 124.377 72.0717C124.612 71.9317 124.756 71.7254 124.808 71.4528H125.802C125.736 71.9612 125.485 72.3664 125.051 72.6685C124.623 72.9632 124.089 73.1105 123.448 73.1105ZM124.852 69.541V69.1321C124.852 68.6532 124.73 68.2849 124.487 68.027C124.251 67.7692 123.905 67.6402 123.448 67.6402C122.999 67.6402 122.653 67.7692 122.409 68.027C122.166 68.2849 122.045 68.6532 122.045 69.1321V69.4526H124.929L124.852 69.541ZM129.445 73.0884C129.032 73.0884 128.671 73.0258 128.362 72.9005C128.06 72.7679 127.817 72.5837 127.632 72.348C127.456 72.1122 127.349 71.8323 127.312 71.5081H128.306C128.351 71.7218 128.469 71.8912 128.66 72.0165C128.859 72.1417 129.121 72.2043 129.445 72.2043H129.909C130.299 72.2043 130.59 72.127 130.782 71.9722C130.973 71.8102 131.069 71.5965 131.069 71.3313C131.069 71.0734 130.981 70.8708 130.804 70.7235C130.635 70.5688 130.38 70.4656 130.041 70.414L129.224 70.2814C128.627 70.1783 128.181 69.9941 127.886 69.7289C127.599 69.4563 127.456 69.0621 127.456 68.5464C127.456 68.0012 127.629 67.5813 127.975 67.2866C128.321 66.9845 128.841 66.8335 129.533 66.8335H129.953C130.535 66.8335 131.003 66.9698 131.357 67.2424C131.71 67.515 131.924 67.8833 131.998 68.3475H131.003C130.959 68.1559 130.848 68.0049 130.671 67.8944C130.495 67.7765 130.255 67.7176 129.953 67.7176H129.533C129.157 67.7176 128.881 67.7876 128.704 67.9276C128.535 68.0675 128.45 68.2775 128.45 68.5575C128.45 68.808 128.524 68.9921 128.671 69.11C128.818 69.2279 129.051 69.3126 129.367 69.3642L130.185 69.4968C130.841 69.5999 131.316 69.7915 131.611 70.0715C131.913 70.3514 132.064 70.7566 132.064 71.2871C132.064 71.847 131.883 72.289 131.522 72.6132C131.169 72.93 130.631 73.0884 129.909 73.0884H129.445ZM135.861 73.1105C135.375 73.1105 134.948 73.0184 134.579 72.8342C134.218 72.65 133.938 72.3848 133.739 72.0386C133.54 71.6849 133.441 71.2687 133.441 70.7898V69.1321C133.441 68.6459 133.54 68.2296 133.739 67.8833C133.938 67.5371 134.218 67.2719 134.579 67.0877C134.948 66.9035 135.375 66.8114 135.861 66.8114C136.561 66.8114 137.125 66.9993 137.552 67.375C137.979 67.7507 138.204 68.2628 138.226 68.9111H137.231C137.209 68.5206 137.077 68.2222 136.834 68.016C136.598 67.8023 136.274 67.6955 135.861 67.6955C135.426 67.6955 135.08 67.8207 134.822 68.0712C134.564 68.3143 134.435 68.6643 134.435 69.1211V70.7898C134.435 71.2466 134.564 71.6002 134.822 71.8507C135.08 72.1012 135.426 72.2264 135.861 72.2264C136.274 72.2264 136.598 72.1196 136.834 71.9059C137.077 71.6923 137.209 71.3939 137.231 71.0108H138.226C138.204 71.6591 137.979 72.1712 137.552 72.5469C137.125 72.9226 136.561 73.1105 135.861 73.1105ZM139.912 73V66.9219H140.885V68.0823H141.117L140.797 68.8006C140.797 68.1449 140.937 67.6513 141.217 67.3197C141.504 66.9808 141.927 66.8114 142.487 66.8114C143.128 66.8114 143.637 67.014 144.012 67.4192C144.396 67.817 144.587 68.3585 144.587 69.0437V69.4084H143.593V69.1321C143.593 68.6532 143.475 68.2886 143.239 68.0381C143.01 67.7802 142.683 67.6513 142.255 67.6513C141.835 67.6513 141.504 67.7802 141.261 68.0381C141.025 68.2959 140.907 68.6606 140.907 69.1321V73H139.912ZM145.809 73V72.0938H147.964V67.8281H146.086V66.9219H148.959V72.0938H151.003V73H145.809ZM148.351 65.8278C148.108 65.8278 147.917 65.7652 147.777 65.64C147.637 65.5147 147.567 65.3453 147.567 65.1316C147.567 64.9106 147.637 64.7375 147.777 64.6122C147.917 64.4796 148.108 64.4133 148.351 64.4133C148.594 64.4133 148.786 64.4796 148.926 64.6122C149.066 64.7375 149.136 64.9106 149.136 65.1316C149.136 65.3453 149.066 65.5147 148.926 65.64C148.786 65.7652 148.594 65.8278 148.351 65.8278ZM154.723 73.1105C154.222 73.1105 153.821 72.9779 153.519 72.7127C153.217 72.4401 153.066 72.0717 153.066 71.6076L153.265 71.8396H153.066V73H152.071V64.9327H153.066V66.7009L153.044 68.0823H153.265L153.066 68.3143C153.066 67.8576 153.217 67.4929 153.519 67.2203C153.828 66.9477 154.23 66.8114 154.723 66.8114C155.335 66.8114 155.825 67.014 156.193 67.4192C156.562 67.8244 156.746 68.377 156.746 69.0769V70.8561C156.746 71.5486 156.562 72.0975 156.193 72.5027C155.825 72.9079 155.335 73.1105 154.723 73.1105ZM154.392 72.2485C154.812 72.2485 155.143 72.1233 155.386 71.8728C155.63 71.6223 155.751 71.2613 155.751 70.7898V69.1321C155.751 68.6606 155.63 68.2996 155.386 68.0491C155.143 67.7986 154.812 67.6734 154.392 67.6734C153.987 67.6734 153.662 67.8023 153.419 68.0602C153.184 68.318 153.066 68.6753 153.066 69.1321V70.7898C153.066 71.2466 153.184 71.6039 153.419 71.8617C153.662 72.1196 153.987 72.2485 154.392 72.2485ZM160.554 73.1105C160.075 73.1105 159.655 73.0147 159.294 72.8232C158.941 72.6316 158.664 72.3627 158.465 72.0165C158.274 71.6628 158.178 71.2539 158.178 70.7898V69.1321C158.178 68.6606 158.274 68.2517 158.465 67.9054C158.664 67.5592 158.941 67.2903 159.294 67.0987C159.655 66.9072 160.075 66.8114 160.554 66.8114C161.033 66.8114 161.449 66.9072 161.803 67.0987C162.164 67.2903 162.44 67.5592 162.632 67.9054C162.831 68.2517 162.93 68.6606 162.93 69.1321V70.2041H159.151V70.7898C159.151 71.2687 159.272 71.637 159.515 71.8949C159.758 72.1454 160.105 72.2706 160.554 72.2706C160.937 72.2706 161.247 72.2043 161.482 72.0717C161.718 71.9317 161.862 71.7254 161.913 71.4528H162.908C162.842 71.9612 162.591 72.3664 162.156 72.6685C161.729 72.9632 161.195 73.1105 160.554 73.1105ZM161.958 69.541V69.1321C161.958 68.6532 161.836 68.2849 161.593 68.027C161.357 67.7692 161.011 67.6402 160.554 67.6402C160.105 67.6402 159.758 67.7692 159.515 68.027C159.272 68.2849 159.151 68.6532 159.151 69.1321V69.4526H162.035L161.958 69.541ZM170.624 73V64.9327H171.619V66.9219V68.0823H171.829L171.619 68.3143C171.619 67.8355 171.762 67.4671 172.05 67.2092C172.337 66.944 172.735 66.8114 173.243 66.8114C173.855 66.8114 174.341 66.9993 174.702 67.375C175.063 67.7507 175.243 68.2628 175.243 68.9111V73H174.249V69.0216C174.249 68.5869 174.131 68.2517 173.895 68.016C173.667 67.7728 173.354 67.6513 172.956 67.6513C172.543 67.6513 172.215 67.7802 171.972 68.0381C171.736 68.2959 171.619 68.6606 171.619 69.1321V73H170.624ZM179.107 73.0884C178.621 73.0884 178.201 72.9963 177.847 72.8121C177.493 72.6279 177.217 72.3627 177.018 72.0165C176.827 71.6628 176.731 71.2466 176.731 70.7677V69.1542C176.731 68.668 176.827 68.2517 177.018 67.9054C177.217 67.5592 177.493 67.294 177.847 67.1098C178.201 66.9256 178.621 66.8335 179.107 66.8335C179.593 66.8335 180.013 66.9256 180.367 67.1098C180.72 67.294 180.993 67.5592 181.184 67.9054C181.383 68.2517 181.483 68.6643 181.483 69.1432V70.7677C181.483 71.2466 181.383 71.6628 181.184 72.0165C180.993 72.3627 180.72 72.6279 180.367 72.8121C180.013 72.9963 179.593 73.0884 179.107 73.0884ZM179.107 72.2043C179.542 72.2043 179.88 72.0828 180.124 71.8396C180.367 71.5965 180.488 71.2392 180.488 70.7677V69.1542C180.488 68.6827 180.367 68.3254 180.124 68.0823C179.88 67.8391 179.542 67.7176 179.107 67.7176C178.68 67.7176 178.341 67.8391 178.09 68.0823C177.847 68.3254 177.726 68.6827 177.726 69.1542V70.7677C177.726 71.2392 177.847 71.5965 178.09 71.8396C178.341 72.0828 178.68 72.2043 179.107 72.2043ZM183.335 73L182.363 66.9219H183.247L183.855 71.2318C183.877 71.3939 183.899 71.5707 183.921 71.7623C183.95 71.9465 183.972 72.1012 183.987 72.2264C184.002 72.1012 184.024 71.9465 184.053 71.7623C184.09 71.5707 184.12 71.3939 184.142 71.2318L184.816 66.9219H185.766L186.44 71.2318C186.463 71.3939 186.488 71.5707 186.518 71.7623C186.555 71.9465 186.58 72.1012 186.595 72.2264C186.61 72.1012 186.632 71.9465 186.662 71.7623C186.698 71.5707 186.728 71.3939 186.75 71.2318L187.38 66.9219H188.22L187.203 73H186.109L185.457 68.8006C185.427 68.5943 185.394 68.388 185.357 68.1817C185.321 67.9754 185.295 67.8134 185.28 67.6955C185.265 67.8134 185.243 67.9754 185.214 68.1817C185.184 68.388 185.151 68.5943 185.114 68.8006L184.429 73H183.335ZM195.284 73V72.0938H197.439V67.8281H195.56V66.9219H198.433V72.0938H200.478V73H195.284ZM197.826 65.8278C197.582 65.8278 197.391 65.7652 197.251 65.64C197.111 65.5147 197.041 65.3453 197.041 65.1316C197.041 64.9106 197.111 64.7375 197.251 64.6122C197.391 64.4796 197.582 64.4133 197.826 64.4133C198.069 64.4133 198.26 64.4796 198.4 64.6122C198.54 64.7375 198.61 64.9106 198.61 65.1316C198.61 65.3453 198.54 65.5147 198.4 65.64C198.26 65.7652 198.069 65.8278 197.826 65.8278ZM204.507 73C203.984 73 203.575 72.86 203.28 72.5801C202.993 72.3001 202.849 71.9059 202.849 71.3976V67.8281H201.137V66.9219H202.849V65.209H203.844V66.9219H206.275V67.8281H203.844V71.3976C203.844 71.8617 204.065 72.0938 204.507 72.0938H206.165V73H204.507ZM19.1442 88C18.7905 88 18.4811 87.93 18.2159 87.79C17.9506 87.65 17.7444 87.4511 17.597 87.1933C17.4497 86.9354 17.376 86.6333 17.376 86.2871V80.8389H15.3315V79.9327H18.3706V86.2871C18.3706 86.5376 18.4406 86.7365 18.5806 86.8838C18.7205 87.0238 18.9084 87.0938 19.1442 87.0938H21.0781V88H19.1442ZM24.4996 88.0884C24.0134 88.0884 23.5934 87.9963 23.2398 87.8121C22.8862 87.6279 22.6099 87.3627 22.411 87.0165C22.2194 86.6628 22.1236 86.2466 22.1236 85.7677V84.1542C22.1236 83.668 22.2194 83.2517 22.411 82.9054C22.6099 82.5592 22.8862 82.294 23.2398 82.1098C23.5934 81.9256 24.0134 81.8335 24.4996 81.8335C24.9859 81.8335 25.4058 81.9256 25.7594 82.1098C26.1131 82.294 26.3857 82.5592 26.5772 82.9054C26.7761 83.2517 26.8756 83.6643 26.8756 84.1432V85.7677C26.8756 86.2466 26.7761 86.6628 26.5772 87.0165C26.3857 87.3627 26.1131 87.6279 25.7594 87.8121C25.4058 87.9963 24.9859 88.0884 24.4996 88.0884ZM24.4996 87.2043C24.9343 87.2043 25.2732 87.0828 25.5163 86.8396C25.7594 86.5965 25.881 86.2392 25.881 85.7677V84.1542C25.881 83.6827 25.7594 83.3254 25.5163 83.0823C25.2732 82.8391 24.9343 82.7176 24.4996 82.7176C24.0723 82.7176 23.7334 82.8391 23.4829 83.0823C23.2398 83.3254 23.1182 83.6827 23.1182 84.1542V85.7677C23.1182 86.2392 23.2398 86.5965 23.4829 86.8396C23.7334 87.0828 24.0723 87.2043 24.4996 87.2043ZM30.6839 88.0884C30.1977 88.0884 29.7777 87.9963 29.4241 87.8121C29.0704 87.6279 28.7942 87.3627 28.5953 87.0165C28.4037 86.6628 28.3079 86.2466 28.3079 85.7677V84.1542C28.3079 83.668 28.4037 83.2517 28.5953 82.9054C28.7942 82.5592 29.0704 82.294 29.4241 82.1098C29.7777 81.9256 30.1977 81.8335 30.6839 81.8335C31.1702 81.8335 31.5901 81.9256 31.9437 82.1098C32.2974 82.294 32.57 82.5592 32.7615 82.9054C32.9604 83.2517 33.0599 83.6643 33.0599 84.1432V85.7677C33.0599 86.2466 32.9604 86.6628 32.7615 87.0165C32.57 87.3627 32.2974 87.6279 31.9437 87.8121C31.5901 87.9963 31.1702 88.0884 30.6839 88.0884ZM30.6839 87.2043C31.1186 87.2043 31.4575 87.0828 31.7006 86.8396C31.9437 86.5965 32.0653 86.2392 32.0653 85.7677V84.1542C32.0653 83.6827 31.9437 83.3254 31.7006 83.0823C31.4575 82.8391 31.1186 82.7176 30.6839 82.7176C30.2566 82.7176 29.9177 82.8391 29.6672 83.0823C29.4241 83.3254 29.3025 83.6827 29.3025 84.1542V85.7677C29.3025 86.2392 29.4241 86.5965 29.6672 86.8396C29.9177 87.0828 30.2566 87.2043 30.6839 87.2043ZM34.6027 88V79.9327H35.5973V84.4305H36.7687L38.5369 81.9219H39.6752L37.6307 84.8173L39.7083 88H38.548L36.7798 85.2925H35.5973V88H34.6027ZM42.8646 88.0884C42.452 88.0884 42.091 88.0258 41.7816 87.9005C41.4796 87.7679 41.2364 87.5837 41.0522 87.348C40.8754 87.1122 40.7686 86.8323 40.7318 86.5081H41.7264C41.7706 86.7218 41.8884 86.8912 42.08 87.0165C42.2789 87.1417 42.5405 87.2043 42.8646 87.2043H43.3288C43.7192 87.2043 44.0103 87.127 44.2018 86.9722C44.3934 86.8102 44.4891 86.5965 44.4891 86.3313C44.4891 86.0734 44.4007 85.8708 44.2239 85.7235C44.0545 85.5688 43.8003 85.4656 43.4614 85.414L42.6436 85.2814C42.0468 85.1783 41.6011 84.9941 41.3064 84.7289C41.0191 84.4563 40.8754 84.0621 40.8754 83.5464C40.8754 83.0012 41.0486 82.5813 41.3948 82.2866C41.7411 81.9845 42.2605 81.8335 42.953 81.8335H43.373C43.955 81.8335 44.4228 81.9698 44.7765 82.2424C45.1301 82.515 45.3437 82.8833 45.4174 83.3475H44.4228C44.3786 83.1559 44.2681 83.0049 44.0913 82.8944C43.9145 82.7765 43.675 82.7176 43.373 82.7176H42.953C42.5773 82.7176 42.301 82.7876 42.1242 82.9276C41.9547 83.0675 41.87 83.2775 41.87 83.5575C41.87 83.808 41.9437 83.9921 42.091 84.11C42.2384 84.2279 42.4705 84.3126 42.7873 84.3642L43.605 84.4968C44.2607 84.5999 44.7359 84.7915 45.0306 85.0715C45.3327 85.3514 45.4837 85.7566 45.4837 86.2871C45.4837 86.847 45.3032 87.289 44.9422 87.6132C44.5886 87.93 44.0508 88.0884 43.3288 88.0884H42.8646ZM47.7449 89.7682L48.629 86.3313H50.0656L48.629 89.7682H47.7449ZM61.0749 88.1105C60.4339 88.1105 59.9293 87.9484 59.5609 87.6243C59.1925 87.2927 59.0084 86.847 59.0084 86.2871C59.0084 85.7198 59.1925 85.2741 59.5609 84.9499C59.9293 84.6257 60.4266 84.4637 61.0528 84.4637H62.9315V83.8558C62.9315 83.4801 62.8173 83.1928 62.5889 82.9939C62.3679 82.7876 62.0511 82.6844 61.6385 82.6844C61.2775 82.6844 60.9755 82.7618 60.7323 82.9165C60.4892 83.0638 60.3492 83.2665 60.3124 83.5243H59.3178C59.3841 83.0012 59.6309 82.585 60.0582 82.2755C60.4855 81.9661 61.0197 81.8114 61.6606 81.8114C62.3605 81.8114 62.9131 81.9919 63.3183 82.3529C63.7235 82.7139 63.9261 83.2038 63.9261 83.8227V88H62.9536V86.8396H62.7878L62.9536 86.6739C62.9536 87.1159 62.7805 87.4659 62.4342 87.7237C62.0953 87.9816 61.6422 88.1105 61.0749 88.1105ZM61.318 87.3259C61.7895 87.3259 62.1763 87.208 62.4784 86.9722C62.7805 86.7365 62.9315 86.4344 62.9315 86.0661V85.2041H61.0749C60.7434 85.2041 60.4818 85.2962 60.2903 85.4804C60.0987 85.6645 60.003 85.915 60.003 86.2318C60.003 86.5707 60.1172 86.8396 60.3455 87.0386C60.5813 87.2301 60.9055 87.3259 61.318 87.3259ZM65.491 88V81.9219H66.4856V83.0823H66.6956L66.4856 83.3143C66.4856 82.8355 66.6293 82.4671 66.9166 82.2092C67.2039 81.944 67.6018 81.8114 68.1101 81.8114C68.7216 81.8114 69.2079 81.9993 69.5689 82.375C69.9299 82.7507 70.1104 83.2628 70.1104 83.9111V88H69.1158V84.0216C69.1158 83.5869 68.9979 83.2554 68.7622 83.027C68.5338 82.7913 68.2206 82.6734 67.8228 82.6734C67.4102 82.6734 67.0824 82.7986 66.8393 83.0491C66.6035 83.2996 66.4856 83.6606 66.4856 84.1321V88H65.491ZM73.6203 88.1105C73.0162 88.1105 72.5263 87.9079 72.1505 87.5027C71.7821 87.0975 71.598 86.5486 71.598 85.8561V84.0769C71.598 83.377 71.7821 82.8244 72.1505 82.4192C72.5189 82.014 73.0088 81.8114 73.6203 81.8114C74.1213 81.8114 74.5228 81.9477 74.8249 82.2203C75.1269 82.4929 75.278 82.8576 75.278 83.3143L75.0791 83.0823H75.3001L75.278 81.7009V79.9327H76.2726V88H75.278V86.8396H75.0791L75.278 86.6076C75.278 87.0717 75.1269 87.4401 74.8249 87.7127C74.5228 87.9779 74.1213 88.1105 73.6203 88.1105ZM73.9518 87.2485C74.3644 87.2485 74.6886 87.1196 74.9243 86.8617C75.1601 86.6039 75.278 86.2466 75.278 85.7898V84.1321C75.278 83.6753 75.1601 83.318 74.9243 83.0602C74.6886 82.8023 74.3644 82.6734 73.9518 82.6734C73.5319 82.6734 73.2004 82.7986 72.9572 83.0491C72.7141 83.2996 72.5926 83.6606 72.5926 84.1321V85.7898C72.5926 86.2613 72.7141 86.6223 72.9572 86.8728C73.2004 87.1233 73.5319 87.2485 73.9518 87.2485ZM86.3867 88.1105C85.9005 88.1105 85.4732 88.0184 85.1048 87.8342C84.7438 87.65 84.4638 87.3848 84.2649 87.0386C84.066 86.6849 83.9665 86.2687 83.9665 85.7898V84.1321C83.9665 83.6459 84.066 83.2296 84.2649 82.8833C84.4638 82.5371 84.7438 82.2719 85.1048 82.0877C85.4732 81.9035 85.9005 81.8114 86.3867 81.8114C87.0866 81.8114 87.6502 81.9993 88.0776 82.375C88.5049 82.7507 88.7296 83.2628 88.7517 83.9111H87.7571C87.735 83.5206 87.6024 83.2222 87.3592 83.016C87.1235 82.8023 86.7993 82.6955 86.3867 82.6955C85.9521 82.6955 85.6058 82.8207 85.3479 83.0712C85.0901 83.3143 84.9611 83.6643 84.9611 84.1211V85.7898C84.9611 86.2466 85.0901 86.6002 85.3479 86.8507C85.6058 87.1012 85.9521 87.2264 86.3867 87.2264C86.7993 87.2264 87.1235 87.1196 87.3592 86.9059C87.6024 86.6923 87.735 86.3939 87.7571 86.0108H88.7517C88.7296 86.6591 88.5049 87.1712 88.0776 87.5469C87.6502 87.9226 87.0866 88.1105 86.3867 88.1105ZM90.4382 88V81.9219H91.4107V83.0823H91.6427L91.3223 83.8006C91.3223 83.1449 91.4622 82.6513 91.7422 82.3197C92.0295 81.9808 92.4531 81.8114 93.0131 81.8114C93.654 81.8114 94.1624 82.014 94.5381 82.4192C94.9212 82.817 95.1128 83.3585 95.1128 84.0437V84.4084H94.1182V84.1321C94.1182 83.6532 94.0003 83.2886 93.7645 83.0381C93.5362 82.7802 93.2083 82.6513 92.781 82.6513C92.3611 82.6513 92.0295 82.7802 91.7864 83.0381C91.5506 83.2959 91.4328 83.6606 91.4328 84.1321V88H90.4382ZM98.7111 88.1105C98.2322 88.1105 97.8123 88.0147 97.4513 87.8232C97.0976 87.6316 96.8214 87.3627 96.6225 87.0165C96.4309 86.6628 96.3351 86.2539 96.3351 85.7898V84.1321C96.3351 83.6606 96.4309 83.2517 96.6225 82.9054C96.8214 82.5592 97.0976 82.2903 97.4513 82.0987C97.8123 81.9072 98.2322 81.8114 98.7111 81.8114C99.19 81.8114 99.6062 81.9072 99.9599 82.0987C100.321 82.2903 100.597 82.5592 100.789 82.9054C100.988 83.2517 101.087 83.6606 101.087 84.1321V85.2041H97.3076V85.7898C97.3076 86.2687 97.4292 86.637 97.6723 86.8949C97.9154 87.1454 98.2617 87.2706 98.7111 87.2706C99.0942 87.2706 99.4036 87.2043 99.6394 87.0717C99.8752 86.9317 100.019 86.7254 100.07 86.4528H101.065C100.999 86.9612 100.748 87.3664 100.314 87.6685C99.8862 87.9632 99.3521 88.1105 98.7111 88.1105ZM100.115 84.541V84.1321C100.115 83.6532 99.993 83.2849 99.7499 83.027C99.5142 82.7692 99.1679 82.6402 98.7111 82.6402C98.2617 82.6402 97.9154 82.7692 97.6723 83.027C97.4292 83.2849 97.3076 83.6532 97.3076 84.1321V84.4526H100.192L100.115 84.541ZM104.365 88.1105C103.724 88.1105 103.219 87.9484 102.851 87.6243C102.483 87.2927 102.298 86.847 102.298 86.2871C102.298 85.7198 102.483 85.2741 102.851 84.9499C103.219 84.6257 103.717 84.4637 104.343 84.4637H106.222V83.8558C106.222 83.4801 106.107 83.1928 105.879 82.9939C105.658 82.7876 105.341 82.6844 104.929 82.6844C104.568 82.6844 104.265 82.7618 104.022 82.9165C103.779 83.0638 103.639 83.2665 103.602 83.5243H102.608C102.674 83.0012 102.921 82.585 103.348 82.2755C103.776 81.9661 104.31 81.8114 104.951 81.8114C105.651 81.8114 106.203 81.9919 106.608 82.3529C107.014 82.7139 107.216 83.2038 107.216 83.8227V88H106.244V86.8396H106.078L106.244 86.6739C106.244 87.1159 106.071 87.4659 105.724 87.7237C105.385 87.9816 104.932 88.1105 104.365 88.1105ZM104.608 87.3259C105.08 87.3259 105.466 87.208 105.768 86.9722C106.071 86.7365 106.222 86.4344 106.222 86.0661V85.2041H104.365C104.033 85.2041 103.772 85.2962 103.58 85.4804C103.389 85.6645 103.293 85.915 103.293 86.2318C103.293 86.5707 103.407 86.8396 103.636 87.0386C103.871 87.2301 104.196 87.3259 104.608 87.3259ZM111.743 88C111.22 88 110.811 87.86 110.516 87.5801C110.229 87.3001 110.085 86.9059 110.085 86.3976V82.8281H108.372V81.9219H110.085V80.209H111.08V81.9219H113.511V82.8281H111.08V86.3976C111.08 86.8617 111.301 87.0938 111.743 87.0938H113.4V88H111.743ZM117.264 88.1105C116.785 88.1105 116.365 88.0147 116.004 87.8232C115.651 87.6316 115.374 87.3627 115.175 87.0165C114.984 86.6628 114.888 86.2539 114.888 85.7898V84.1321C114.888 83.6606 114.984 83.2517 115.175 82.9054C115.374 82.5592 115.651 82.2903 116.004 82.0987C116.365 81.9072 116.785 81.8114 117.264 81.8114C117.743 81.8114 118.159 81.9072 118.513 82.0987C118.874 82.2903 119.15 82.5592 119.342 82.9054C119.541 83.2517 119.64 83.6606 119.64 84.1321V85.2041H115.86V85.7898C115.86 86.2687 115.982 86.637 116.225 86.8949C116.468 87.1454 116.815 87.2706 117.264 87.2706C117.647 87.2706 117.957 87.2043 118.192 87.0717C118.428 86.9317 118.572 86.7254 118.623 86.4528H119.618C119.552 86.9612 119.301 87.3664 118.866 87.6685C118.439 87.9632 117.905 88.1105 117.264 88.1105ZM118.667 84.541V84.1321C118.667 83.6532 118.546 83.2849 118.303 83.027C118.067 82.7692 117.721 82.6402 117.264 82.6402C116.815 82.6402 116.468 82.7692 116.225 83.027C115.982 83.2849 115.86 83.6532 115.86 84.1321V84.4526H118.745L118.667 84.541ZM129.102 88.1105C128.461 88.1105 127.956 87.9484 127.588 87.6243C127.22 87.2927 127.036 86.847 127.036 86.2871C127.036 85.7198 127.22 85.2741 127.588 84.9499C127.956 84.6257 128.454 84.4637 129.08 84.4637H130.959V83.8558C130.959 83.4801 130.845 83.1928 130.616 82.9939C130.395 82.7876 130.078 82.6844 129.666 82.6844C129.305 82.6844 129.003 82.7618 128.76 82.9165C128.516 83.0638 128.376 83.2665 128.34 83.5243H127.345C127.411 83.0012 127.658 82.585 128.085 82.2755C128.513 81.9661 129.047 81.8114 129.688 81.8114C130.388 81.8114 130.94 81.9919 131.345 82.3529C131.751 82.7139 131.953 83.2038 131.953 83.8227V88H130.981V86.8396H130.815L130.981 86.6739C130.981 87.1159 130.808 87.4659 130.461 87.7237C130.123 87.9816 129.669 88.1105 129.102 88.1105ZM129.345 87.3259C129.817 87.3259 130.204 87.208 130.506 86.9722C130.808 86.7365 130.959 86.4344 130.959 86.0661V85.2041H129.102C128.771 85.2041 128.509 85.2962 128.317 85.4804C128.126 85.6645 128.03 85.915 128.03 86.2318C128.03 86.5707 128.144 86.8396 128.373 87.0386C128.609 87.2301 128.933 87.3259 129.345 87.3259ZM139.703 89.9892V81.9219H140.697V83.0823H140.896L140.697 83.3143C140.697 82.8502 140.848 82.4855 141.15 82.2203C141.46 81.9477 141.865 81.8114 142.366 81.8114C142.977 81.8114 143.464 82.014 143.825 82.4192C144.193 82.817 144.377 83.3659 144.377 84.0658V85.845C144.377 86.3092 144.292 86.7107 144.123 87.0496C143.961 87.3885 143.729 87.65 143.427 87.8342C143.132 88.0184 142.778 88.1105 142.366 88.1105C141.872 88.1105 141.471 87.9742 141.161 87.7016C140.852 87.429 140.697 87.0643 140.697 86.6076L140.896 86.8396H140.675L140.697 88.221V89.9892H139.703ZM142.034 87.2485C142.454 87.2485 142.782 87.1233 143.018 86.8728C143.261 86.6223 143.383 86.2613 143.383 85.7898V84.1321C143.383 83.6606 143.261 83.2996 143.018 83.0491C142.782 82.7986 142.454 82.6734 142.034 82.6734C141.629 82.6734 141.305 82.8023 141.062 83.0602C140.819 83.318 140.697 83.6753 140.697 84.1321V85.7898C140.697 86.2466 140.819 86.6039 141.062 86.8617C141.305 87.1196 141.629 87.2485 142.034 87.2485ZM145.809 88V87.0938H147.964V82.8281H146.086V81.9219H148.959V87.0938H151.003V88H145.809ZM148.351 80.8278C148.108 80.8278 147.917 80.7652 147.777 80.64C147.637 80.5147 147.567 80.3453 147.567 80.1316C147.567 79.9106 147.637 79.7375 147.777 79.6122C147.917 79.4796 148.108 79.4133 148.351 79.4133C148.594 79.4133 148.786 79.4796 148.926 79.6122C149.066 79.7375 149.136 79.9106 149.136 80.1316C149.136 80.3453 149.066 80.5147 148.926 80.64C148.786 80.7652 148.594 80.8278 148.351 80.8278ZM154.414 88.1105C153.928 88.1105 153.5 88.0184 153.132 87.8342C152.771 87.65 152.491 87.3848 152.292 87.0386C152.093 86.6849 151.994 86.2687 151.994 85.7898V84.1321C151.994 83.6459 152.093 83.2296 152.292 82.8833C152.491 82.5371 152.771 82.2719 153.132 82.0877C153.5 81.9035 153.928 81.8114 154.414 81.8114C155.114 81.8114 155.677 81.9993 156.105 82.375C156.532 82.7507 156.757 83.2628 156.779 83.9111H155.784C155.762 83.5206 155.63 83.2222 155.386 83.016C155.151 82.8023 154.827 82.6955 154.414 82.6955C153.979 82.6955 153.633 82.8207 153.375 83.0712C153.117 83.3143 152.988 83.6643 152.988 84.1211V85.7898C152.988 86.2466 153.117 86.6002 153.375 86.8507C153.633 87.1012 153.979 87.2264 154.414 87.2264C154.827 87.2264 155.151 87.1196 155.386 86.9059C155.63 86.6923 155.762 86.3939 155.784 86.0108H156.779C156.757 86.6591 156.532 87.1712 156.105 87.5469C155.677 87.9226 155.114 88.1105 154.414 88.1105ZM161.217 88C160.694 88 160.285 87.86 159.99 87.5801C159.703 87.3001 159.559 86.9059 159.559 86.3976V82.8281H157.847V81.9219H159.559V80.209H160.554V81.9219H162.985V82.8281H160.554V86.3976C160.554 86.8617 160.775 87.0938 161.217 87.0938H162.875V88H161.217ZM166.727 88.1105C166.027 88.1105 165.467 87.9042 165.047 87.4917C164.628 87.0717 164.418 86.5044 164.418 85.7898V81.9219H165.412V85.7898C165.412 86.2466 165.53 86.6039 165.766 86.8617C166.002 87.1122 166.322 87.2375 166.727 87.2375C167.14 87.2375 167.464 87.1122 167.7 86.8617C167.943 86.6039 168.064 86.2466 168.064 85.7898V81.9219H169.059V85.7898C169.059 86.5044 168.845 87.0717 168.418 87.4917C167.991 87.9042 167.427 88.1105 166.727 88.1105ZM170.834 88V81.9219H171.806V83.0823H172.039L171.718 83.8006C171.718 83.1449 171.858 82.6513 172.138 82.3197C172.425 81.9808 172.849 81.8114 173.409 81.8114C174.05 81.8114 174.558 82.014 174.934 82.4192C175.317 82.817 175.509 83.3585 175.509 84.0437V84.4084H174.514V84.1321C174.514 83.6532 174.396 83.2886 174.16 83.0381C173.932 82.7802 173.604 82.6513 173.177 82.6513C172.757 82.6513 172.425 82.7802 172.182 83.0381C171.946 83.2959 171.829 83.6606 171.829 84.1321V88H170.834ZM179.107 88.1105C178.628 88.1105 178.208 88.0147 177.847 87.8232C177.493 87.6316 177.217 87.3627 177.018 87.0165C176.827 86.6628 176.731 86.2539 176.731 85.7898V84.1321C176.731 83.6606 176.827 83.2517 177.018 82.9054C177.217 82.5592 177.493 82.2903 177.847 82.0987C178.208 81.9072 178.628 81.8114 179.107 81.8114C179.586 81.8114 180.002 81.9072 180.356 82.0987C180.717 82.2903 180.993 82.5592 181.184 82.9054C181.383 83.2517 181.483 83.6606 181.483 84.1321V85.2041H177.703V85.7898C177.703 86.2687 177.825 86.637 178.068 86.8949C178.311 87.1454 178.657 87.2706 179.107 87.2706C179.49 87.2706 179.799 87.2043 180.035 87.0717C180.271 86.9317 180.415 86.7254 180.466 86.4528H181.461C181.394 86.9612 181.144 87.3664 180.709 87.6685C180.282 87.9632 179.748 88.1105 179.107 88.1105ZM180.51 84.541V84.1321C180.51 83.6532 180.389 83.2849 180.146 83.027C179.91 82.7692 179.564 82.6402 179.107 82.6402C178.657 82.6402 178.311 82.7692 178.068 83.027C177.825 83.2849 177.703 83.6532 177.703 84.1321V84.4526H180.588L180.51 84.541ZM191.475 88.0884C190.989 88.0884 190.569 87.9963 190.216 87.8121C189.862 87.6279 189.586 87.3627 189.387 87.0165C189.195 86.6628 189.099 86.2466 189.099 85.7677V84.1542C189.099 83.668 189.195 83.2517 189.387 82.9054C189.586 82.5592 189.862 82.294 190.216 82.1098C190.569 81.9256 190.989 81.8335 191.475 81.8335C191.962 81.8335 192.382 81.9256 192.735 82.1098C193.089 82.294 193.362 82.5592 193.553 82.9054C193.752 83.2517 193.851 83.6643 193.851 84.1432V85.7677C193.851 86.2466 193.752 86.6628 193.553 87.0165C193.362 87.3627 193.089 87.6279 192.735 87.8121C192.382 87.9963 191.962 88.0884 191.475 88.0884ZM191.475 87.2043C191.91 87.2043 192.249 87.0828 192.492 86.8396C192.735 86.5965 192.857 86.2392 192.857 85.7677V84.1542C192.857 83.6827 192.735 83.3254 192.492 83.0823C192.249 82.8391 191.91 82.7176 191.475 82.7176C191.048 82.7176 190.709 82.8391 190.459 83.0823C190.216 83.3254 190.094 83.6827 190.094 84.1542V85.7677C190.094 86.2392 190.216 86.5965 190.459 86.8396C190.709 87.0828 191.048 87.2043 191.475 87.2043ZM196.776 88V83.4359H195.008V82.5297H196.776V81.4799C196.776 81.001 196.927 80.6252 197.229 80.3526C197.531 80.0727 197.947 79.9327 198.478 79.9327H200.257V80.8389H198.478C198.249 80.8389 198.072 80.8942 197.947 81.0047C197.829 81.1078 197.77 81.2662 197.77 81.4799V82.5297H200.257V83.4359H197.77V88H196.776ZM207.652 88V87.0938H209.807V82.8281H207.929V81.9219H210.802V87.0938H212.846V88H207.652ZM210.194 80.8278C209.951 80.8278 209.759 80.7652 209.619 80.64C209.479 80.5147 209.409 80.3453 209.409 80.1316C209.409 79.9106 209.479 79.7375 209.619 79.6122C209.759 79.4796 209.951 79.4133 210.194 79.4133C210.437 79.4133 210.629 79.4796 210.769 79.6122C210.909 79.7375 210.979 79.9106 210.979 80.1316C210.979 80.3453 210.909 80.5147 210.769 80.64C210.629 80.7652 210.437 80.8278 210.194 80.8278ZM216.876 88C216.353 88 215.944 87.86 215.649 87.5801C215.362 87.3001 215.218 86.9059 215.218 86.3976V82.8281H213.505V81.9219H215.218V80.209H216.213V81.9219H218.644V82.8281H216.213V86.3976C216.213 86.8617 216.434 87.0938 216.876 87.0938H218.533V88H216.876ZM222.397 88.1105C222.117 88.1105 221.892 88.0295 221.723 87.8674C221.561 87.7053 221.48 87.488 221.48 87.2154C221.48 86.928 221.561 86.6997 221.723 86.5302C221.892 86.3608 222.117 86.276 222.397 86.276C222.677 86.276 222.898 86.3608 223.06 86.5302C223.229 86.6997 223.314 86.928 223.314 87.2154C223.314 87.488 223.229 87.7053 223.06 87.8674C222.898 88.0295 222.677 88.1105 222.397 88.1105Z" fill="white"></path><path d="M232.094 19.3197C231.243 19.7507 230.436 20.4138 229.663 21.32L229.022 21.32C229.387 20.5354 229.74 19.9386 230.083 19.5518L227.442 19.5518L227.442 23.7291L226.657 23.7291L226.657 18.7672L230.083 18.7672C229.74 18.3804 229.387 17.7836 229.022 17.0101L229.663 17.0101C230.436 17.9163 231.243 18.5793 232.094 18.9993L232.094 19.3197Z" fill="white"></path><path d="M31.0167 25V16.9327H33.6137C34.1147 16.9327 34.5494 17.0322 34.9177 17.2311C35.2861 17.4226 35.5697 17.6952 35.7687 18.0489C35.975 18.4025 36.0781 18.8224 36.0781 19.3087C36.0781 19.7876 35.975 20.2075 35.7687 20.5685C35.5697 20.9221 35.2861 21.1984 34.9177 21.3973C34.5494 21.5889 34.1147 21.6847 33.6137 21.6847H32.0113V25H31.0167ZM32.0113 20.7895H33.6137C34.0484 20.7895 34.3946 20.6569 34.6525 20.3917C34.9177 20.1191 35.0503 19.7581 35.0503 19.3087C35.0503 18.8519 34.9177 18.4909 34.6525 18.2257C34.3946 17.9605 34.0484 17.8278 33.6137 17.8278H32.0113V20.7895ZM37.201 25V16.9327H39.6985C40.1774 16.9327 40.5974 17.0322 40.9584 17.2311C41.3194 17.4226 41.5993 17.6915 41.7982 18.0378C41.9972 18.3841 42.0966 18.7893 42.0966 19.2534C42.0966 19.7986 41.953 20.2665 41.6656 20.6569C41.3857 21.0474 41.0026 21.3163 40.5163 21.4637L42.2071 25H41.0357L39.4886 21.5742H38.1956V25H37.201ZM38.1956 20.679H39.6985C40.1111 20.679 40.4426 20.5501 40.6931 20.2922C40.9436 20.027 41.0689 19.6807 41.0689 19.2534C41.0689 18.8188 40.9436 18.4725 40.6931 18.2146C40.4426 17.9568 40.1111 17.8278 39.6985 17.8278H38.1956V20.679ZM45.6839 25.1105C45.1977 25.1105 44.7777 25.0184 44.4241 24.8342C44.0778 24.65 43.8089 24.3848 43.6174 24.0386C43.4332 23.6849 43.3411 23.2687 43.3411 22.7898V19.1429C43.3411 18.6567 43.4332 18.2404 43.6174 17.8942C43.8089 17.5479 44.0778 17.2827 44.4241 17.0985C44.7777 16.9143 45.1977 16.8222 45.6839 16.8222C46.1702 16.8222 46.5864 16.9143 46.9327 17.0985C47.2863 17.2827 47.5552 17.5479 47.7394 17.8942C47.931 18.2404 48.0267 18.653 48.0267 19.1319V22.7898C48.0267 23.2687 47.931 23.6849 47.7394 24.0386C47.5552 24.3848 47.2863 24.65 46.9327 24.8342C46.5864 25.0184 46.1702 25.1105 45.6839 25.1105ZM45.6839 24.2154C46.1186 24.2154 46.4501 24.0938 46.6785 23.8507C46.9143 23.6002 47.0321 23.2466 47.0321 22.7898V19.1429C47.0321 18.6861 46.9143 18.3362 46.6785 18.0931C46.4501 17.8426 46.1186 17.7173 45.6839 17.7173C45.2566 17.7173 44.9251 17.8426 44.6893 18.0931C44.4536 18.3362 44.3357 18.6861 44.3357 19.1429V22.7898C44.3357 23.2466 44.4536 23.6002 44.6893 23.8507C44.9251 24.0938 45.2566 24.2154 45.6839 24.2154ZM49.3928 25V16.9327H50.6968L51.5367 19.5408C51.6177 19.7765 51.6914 20.0123 51.7577 20.248C51.824 20.4764 51.8719 20.6532 51.9014 20.7785C51.9382 20.6532 51.9861 20.4764 52.045 20.248C52.104 20.0123 52.1703 19.7728 52.2439 19.5297L53.0396 16.9327H54.3436V25H53.3711V22.0715C53.3711 21.7473 53.3822 21.3789 53.4043 20.9664C53.4264 20.5538 53.4559 20.1338 53.4927 19.7065C53.5295 19.2719 53.5664 18.8593 53.6032 18.4688C53.6474 18.071 53.6843 17.7247 53.7137 17.43L52.4097 21.4637H51.3598L50.0448 17.43C50.0816 17.7173 50.1184 18.0526 50.1553 18.4357C50.1921 18.8114 50.2253 19.2129 50.2547 19.6402C50.2842 20.0602 50.31 20.4801 50.3321 20.9C50.3542 21.32 50.3653 21.7105 50.3653 22.0715V25H49.3928ZM55.7539 25V16.9327H58.3509C58.8519 16.9327 59.2865 17.0322 59.6549 17.2311C60.0233 17.4226 60.3069 17.6952 60.5058 18.0489C60.7121 18.4025 60.8153 18.8224 60.8153 19.3087C60.8153 19.7876 60.7121 20.2075 60.5058 20.5685C60.3069 20.9221 60.0233 21.1984 59.6549 21.3973C59.2865 21.5889 58.8519 21.6847 58.3509 21.6847H56.7485V25H55.7539ZM56.7485 20.7895H58.3509C58.7855 20.7895 59.1318 20.6569 59.3897 20.3917C59.6549 20.1191 59.7875 19.7581 59.7875 19.3087C59.7875 18.8519 59.6549 18.4909 59.3897 18.2257C59.1318 17.9605 58.7855 17.8278 58.3509 17.8278H56.7485V20.7895ZM63.7395 25V17.8278H61.5293V16.9217H66.9443V17.8278H64.7341V25H63.7395ZM76.6496 25.1105C76.1633 25.1105 75.7397 25.0184 75.3787 24.8342C75.0251 24.65 74.7488 24.3848 74.5499 24.0386C74.3583 23.6849 74.2625 23.2687 74.2625 22.7898V19.1429C74.2625 18.6567 74.3583 18.2404 74.5499 17.8942C74.7488 17.5479 75.0251 17.2827 75.3787 17.0985C75.7397 16.9143 76.1633 16.8222 76.6496 16.8222C77.1358 16.8222 77.5558 16.918 77.9094 17.1095C78.263 17.2937 78.5356 17.5589 78.7272 17.9052C78.9187 18.2515 79.0145 18.664 79.0145 19.1429H78.0199C78.0199 18.6861 77.8983 18.3362 77.6552 18.0931C77.4195 17.8426 77.0842 17.7173 76.6496 17.7173C76.2149 17.7173 75.8723 17.8389 75.6218 18.082C75.3787 18.3251 75.2571 18.6751 75.2571 19.1319V22.7898C75.2571 23.2466 75.3787 23.6002 75.6218 23.8507C75.8723 24.0938 76.2149 24.2154 76.6496 24.2154C77.0842 24.2154 77.4195 24.0938 77.6552 23.8507C77.8983 23.6002 78.0199 23.2466 78.0199 22.7898H79.0145C79.0145 23.2613 78.9187 23.6739 78.7272 24.0275C78.5356 24.3738 78.263 24.6427 77.9094 24.8342C77.5558 25.0184 77.1358 25.1105 76.6496 25.1105ZM80.5021 25V16.9327H81.4967V20.3806H84.0826V16.9327H85.0772V25H84.0826V21.2868H81.4967V25H80.5021ZM86.2112 25L88.3109 16.9327H89.6481L91.7367 25H90.7311L90.2006 22.8561H87.7583L87.2279 25H86.2112ZM87.9572 22.0162H89.9906L89.3718 19.5297C89.2539 19.0582 89.1618 18.664 89.0955 18.3472C89.0292 18.0304 88.9887 17.8242 88.9739 17.7284C88.9592 17.8242 88.9187 18.0304 88.8524 18.3472C88.7861 18.664 88.694 19.0545 88.5761 19.5187L87.9572 22.0162ZM94.6609 25V17.8278H92.4507V16.9217H97.8658V17.8278H95.6555V25H94.6609ZM101.387 25.1105C100.9 25.1105 100.477 25.0184 100.116 24.8342C99.7622 24.65 99.4859 24.3848 99.287 24.0386C99.0955 23.6849 98.9997 23.2687 98.9997 22.7898V19.1429C98.9997 18.6567 99.0955 18.2404 99.287 17.8942C99.4859 17.5479 99.7622 17.2827 100.116 17.0985C100.477 16.9143 100.9 16.8222 101.387 16.8222C101.873 16.8222 102.293 16.918 102.647 17.1095C103 17.2937 103.273 17.5589 103.464 17.9052C103.656 18.2515 103.752 18.664 103.752 19.1429H102.757C102.757 18.6861 102.636 18.3362 102.392 18.0931C102.157 17.8426 101.821 17.7173 101.387 17.7173C100.952 17.7173 100.609 17.8389 100.359 18.082C100.116 18.3251 99.9943 18.6751 99.9943 19.1319V22.7898C99.9943 23.2466 100.116 23.6002 100.359 23.8507C100.609 24.1012 100.952 24.2264 101.387 24.2264C101.821 24.2264 102.157 24.1012 102.392 23.8507C102.636 23.6002 102.757 23.2466 102.757 22.7898V21.7952H101.122V20.889H103.752V22.7898C103.752 23.2613 103.656 23.6739 103.464 24.0275C103.273 24.3738 103 24.6427 102.647 24.8342C102.293 25.0184 101.873 25.1105 101.387 25.1105ZM105.228 25V16.9327H107.825C108.326 16.9327 108.761 17.0322 109.129 17.2311C109.498 17.4226 109.781 17.6952 109.98 18.0489C110.186 18.4025 110.29 18.8224 110.29 19.3087C110.29 19.7876 110.186 20.2075 109.98 20.5685C109.781 20.9221 109.498 21.1984 109.129 21.3973C108.761 21.5889 108.326 21.6847 107.825 21.6847H106.223V25H105.228ZM106.223 20.7895H107.825C108.26 20.7895 108.606 20.6569 108.864 20.3917C109.129 20.1191 109.262 19.7581 109.262 19.3087C109.262 18.8519 109.129 18.4909 108.864 18.2257C108.606 17.9605 108.26 17.8278 107.825 17.8278H106.223V20.7895ZM113.214 25V17.8278H111.004V16.9217H116.419V17.8278H114.208V25H113.214ZM119.895 20.4691C119.623 20.4691 119.402 20.3954 119.232 20.248C119.063 20.0933 118.978 19.8907 118.978 19.6402C118.978 19.3897 119.063 19.1908 119.232 19.0435C119.402 18.8887 119.623 18.8114 119.895 18.8114C120.175 18.8114 120.396 18.8887 120.558 19.0435C120.728 19.1908 120.813 19.3897 120.813 19.6402C120.813 19.8907 120.728 20.0933 120.558 20.248C120.396 20.3954 120.175 20.4691 119.895 20.4691ZM119.895 25.1105C119.623 25.1105 119.402 25.0368 119.232 24.8895C119.063 24.7348 118.978 24.5322 118.978 24.2817C118.978 24.0312 119.063 23.8323 119.232 23.6849C119.402 23.5302 119.623 23.4528 119.895 23.4528C120.175 23.4528 120.396 23.5302 120.558 23.6849C120.728 23.8323 120.813 24.0312 120.813 24.2817C120.813 24.5322 120.728 24.7348 120.558 24.8895C120.396 25.0368 120.175 25.1105 119.895 25.1105Z" fill="white"></path><g clip-path="url(#clip0_47_569)"><path d="M25.2113 19.5022C25.3346 19.1319 25.3774 18.7395 25.3368 18.3513C25.2962 17.9631 25.1731 17.5881 24.9758 17.2513C24.3756 16.2063 23.1691 15.6687 21.9907 15.9217C21.7316 15.6298 21.4132 15.3965 21.0567 15.2376C20.7002 15.0787 20.3139 14.9977 19.9236 15.0001C18.7191 14.9973 17.6504 15.7728 17.2798 16.9189C16.8973 16.9972 16.5359 17.1563 16.2199 17.3856C15.9039 17.6148 15.6404 17.9089 15.4472 18.2482C14.8426 19.2905 14.9804 20.6043 15.7882 21.4981C15.6649 21.8684 15.6221 22.2608 15.6627 22.649C15.7033 23.0372 15.8264 23.4122 16.0237 23.749C16.6239 24.794 17.8305 25.3317 19.0089 25.0787C19.2679 25.3706 19.5863 25.6038 19.9428 25.7627C20.2993 25.9216 20.6856 26.0025 21.0759 25.9999C22.2811 26.003 23.3502 25.2268 23.7208 24.0797C24.1033 24.0014 24.4647 23.8423 24.7807 23.613C25.0967 23.3838 25.3602 23.0897 25.5534 22.7504C26.1574 21.7081 26.0192 20.3953 25.2117 19.5016L25.2113 19.5022ZM21.0766 25.2812C20.5943 25.2819 20.1272 25.113 19.7569 24.804C19.7789 24.7924 19.8006 24.7801 19.8219 24.7672L22.0123 23.5022C22.0673 23.471 22.113 23.4256 22.1447 23.3708C22.1763 23.316 22.1928 23.2537 22.1924 23.1904V20.1024L23.1182 20.637C23.1281 20.6418 23.1347 20.6514 23.1361 20.6624V23.2196C23.1347 24.3568 22.2138 25.2787 21.0766 25.2812ZM16.6476 23.3895C16.406 22.9722 16.319 22.4832 16.4018 22.0082C16.418 22.0179 16.4465 22.0354 16.4668 22.0471L18.6572 23.3121C18.7118 23.344 18.7739 23.3608 18.8372 23.3608C18.9004 23.3608 18.9625 23.344 19.0171 23.3121L21.6912 21.7679V22.837C21.6915 22.8425 21.6904 22.8479 21.6882 22.8529C21.6859 22.8578 21.6825 22.8622 21.6782 22.8656L19.464 24.144C18.4778 24.7119 17.2183 24.3743 16.648 23.3894L16.6476 23.3895ZM16.0712 18.6081C16.3117 18.1904 16.6914 17.8704 17.144 17.7044C17.144 17.7233 17.143 17.7566 17.143 17.78V20.3104C17.1427 20.3736 17.1591 20.4358 17.1907 20.4905C17.2223 20.5452 17.2679 20.5906 17.3228 20.6219L19.9969 22.1657L19.0711 22.7002C19.0666 22.7033 19.0613 22.7051 19.0558 22.7056C19.0504 22.7061 19.0449 22.7052 19.0398 22.703L16.8254 21.4235C15.8412 20.8535 15.5036 19.5944 16.0708 18.6085L16.0712 18.6081ZM23.6771 20.3781L21.003 18.834L21.9288 18.2998C21.9333 18.2967 21.9386 18.2949 21.944 18.2944C21.9495 18.2939 21.955 18.2948 21.96 18.297L24.1745 19.5755C25.1604 20.1451 25.4983 21.4063 24.9287 22.3922C24.6878 22.8095 24.3083 23.1291 23.8562 23.2956V20.6896C23.8567 20.6265 23.8404 20.5644 23.809 20.5097C23.7776 20.4549 23.7322 20.4095 23.6775 20.3781H23.6771ZM24.5984 18.9914C24.5822 18.9814 24.5537 18.9643 24.5334 18.9526L22.343 17.6875C22.2884 17.6556 22.2263 17.6388 22.163 17.6388C22.0998 17.6388 22.0377 17.6556 21.9831 17.6875L19.309 19.2317V18.1626C19.3087 18.1572 19.3098 18.1517 19.3121 18.1468C19.3143 18.1418 19.3178 18.1374 19.3221 18.1341L21.5362 16.8567C22.5224 16.2878 23.7833 16.6264 24.3519 17.613C24.5922 18.0297 24.6792 18.5173 24.5977 18.9914H24.5984ZM18.8057 20.8969L17.8797 20.3623C17.8748 20.3599 17.8706 20.3563 17.8675 20.3519C17.8644 20.3474 17.8624 20.3423 17.8618 20.3369V17.7797C17.8625 16.6412 18.7862 15.7185 19.9247 15.7192C20.4063 15.7192 20.8724 15.8883 21.2426 16.1963C21.2207 16.208 21.199 16.2203 21.1777 16.2331L18.9872 17.4981C18.9322 17.5293 18.8866 17.5747 18.8549 17.6294C18.8232 17.6841 18.8067 17.7463 18.8071 17.8096L18.8057 20.8962V20.8969ZM19.3087 19.8127L20.4998 19.1248L21.6909 19.8123V21.1877L20.4998 21.8752L19.3087 21.1877V19.8127Z" fill="white"></path></g><line x1="16" y1="35.5" x2="233" y2="35.5" stroke="#3B3B3B" stroke-opacity="0.24"></line><defs><filter id="filter0_b_47_569" x="-18.4" y="-18.4" width="286.8" height="144.8" filterUnits="userSpaceOnUse" color-interpolation-filters="sRGB"><feFlood flood-opacity="0" result="BackgroundImageFix"></feFlood><feGaussianBlur in="BackgroundImageFix" stdDeviation="9.2"></feGaussianBlur><feComposite in2="SourceAlpha" operator="in" result="effect1_backgroundBlur_47_569"></feComposite><feBlend mode="normal" in="SourceGraphic" in2="effect1_backgroundBlur_47_569" result="shape"></feBlend></filter><clipPath id="clip0_47_569"><rect width="11" height="11" fill="white" transform="translate(15 15)"></rect></clipPath></defs></svg> 