<?xml version="1.0" encoding="UTF-8"?> <svg xmlns="http://www.w3.org/2000/svg" width="226" height="140" viewBox="0 0 226 140" fill="none"><mask id="path-1-inside-1_30_541" fill="white"><path fill-rule="evenodd" clip-rule="evenodd" d="M0 103.938V0H226V140H36.0625L36.1249 139.938L0.0624452 103.875L0 103.938Z"></path></mask><path fill-rule="evenodd" clip-rule="evenodd" d="M0 103.938V0H226V140H36.0625L36.1249 139.938L0.0624452 103.875L0 103.938Z" fill="#1E1E1E" fill-opacity="0.47"></path><path d="M0 0H-1V-1H0V0ZM0 103.938L0.707115 104.645L-1 106.352L-1 103.938H0ZM226 0V-1H227V0H226ZM226 140H227V141H226V140ZM36.0625 140V141H33.6483L35.3554 139.293L36.0625 140ZM36.1249 139.938L36.832 139.231L37.5391 139.938L36.832 140.645L36.1249 139.938ZM0.0624452 103.875L-0.644669 103.168L0.0624375 102.461L0.769552 103.168L0.0624452 103.875ZM1 0V103.938H-1V0H1ZM226 1H0V-1H226V1ZM225 140V0H227V140H225ZM36.0625 139H226V141H36.0625V139ZM35.3554 139.293L35.4178 139.231L36.832 140.645L36.7696 140.707L35.3554 139.293ZM35.4178 140.645L-0.644662 104.582L0.769552 103.168L36.832 139.231L35.4178 140.645ZM0.76956 104.582L0.707115 104.645L-0.707115 103.231L-0.644669 103.168L0.76956 104.582Z" fill="#3B3B3B" fill-opacity="0.24" mask="url(#path-1-inside-1_30_541)"></path><path d="M78.2629 77V65.7471H74.7951V64.3254H83.2911V65.7471H79.8233V77H78.2629ZM87.9138 77.1734C86.9081 77.1734 86.1163 76.9191 85.5384 76.4105C84.9604 75.8903 84.6714 75.191 84.6714 74.3125C84.6714 73.4224 84.9604 72.7231 85.5384 72.2145C86.1163 71.7059 86.8966 71.4516 87.8791 71.4516H90.8267V70.498C90.8267 69.9084 90.6475 69.4576 90.2892 69.1455C89.9424 68.8219 89.4454 68.6601 88.7981 68.6601C88.2317 68.6601 87.7577 68.7814 87.3763 69.0242C86.9948 69.2553 86.7752 69.5732 86.7174 69.9778H85.1569C85.2609 69.1571 85.6482 68.504 86.3186 68.0185C86.989 67.533 87.8271 67.2903 88.8327 67.2903C89.9309 67.2903 90.7978 67.5735 91.4335 68.1399C92.0693 68.7063 92.3872 69.475 92.3872 70.4459V77H90.8614V75.1794H90.6013L90.8614 74.9193C90.8614 75.6129 90.5897 76.162 90.0464 76.5665C89.5147 76.9711 88.8038 77.1734 87.9138 77.1734ZM88.2952 75.9423C89.035 75.9423 89.6419 75.7574 90.1158 75.3875C90.5897 75.0176 90.8267 74.5437 90.8267 73.9657V72.6133H87.9138C87.3936 72.6133 86.9833 72.7578 86.6827 73.0468C86.3822 73.3357 86.2319 73.7288 86.2319 74.2258C86.2319 74.7575 86.4111 75.1794 86.7694 75.4915C87.1393 75.7921 87.6479 75.9423 88.2952 75.9423ZM94.1143 77L97.4953 72.0931L94.3223 67.4637H96.1603L98.0502 70.4113C98.1311 70.5384 98.2062 70.6771 98.2756 70.8274C98.3565 70.9777 98.4201 71.099 98.4663 71.1915C98.501 71.099 98.553 70.9777 98.6224 70.8274C98.7033 70.6771 98.7842 70.5384 98.8651 70.4113L100.772 67.4637H102.593L99.4199 72.1105L102.784 77H100.946L98.8998 73.879C98.8189 73.7519 98.738 73.6074 98.657 73.4456C98.5877 73.2722 98.5241 73.1335 98.4663 73.0294C98.4201 73.1335 98.3507 73.2722 98.2583 73.4456C98.1773 73.6074 98.0906 73.7519 97.9982 73.879L95.9349 77H94.1143ZM114.3 77V64.3254H121.756V65.7471H115.826V69.9605H121.305V71.3822H115.861V77H114.3ZM123.951 77V64.3427H127.87C128.621 64.3427 129.28 64.4987 129.847 64.8108C130.413 65.1114 130.852 65.5333 131.164 66.0766C131.476 66.6199 131.632 67.2556 131.632 67.9838C131.632 68.8392 131.407 69.5732 130.956 70.1859C130.517 70.7985 129.916 71.2204 129.153 71.4516L131.806 77H129.968L127.54 71.625H125.512V77H123.951ZM125.512 70.2205H127.87C128.517 70.2205 129.037 70.0183 129.43 69.6137C129.823 69.1976 130.02 68.6543 130.02 67.9838C130.02 67.3018 129.823 66.7586 129.43 66.354C129.037 65.9494 128.517 65.7471 127.87 65.7471H125.512V70.2205ZM133.793 77V64.3427H141.075V65.7645H135.336V69.683H140.468V71.0875H135.336V75.5782H141.075V77H133.793ZM143.496 77V64.3427H150.778V65.7645H145.039V69.683H150.171V71.0875H145.039V75.5782H150.778V77H143.496Z" fill="white"></path></svg> 