<?xml version="1.0" encoding="UTF-8"?> <svg xmlns="http://www.w3.org/2000/svg" width="58" height="15" viewBox="0 0 58 15" fill="none"><path d="M14.2226 14.6085C14.2226 14.7239 14.1801 14.8179 14.0952 14.8908C14.0163 14.9636 13.9161 15 13.7947 15H12.584C12.4383 15 12.3382 14.9241 12.2835 14.7724L10.6631 10.5483L10.5356 10.5665H4.43618L2.88856 14.7724C2.85215 14.9241 2.74594 15 2.56993 15H1.35915C1.20742 15 1.09211 14.9454 1.01321 14.8361C0.934311 14.7269 0.919138 14.6025 0.967691 14.4629L6.15677 0.306703C6.2114 0.161044 6.31457 0.0882148 6.4663 0.0882148H8.4691C8.64511 0.0882148 8.74221 0.161044 8.76042 0.306703L14.1862 14.4447C14.2105 14.5418 14.2226 14.5964 14.2226 14.6085ZM5.14627 8.62744H9.93479L7.65888 2.61903H7.36756L5.14627 8.62744ZM14.988 14.6268L14.9698 0.461465C14.9698 0.35829 15.0063 0.270288 15.0791 0.197459C15.1519 0.124629 15.2399 0.0882148 15.3431 0.0882148H26.0581C26.1613 0.0882148 26.2493 0.124629 26.3221 0.197459C26.3949 0.270288 26.4313 0.35829 26.4313 0.461465V1.65404C26.4313 1.75722 26.3949 1.84522 26.3221 1.91805C26.2493 1.99088 26.1613 2.02729 26.0581 2.02729H16.9271V6.60643H25.521C25.6241 6.60643 25.7122 6.64285 25.785 6.71567C25.8578 6.7885 25.8942 6.87651 25.8942 6.97968V8.19047C25.8942 8.29364 25.8578 8.37861 25.785 8.44537C25.7122 8.51213 25.6241 8.54551 25.521 8.54551H16.9271V13.0609H26.0581C26.1613 13.0609 26.2493 13.0973 26.3221 13.1702C26.3949 13.243 26.4313 13.331 26.4313 13.4342V14.6268C26.4313 14.7299 26.3949 14.8179 26.3221 14.8908C26.2493 14.9636 26.1613 15 26.0581 15H15.3613C15.2581 15 15.1701 14.9636 15.0973 14.8908C15.0245 14.8179 14.988 14.7299 14.988 14.6268ZM29.8186 14.9272L28.0252 13.3795C27.9524 13.3067 27.916 13.2309 27.916 13.152V1.94536C27.916 1.87253 27.9524 1.7997 28.0252 1.72687L29.8186 0.161044C29.849 0.112491 29.9097 0.0882148 30.0007 0.0882148H39.6597C39.7629 0.0882148 39.8509 0.124629 39.9237 0.197459C39.9965 0.270288 40.0329 0.35829 40.0329 0.461465V1.65404C40.0329 1.75722 39.9965 1.84522 39.9237 1.91805C39.8509 1.99088 39.7629 2.02729 39.6597 2.02729H30.7108L29.8732 2.74648L29.855 12.369L30.6744 13.0609H38.0756V8.50909H34.3887C34.2855 8.50909 34.1975 8.47268 34.1247 8.39985C34.0518 8.32702 34.0154 8.23902 34.0154 8.13584V7.04341C34.0154 6.94023 34.0518 6.85223 34.1247 6.7794C34.1975 6.70657 34.2855 6.67016 34.3887 6.67016H39.6597C39.7629 6.67016 39.8509 6.70657 39.9237 6.7794C39.9965 6.85223 40.0329 6.94023 40.0329 7.04341V14.6268C40.0329 14.7299 39.9965 14.8179 39.9237 14.8908C39.8509 14.9636 39.7629 15 39.6597 15H30.0007C29.9097 15 29.849 14.9757 29.8186 14.9272ZM41.736 14.6268V0.461465C41.736 0.35829 41.7725 0.270288 41.8453 0.197459C41.9181 0.124629 42.0061 0.0882148 42.1093 0.0882148H43.3201C43.4232 0.0882148 43.5113 0.124629 43.5841 0.197459C43.6569 0.270288 43.6933 0.35829 43.6933 0.461465V14.6268C43.6933 14.7299 43.6569 14.8179 43.5841 14.8908C43.5113 14.9636 43.4232 15 43.3201 15H42.1093C42.0061 15 41.9181 14.9636 41.8453 14.8908C41.7725 14.8179 41.736 14.7299 41.736 14.6268ZM47.1534 14.9272L45.3964 13.4342C45.3357 13.3735 45.3054 13.2976 45.3054 13.2066V11.3039C45.3054 11.2068 45.3418 11.1249 45.4146 11.0581C45.4875 10.9914 45.5694 10.958 45.6604 10.958H46.8712C46.9744 10.958 47.0594 10.9914 47.1261 11.0581C47.1929 11.1188 47.2263 11.2007 47.2263 11.3039V12.4055L48.0456 13.0609H54.7004L55.4651 12.4055V9.20097L54.5365 8.49089H47.4266C47.3719 8.49089 47.3112 8.46661 47.2445 8.41806L45.3964 6.83402C45.3357 6.77333 45.3054 6.69747 45.3054 6.60643L45.2872 1.81791C45.2872 1.72687 45.3175 1.65101 45.3782 1.59032L47.0715 0.161044C47.1201 0.112491 47.1838 0.0882148 47.2627 0.0882148H55.4105C55.4833 0.0882148 55.544 0.112491 55.5925 0.161044L57.2949 1.65404C57.3556 1.71473 57.3859 1.78756 57.3859 1.87253V3.68416C57.3859 3.78733 57.3526 3.87533 57.2858 3.94816C57.219 4.02099 57.1341 4.05741 57.0309 4.05741H55.8201C55.7352 4.05741 55.6532 4.01796 55.5743 3.93906C55.5015 3.86016 55.4651 3.78126 55.4651 3.70237V2.67365L54.7004 2.02729H48.0456L47.2445 2.67365L47.2263 5.82352L48.1184 6.5336H55.2193C55.28 6.5336 55.3437 6.55788 55.4105 6.60643L57.2949 8.19047C57.3556 8.25116 57.3859 8.32702 57.3859 8.41806L57.4042 13.2885C57.4042 13.3735 57.3738 13.4463 57.3131 13.507L55.7109 14.9272C55.6623 14.9757 55.5925 15 55.5015 15H47.3355C47.2809 15 47.2202 14.9757 47.1534 14.9272Z" fill="white"></path></svg> 