<?xml version="1.0" encoding="UTF-8"?> <svg xmlns="http://www.w3.org/2000/svg" width="142" height="55" viewBox="0 0 142 55" fill="none"><path fill-rule="evenodd" clip-rule="evenodd" d="M0 54.7013V15.8343L15.5356 0.298706H142V39.2868L126.585 54.7013H0Z" fill="white"></path><path d="M25.7417 33.8961V21.8956H29.1446C30.2406 21.8956 31.0954 22.1696 31.7091 22.7176C32.3338 23.2655 32.6461 24.0272 32.6461 25.0026C32.6461 25.5506 32.5311 26.0273 32.3009 26.4328C32.0708 26.8383 31.742 27.1506 31.3146 27.3698C30.8981 27.589 30.394 27.6931 29.8022 27.6822V27.4356C30.4378 27.4246 30.9858 27.5452 31.4461 27.7972C31.9173 28.0493 32.279 28.411 32.5311 28.8822C32.7941 29.3535 32.9256 29.9124 32.9256 30.559C32.9256 31.2385 32.7831 31.8303 32.4982 32.3344C32.2132 32.8385 31.8077 33.2276 31.2817 33.5016C30.7556 33.7646 30.1255 33.8961 29.3912 33.8961H25.7417ZM27.1884 32.5646H29.2268C29.9173 32.5646 30.4597 32.3837 30.8543 32.0221C31.2598 31.6494 31.4625 31.1453 31.4625 30.5097C31.4625 29.8521 31.2598 29.3206 30.8543 28.9151C30.4597 28.4986 29.9173 28.2904 29.2268 28.2904H27.1884V32.5646ZM27.1884 27.0082H29.1282C29.7638 27.0082 30.2625 26.8383 30.6241 26.4985C30.9968 26.1588 31.1831 25.6985 31.1831 25.1177C31.1831 24.5368 31.0022 24.0765 30.6406 23.7368C30.2789 23.397 29.7803 23.2272 29.1446 23.2272H27.1884V27.0082ZM38.3441 34.0605C37.2262 34.0605 36.3714 33.7536 35.7796 33.1399C35.1878 32.5152 34.8919 31.6714 34.8919 30.6083V21.8956H36.3714V30.6083C36.3714 31.2659 36.5303 31.7864 36.8481 32.17C37.1769 32.5536 37.6755 32.7454 38.3441 32.7454C39.0016 32.7454 39.4948 32.5536 39.8236 32.17C40.1524 31.7864 40.3168 31.2659 40.3168 30.6083V21.8956H41.7963V30.6083C41.7963 31.6823 41.5004 32.5262 40.9086 33.1399C40.3277 33.7536 39.4729 34.0605 38.3441 34.0605ZM46.8038 33.8961V29.4083L43.1872 21.8956H44.716L47.0997 26.8273C47.2312 27.1013 47.3353 27.3369 47.412 27.5342C47.4887 27.7205 47.538 27.8575 47.56 27.9452C47.5819 27.8575 47.6312 27.7205 47.7079 27.5342C47.7956 27.3369 47.9052 27.1013 48.0367 26.8273L50.371 21.8956H51.8999L48.2833 29.4083V33.8961H46.8038ZM65.5314 36.1976V34.0441C64.5013 33.9564 63.6903 33.6276 63.0985 33.0577C62.5176 32.4769 62.2162 31.7152 62.1943 30.7727H63.6738C63.6738 31.3097 63.8327 31.7481 64.1506 32.0878C64.4793 32.4276 64.9396 32.6358 65.5314 32.7125V28.4055L65.0876 28.274C64.2656 28.0219 63.63 27.6 63.1807 27.0082C62.7423 26.4163 62.5231 25.7204 62.5231 24.9204C62.5231 24.0436 62.7916 23.3203 63.3286 22.7504C63.8766 22.1806 64.6109 21.8518 65.5314 21.7641V19.5941H66.5178V21.7477C67.4274 21.8353 68.1562 22.1641 68.7042 22.734C69.2521 23.3039 69.5316 24.0382 69.5426 24.9368H68.0631C68.0631 24.4217 67.9261 24.0053 67.6521 23.6875C67.3891 23.3587 67.011 23.1559 66.5178 23.0792V27.1561L67.1753 27.3698C67.9754 27.6219 68.5946 28.0493 69.033 28.6521C69.4713 29.2548 69.6905 29.9617 69.6905 30.7727C69.6905 31.6714 69.4001 32.4166 68.8193 33.0084C68.2494 33.6002 67.4822 33.9454 66.5178 34.0441V36.1976H65.5314ZM66.5178 32.7125C67.0548 32.6248 67.4712 32.4166 67.7672 32.0878C68.0631 31.759 68.211 31.3316 68.211 30.8056C68.211 30.3234 68.0795 29.9014 67.8165 29.5398C67.5644 29.1781 67.1973 28.926 66.7151 28.7836L66.5178 28.7178V32.7125ZM65.5314 27.5013V23.0792C65.0492 23.1559 64.6711 23.3422 64.3971 23.6381C64.1341 23.9341 64.0026 24.3176 64.0026 24.7889C64.0026 25.3588 64.178 25.841 64.5287 26.2355C64.8794 26.6191 65.3835 26.8602 66.0411 26.9588L65.5314 27.5013ZM71.0321 33.8961L74.1555 21.8956H76.1446L79.2516 33.8961H77.7557L76.9666 30.7069H73.3336L72.5445 33.8961H71.0321ZM73.6295 29.4576H76.6543L75.7337 25.7588C75.5583 25.0574 75.4213 24.4711 75.3227 23.9998C75.2241 23.5286 75.1638 23.2217 75.1419 23.0792C75.1199 23.2217 75.0597 23.5286 74.961 23.9998C74.8624 24.4711 74.7254 25.0519 74.5501 25.7423L73.6295 29.4576ZM81.0535 33.8961V21.8956H87.9579V23.2436H82.5166V26.9588H87.3825V28.2904H82.5166V32.5481H87.9579V33.8961H81.0535ZM93.6065 34.0605C92.8832 34.0605 92.253 33.9235 91.716 33.6495C91.19 33.3755 90.779 32.981 90.4831 32.4659C90.1982 31.9399 90.0557 31.3207 90.0557 30.6083V25.1834C90.0557 24.4601 90.1982 23.8409 90.4831 23.3258C90.779 22.8107 91.19 22.4162 91.716 22.1422C92.253 21.8682 92.8832 21.7312 93.6065 21.7312C94.3298 21.7312 94.9545 21.8737 95.4806 22.1586C96.0066 22.4326 96.4121 22.8272 96.6971 23.3422C96.982 23.8573 97.1245 24.4711 97.1245 25.1834H95.645C95.645 24.5039 95.4641 23.9834 95.1025 23.6217C94.7518 23.2491 94.2531 23.0628 93.6065 23.0628C92.9599 23.0628 92.4503 23.2436 92.0777 23.6053C91.716 23.9669 91.5352 24.4875 91.5352 25.167V30.6083C91.5352 31.2878 91.716 31.8138 92.0777 32.1865C92.4503 32.5591 92.9599 32.7454 93.6065 32.7454C94.2531 32.7454 94.7518 32.5591 95.1025 32.1865C95.4641 31.8138 95.645 31.2878 95.645 30.6083V29.1288H93.212V27.7808H97.1245V30.6083C97.1245 31.3097 96.982 31.9234 96.6971 32.4495C96.4121 32.9646 96.0066 33.3646 95.4806 33.6495C94.9545 33.9235 94.3298 34.0605 93.6065 34.0605ZM99.5346 33.8961V32.5481H101.984V23.2436H99.5346V21.8956H105.946V23.2436H103.496V32.5481H105.946V33.8961H99.5346ZM112.005 34.0605C111.216 34.0605 110.537 33.929 109.967 33.666C109.408 33.4029 108.975 33.0248 108.668 32.5317C108.361 32.0385 108.203 31.4522 108.192 30.7727H109.671C109.671 31.3755 109.874 31.8522 110.279 32.2029C110.696 32.5536 111.271 32.7289 112.005 32.7289C112.696 32.7289 113.233 32.5591 113.616 32.2193C114.011 31.8796 114.208 31.4083 114.208 30.8056C114.208 30.3234 114.077 29.9014 113.814 29.5398C113.562 29.1781 113.195 28.926 112.712 28.7836L111.085 28.274C110.263 28.0219 109.627 27.6 109.178 27.0082C108.74 26.4163 108.52 25.7204 108.52 24.9204C108.52 24.2738 108.663 23.7149 108.948 23.2436C109.244 22.7614 109.655 22.3888 110.181 22.1258C110.707 21.8518 111.326 21.7148 112.038 21.7148C113.09 21.7148 113.934 22.0107 114.57 22.6025C115.206 23.1833 115.529 23.9614 115.54 24.9368H114.06C114.06 24.345 113.879 23.8847 113.518 23.556C113.167 23.2162 112.668 23.0463 112.022 23.0463C111.386 23.0463 110.888 23.1998 110.526 23.5066C110.175 23.8135 110 24.2409 110 24.7889C110 25.2821 110.131 25.7095 110.394 26.0711C110.657 26.4328 111.036 26.6903 111.529 26.8438L113.173 27.3698C113.973 27.6219 114.592 28.0493 115.03 28.6521C115.469 29.2548 115.688 29.9617 115.688 30.7727C115.688 31.4303 115.534 32.0056 115.227 32.4988C114.921 32.992 114.488 33.3755 113.929 33.6495C113.381 33.9235 112.74 34.0605 112.005 34.0605Z" fill="black"></path></svg> 