<?xml version="1.0" encoding="UTF-8"?> <svg xmlns="http://www.w3.org/2000/svg" width="32" height="32" viewBox="0 0 32 32" fill="none"><path d="M0.675781 0.75676H31.1623V31.2432H0.675781V0.75676Z" fill="#D0FD1B"></path><path d="M14.9522 9.01284C14.2024 9.36714 13.5805 9.68024 13.5805 9.7132C13.5719 9.80384 15.6083 10.7679 15.7957 10.7679C15.8894 10.7679 16.0939 10.7102 16.2558 10.6525C16.5199 10.5454 16.5881 10.5454 16.8522 10.6525C17.0141 10.7102 17.2356 10.7679 17.3379 10.7679C17.5594 10.7679 19.3998 9.92743 19.485 9.78736C19.5616 9.67201 16.8948 8.37839 16.5711 8.37839C16.4347 8.37839 15.7105 8.66677 14.9522 9.01284Z" fill="black"></path><path d="M10.6838 11.0563L9.56763 11.5836V13.8412C9.56763 16.1813 9.60171 16.618 9.78063 16.618C9.84027 16.618 10.3515 16.3955 10.9223 16.1236L11.9533 15.6375V14.2285C11.9533 13.1326 11.9788 12.8278 12.064 12.8278C12.1237 12.8278 12.7883 13.1079 13.538 13.4457C14.2793 13.7836 14.9694 14.0637 15.0632 14.0637C15.2506 14.0637 17.0995 13.2233 17.1762 13.0997C17.2273 13.0255 12.1322 10.5207 11.9192 10.5207C11.8596 10.5207 11.2972 10.7596 10.6838 11.0563Z" fill="black"></path><path d="M20.073 11.0397C19.4936 11.3199 19.025 11.567 19.025 11.5918C19.025 11.6165 19.5107 11.8719 20.1156 12.1603L21.1977 12.6876L18.7694 13.8412C17.4318 14.4839 14.8246 15.7198 12.9757 16.5932L9.61021 18.1917L9.58465 18.7025C9.56761 18.9827 9.57613 19.4853 9.61021 19.8149L9.66986 20.4081L10.0533 20.6306C10.2663 20.746 10.786 20.9931 11.2205 21.1744L11.9959 21.4958L13.0779 20.9767C13.6829 20.6883 14.1685 20.4329 14.1685 20.4081C14.1685 20.3834 13.6743 20.1198 13.0609 19.8314L11.9533 19.2958L17.6618 16.585C22.7058 14.1955 23.3789 13.8494 23.43 13.6599C23.4641 13.5445 23.4896 13.0172 23.4896 12.4981L23.4981 11.5506L22.4331 11.0315C21.8537 10.7513 21.317 10.5206 21.2403 10.5289C21.1721 10.5289 20.6439 10.7596 20.073 11.0397Z" fill="black"></path><path d="M22.3307 15.8434L21.2401 16.3707V17.8127C21.2401 18.6037 21.2231 19.2546 21.1975 19.2546C21.172 19.2546 20.4818 18.9332 19.6639 18.5377L18.1729 17.8127L17.0653 18.3482C16.4603 18.6366 15.9576 18.9003 15.9576 18.925C15.9576 18.9909 17.9854 19.9962 19.6895 20.7789L21.2572 21.4875L23.5406 20.4164L23.5321 18.0434C23.5236 16.7415 23.498 15.588 23.4724 15.4973C23.4128 15.3243 23.3702 15.3408 22.3307 15.8434Z" fill="black"></path><path d="M14.6625 21.6936C14.0576 21.9819 13.5719 22.2456 13.5719 22.2703C13.5719 22.3363 16.324 23.6216 16.4858 23.6216C16.6648 23.6216 17.7213 23.1849 18.7607 22.6741C19.3657 22.3857 19.5361 22.2703 19.4423 22.2127C19.3742 22.1632 18.9056 21.9243 18.3944 21.6771C17.6446 21.3063 17.4145 21.2239 17.2015 21.2733C16.5199 21.4052 16.3921 21.4052 16.145 21.2816C16.0002 21.2074 15.8468 21.1497 15.8127 21.158C15.7787 21.158 15.2589 21.3969 14.6625 21.6936Z" fill="black"></path></svg> 