<?xml version="1.0" encoding="UTF-8"?> <svg xmlns="http://www.w3.org/2000/svg" width="420" height="111" viewBox="0 0 420 111" fill="none"><rect width="420" height="111" fill="white"></rect><path d="M23.5462 32V20.4295H19.9806V18.9675H28.7164V20.4295H25.1508V32H23.5462ZM33.4696 32.1783C32.4356 32.1783 31.6214 31.9168 31.0271 31.3938C30.4328 30.859 30.1357 30.1399 30.1357 29.2366C30.1357 28.3214 30.4328 27.6024 31.0271 27.0794C31.6214 26.5564 32.4237 26.295 33.4339 26.295H36.4647V25.3144C36.4647 24.7082 36.2805 24.2447 35.9121 23.9238C35.5555 23.591 35.0444 23.4246 34.3788 23.4246C33.7964 23.4246 33.3091 23.5494 32.9169 23.799C32.5247 24.0367 32.2989 24.3636 32.2394 24.7796H30.6349C30.7419 23.9357 31.14 23.2641 31.8294 22.765C32.5187 22.2658 33.3804 22.0162 34.4145 22.0162C35.5436 22.0162 36.435 22.3074 37.0887 22.8898C37.7424 23.4721 38.0693 24.2625 38.0693 25.2609V32H36.5004V30.128H36.233L36.5004 29.8606C36.5004 30.5737 36.2211 31.1383 35.6625 31.5543C35.1157 31.9703 34.3848 32.1783 33.4696 32.1783ZM33.8618 30.9125C34.6225 30.9125 35.2465 30.7223 35.7338 30.342C36.2211 29.9616 36.4647 29.4743 36.4647 28.8801V27.4894H33.4696C32.9347 27.4894 32.5128 27.638 32.2038 27.9352C31.8948 28.2323 31.7402 28.6364 31.7402 29.1475C31.7402 29.6942 31.9245 30.128 32.2929 30.4489C32.6733 30.758 33.1962 30.9125 33.8618 30.9125ZM40.6474 32V18.9854H42.252V26.2415H44.1418L46.9943 22.1945H48.8306L45.5324 26.8655L48.8841 32H47.0121L44.1596 27.6321H42.252V32H40.6474ZM54.2791 32.1783C53.5065 32.1783 52.829 32.0238 52.2467 31.7147C51.6762 31.4057 51.2304 30.9719 50.9095 30.4133C50.6005 29.8428 50.446 29.1831 50.446 28.4343V25.7601C50.446 24.9994 50.6005 24.3398 50.9095 23.7812C51.2304 23.2225 51.6762 22.7887 52.2467 22.4797C52.829 22.1707 53.5065 22.0162 54.2791 22.0162C55.0516 22.0162 55.7232 22.1707 56.2937 22.4797C56.8761 22.7887 57.3218 23.2225 57.6308 23.7812C57.9517 24.3398 58.1122 24.9994 58.1122 25.7601V27.4894H52.0149V28.4343C52.0149 29.2069 52.211 29.8012 52.6032 30.2172C52.9954 30.6213 53.5541 30.8233 54.2791 30.8233C54.8971 30.8233 55.3963 30.7164 55.7767 30.5024C56.157 30.2766 56.3888 29.9438 56.472 29.504H58.0765C57.9695 30.3241 57.5654 30.9778 56.8642 31.4652C56.1748 31.9406 55.3131 32.1783 54.2791 32.1783ZM56.5433 26.4198V25.7601C56.5433 24.9875 56.3472 24.3933 55.9549 23.9773C55.5746 23.5613 55.016 23.3533 54.2791 23.3533C53.5541 23.3533 52.9954 23.5613 52.6032 23.9773C52.211 24.3933 52.0149 24.9875 52.0149 25.7601V26.2771H56.6681L56.5433 26.4198ZM70.061 32V22.1945H71.4694V23.3711H71.7903L71.5407 23.799C71.5407 23.2523 71.6834 22.8184 71.9686 22.4975C72.2658 22.1766 72.6639 22.0162 73.1631 22.0162C73.7099 22.0162 74.1318 22.2182 74.4289 22.6223C74.7261 23.0264 74.8746 23.5969 74.8746 24.3338L74.3933 23.3711H75.1421L74.8033 23.799C74.8033 23.2523 74.9519 22.8184 75.249 22.4975C75.5581 22.1766 75.9622 22.0162 76.4613 22.0162C77.0794 22.0162 77.5548 22.2479 77.8876 22.7115C78.2323 23.175 78.4046 23.7871 78.4046 24.5478V32H76.9249V24.53C76.9249 24.1258 76.8357 23.8109 76.6575 23.5851C76.4911 23.3592 76.2415 23.2463 75.9087 23.2463C75.5878 23.2463 75.3322 23.3592 75.1421 23.5851C74.9638 23.799 74.8746 24.108 74.8746 24.5121V32H73.591V24.53C73.591 24.114 73.4959 23.799 73.3057 23.5851C73.1275 23.3592 72.8719 23.2463 72.5391 23.2463C72.2063 23.2463 71.9567 23.3592 71.7903 23.5851C71.6239 23.799 71.5407 24.108 71.5407 24.5121V32H70.061ZM84.2097 32.1426C83.4252 32.1426 82.7478 31.9941 82.1773 31.6969C81.6068 31.3998 81.161 30.9719 80.8401 30.4133C80.5311 29.8428 80.3766 29.1712 80.3766 28.3987V25.7958C80.3766 25.0113 80.5311 24.3398 80.8401 23.7812C81.161 23.2225 81.6068 22.7947 82.1773 22.4975C82.7478 22.2004 83.4252 22.0518 84.2097 22.0518C84.9941 22.0518 85.6716 22.2004 86.2421 22.4975C86.8126 22.7947 87.2524 23.2225 87.5614 23.7812C87.8823 24.3398 88.0428 25.0054 88.0428 25.7779V28.3987C88.0428 29.1712 87.8823 29.8428 87.5614 30.4133C87.2524 30.9719 86.8126 31.3998 86.2421 31.6969C85.6716 31.9941 84.9941 32.1426 84.2097 32.1426ZM84.2097 30.7164C84.9109 30.7164 85.4577 30.5203 85.8499 30.128C86.2421 29.7358 86.4382 29.1594 86.4382 28.3987V25.7958C86.4382 25.0351 86.2421 24.4586 85.8499 24.0664C85.4577 23.6742 84.9109 23.4781 84.2097 23.4781C83.5203 23.4781 82.9736 23.6742 82.5695 24.0664C82.1773 24.4586 81.9811 25.0351 81.9811 25.7958V28.3987C81.9811 29.1594 82.1773 29.7358 82.5695 30.128C82.9736 30.5203 83.5203 30.7164 84.2097 30.7164ZM90.817 32V22.1945H92.3859V24.0664H92.7603L92.2433 25.2253C92.2433 24.1674 92.4691 23.3711 92.9207 22.8363C93.3843 22.2895 94.0677 22.0162 94.971 22.0162C96.005 22.0162 96.8251 22.343 97.4313 22.9967C98.0493 23.6385 98.3584 24.5121 98.3584 25.6175V26.2058H96.7538V25.7601C96.7538 24.9875 96.5637 24.3992 96.1833 23.9951C95.8149 23.5791 95.286 23.3711 94.5966 23.3711C93.9191 23.3711 93.3843 23.5791 92.9921 23.9951C92.6117 24.4111 92.4215 24.9994 92.4215 25.7601V32H90.817ZM104.163 32.1783C103.391 32.1783 102.713 32.0238 102.131 31.7147C101.56 31.4057 101.115 30.9719 100.794 30.4133C100.485 29.8428 100.33 29.1831 100.33 28.4343V25.7601C100.33 24.9994 100.485 24.3398 100.794 23.7812C101.115 23.2225 101.56 22.7887 102.131 22.4797C102.713 22.1707 103.391 22.0162 104.163 22.0162C104.936 22.0162 105.608 22.1707 106.178 22.4797C106.76 22.7887 107.206 23.2225 107.515 23.7812C107.836 24.3398 107.996 24.9994 107.996 25.7601V27.4894H101.899V28.4343C101.899 29.2069 102.095 29.8012 102.488 30.2172C102.88 30.6213 103.438 30.8233 104.163 30.8233C104.781 30.8233 105.281 30.7164 105.661 30.5024C106.041 30.2766 106.273 29.9438 106.356 29.504H107.961C107.854 30.3241 107.45 30.9778 106.749 31.4652C106.059 31.9406 105.197 32.1783 104.163 32.1783ZM106.428 26.4198V25.7601C106.428 24.9875 106.231 24.3933 105.839 23.9773C105.459 23.5613 104.9 23.3533 104.163 23.3533C103.438 23.3533 102.88 23.5613 102.488 23.9773C102.095 24.3933 101.899 24.9875 101.899 25.7601V26.2771H106.552L106.428 26.4198ZM120.409 35.2091V22.1945H122.013V24.0664H122.334L122.013 24.4408C122.013 23.692 122.257 23.1037 122.744 22.6758C123.244 22.2361 123.897 22.0162 124.705 22.0162C125.692 22.0162 126.476 22.343 127.059 22.9967C127.653 23.6385 127.95 24.524 127.95 25.6531V28.5235C127.95 29.2723 127.814 29.92 127.54 30.4668C127.279 31.0135 126.904 31.4354 126.417 31.7326C125.942 32.0297 125.371 32.1783 124.705 32.1783C123.909 32.1783 123.261 31.9584 122.762 31.5186C122.263 31.0789 122.013 30.4905 122.013 29.7536L122.334 30.128H121.978L122.013 32.3566V35.2091H120.409ZM124.171 30.7877C124.848 30.7877 125.377 30.5856 125.757 30.1815C126.15 29.7774 126.346 29.195 126.346 28.4343V25.7601C126.346 24.9994 126.15 24.417 125.757 24.0129C125.377 23.6088 124.848 23.4068 124.171 23.4068C123.517 23.4068 122.994 23.6148 122.602 24.0308C122.21 24.4468 122.013 25.0232 122.013 25.7601V28.4343C122.013 29.1712 122.21 29.7477 122.602 30.1637C122.994 30.5797 123.517 30.7877 124.171 30.7877ZM130.261 32V30.5381H133.737V23.6564H130.707V22.1945H135.342V30.5381H138.64V32H130.261ZM134.361 20.4295C133.969 20.4295 133.66 20.3284 133.434 20.1264C133.209 19.9243 133.096 19.651 133.096 19.3063C133.096 18.9497 133.209 18.6704 133.434 18.4683C133.66 18.2544 133.969 18.1474 134.361 18.1474C134.754 18.1474 135.063 18.2544 135.289 18.4683C135.514 18.6704 135.627 18.9497 135.627 19.3063C135.627 19.651 135.514 19.9243 135.289 20.1264C135.063 20.3284 134.754 20.4295 134.361 20.4295ZM144.142 32.1783C143.358 32.1783 142.668 32.0297 142.074 31.7326C141.492 31.4354 141.04 31.0076 140.719 30.4489C140.398 29.8784 140.238 29.2069 140.238 28.4343V25.7601C140.238 24.9757 140.398 24.3041 140.719 23.7455C141.04 23.1869 141.492 22.759 142.074 22.4619C142.668 22.1647 143.358 22.0162 144.142 22.0162C145.271 22.0162 146.181 22.3192 146.87 22.9254C147.559 23.5316 147.922 24.3576 147.957 25.4035H146.353C146.317 24.7736 146.103 24.2922 145.711 23.9594C145.331 23.6148 144.808 23.4424 144.142 23.4424C143.441 23.4424 142.882 23.6445 142.466 24.0486C142.05 24.4408 141.842 25.0054 141.842 25.7423V28.4343C141.842 29.1712 142.05 29.7418 142.466 30.1459C142.882 30.55 143.441 30.752 144.142 30.752C144.808 30.752 145.331 30.5797 145.711 30.235C146.103 29.8903 146.317 29.409 146.353 28.7909H147.957C147.922 29.8368 147.559 30.6629 146.87 31.269C146.181 31.8752 145.271 32.1783 144.142 32.1783ZM155.117 32C154.274 32 153.614 31.7742 153.139 31.3225C152.675 30.8709 152.443 30.235 152.443 29.4149V23.6564H149.68V22.1945H152.443V19.4311H154.048V22.1945H157.97V23.6564H154.048V29.4149C154.048 30.1637 154.404 30.5381 155.117 30.5381H157.792V32H155.117ZM164.007 32.1783C162.878 32.1783 161.974 31.8455 161.297 31.1799C160.619 30.5024 160.281 29.5872 160.281 28.4343V22.1945H161.885V28.4343C161.885 29.1712 162.075 29.7477 162.456 30.1637C162.836 30.5678 163.353 30.7698 164.007 30.7698C164.672 30.7698 165.195 30.5678 165.576 30.1637C165.968 29.7477 166.164 29.1712 166.164 28.4343V22.1945H167.769V28.4343C167.769 29.5872 167.424 30.5024 166.735 31.1799C166.045 31.8455 165.136 32.1783 164.007 32.1783ZM170.632 32V22.1945H172.201V24.0664H172.575L172.058 25.2253C172.058 24.1674 172.284 23.3711 172.736 22.8363C173.199 22.2895 173.883 22.0162 174.786 22.0162C175.82 22.0162 176.64 22.343 177.246 22.9967C177.864 23.6385 178.173 24.5121 178.173 25.6175V26.2058H176.569V25.7601C176.569 24.9875 176.379 24.3992 175.998 23.9951C175.63 23.5791 175.101 23.3711 174.412 23.3711C173.734 23.3711 173.199 23.5791 172.807 23.9951C172.427 24.4111 172.236 24.9994 172.236 25.7601V32H170.632ZM183.978 32.1783C183.206 32.1783 182.528 32.0238 181.946 31.7147C181.375 31.4057 180.93 30.9719 180.609 30.4133C180.3 29.8428 180.145 29.1831 180.145 28.4343V25.7601C180.145 24.9994 180.3 24.3398 180.609 23.7812C180.93 23.2225 181.375 22.7887 181.946 22.4797C182.528 22.1707 183.206 22.0162 183.978 22.0162C184.751 22.0162 185.422 22.1707 185.993 22.4797C186.575 22.7887 187.021 23.2225 187.33 23.7812C187.651 24.3398 187.811 24.9994 187.811 25.7601V27.4894H181.714V28.4343C181.714 29.2069 181.91 29.8012 182.302 30.2172C182.695 30.6213 183.253 30.8233 183.978 30.8233C184.596 30.8233 185.096 30.7164 185.476 30.5024C185.856 30.2766 186.088 29.9438 186.171 29.504H187.776C187.669 30.3241 187.265 30.9778 186.563 31.4652C185.874 31.9406 185.012 32.1783 183.978 32.1783ZM186.243 26.4198V25.7601C186.243 24.9875 186.046 24.3933 185.654 23.9773C185.274 23.5613 184.715 23.3533 183.978 23.3533C183.253 23.3533 182.695 23.5613 182.302 23.9773C181.91 24.3933 181.714 24.9875 181.714 25.7601V26.2771H186.367L186.243 26.4198ZM193.652 32.1426C192.987 32.1426 192.404 32.0416 191.905 31.8395C191.418 31.6256 191.025 31.3285 190.728 30.9481C190.443 30.5678 190.271 30.1161 190.211 29.5932H191.816C191.887 29.9379 192.077 30.2112 192.386 30.4133C192.707 30.6153 193.129 30.7164 193.652 30.7164H194.401C195.031 30.7164 195.5 30.5916 195.809 30.342C196.118 30.0805 196.273 29.7358 196.273 29.3079C196.273 28.8919 196.13 28.5651 195.845 28.3274C195.572 28.0778 195.162 27.9114 194.615 27.8282L193.296 27.6142C192.333 27.4478 191.614 27.1507 191.138 26.7228C190.675 26.2831 190.443 25.6472 190.443 24.8152C190.443 23.9357 190.722 23.2582 191.281 22.7828C191.84 22.2955 192.678 22.0518 193.795 22.0518H194.472C195.411 22.0518 196.166 22.2717 196.736 22.7115C197.307 23.1512 197.652 23.7455 197.77 24.4943H196.166C196.095 24.1853 195.916 23.9416 195.631 23.7633C195.346 23.5732 194.96 23.4781 194.472 23.4781H193.795C193.189 23.4781 192.743 23.591 192.458 23.8168C192.184 24.0426 192.048 24.3814 192.048 24.833C192.048 25.2371 192.166 25.5343 192.404 25.7244C192.642 25.9146 193.016 26.0513 193.527 26.1345L194.847 26.3484C195.904 26.5148 196.671 26.8239 197.146 27.2755C197.634 27.7272 197.877 28.3809 197.877 29.2366C197.877 30.1399 197.586 30.853 197.004 31.376C196.433 31.8871 195.566 32.1426 194.401 32.1426H193.652ZM213.909 32.1426C213.125 32.1426 212.447 31.9941 211.877 31.6969C211.306 31.3998 210.86 30.9719 210.539 30.4133C210.23 29.8428 210.076 29.1712 210.076 28.3987V25.7958C210.076 25.0113 210.23 24.3398 210.539 23.7812C210.86 23.2225 211.306 22.7947 211.877 22.4975C212.447 22.2004 213.125 22.0518 213.909 22.0518C214.693 22.0518 215.371 22.2004 215.941 22.4975C216.512 22.7947 216.952 23.2225 217.261 23.7812C217.582 24.3398 217.742 25.0054 217.742 25.7779V28.3987C217.742 29.1712 217.582 29.8428 217.261 30.4133C216.952 30.9719 216.512 31.3998 215.941 31.6969C215.371 31.9941 214.693 32.1426 213.909 32.1426ZM213.909 30.7164C214.61 30.7164 215.157 30.5203 215.549 30.128C215.941 29.7358 216.137 29.1594 216.137 28.3987V25.7958C216.137 25.0351 215.941 24.4586 215.549 24.0664C215.157 23.6742 214.61 23.4781 213.909 23.4781C213.22 23.4781 212.673 23.6742 212.269 24.0664C211.877 24.4586 211.68 25.0351 211.68 25.7958V28.3987C211.68 29.1594 211.877 29.7358 212.269 30.128C212.673 30.5203 213.22 30.7164 213.909 30.7164ZM222.46 32V24.6369H219.607V23.175H222.46V21.4813C222.46 20.7088 222.703 20.1026 223.191 19.6628C223.678 19.2112 224.349 18.9854 225.205 18.9854H228.075V20.4473H225.205C224.837 20.4473 224.551 20.5364 224.349 20.7147C224.159 20.8811 224.064 21.1366 224.064 21.4813V23.175H228.075V24.6369H224.064V32H222.46ZM241.665 35.2091L243.109 31.3938L239.472 22.1945H241.254L243.536 28.2561C243.62 28.4581 243.697 28.7018 243.768 28.987C243.84 29.2604 243.899 29.4922 243.947 29.6823C243.994 29.4922 244.053 29.2604 244.125 28.987C244.196 28.7018 244.267 28.4581 244.339 28.2561L246.478 22.1945H248.207L243.376 35.2091H241.665ZM253.816 32.1426C253.032 32.1426 252.355 31.9941 251.784 31.6969C251.213 31.3998 250.768 30.9719 250.447 30.4133C250.138 29.8428 249.983 29.1712 249.983 28.3987V25.7958C249.983 25.0113 250.138 24.3398 250.447 23.7812C250.768 23.2225 251.213 22.7947 251.784 22.4975C252.355 22.2004 253.032 22.0518 253.816 22.0518C254.601 22.0518 255.278 22.2004 255.849 22.4975C256.419 22.7947 256.859 23.2225 257.168 23.7812C257.489 24.3398 257.65 25.0054 257.65 25.7779V28.3987C257.65 29.1712 257.489 29.8428 257.168 30.4133C256.859 30.9719 256.419 31.3998 255.849 31.6969C255.278 31.9941 254.601 32.1426 253.816 32.1426ZM253.816 30.7164C254.518 30.7164 255.064 30.5203 255.457 30.128C255.849 29.7358 256.045 29.1594 256.045 28.3987V25.7958C256.045 25.0351 255.849 24.4586 255.457 24.0664C255.064 23.6742 254.518 23.4781 253.816 23.4781C253.127 23.4781 252.58 23.6742 252.176 24.0664C251.784 24.4586 251.588 25.0351 251.588 25.7958V28.3987C251.588 29.1594 251.784 29.7358 252.176 30.128C252.58 30.5203 253.127 30.7164 253.816 30.7164ZM263.775 32.1783C262.646 32.1783 261.743 31.8455 261.066 31.1799C260.388 30.5024 260.049 29.5872 260.049 28.4343V22.1945H261.654V28.4343C261.654 29.1712 261.844 29.7477 262.224 30.1637C262.605 30.5678 263.122 30.7698 263.775 30.7698C264.441 30.7698 264.964 30.5678 265.344 30.1637C265.737 29.7477 265.933 29.1712 265.933 28.4343V22.1945H267.537V28.4343C267.537 29.5872 267.193 30.5024 266.503 31.1799C265.814 31.8455 264.905 32.1783 263.775 32.1783ZM270.401 32V22.1945H271.97V24.0664H272.344L271.827 25.2253C271.827 24.1674 272.053 23.3711 272.504 22.8363C272.968 22.2895 273.651 22.0162 274.555 22.0162C275.589 22.0162 276.409 22.343 277.015 22.9967C277.633 23.6385 277.942 24.5121 277.942 25.6175V26.2058H276.337V25.7601C276.337 24.9875 276.147 24.3992 275.767 23.9951C275.398 23.5791 274.87 23.3711 274.18 23.3711C273.503 23.3711 272.968 23.5791 272.576 23.9951C272.195 24.4111 272.005 24.9994 272.005 25.7601V32H270.401ZM23.778 56.1783C22.8034 56.1783 22.013 55.8514 21.4068 55.1977C20.8125 54.544 20.5154 53.6586 20.5154 52.5413V49.671C20.5154 48.5418 20.8125 47.6504 21.4068 46.9967C22.0011 46.343 22.7915 46.0162 23.778 46.0162C24.5862 46.0162 25.234 46.2361 25.7213 46.6758C26.2086 47.1156 26.4522 47.7039 26.4522 48.4408L26.1313 48.0664H26.4879L26.4522 45.8379V42.9854H28.0568V56H26.4522V54.128H26.1313L26.4522 53.7536C26.4522 54.5024 26.2086 55.0967 25.7213 55.5365C25.234 55.9643 24.5862 56.1783 23.778 56.1783ZM24.3128 54.7877C24.9784 54.7877 25.5014 54.5797 25.8817 54.1637C26.262 53.7477 26.4522 53.1712 26.4522 52.4343V49.7601C26.4522 49.0232 26.262 48.4468 25.8817 48.0308C25.5014 47.6148 24.9784 47.4068 24.3128 47.4068C23.6354 47.4068 23.1005 47.6088 22.7083 48.0129C22.3161 48.417 22.1199 48.9994 22.1199 49.7601V52.4343C22.1199 53.195 22.3161 53.7774 22.7083 54.1815C23.1005 54.5856 23.6354 54.7877 24.3128 54.7877ZM34.3253 56.1426C33.5409 56.1426 32.8634 55.9941 32.2929 55.6969C31.7224 55.3998 31.2767 54.9719 30.9558 54.4133C30.6468 53.8428 30.4923 53.1712 30.4923 52.3987V49.7958C30.4923 49.0113 30.6468 48.3398 30.9558 47.7812C31.2767 47.2225 31.7224 46.7947 32.2929 46.4975C32.8634 46.2004 33.5409 46.0518 34.3253 46.0518C35.1098 46.0518 35.7873 46.2004 36.3578 46.4975C36.9283 46.7947 37.368 47.2225 37.6771 47.7812C37.998 48.3398 38.1584 49.0054 38.1584 49.7779V52.3987C38.1584 53.1712 37.998 53.8428 37.6771 54.4133C37.368 54.9719 36.9283 55.3998 36.3578 55.6969C35.7873 55.9941 35.1098 56.1426 34.3253 56.1426ZM34.3253 54.7164C35.0266 54.7164 35.5733 54.5203 35.9655 54.128C36.3578 53.7358 36.5539 53.1594 36.5539 52.3987V49.7958C36.5539 49.0351 36.3578 48.4586 35.9655 48.0664C35.5733 47.6742 35.0266 47.4781 34.3253 47.4781C33.636 47.4781 33.0893 47.6742 32.6851 48.0664C32.2929 48.4586 32.0968 49.0351 32.0968 49.7958V52.3987C32.0968 53.1594 32.2929 53.7358 32.6851 54.128C33.0893 54.5203 33.636 54.7164 34.3253 54.7164ZM41.8241 59.2091V57.7472H44.944C45.4432 57.7472 45.8057 57.6343 46.0316 57.4084C46.2693 57.1826 46.3881 56.832 46.3881 56.3566V55.1086L46.4238 53.3258H46.1029L46.406 53.0583C46.406 53.7715 46.1682 54.336 45.6928 54.752C45.2174 55.168 44.5815 55.376 43.7852 55.376C42.7749 55.376 41.9786 55.0492 41.3962 54.3955C40.8138 53.7299 40.5226 52.8385 40.5226 51.7212V49.6531C40.5226 48.5359 40.8138 47.6504 41.3962 46.9967C41.9786 46.343 42.7749 46.0162 43.7852 46.0162C44.5815 46.0162 45.2174 46.2242 45.6928 46.6402C46.1682 47.0562 46.406 47.6207 46.406 48.3338L46.1029 48.0664H46.406V46.1945H47.9927V56.3566C47.9927 57.2361 47.7193 57.9314 47.1726 58.4425C46.6377 58.9536 45.8889 59.2091 44.9262 59.2091H41.8241ZM44.2666 53.9854C44.9321 53.9854 45.4551 53.7774 45.8354 53.3614C46.2158 52.9454 46.406 52.369 46.406 51.6321V49.7601C46.406 49.0232 46.2158 48.4468 45.8354 48.0308C45.4551 47.6148 44.9321 47.4068 44.2666 47.4068C43.5891 47.4068 43.0602 47.6088 42.6798 48.0129C42.3114 48.417 42.1272 48.9994 42.1272 49.7601V51.6321C42.1272 52.3927 42.3114 52.9751 42.6798 53.3792C43.0602 53.7834 43.5891 53.9854 44.2666 53.9854ZM60.5477 59.2091V46.1945H62.1522V48.0664H62.4731L62.1522 48.4408C62.1522 47.692 62.3959 47.1037 62.8832 46.6758C63.3824 46.2361 64.0361 46.0162 64.8443 46.0162C65.8308 46.0162 66.6152 46.343 67.1976 46.9967C67.7919 47.6385 68.089 48.524 68.089 49.6531V52.5235C68.089 53.2723 67.9523 53.92 67.679 54.4668C67.4175 55.0135 67.0431 55.4354 66.5558 55.7326C66.0804 56.0297 65.5099 56.1783 64.8443 56.1783C64.048 56.1783 63.4002 55.9584 62.901 55.5186C62.4018 55.0789 62.1522 54.4905 62.1522 53.7536L62.4731 54.128H62.1166L62.1522 56.3566V59.2091H60.5477ZM64.3094 54.7877C64.9869 54.7877 65.5158 54.5856 65.8961 54.1815C66.2884 53.7774 66.4845 53.195 66.4845 52.4343V49.7601C66.4845 48.9994 66.2884 48.417 65.8961 48.0129C65.5158 47.6088 64.9869 47.4068 64.3094 47.4068C63.6557 47.4068 63.1328 47.6148 62.7405 48.0308C62.3483 48.4468 62.1522 49.0232 62.1522 49.7601V52.4343C62.1522 53.1712 62.3483 53.7477 62.7405 54.1637C63.1328 54.5797 63.6557 54.7877 64.3094 54.7877ZM75.5699 56C74.9994 56 74.5002 55.8871 74.0724 55.6613C73.6445 55.4354 73.3117 55.1145 73.074 54.6985C72.8363 54.2825 72.7174 53.7952 72.7174 53.2366V44.4473H69.4192V42.9854H74.322V53.2366C74.322 53.6407 74.4349 53.9616 74.6607 54.1993C74.8865 54.4252 75.1896 54.5381 75.5699 54.5381H78.6899V56H75.5699ZM83.3539 56.1783C82.3199 56.1783 81.5057 55.9168 80.9115 55.3938C80.3172 54.859 80.02 54.1399 80.02 53.2366C80.02 52.3214 80.3172 51.6024 80.9115 51.0794C81.5057 50.5564 82.308 50.295 83.3183 50.295H86.3491V49.3144C86.3491 48.7082 86.1649 48.2447 85.7964 47.9238C85.4398 47.591 84.9288 47.4246 84.2632 47.4246C83.6808 47.4246 83.1935 47.5494 82.8013 47.799C82.409 48.0367 82.1832 48.3636 82.1238 48.7796H80.5192C80.6262 47.9357 81.0244 47.2641 81.7137 46.765C82.4031 46.2658 83.2648 46.0162 84.2988 46.0162C85.4279 46.0162 86.3194 46.3074 86.9731 46.8898C87.6268 47.4721 87.9536 48.2625 87.9536 49.2609V56H86.3847V54.128H86.1173L86.3847 53.8606C86.3847 54.5737 86.1054 55.1383 85.5468 55.5543C85.0001 55.9703 84.2691 56.1783 83.3539 56.1783ZM83.7461 54.9125C84.5068 54.9125 85.1308 54.7223 85.6181 54.342C86.1054 53.9616 86.3491 53.4743 86.3491 52.8801V51.4894H83.3539C82.8191 51.4894 82.3971 51.638 82.0881 51.9352C81.7791 52.2323 81.6246 52.6364 81.6246 53.1475C81.6246 53.6942 81.8088 54.128 82.1773 54.4489C82.5576 54.758 83.0806 54.9125 83.7461 54.9125ZM92.0115 59.2091L93.4556 55.3938L89.8186 46.1945H91.6014L93.8835 52.2561C93.9667 52.4581 94.0439 52.7018 94.1152 52.987C94.1865 53.2604 94.246 53.4922 94.2935 53.6823C94.3411 53.4922 94.4005 53.2604 94.4718 52.987C94.5431 52.7018 94.6144 52.4581 94.6857 52.2561L96.8251 46.1945H98.5545L93.723 59.2091H92.0115ZM100.33 56V54.5381H103.807V47.6564H100.776V46.1945H105.411V54.5381H108.71V56H100.33ZM104.431 44.4295C104.039 44.4295 103.73 44.3284 103.504 44.1264C103.278 43.9243 103.165 43.651 103.165 43.3063C103.165 42.9497 103.278 42.6704 103.504 42.4683C103.73 42.2544 104.039 42.1474 104.431 42.1474C104.823 42.1474 105.132 42.2544 105.358 42.4683C105.584 42.6704 105.697 42.9497 105.697 43.3063C105.697 43.651 105.584 43.9243 105.358 44.1264C105.132 44.3284 104.823 44.4295 104.431 44.4295ZM110.432 56V46.1945H112.037V48.0664H112.375L112.037 48.4408C112.037 47.6683 112.268 47.074 112.732 46.658C113.195 46.2301 113.837 46.0162 114.657 46.0162C115.644 46.0162 116.428 46.3192 117.011 46.9254C117.593 47.5316 117.884 48.3576 117.884 49.4035V56H116.28V49.5818C116.28 48.8806 116.09 48.3457 115.709 47.9773C115.341 47.5969 114.836 47.4068 114.194 47.4068C113.528 47.4068 112.999 47.6088 112.607 48.0129C112.227 48.417 112.037 48.9994 112.037 49.7601V56H110.432ZM121.639 59.2091V57.7472H124.759C125.258 57.7472 125.621 57.6343 125.846 57.4084C126.084 57.1826 126.203 56.832 126.203 56.3566V55.1086L126.239 53.3258H125.918L126.221 53.0583C126.221 53.7715 125.983 54.336 125.508 54.752C125.032 55.168 124.396 55.376 123.6 55.376C122.59 55.376 121.794 55.0492 121.211 54.3955C120.629 53.7299 120.338 52.8385 120.338 51.7212V49.6531C120.338 48.5359 120.629 47.6504 121.211 46.9967C121.794 46.343 122.59 46.0162 123.6 46.0162C124.396 46.0162 125.032 46.2242 125.508 46.6402C125.983 47.0562 126.221 47.6207 126.221 48.3338L125.918 48.0664H126.221V46.1945H127.808V56.3566C127.808 57.2361 127.534 57.9314 126.988 58.4425C126.453 58.9536 125.704 59.2091 124.741 59.2091H121.639ZM124.081 53.9854C124.747 53.9854 125.27 53.7774 125.65 53.3614C126.031 52.9454 126.221 52.369 126.221 51.6321V49.7601C126.221 49.0232 126.031 48.4468 125.65 48.0308C125.27 47.6148 124.747 47.4068 124.081 47.4068C123.404 47.4068 122.875 47.6088 122.495 48.0129C122.126 48.417 121.942 48.9994 121.942 49.7601V51.6321C121.942 52.3927 122.126 52.9751 122.495 53.3792C122.875 53.7834 123.404 53.9854 124.081 53.9854ZM143.215 56.1783C142.181 56.1783 141.367 55.9168 140.773 55.3938C140.178 54.859 139.881 54.1399 139.881 53.2366C139.881 52.3214 140.178 51.6024 140.773 51.0794C141.367 50.5564 142.169 50.295 143.179 50.295H146.21V49.3144C146.21 48.7082 146.026 48.2447 145.658 47.9238C145.301 47.591 144.79 47.4246 144.124 47.4246C143.542 47.4246 143.055 47.5494 142.662 47.799C142.27 48.0367 142.044 48.3636 141.985 48.7796H140.38C140.487 47.9357 140.886 47.2641 141.575 46.765C142.264 46.2658 143.126 46.0162 144.16 46.0162C145.289 46.0162 146.181 46.3074 146.834 46.8898C147.488 47.4721 147.815 48.2625 147.815 49.2609V56H146.246V54.128H145.979L146.246 53.8606C146.246 54.5737 145.967 55.1383 145.408 55.5543C144.861 55.9703 144.13 56.1783 143.215 56.1783ZM143.607 54.9125C144.368 54.9125 144.992 54.7223 145.479 54.342C145.967 53.9616 146.21 53.4743 146.21 52.8801V51.4894H143.215C142.68 51.4894 142.258 51.638 141.949 51.9352C141.64 52.2323 141.486 52.6364 141.486 53.1475C141.486 53.6942 141.67 54.128 142.038 54.4489C142.419 54.758 142.942 54.9125 143.607 54.9125ZM150.339 56V46.1945H151.944V48.0664H152.283L151.944 48.4408C151.944 47.6683 152.176 47.074 152.639 46.658C153.103 46.2301 153.745 46.0162 154.565 46.0162C155.551 46.0162 156.336 46.3192 156.918 46.9254C157.5 47.5316 157.792 48.3576 157.792 49.4035V56H156.187V49.5818C156.187 48.8806 155.997 48.3457 155.617 47.9773C155.248 47.5969 154.743 47.4068 154.101 47.4068C153.436 47.4068 152.907 47.6088 152.515 48.0129C152.134 48.417 151.944 48.9994 151.944 49.7601V56H150.339ZM163.454 56.1783C162.479 56.1783 161.689 55.8514 161.083 55.1977C160.489 54.544 160.192 53.6586 160.192 52.5413V49.671C160.192 48.5418 160.489 47.6504 161.083 46.9967C161.677 46.343 162.468 46.0162 163.454 46.0162C164.262 46.0162 164.91 46.2361 165.397 46.6758C165.885 47.1156 166.128 47.7039 166.128 48.4408L165.807 48.0664H166.164L166.128 45.8379V42.9854H167.733V56H166.128V54.128H165.807L166.128 53.7536C166.128 54.5024 165.885 55.0967 165.397 55.5365C164.91 55.9643 164.262 56.1783 163.454 56.1783ZM163.989 54.7877C164.655 54.7877 165.178 54.5797 165.558 54.1637C165.938 53.7477 166.128 53.1712 166.128 52.4343V49.7601C166.128 49.0232 165.938 48.4468 165.558 48.0308C165.178 47.6148 164.655 47.4068 163.989 47.4068C163.311 47.4068 162.777 47.6088 162.384 48.0129C161.992 48.417 161.796 48.9994 161.796 49.7601V52.4343C161.796 53.195 161.992 53.7774 162.384 54.1815C162.777 54.5856 163.311 54.7877 163.989 54.7877ZM183.978 56.1783C183.206 56.1783 182.528 56.0238 181.946 55.7147C181.375 55.4057 180.93 54.9719 180.609 54.4133C180.3 53.8428 180.145 53.1831 180.145 52.4343V49.7601C180.145 48.9994 180.3 48.3398 180.609 47.7812C180.93 47.2225 181.375 46.7887 181.946 46.4797C182.528 46.1707 183.206 46.0162 183.978 46.0162C184.751 46.0162 185.422 46.1707 185.993 46.4797C186.575 46.7887 187.021 47.2225 187.33 47.7812C187.651 48.3398 187.811 48.9994 187.811 49.7601V51.4894H181.714V52.4343C181.714 53.2069 181.91 53.8012 182.302 54.2172C182.695 54.6213 183.253 54.8233 183.978 54.8233C184.596 54.8233 185.096 54.7164 185.476 54.5024C185.856 54.2766 186.088 53.9438 186.171 53.504H187.776C187.669 54.3241 187.265 54.9778 186.563 55.4652C185.874 55.9406 185.012 56.1783 183.978 56.1783ZM186.243 50.4198V49.7601C186.243 48.9875 186.046 48.3933 185.654 47.9773C185.274 47.5613 184.715 47.3533 183.978 47.3533C183.253 47.3533 182.695 47.5613 182.302 47.9773C181.91 48.3933 181.714 48.9875 181.714 49.7601V50.2771H186.367L186.243 50.4198ZM193.099 56.1783C192.065 56.1783 191.251 55.9168 190.657 55.3938C190.063 54.859 189.766 54.1399 189.766 53.2366C189.766 52.3214 190.063 51.6024 190.657 51.0794C191.251 50.5564 192.054 50.295 193.064 50.295H196.095V49.3144C196.095 48.7082 195.91 48.2447 195.542 47.9238C195.185 47.591 194.674 47.4246 194.009 47.4246C193.426 47.4246 192.939 47.5494 192.547 47.799C192.155 48.0367 191.929 48.3636 191.869 48.7796H190.265C190.372 47.9357 190.77 47.2641 191.459 46.765C192.149 46.2658 193.01 46.0162 194.044 46.0162C195.173 46.0162 196.065 46.3074 196.719 46.8898C197.372 47.4721 197.699 48.2625 197.699 49.2609V56H196.13V54.128H195.863L196.13 53.8606C196.13 54.5737 195.851 55.1383 195.292 55.5543C194.746 55.9703 194.015 56.1783 193.099 56.1783ZM193.492 54.9125C194.252 54.9125 194.876 54.7223 195.364 54.342C195.851 53.9616 196.095 53.4743 196.095 52.8801V51.4894H193.099C192.565 51.4894 192.143 51.638 191.834 51.9352C191.525 52.2323 191.37 52.6364 191.37 53.1475C191.37 53.6942 191.554 54.128 191.923 54.4489C192.303 54.758 192.826 54.9125 193.492 54.9125ZM205.002 56C204.158 56 203.498 55.7742 203.023 55.3225C202.559 54.8709 202.328 54.235 202.328 53.4149V47.6564H199.564V46.1945H202.328V43.4311H203.932V46.1945H207.854V47.6564H203.932V53.4149C203.932 54.1637 204.289 54.5381 205.002 54.5381H207.676V56H205.002ZM210.076 56V54.5381H213.552V47.6564H210.522V46.1945H215.157V54.5381H218.455V56H210.076ZM214.176 44.4295C213.784 44.4295 213.475 44.3284 213.249 44.1264C213.023 43.9243 212.911 43.651 212.911 43.3063C212.911 42.9497 213.023 42.6704 213.249 42.4683C213.475 42.2544 213.784 42.1474 214.176 42.1474C214.569 42.1474 214.878 42.2544 215.103 42.4683C215.329 42.6704 215.442 42.9497 215.442 43.3063C215.442 43.651 215.329 43.9243 215.103 44.1264C214.878 44.3284 214.569 44.4295 214.176 44.4295ZM220.178 56V46.1945H221.782V48.0664H222.121L221.782 48.4408C221.782 47.6683 222.014 47.074 222.477 46.658C222.941 46.2301 223.583 46.0162 224.403 46.0162C225.389 46.0162 226.174 46.3192 226.756 46.9254C227.339 47.5316 227.63 48.3576 227.63 49.4035V56H226.025V49.5818C226.025 48.8806 225.835 48.3457 225.455 47.9773C225.086 47.5969 224.581 47.4068 223.939 47.4068C223.274 47.4068 222.745 47.6088 222.353 48.0129C221.972 48.417 221.782 48.9994 221.782 49.7601V56H220.178ZM231.385 59.2091V57.7472H234.505C235.004 57.7472 235.366 57.6343 235.592 57.4084C235.83 57.1826 235.949 56.832 235.949 56.3566V55.1086L235.984 53.3258H235.663L235.966 53.0583C235.966 53.7715 235.729 54.336 235.253 54.752C234.778 55.168 234.142 55.376 233.346 55.376C232.335 55.376 231.539 55.0492 230.957 54.3955C230.374 53.7299 230.083 52.8385 230.083 51.7212V49.6531C230.083 48.5359 230.374 47.6504 230.957 46.9967C231.539 46.343 232.335 46.0162 233.346 46.0162C234.142 46.0162 234.778 46.2242 235.253 46.6402C235.729 47.0562 235.966 47.6207 235.966 48.3338L235.663 48.0664H235.966V46.1945H237.553V56.3566C237.553 57.2361 237.28 57.9314 236.733 58.4425C236.198 58.9536 235.449 59.2091 234.487 59.2091H231.385ZM233.827 53.9854C234.493 53.9854 235.016 53.7774 235.396 53.3614C235.776 52.9454 235.966 52.369 235.966 51.6321V49.7601C235.966 49.0232 235.776 48.4468 235.396 48.0308C235.016 47.6148 234.493 47.4068 233.827 47.4068C233.15 47.4068 232.621 47.6088 232.24 48.0129C231.872 48.417 231.688 48.9994 231.688 49.7601V51.6321C231.688 52.3927 231.872 52.9751 232.24 53.3792C232.621 53.7834 233.15 53.9854 233.827 53.9854Z" fill="black"></path><rect x="380" y="71" width="34" height="34" fill="black"></rect><path d="M397.707 80.2929C397.317 79.9024 396.683 79.9024 396.293 80.2929L389.929 86.6569C389.538 87.0474 389.538 87.6805 389.929 88.0711C390.319 88.4616 390.953 88.4616 391.343 88.0711L397 82.4142L402.657 88.0711C403.047 88.4616 403.681 88.4616 404.071 88.0711C404.462 87.6805 404.462 87.0474 404.071 86.6569L397.707 80.2929ZM398 95L398 81L396 81L396 95L398 95Z" fill="white"></path><path d="M23.7741 81.7778C22.1613 82.5989 21.8974 83.4493 21.8974 87.8772C21.8974 91.8066 21.8974 91.8653 22.6598 92.4517C23.6568 93.2142 24.2433 93.2142 25.2403 92.4517C26.0027 91.8359 26.0321 91.7773 25.9441 88.8742C25.8854 86.4403 25.7681 85.8831 25.4163 85.8831C25.0644 85.8831 24.9471 86.4403 24.8298 88.4343C24.6832 91.1615 24.3019 91.9826 23.5102 91.3081C23.1583 91.0149 23.0703 90.3111 23.0703 88.0531C23.0703 84.0651 23.6568 82.8334 25.5042 82.8041C26.5306 82.8041 27.381 83.6838 27.6449 85.0034C27.9675 86.8215 27.6449 91.66 27.0877 92.6863C26.1787 94.3871 24.3313 94.9443 22.3372 94.1232C20.871 93.5074 20.3432 92.2465 20.1672 88.8156C20.0206 86.4696 19.9033 85.8831 19.5514 85.8831C19.1996 85.8831 19.0823 86.4403 19.0236 88.8156C18.965 90.4284 19.0236 92.0412 19.1116 92.4224C19.3755 93.4488 21.2522 95.3548 22.3959 95.736C24.5659 96.4398 27.1464 95.4135 28.29 93.4194C28.8765 92.3638 28.9351 91.8359 28.9351 87.9652V83.6838L27.9675 82.6282C26.8531 81.3966 25.211 81.0447 23.7741 81.7778Z" fill="black"></path><path d="M47.3506 81.6312C47.0867 81.8071 46.7348 82.3643 46.5589 82.8921C46.3536 83.5079 45.8551 84.0358 45.1513 84.417C43.9784 85.0328 43.5678 86.0298 44.1836 86.7629C44.3889 87.0268 44.4182 87.2028 44.1836 87.3494C44.0077 87.4667 43.8904 88.9329 43.8904 91.1615C43.8904 94.7391 43.8904 94.7977 44.6528 95.3842C45.3859 95.9414 45.8258 96 50.3417 96C54.8576 96 55.2974 95.9414 56.0306 95.3842C56.793 94.7977 56.793 94.7391 56.793 91.1029C56.793 87.7013 56.7637 87.4374 56.2065 87.2907C55.5027 87.1148 55.5027 87.2321 56.2065 85.7072C56.9982 83.9185 56.9689 82.9801 56.0306 82.247C55.1215 81.5139 53.3621 81.162 52.7169 81.5432C52.453 81.6898 52.1304 82.1004 51.9545 82.4523C51.544 83.332 50.7522 83.244 49.5499 82.2177C48.4943 81.2793 48.1424 81.1913 47.3506 81.6312ZM50.9575 84.5636H52.0132L51.3973 85.8832L50.7815 87.1735H48.7289C47.116 87.1735 46.5295 87.0562 45.9724 86.587C45.1806 85.9418 45.1806 85.9712 46.4416 85.326C47.0281 85.0328 47.4972 84.4756 47.7318 83.8305L48.113 82.8042L49.0221 83.6839C49.6965 84.329 50.2244 84.5636 50.9575 84.5636ZM54.5643 83.0974C55.5027 83.4493 55.5027 83.7719 54.711 85.7072C54.1538 87.0268 53.9779 87.2028 53.2448 87.2028C52.2184 87.2028 52.2477 87.2321 53.0102 85.7659C53.4794 84.8275 53.538 84.4756 53.2741 83.9771C52.7169 82.9215 53.2154 82.5696 54.5643 83.0974ZM55.62 91.0442C55.62 94.6804 55.8253 94.5338 50.4003 94.5338C47.1747 94.5338 45.6498 94.4165 45.4152 94.1819C45.1806 93.9473 45.0633 92.8623 45.0633 91.2495V88.669H50.3417H55.62V91.0442Z" fill="black"></path><path d="M48.6702 90.3112C48.4357 90.927 49.0808 91.3082 50.3417 91.3082C51.6027 91.3082 52.2478 90.927 52.0132 90.3112C51.8666 89.9593 51.4267 89.842 50.3417 89.842C49.2567 89.842 48.8169 89.9593 48.6702 90.3112Z" fill="black"></path><path d="M74.6514 81.7485C70.2821 83.3027 68.2588 87.7599 70.1355 91.7187C71.3671 94.2992 74.5341 96.1759 77.2026 95.912C84.0351 95.2082 86.469 86.7629 80.9854 82.8628C78.8741 81.3379 76.7921 80.9861 74.6514 81.7485ZM77.4372 83.9185C77.7304 84.5343 77.965 85.7072 77.9944 86.499L78.053 87.9359L76.6161 88.0238L75.1792 88.1118L75.3845 86.6163C75.5898 84.9741 76.3522 82.8042 76.7334 82.8042C76.8507 82.8042 77.1733 83.3027 77.4372 83.9185ZM74.1529 85.6779L73.6837 88.1118L72.3348 88.0238C71.1325 87.9359 71.0152 87.8772 71.1032 87.2321C71.2498 86.1764 72.2175 84.7982 73.4198 83.9185C74.0063 83.4493 74.5048 83.1267 74.5341 83.1854C74.5634 83.2147 74.3875 84.329 74.1529 85.6779ZM81.4546 85.326C81.8945 85.9418 82.305 86.7922 82.3343 87.2028C82.4516 87.8772 82.3636 87.9359 81.1027 88.0238L79.7538 88.1118L79.4312 86.0591C79.226 84.9448 78.9914 83.8012 78.8741 83.5079C78.5222 82.5696 80.6042 84.0064 81.4546 85.326ZM73.9476 90.6337C74.0649 91.4254 74.2702 92.4811 74.3875 92.9796C74.6807 94.0939 74.6514 94.0939 73.4785 93.5074C72.2175 92.833 70.9566 90.663 71.1325 89.4607C71.1325 89.3434 71.7483 89.2555 72.4521 89.2555H73.7717L73.9476 90.6337ZM78.0823 90.751C77.8477 92.3931 77.0853 94.5338 76.7334 94.5338C76.3815 94.5338 75.6191 92.3931 75.3845 90.751L75.1792 89.2555H76.7334H78.2876L78.0823 90.751ZM82.393 90.0472C82.0997 91.3375 81.22 92.5691 80.047 93.4195C79.4606 93.8887 78.9621 94.2112 78.9327 94.1526C78.9034 94.1232 79.0794 93.0089 79.3139 91.66L79.7831 89.2555H81.1907C82.5982 89.2555 82.5982 89.2555 82.393 90.0472Z" fill="black"></path></svg> 