<?xml version="1.0" encoding="UTF-8"?> <svg xmlns="http://www.w3.org/2000/svg" width="226" height="140" viewBox="0 0 226 140" fill="none"><mask id="path-1-inside-1_30_544" fill="white"><path fill-rule="evenodd" clip-rule="evenodd" d="M226 103.938L226 0L-1.22392e-05 1.97575e-05L0 140L189.937 140L189.875 139.938L225.938 103.875L226 103.938Z"></path></mask><path fill-rule="evenodd" clip-rule="evenodd" d="M226 103.938L226 0L-1.22392e-05 1.97575e-05L0 140L189.937 140L189.875 139.938L225.938 103.875L226 103.938Z" fill="#1E1E1E" fill-opacity="0.47"></path><path d="M226 0L227 -8.74228e-08L227 -1L226 -1L226 0ZM226 103.938L225.293 104.645L227 106.352L227 103.938L226 103.938ZM-1.22392e-05 1.97575e-05L-1.23266e-05 -0.99998L-1.00001 -0.99998L-1.00001 1.9845e-05L-1.22392e-05 1.97575e-05ZM0 140L-1 140L-1 141L8.74228e-08 141L0 140ZM189.937 140L189.937 141L192.352 141L190.645 139.293L189.937 140ZM189.875 139.938L189.168 139.231L188.461 139.938L189.168 140.645L189.875 139.938ZM225.938 103.875L226.645 103.168L225.938 102.461L225.23 103.168L225.938 103.875ZM225 8.74228e-08L225 103.938L227 103.938L227 -8.74228e-08L225 8.74228e-08ZM-1.21518e-05 1.00002L226 1L226 -1L-1.23266e-05 -0.99998L-1.21518e-05 1.00002ZM1 140L0.999988 1.96701e-05L-1.00001 1.9845e-05L-1 140L1 140ZM189.937 139L-8.74228e-08 139L8.74228e-08 141L189.937 141L189.937 139ZM190.645 139.293L190.582 139.231L189.168 140.645L189.23 140.707L190.645 139.293ZM190.582 140.645L226.645 104.582L225.23 103.168L189.168 139.231L190.582 140.645ZM225.23 104.582L225.293 104.645L226.707 103.231L226.645 103.168L225.23 104.582Z" fill="#3B3B3B" fill-opacity="0.24" mask="url(#path-1-inside-1_30_544)"></path><path d="M75.4366 77V64.3427H79.5112C80.2973 64.3427 80.9793 64.4987 81.5572 64.8108C82.1352 65.1114 82.5802 65.5391 82.8923 66.0939C83.216 66.6488 83.3778 67.3076 83.3778 68.0705C83.3778 68.8219 83.216 69.4808 82.8923 70.0472C82.5802 70.602 82.1352 71.0355 81.5572 71.3476C80.9793 71.6481 80.2973 71.7984 79.5112 71.7984H76.9971V77H75.4366ZM76.9971 70.3939H79.5112C80.1932 70.3939 80.7365 70.1859 81.1411 69.7697C81.5572 69.342 81.7653 68.7756 81.7653 68.0705C81.7653 67.3539 81.5572 66.7875 81.1411 66.3713C80.7365 65.9552 80.1932 65.7471 79.5112 65.7471H76.9971V70.3939ZM88.7287 77.1734C87.6306 77.1734 86.7521 76.8497 86.0932 76.2024C85.4343 75.5435 85.1049 74.6535 85.1049 73.5322V67.4637H86.6654V73.5322C86.6654 74.2489 86.8503 74.8095 87.2202 75.2141C87.5901 75.6071 88.0929 75.8036 88.7287 75.8036C89.376 75.8036 89.8846 75.6071 90.2545 75.2141C90.636 74.8095 90.8267 74.2489 90.8267 73.5322V67.4637H92.3872V73.5322C92.3872 74.6535 92.052 75.5435 91.3815 76.2024C90.7111 76.8497 89.8268 77.1734 88.7287 77.1734ZM94.3917 77V67.4637H95.7615V68.608H96.0736L95.8308 69.0242C95.8308 68.4924 95.9695 68.0705 96.247 67.7584C96.5359 67.4463 96.9232 67.2903 97.4087 67.2903C97.9404 67.2903 98.3507 67.4868 98.6397 67.8798C98.9287 68.2728 99.0732 68.8277 99.0732 69.5443L98.605 68.608H99.3333L99.0038 69.0242C99.0038 68.4924 99.1483 68.0705 99.4373 67.7584C99.7378 67.4463 100.131 67.2903 100.616 67.2903C101.217 67.2903 101.68 67.5157 102.003 67.9665C102.339 68.4173 102.506 69.0126 102.506 69.7524V77H101.067V69.7351C101.067 69.342 100.98 69.0357 100.807 68.8161C100.645 68.5965 100.402 68.4867 100.079 68.4867C99.7667 68.4867 99.5182 68.5965 99.3333 68.8161C99.1599 69.0242 99.0732 69.3247 99.0732 69.7177V77H97.8248V69.7351C97.8248 69.3305 97.7323 69.0242 97.5474 68.8161C97.374 68.5965 97.1255 68.4867 96.8018 68.4867C96.4781 68.4867 96.2354 68.5965 96.0736 68.8161C95.9117 69.0242 95.8308 69.3247 95.8308 69.7177V77H94.3917ZM104.545 80.121V67.4637H106.106V69.2842H106.418L106.106 69.6484C106.106 68.9201 106.343 68.348 106.817 67.9318C107.302 67.5041 107.938 67.2903 108.724 67.2903C109.684 67.2903 110.446 67.6082 111.013 68.2439C111.591 68.8681 111.88 69.7293 111.88 70.8274V73.6189C111.88 74.3472 111.747 74.9771 111.481 75.5089C111.227 76.0406 110.863 76.4509 110.389 76.7399C109.926 77.0289 109.371 77.1734 108.724 77.1734C107.95 77.1734 107.32 76.9595 106.834 76.5319C106.349 76.1042 106.106 75.532 106.106 74.8153L106.418 75.1794H106.071L106.106 77.3468V80.121H104.545ZM108.204 75.821C108.863 75.821 109.377 75.6245 109.747 75.2314C110.129 74.8384 110.319 74.272 110.319 73.5322V70.9314C110.319 70.1916 110.129 69.6252 109.747 69.2322C109.377 68.8392 108.863 68.6427 108.204 68.6427C107.568 68.6427 107.06 68.845 106.678 69.2496C106.297 69.6541 106.106 70.2148 106.106 70.9314V73.5322C106.106 74.2489 106.297 74.8095 106.678 75.2141C107.06 75.6187 107.568 75.821 108.204 75.821ZM124.003 77V64.3254H131.459V65.7471H125.529V69.9605H131.008V71.3822H125.564V77H124.003ZM137.243 77.1734C136.145 77.1734 135.267 76.8497 134.608 76.2024C133.949 75.5435 133.62 74.6535 133.62 73.5322V67.4637H135.18V73.5322C135.18 74.2489 135.365 74.8095 135.735 75.2141C136.105 75.6071 136.608 75.8036 137.243 75.8036C137.891 75.8036 138.399 75.6071 138.769 75.2141C139.151 74.8095 139.341 74.2489 139.341 73.5322V67.4637H140.902V73.5322C140.902 74.6535 140.567 75.5435 139.896 76.2024C139.226 76.8497 138.342 77.1734 137.243 77.1734ZM143.357 77V67.4637H144.918V69.2842H145.247L144.918 69.6484C144.918 68.897 145.143 68.3191 145.594 67.9145C146.045 67.4984 146.669 67.2903 147.467 67.2903C148.426 67.2903 149.189 67.585 149.755 68.1746C150.322 68.7641 150.605 69.5674 150.605 70.5847V77H149.044V70.758C149.044 70.0761 148.859 69.5559 148.489 69.1976C148.131 68.8277 147.64 68.6427 147.016 68.6427C146.368 68.6427 145.854 68.8392 145.473 69.2322C145.103 69.6252 144.918 70.1916 144.918 70.9314V77H143.357Z" fill="white"></path></svg> 