<?xml version="1.0" encoding="UTF-8"?> <svg xmlns="http://www.w3.org/2000/svg" width="226" height="140" viewBox="0 0 226 140" fill="none"><mask id="path-1-inside-1_30_543" fill="white"><path fill-rule="evenodd" clip-rule="evenodd" d="M226 36.0624V140H0V0H189.937L189.875 0.0623779L225.938 36.1248L226 36.0624Z"></path></mask><path fill-rule="evenodd" clip-rule="evenodd" d="M226 36.0624V140H0V0H189.937L189.875 0.0623779L225.938 36.1248L226 36.0624Z" fill="#1E1E1E" fill-opacity="0.47"></path><path d="M226 140H227V141H226V140ZM226 36.0624L225.293 35.3553L227 33.6481V36.0624H226ZM0 140V141H-1V140H0ZM0 0H-1V-1H0V0ZM189.937 0V-1H192.352L190.645 0.707107L189.937 0ZM189.875 0.0623779L189.168 0.769485L188.461 0.0623779L189.168 -0.644729L189.875 0.0623779ZM225.938 36.1248L226.645 36.8319L225.938 37.539L225.23 36.8319L225.938 36.1248ZM225 140V36.0624H227V140H225ZM0 139H226V141H0V139ZM1 0V140H-1V0H1ZM189.937 1H0V-1H189.937V1ZM190.645 0.707107L190.582 0.769485L189.168 -0.644729L189.23 -0.707107L190.645 0.707107ZM190.582 -0.644729L226.645 35.4177L225.23 36.8319L189.168 0.769485L190.582 -0.644729ZM225.23 35.4177L225.293 35.3553L226.707 36.7695L226.645 36.8319L225.23 35.4177Z" fill="#3B3B3B" fill-opacity="0.24" mask="url(#path-1-inside-1_30_543)"></path><path d="M81.0337 65V52.3427H82.5942V63.5782H88.316V65H81.0337ZM90.3378 65V52.3427H94.4124C95.1985 52.3427 95.8804 52.4987 96.4584 52.8108C97.0364 53.1114 97.4814 53.5391 97.7935 54.0939C98.1171 54.6488 98.279 55.3076 98.279 56.0705C98.279 56.8219 98.1171 57.4808 97.7935 58.0472C97.4814 58.602 97.0364 59.0355 96.4584 59.3476C95.8804 59.6481 95.1985 59.7984 94.4124 59.7984H91.8983V65H90.3378ZM91.8983 58.3939H94.4124C95.0944 58.3939 95.6377 58.1859 96.0423 57.7697C96.4584 57.342 96.6665 56.7756 96.6665 56.0705C96.6665 55.3539 96.4584 54.7875 96.0423 54.3713C95.6377 53.9552 95.0944 53.7471 94.4124 53.7471H91.8983V58.3939ZM109.709 65V63.5782H113.142V53.6431L109.709 56.2092V54.4754L112.57 52.3427H114.703V63.5782H117.511V65H109.709ZM123.053 65.1734C122.279 65.1734 121.602 65.0231 121.024 64.7226C120.458 64.4105 120.019 63.977 119.707 63.4222C119.395 62.8558 119.239 62.1969 119.239 61.4456V55.8971C119.239 55.1342 119.395 54.4754 119.707 53.9205C120.019 53.3657 120.458 52.938 121.024 52.6375C121.602 52.3254 122.279 52.1693 123.053 52.1693C123.839 52.1693 124.515 52.3254 125.082 52.6375C125.648 52.938 126.087 53.3657 126.399 53.9205C126.712 54.4754 126.868 55.1342 126.868 55.8971V61.4456C126.868 62.1969 126.712 62.8558 126.399 63.4222C126.087 63.977 125.642 64.4105 125.064 64.7226C124.498 65.0231 123.828 65.1734 123.053 65.1734ZM123.053 63.8383C123.747 63.8383 124.301 63.6187 124.718 63.1794C125.145 62.7286 125.359 62.1507 125.359 61.4456V55.8971C125.359 55.192 125.145 54.6199 124.718 54.1806C124.301 53.7298 123.747 53.5044 123.053 53.5044C122.36 53.5044 121.799 53.7298 121.371 54.1806C120.955 54.6199 120.747 55.192 120.747 55.8971V61.4456C120.747 62.1507 120.955 62.7286 121.371 63.1794C121.799 63.6187 122.36 63.8383 123.053 63.8383ZM123.053 59.6943C122.741 59.6943 122.487 59.5961 122.29 59.3996C122.105 59.2031 122.013 58.943 122.013 58.6193C122.013 58.3072 122.105 58.0587 122.29 57.8738C122.487 57.6773 122.741 57.579 123.053 57.579C123.365 57.579 123.614 57.6773 123.799 57.8738C123.995 58.0587 124.093 58.3072 124.093 58.6193C124.093 58.943 123.995 59.2031 123.799 59.3996C123.614 59.5961 123.365 59.6943 123.053 59.6943ZM132.756 65.1734C131.982 65.1734 131.305 65.0231 130.727 64.7226C130.161 64.4105 129.722 63.977 129.41 63.4222C129.098 62.8558 128.942 62.1969 128.942 61.4456V55.8971C128.942 55.1342 129.098 54.4754 129.41 53.9205C129.722 53.3657 130.161 52.938 130.727 52.6375C131.305 52.3254 131.982 52.1693 132.756 52.1693C133.542 52.1693 134.218 52.3254 134.785 52.6375C135.351 52.938 135.79 53.3657 136.102 53.9205C136.415 54.4754 136.571 55.1342 136.571 55.8971V61.4456C136.571 62.1969 136.415 62.8558 136.102 63.4222C135.79 63.977 135.345 64.4105 134.767 64.7226C134.201 65.0231 133.531 65.1734 132.756 65.1734ZM132.756 63.8383C133.45 63.8383 134.004 63.6187 134.421 63.1794C134.848 62.7286 135.062 62.1507 135.062 61.4456V55.8971C135.062 55.192 134.848 54.6199 134.421 54.1806C134.004 53.7298 133.45 53.5044 132.756 53.5044C132.062 53.5044 131.502 53.7298 131.074 54.1806C130.658 54.6199 130.45 55.192 130.45 55.8971V61.4456C130.45 62.1507 130.658 62.7286 131.074 63.1794C131.502 63.6187 132.062 63.8383 132.756 63.8383ZM132.756 59.6943C132.444 59.6943 132.19 59.5961 131.993 59.3996C131.808 59.2031 131.716 58.943 131.716 58.6193C131.716 58.3072 131.808 58.0587 131.993 57.8738C132.19 57.6773 132.444 57.579 132.756 57.579C133.068 57.579 133.317 57.6773 133.502 57.8738C133.698 58.0587 133.796 58.3072 133.796 58.6193C133.796 58.943 133.698 59.2031 133.502 59.3996C133.317 59.5961 133.068 59.6943 132.756 59.6943ZM137.5 65L146.135 52.3427H147.418L138.783 65H137.5ZM144.973 65.0867C144.245 65.0867 143.661 64.8786 143.222 64.4625C142.783 64.0464 142.563 63.4742 142.563 62.746V61.6189C142.563 60.8907 142.783 60.3185 143.222 59.9024C143.661 59.4863 144.245 59.2782 144.973 59.2782C145.701 59.2782 146.285 59.4863 146.724 59.9024C147.164 60.3185 147.383 60.8907 147.383 61.6189V62.746C147.383 63.4742 147.164 64.0464 146.724 64.4625C146.285 64.8786 145.701 65.0867 144.973 65.0867ZM144.973 63.8903C145.724 63.8903 146.1 63.5089 146.1 62.746V61.6189C146.1 60.8445 145.724 60.4572 144.973 60.4572C144.222 60.4572 143.846 60.8445 143.846 61.6189V62.746C143.846 63.5089 144.222 63.8903 144.973 63.8903ZM139.945 58.0645C139.217 58.0645 138.633 57.8564 138.194 57.4403C137.754 57.0242 137.535 56.452 137.535 55.7238V54.5967C137.535 53.8685 137.754 53.2963 138.194 52.8802C138.633 52.4641 139.217 52.256 139.945 52.256C140.673 52.256 141.257 52.4641 141.696 52.8802C142.135 53.2963 142.355 53.8685 142.355 54.5967V55.7238C142.355 56.452 142.135 57.0242 141.696 57.4403C141.257 57.8564 140.673 58.0645 139.945 58.0645ZM139.945 56.8855C140.696 56.8855 141.072 56.4982 141.072 55.7238V54.5967C141.072 53.8223 140.696 53.435 139.945 53.435C139.575 53.435 139.292 53.5333 139.095 53.7298C138.91 53.9147 138.818 54.2037 138.818 54.5967V55.7238C138.818 56.1168 138.91 56.4115 139.095 56.608C139.292 56.793 139.575 56.8855 139.945 56.8855ZM85.1569 88V75.3427H88.746C89.902 75.3427 90.8036 75.6317 91.4509 76.2096C92.1098 76.7876 92.4392 77.591 92.4392 78.6197C92.4392 79.1977 92.3178 79.7005 92.0751 80.1282C91.8323 80.5559 91.4856 80.8853 91.0348 81.1165C90.5955 81.3477 90.0638 81.4575 89.4396 81.4459V81.1859C90.11 81.1743 90.688 81.3015 91.1735 81.5673C91.6705 81.8332 92.052 82.2146 92.3178 82.7117C92.5952 83.2087 92.734 83.7982 92.734 84.4802C92.734 85.1969 92.5837 85.8211 92.2831 86.3528C91.9826 86.8845 91.5549 87.2949 91.0001 87.5839C90.4452 87.8613 89.7806 88 89.0061 88H85.1569ZM86.6827 86.5956H88.8327C89.561 86.5956 90.1331 86.4048 90.5493 86.0234C90.977 85.6304 91.1908 85.0986 91.1908 84.4282C91.1908 83.7347 90.977 83.174 90.5493 82.7464C90.1331 82.3071 89.561 82.0875 88.8327 82.0875H86.6827V86.5956ZM86.6827 80.7351H88.7287C89.3991 80.7351 89.9251 80.5559 90.3065 80.1976C90.6995 79.8392 90.896 79.3537 90.896 78.7411C90.896 78.1285 90.7053 77.643 90.3239 77.2846C89.9424 76.9263 89.4165 76.7471 88.746 76.7471H86.6827V80.7351ZM98.4316 88.1734C97.3335 88.1734 96.455 87.8497 95.7961 87.2024C95.1373 86.5435 94.8078 85.6535 94.8078 84.5322V78.4637H96.3683V84.5322C96.3683 85.2489 96.5533 85.8095 96.9232 86.2141C97.2931 86.6071 97.7959 86.8036 98.4316 86.8036C99.079 86.8036 99.5876 86.6071 99.9575 86.2141C100.339 85.8095 100.53 85.2489 100.53 84.5322V78.4637H102.09V84.5322C102.09 85.6535 101.755 86.5435 101.084 87.2024C100.414 87.8497 99.5298 88.1734 98.4316 88.1734ZM104.875 88V78.4637H106.401V80.2842H106.765L106.262 81.4113C106.262 80.3825 106.482 79.608 106.921 79.0879C107.372 78.5561 108.036 78.2903 108.915 78.2903C109.92 78.2903 110.718 78.6082 111.308 79.2439C111.909 79.8681 112.209 80.7177 112.209 81.7927V82.3649H110.649V81.9314C110.649 81.1801 110.464 80.6079 110.094 80.2149C109.736 79.8103 109.221 79.608 108.551 79.608C107.892 79.608 107.372 79.8103 106.99 80.2149C106.62 80.6195 106.435 81.1916 106.435 81.9314V88H104.875ZM114.248 88V78.4637H115.809V80.2842H116.138L115.809 80.6484C115.809 79.897 116.034 79.3191 116.485 78.9145C116.936 78.4984 117.56 78.2903 118.358 78.2903C119.317 78.2903 120.08 78.585 120.646 79.1746C121.213 79.7641 121.496 80.5674 121.496 81.5847V88H119.936V81.758C119.936 81.0761 119.751 80.5559 119.381 80.1976C119.022 79.8277 118.531 79.6427 117.907 79.6427C117.26 79.6427 116.745 79.8392 116.364 80.2322C115.994 80.6252 115.809 81.1916 115.809 81.9314V88H114.248ZM127.558 88.1734C126.806 88.1734 126.148 88.0231 125.581 87.7226C125.026 87.422 124.593 87.0001 124.281 86.4568C123.98 85.902 123.83 85.2605 123.83 84.5322V81.9314C123.83 81.1916 123.98 80.5501 124.281 80.0068C124.593 79.4635 125.026 79.0416 125.581 78.7411C126.148 78.4406 126.806 78.2903 127.558 78.2903C128.309 78.2903 128.962 78.4406 129.517 78.7411C130.083 79.0416 130.517 79.4635 130.817 80.0068C131.13 80.5501 131.286 81.1916 131.286 81.9314V83.6133H125.356V84.5322C125.356 85.2836 125.546 85.8616 125.928 86.2661C126.309 86.6591 126.853 86.8556 127.558 86.8556C128.159 86.8556 128.644 86.7516 129.014 86.5435C129.384 86.3239 129.61 86.0003 129.69 85.5726H131.251C131.147 86.3702 130.754 87.0059 130.072 87.4798C129.401 87.9422 128.563 88.1734 127.558 88.1734ZM129.76 82.573V81.9314C129.76 81.1801 129.569 80.6021 129.188 80.1976C128.818 79.793 128.274 79.5907 127.558 79.5907C126.853 79.5907 126.309 79.793 125.928 80.1976C125.546 80.6021 125.356 81.1801 125.356 81.9314V82.4343H129.881L129.76 82.573ZM136.706 88.1734C135.758 88.1734 134.989 87.8555 134.4 87.2198C133.822 86.584 133.533 85.7228 133.533 84.6363V81.8447C133.533 80.7466 133.822 79.8797 134.4 79.2439C134.978 78.6082 135.746 78.2903 136.706 78.2903C137.492 78.2903 138.122 78.5041 138.596 78.9318C139.07 79.3595 139.307 79.9317 139.307 80.6484L138.995 80.2842H139.341L139.307 78.1169V75.3427H140.867V88H139.307V86.1794H138.995L139.307 85.8153C139.307 86.5435 139.07 87.1215 138.596 87.5492C138.122 87.9653 137.492 88.1734 136.706 88.1734ZM137.226 86.821C137.873 86.821 138.382 86.6187 138.752 86.2141C139.122 85.8095 139.307 85.2489 139.307 84.5322V81.9314C139.307 81.2148 139.122 80.6541 138.752 80.2496C138.382 79.845 137.873 79.6427 137.226 79.6427C136.567 79.6427 136.047 79.8392 135.666 80.2322C135.284 80.6252 135.093 81.1916 135.093 81.9314V84.5322C135.093 85.272 135.284 85.8384 135.666 86.2314C136.047 86.6245 136.567 86.821 137.226 86.821Z" fill="white"></path></svg> 