<?xml version="1.0" encoding="UTF-8"?> <svg xmlns="http://www.w3.org/2000/svg" width="250" height="92" viewBox="0 0 250 92" fill="none"><g filter="url(#filter0_b_32_545)"><rect width="250" height="92" fill="#1E1E1E" fill-opacity="0.47"></rect><rect x="0.5" y="0.5" width="249" height="91" stroke="#3B3B3B" stroke-opacity="0.24"></rect></g><path opacity="0.6" d="M16.0167 58V49.9327H18.1054C18.6284 49.9327 19.0779 50.0322 19.4536 50.2311C19.8367 50.43 20.1314 50.71 20.3377 51.071C20.5513 51.432 20.6582 51.8593 20.6582 52.3529V55.5688C20.6582 56.0624 20.5513 56.4934 20.3377 56.8617C20.1314 57.2227 19.8367 57.5027 19.4536 57.7016C19.0779 57.9005 18.6284 58 18.1054 58H16.0167ZM17.0113 57.1159H18.1054C18.5916 57.1159 18.971 56.9796 19.2436 56.707C19.5236 56.4344 19.6636 56.055 19.6636 55.5688V52.3529C19.6636 51.874 19.5236 51.4983 19.2436 51.2257C18.971 50.9531 18.5916 50.8168 18.1054 50.8168H17.0113V57.1159ZM24.4996 58.0884C24.0134 58.0884 23.5934 57.9963 23.2398 57.8121C22.8862 57.6279 22.6099 57.3627 22.411 57.0165C22.2194 56.6628 22.1236 56.2466 22.1236 55.7677V54.1542C22.1236 53.668 22.2194 53.2517 22.411 52.9054C22.6099 52.5592 22.8862 52.294 23.2398 52.1098C23.5934 51.9256 24.0134 51.8335 24.4996 51.8335C24.9859 51.8335 25.4058 51.9256 25.7594 52.1098C26.1131 52.294 26.3857 52.5592 26.5772 52.9054C26.7761 53.2517 26.8756 53.6643 26.8756 54.1432V55.7677C26.8756 56.2466 26.7761 56.6628 26.5772 57.0165C26.3857 57.3627 26.1131 57.6279 25.7594 57.8121C25.4058 57.9963 24.9859 58.0884 24.4996 58.0884ZM24.4996 57.2043C24.9343 57.2043 25.2732 57.0828 25.5163 56.8396C25.7594 56.5965 25.881 56.2392 25.881 55.7677V54.1542C25.881 53.6827 25.7594 53.3254 25.5163 53.0823C25.2732 52.8391 24.9343 52.7176 24.4996 52.7176C24.0723 52.7176 23.7334 52.8391 23.4829 53.0823C23.2398 53.3254 23.1182 53.6827 23.1182 54.1542V55.7677C23.1182 56.2392 23.2398 56.5965 23.4829 56.8396C23.7334 57.0828 24.0723 57.2043 24.4996 57.2043ZM30.6839 58.1105C30.205 58.1105 29.7851 58.0147 29.4241 57.8232C29.0704 57.6316 28.7942 57.3627 28.5953 57.0165C28.4037 56.6628 28.3079 56.2539 28.3079 55.7898V54.1321C28.3079 53.6606 28.4037 53.2517 28.5953 52.9054C28.7942 52.5592 29.0704 52.2903 29.4241 52.0987C29.7851 51.9072 30.205 51.8114 30.6839 51.8114C31.1628 51.8114 31.579 51.9072 31.9327 52.0987C32.2937 52.2903 32.57 52.5592 32.7615 52.9054C32.9604 53.2517 33.0599 53.6606 33.0599 54.1321V55.2041H29.2804V55.7898C29.2804 56.2687 29.402 56.637 29.6451 56.8949C29.8882 57.1454 30.2345 57.2706 30.6839 57.2706C31.067 57.2706 31.3764 57.2043 31.6122 57.0717C31.848 56.9317 31.9916 56.7254 32.0432 56.4528H33.0378C32.9715 56.9612 32.721 57.3664 32.2863 57.6685C31.859 57.9632 31.3249 58.1105 30.6839 58.1105ZM32.0874 54.541V54.1321C32.0874 53.6532 31.9658 53.2849 31.7227 53.027C31.487 52.7692 31.1407 52.6402 30.6839 52.6402C30.2345 52.6402 29.8882 52.7692 29.6451 53.027C29.402 53.2849 29.2804 53.6532 29.2804 54.1321V54.4526H32.1648L32.0874 54.541ZM36.6803 58.0884C36.2678 58.0884 35.9068 58.0258 35.5973 57.9005C35.2953 57.7679 35.0521 57.5837 34.868 57.348C34.6911 57.1122 34.5843 56.8323 34.5475 56.5081H35.5421C35.5863 56.7218 35.7042 56.8912 35.8957 57.0165C36.0946 57.1417 36.3562 57.2043 36.6803 57.2043H37.1445C37.5349 57.2043 37.826 57.127 38.0175 56.9722C38.2091 56.8102 38.3048 56.5965 38.3048 56.3313C38.3048 56.0734 38.2164 55.8708 38.0396 55.7235C37.8702 55.5688 37.616 55.4656 37.2771 55.414L36.4593 55.2814C35.8626 55.1783 35.4168 54.9941 35.1221 54.7289C34.8348 54.4563 34.6911 54.0621 34.6911 53.5464C34.6911 53.0012 34.8643 52.5813 35.2105 52.2866C35.5568 51.9845 36.0762 51.8335 36.7687 51.8335H37.1887C37.7707 51.8335 38.2385 51.9698 38.5922 52.2424C38.9458 52.515 39.1595 52.8833 39.2331 53.3475H38.2385C38.1943 53.1559 38.0838 53.0049 37.907 52.8944C37.7302 52.7765 37.4907 52.7176 37.1887 52.7176H36.7687C36.393 52.7176 36.1167 52.7876 35.9399 52.9276C35.7705 53.0675 35.6857 53.2775 35.6857 53.5575C35.6857 53.808 35.7594 53.9921 35.9068 54.11C36.0541 54.2279 36.2862 54.3126 36.603 54.3642L37.4208 54.4968C38.0765 54.5999 38.5516 54.7915 38.8463 55.0715C39.1484 55.3514 39.2994 55.7566 39.2994 56.2871C39.2994 56.847 39.1189 57.289 38.7579 57.6132C38.4043 57.93 37.8665 58.0884 37.1445 58.0884H36.6803ZM46.9382 58V49.9327H47.9328V51.9219V53.0823H48.1427L47.9328 53.3143C47.9328 52.8355 48.0764 52.4671 48.3637 52.2092C48.6511 51.944 49.0489 51.8114 49.5573 51.8114C50.1688 51.8114 50.655 51.9993 51.016 52.375C51.377 52.7507 51.5575 53.2628 51.5575 53.9111V58H50.5629V54.0216C50.5629 53.5869 50.445 53.2517 50.2093 53.016C49.9809 52.7728 49.6678 52.6513 49.2699 52.6513C48.8574 52.6513 48.5295 52.7802 48.2864 53.0381C48.0506 53.2959 47.9328 53.6606 47.9328 54.1321V58H46.9382ZM55.4211 58.1105C54.9422 58.1105 54.5223 58.0147 54.1612 57.8232C53.8076 57.6316 53.5313 57.3627 53.3324 57.0165C53.1409 56.6628 53.0451 56.2539 53.0451 55.7898V54.1321C53.0451 53.6606 53.1409 53.2517 53.3324 52.9054C53.5313 52.5592 53.8076 52.2903 54.1612 52.0987C54.5223 51.9072 54.9422 51.8114 55.4211 51.8114C55.9 51.8114 56.3162 51.9072 56.6698 52.0987C57.0308 52.2903 57.3071 52.5592 57.4987 52.9054C57.6976 53.2517 57.7971 53.6606 57.7971 54.1321V55.2041H54.0176V55.7898C54.0176 56.2687 54.1391 56.637 54.3823 56.8949C54.6254 57.1454 54.9717 57.2706 55.4211 57.2706C55.8042 57.2706 56.1136 57.2043 56.3494 57.0717C56.5851 56.9317 56.7288 56.7254 56.7804 56.4528H57.775C57.7086 56.9612 57.4582 57.3664 57.0235 57.6685C56.5962 57.9632 56.062 58.1105 55.4211 58.1105ZM56.8246 54.541V54.1321C56.8246 53.6532 56.703 53.2849 56.4599 53.027C56.2241 52.7692 55.8779 52.6402 55.4211 52.6402C54.9717 52.6402 54.6254 52.7692 54.3823 53.027C54.1391 53.2849 54.0176 53.6532 54.0176 54.1321V54.4526H56.9019L56.8246 54.541ZM65.491 58V49.9327H66.4856V51.9219V53.0823H66.6956L66.4856 53.3143C66.4856 52.8355 66.6293 52.4671 66.9166 52.2092C67.2039 51.944 67.6018 51.8114 68.1101 51.8114C68.7216 51.8114 69.2079 51.9993 69.5689 52.375C69.9299 52.7507 70.1104 53.2628 70.1104 53.9111V58H69.1158V54.0216C69.1158 53.5869 68.9979 53.2517 68.7622 53.016C68.5338 52.7728 68.2206 52.6513 67.8228 52.6513C67.4102 52.6513 67.0824 52.7802 66.8393 53.0381C66.6035 53.2959 66.4856 53.6606 66.4856 54.1321V58H65.491ZM73.4435 58.1105C72.8025 58.1105 72.2979 57.9484 71.9295 57.6243C71.5611 57.2927 71.3769 56.847 71.3769 56.2871C71.3769 55.7198 71.5611 55.2741 71.9295 54.9499C72.2979 54.6257 72.7952 54.4637 73.4214 54.4637H75.3001V53.8558C75.3001 53.4801 75.1859 53.1928 74.9575 52.9939C74.7365 52.7876 74.4197 52.6844 74.0071 52.6844C73.6461 52.6844 73.344 52.7618 73.1009 52.9165C72.8578 53.0638 72.7178 53.2665 72.681 53.5243H71.6864C71.7527 53.0012 71.9995 52.585 72.4268 52.2755C72.8541 51.9661 73.3882 51.8114 74.0292 51.8114C74.7291 51.8114 75.2817 51.9919 75.6869 52.3529C76.0921 52.7139 76.2947 53.2038 76.2947 53.8227V58H75.3222V56.8396H75.1564L75.3222 56.6739C75.3222 57.1159 75.149 57.4659 74.8028 57.7237C74.4639 57.9816 74.0108 58.1105 73.4435 58.1105ZM73.6866 57.3259C74.1581 57.3259 74.5449 57.208 74.847 56.9722C75.149 56.7365 75.3001 56.4344 75.3001 56.0661V55.2041H73.4435C73.112 55.2041 72.8504 55.2962 72.6589 55.4804C72.4673 55.6645 72.3715 55.915 72.3715 56.2318C72.3715 56.5707 72.4857 56.8396 72.7141 57.0386C72.9499 57.2301 73.274 57.3259 73.6866 57.3259ZM79.4841 58L77.4507 51.9219H78.4674L79.8157 56.0108C79.8967 56.2539 79.9704 56.4897 80.0367 56.7181C80.103 56.9391 80.1509 57.1122 80.1803 57.2375C80.2172 57.1122 80.2687 56.9391 80.3351 56.7181C80.4014 56.4897 80.4714 56.2539 80.545 56.0108L81.8601 51.9219H82.8658L80.8324 58H79.4841ZM86.3425 58.1105C85.8637 58.1105 85.4437 58.0147 85.0827 57.8232C84.7291 57.6316 84.4528 57.3627 84.2539 57.0165C84.0623 56.6628 83.9665 56.2539 83.9665 55.7898V54.1321C83.9665 53.6606 84.0623 53.2517 84.2539 52.9054C84.4528 52.5592 84.7291 52.2903 85.0827 52.0987C85.4437 51.9072 85.8637 51.8114 86.3425 51.8114C86.8214 51.8114 87.2377 51.9072 87.5913 52.0987C87.9523 52.2903 88.2286 52.5592 88.4201 52.9054C88.6191 53.2517 88.7185 53.6606 88.7185 54.1321V55.2041H84.939V55.7898C84.939 56.2687 85.0606 56.637 85.3037 56.8949C85.5469 57.1454 85.8931 57.2706 86.3425 57.2706C86.7256 57.2706 87.0351 57.2043 87.2708 57.0717C87.5066 56.9317 87.6502 56.7254 87.7018 56.4528H88.6964C88.6301 56.9612 88.3796 57.3664 87.9449 57.6685C87.5176 57.9632 86.9835 58.1105 86.3425 58.1105ZM87.746 54.541V54.1321C87.746 53.6532 87.6245 53.2849 87.3813 53.027C87.1456 52.7692 86.7993 52.6402 86.3425 52.6402C85.8931 52.6402 85.5469 52.7692 85.3037 53.027C85.0606 53.2849 84.939 53.6532 84.939 54.1321V54.4526H87.8234L87.746 54.541ZM98.1807 58.1105C97.5397 58.1105 97.035 57.9484 96.6667 57.6243C96.2983 57.2927 96.1141 56.847 96.1141 56.2871C96.1141 55.7198 96.2983 55.2741 96.6667 54.9499C97.035 54.6257 97.5323 54.4637 98.1586 54.4637H100.037V53.8558C100.037 53.4801 99.923 53.1928 99.6947 52.9939C99.4736 52.7876 99.1568 52.6844 98.7443 52.6844C98.3833 52.6844 98.0812 52.7618 97.8381 52.9165C97.5949 53.0638 97.455 53.2665 97.4181 53.5243H96.4235C96.4898 53.0012 96.7366 52.585 97.164 52.2755C97.5913 51.9661 98.1254 51.8114 98.7664 51.8114C99.4663 51.8114 100.019 51.9919 100.424 52.3529C100.829 52.7139 101.032 53.2038 101.032 53.8227V58H100.059V56.8396H99.8936L100.059 56.6739C100.059 57.1159 99.8862 57.4659 99.5399 57.7237C99.201 57.9816 98.7479 58.1105 98.1807 58.1105ZM98.4238 57.3259C98.8953 57.3259 99.2821 57.208 99.5841 56.9722C99.8862 56.7365 100.037 56.4344 100.037 56.0661V55.2041H98.1807C97.8491 55.2041 97.5876 55.2962 97.396 55.4804C97.2045 55.6645 97.1087 55.915 97.1087 56.2318C97.1087 56.5707 97.2229 56.8396 97.4513 57.0386C97.687 57.2301 98.0112 57.3259 98.4238 57.3259ZM102.597 58V51.9219H103.591V53.0823H103.801L103.591 53.3143C103.591 52.8355 103.735 52.4671 104.022 52.2092C104.31 51.944 104.708 51.8114 105.216 51.8114C105.827 51.8114 106.314 51.9993 106.675 52.375C107.036 52.7507 107.216 53.2628 107.216 53.9111V58H106.222V54.0216C106.222 53.5869 106.104 53.2554 105.868 53.027C105.64 52.7913 105.326 52.6734 104.929 52.6734C104.516 52.6734 104.188 52.7986 103.945 53.0491C103.709 53.2996 103.591 53.6606 103.591 54.1321V58H102.597ZM109.731 59.9892L110.627 57.6243L108.372 51.9219H109.477L110.892 55.6793C110.943 55.8045 110.991 55.9555 111.035 56.1324C111.08 56.3018 111.117 56.4455 111.146 56.5634C111.175 56.4455 111.212 56.3018 111.257 56.1324C111.301 55.9555 111.345 55.8045 111.389 55.6793L112.715 51.9219H113.787L110.792 59.9892H109.731ZM123.095 58.1105C122.491 58.1105 122.001 57.9079 121.625 57.5027C121.256 57.0975 121.072 56.5486 121.072 55.8561V54.0769C121.072 53.377 121.256 52.8244 121.625 52.4192C121.993 52.014 122.483 51.8114 123.095 51.8114C123.596 51.8114 123.997 51.9477 124.299 52.2203C124.601 52.4929 124.752 52.8576 124.752 53.3143L124.553 53.0823H124.774L124.752 51.7009V49.9327H125.747V58H124.752V56.8396H124.553L124.752 56.6076C124.752 57.0717 124.601 57.4401 124.299 57.7127C123.997 57.9779 123.596 58.1105 123.095 58.1105ZM123.426 57.2485C123.839 57.2485 124.163 57.1196 124.399 56.8617C124.634 56.6039 124.752 56.2466 124.752 55.7898V54.1321C124.752 53.6753 124.634 53.318 124.399 53.0602C124.163 52.8023 123.839 52.6734 123.426 52.6734C123.006 52.6734 122.675 52.7986 122.432 53.0491C122.188 53.2996 122.067 53.6606 122.067 54.1321V55.7898C122.067 56.2613 122.188 56.6223 122.432 56.8728C122.675 57.1233 123.006 57.2485 123.426 57.2485ZM129.633 58.0884C129.146 58.0884 128.726 57.9963 128.373 57.8121C128.019 57.6279 127.743 57.3627 127.544 57.0165C127.352 56.6628 127.257 56.2466 127.257 55.7677V54.1542C127.257 53.668 127.352 53.2517 127.544 52.9054C127.743 52.5592 128.019 52.294 128.373 52.1098C128.726 51.9256 129.146 51.8335 129.633 51.8335C130.119 51.8335 130.539 51.9256 130.892 52.1098C131.246 52.294 131.519 52.5592 131.71 52.9054C131.909 53.2517 132.009 53.6643 132.009 54.1432V55.7677C132.009 56.2466 131.909 56.6628 131.71 57.0165C131.519 57.3627 131.246 57.6279 130.892 57.8121C130.539 57.9963 130.119 58.0884 129.633 58.0884ZM129.633 57.2043C130.067 57.2043 130.406 57.0828 130.649 56.8396C130.892 56.5965 131.014 56.2392 131.014 55.7677V54.1542C131.014 53.6827 130.892 53.3254 130.649 53.0823C130.406 52.8391 130.067 52.7176 129.633 52.7176C129.205 52.7176 128.866 52.8391 128.616 53.0823C128.373 53.3254 128.251 53.6827 128.251 54.1542V55.7677C128.251 56.2392 128.373 56.5965 128.616 56.8396C128.866 57.0828 129.205 57.2043 129.633 57.2043ZM134.281 59.9892V59.083H136.215C136.524 59.083 136.749 59.013 136.889 58.873C137.036 58.7331 137.11 58.5157 137.11 58.221V57.4474L137.132 56.3423H136.933L137.121 56.1766C137.121 56.6186 136.974 56.9686 136.679 57.2264C136.384 57.4843 135.99 57.6132 135.496 57.6132C134.87 57.6132 134.377 57.4106 134.016 57.0054C133.655 56.5928 133.474 56.0403 133.474 55.3477V54.0658C133.474 53.3733 133.655 52.8244 134.016 52.4192C134.377 52.014 134.87 51.8114 135.496 51.8114C135.99 51.8114 136.384 51.9403 136.679 52.1982C136.974 52.456 137.121 52.806 137.121 53.248L136.933 53.0823H137.121V51.9219H138.104V58.221C138.104 58.7662 137.935 59.1972 137.596 59.514C137.265 59.8308 136.8 59.9892 136.204 59.9892H134.281ZM135.795 56.7512C136.207 56.7512 136.531 56.6223 136.767 56.3644C137.003 56.1066 137.121 55.7493 137.121 55.2925V54.1321C137.121 53.6753 137.003 53.318 136.767 53.0602C136.531 52.8023 136.207 52.6734 135.795 52.6734C135.375 52.6734 135.047 52.7986 134.811 53.0491C134.583 53.2996 134.469 53.6606 134.469 54.1321V55.2925C134.469 55.764 134.583 56.125 134.811 56.3755C135.047 56.626 135.375 56.7512 135.795 56.7512ZM147.301 58V53.4359H145.533V52.5297H147.301V51.4799C147.301 51.001 147.452 50.6252 147.754 50.3526C148.057 50.0727 148.473 49.9327 149.003 49.9327H150.782V50.8389H149.003C148.775 50.8389 148.598 50.8942 148.473 51.0047C148.355 51.1078 148.296 51.2662 148.296 51.4799V52.5297H150.782V53.4359H148.296V58H147.301ZM152.281 58V51.9219H153.254V53.0823H153.486L153.165 53.8006C153.165 53.1449 153.305 52.6513 153.585 52.3197C153.872 51.9808 154.296 51.8114 154.856 51.8114C155.497 51.8114 156.005 52.014 156.381 52.4192C156.764 52.817 156.956 53.3585 156.956 54.0437V54.4084H155.961V54.1321C155.961 53.6532 155.843 53.2886 155.607 53.0381C155.379 52.7802 155.051 52.6513 154.624 52.6513C154.204 52.6513 153.872 52.7802 153.629 53.0381C153.394 53.2959 153.276 53.6606 153.276 54.1321V58H152.281ZM158.178 58V57.0938H160.333V52.8281H158.454V51.9219H161.328V57.0938H163.372V58H158.178ZM160.72 50.8278C160.477 50.8278 160.285 50.7652 160.145 50.64C160.005 50.5147 159.935 50.3453 159.935 50.1316C159.935 49.9106 160.005 49.7375 160.145 49.6122C160.285 49.4796 160.477 49.4133 160.72 49.4133C160.963 49.4133 161.154 49.4796 161.294 49.6122C161.434 49.7375 161.504 49.9106 161.504 50.1316C161.504 50.3453 161.434 50.5147 161.294 50.64C161.154 50.7652 160.963 50.8278 160.72 50.8278ZM166.738 58.1105C166.259 58.1105 165.839 58.0147 165.478 57.8232C165.125 57.6316 164.849 57.3627 164.65 57.0165C164.458 56.6628 164.362 56.2539 164.362 55.7898V54.1321C164.362 53.6606 164.458 53.2517 164.65 52.9054C164.849 52.5592 165.125 52.2903 165.478 52.0987C165.839 51.9072 166.259 51.8114 166.738 51.8114C167.217 51.8114 167.633 51.9072 167.987 52.0987C168.348 52.2903 168.624 52.5592 168.816 52.9054C169.015 53.2517 169.114 53.6606 169.114 54.1321V55.2041H165.335V55.7898C165.335 56.2687 165.456 56.637 165.7 56.8949C165.943 57.1454 166.289 57.2706 166.738 57.2706C167.121 57.2706 167.431 57.2043 167.667 57.0717C167.902 56.9317 168.046 56.7254 168.098 56.4528H169.092C169.026 56.9612 168.775 57.3664 168.341 57.6685C167.913 57.9632 167.379 58.1105 166.738 58.1105ZM168.142 54.541V54.1321C168.142 53.6532 168.02 53.2849 167.777 53.027C167.541 52.7692 167.195 52.6402 166.738 52.6402C166.289 52.6402 165.943 52.7692 165.7 53.027C165.456 53.2849 165.335 53.6532 165.335 54.1321V54.4526H168.219L168.142 54.541ZM170.624 58V51.9219H171.619V53.0823H171.829L171.619 53.3143C171.619 52.8355 171.762 52.4671 172.05 52.2092C172.337 51.944 172.735 51.8114 173.243 51.8114C173.855 51.8114 174.341 51.9993 174.702 52.375C175.063 52.7507 175.243 53.2628 175.243 53.9111V58H174.249V54.0216C174.249 53.5869 174.131 53.2554 173.895 53.027C173.667 52.7913 173.354 52.6734 172.956 52.6734C172.543 52.6734 172.215 52.7986 171.972 53.0491C171.736 53.2996 171.619 53.6606 171.619 54.1321V58H170.624ZM178.753 58.1105C178.149 58.1105 177.659 57.9079 177.283 57.5027C176.915 57.0975 176.731 56.5486 176.731 55.8561V54.0769C176.731 53.377 176.915 52.8244 177.283 52.4192C177.652 52.014 178.142 51.8114 178.753 51.8114C179.254 51.8114 179.656 51.9477 179.958 52.2203C180.26 52.4929 180.411 52.8576 180.411 53.3143L180.212 53.0823H180.433L180.411 51.7009V49.9327H181.406V58H180.411V56.8396H180.212L180.411 56.6076C180.411 57.0717 180.26 57.4401 179.958 57.7127C179.656 57.9779 179.254 58.1105 178.753 58.1105ZM179.085 57.2485C179.497 57.2485 179.822 57.1196 180.057 56.8617C180.293 56.6039 180.411 56.2466 180.411 55.7898V54.1321C180.411 53.6753 180.293 53.318 180.057 53.0602C179.822 52.8023 179.497 52.6734 179.085 52.6734C178.665 52.6734 178.333 52.7986 178.09 53.0491C177.847 53.2996 177.726 53.6606 177.726 54.1321V55.7898C177.726 56.2613 177.847 56.6223 178.09 56.8728C178.333 57.1233 178.665 57.2485 179.085 57.2485ZM185.103 58.0884C184.691 58.0884 184.33 58.0258 184.02 57.9005C183.718 57.7679 183.475 57.5837 183.291 57.348C183.114 57.1122 183.007 56.8323 182.97 56.5081H183.965C184.009 56.7218 184.127 56.8912 184.319 57.0165C184.518 57.1417 184.779 57.2043 185.103 57.2043H185.567C185.958 57.2043 186.249 57.127 186.44 56.9722C186.632 56.8102 186.728 56.5965 186.728 56.3313C186.728 56.0734 186.639 55.8708 186.463 55.7235C186.293 55.5688 186.039 55.4656 185.7 55.414L184.882 55.2814C184.286 55.1783 183.84 54.9941 183.545 54.7289C183.258 54.4563 183.114 54.0621 183.114 53.5464C183.114 53.0012 183.287 52.5813 183.634 52.2866C183.98 51.9845 184.499 51.8335 185.192 51.8335H185.612C186.194 51.8335 186.662 51.9698 187.015 52.2424C187.369 52.515 187.582 52.8833 187.656 53.3475H186.662C186.617 53.1559 186.507 53.0049 186.33 52.8944C186.153 52.7765 185.914 52.7176 185.612 52.7176H185.192C184.816 52.7176 184.54 52.7876 184.363 52.9276C184.193 53.0675 184.109 53.2775 184.109 53.5575C184.109 53.808 184.182 53.9921 184.33 54.11C184.477 54.2279 184.709 54.3126 185.026 54.3642L185.844 54.4968C186.499 54.5999 186.975 54.7915 187.269 55.0715C187.571 55.3514 187.722 55.7566 187.722 56.2871C187.722 56.847 187.542 57.289 187.181 57.6132C186.827 57.93 186.289 58.0884 185.567 58.0884H185.103ZM190.492 55.7345V53.7453H191.044C191.516 53.7453 191.888 53.6164 192.161 53.3585C192.441 53.0933 192.581 52.7434 192.581 52.3087C192.581 51.874 192.441 51.5277 192.161 51.2699C191.888 51.0047 191.512 50.872 191.033 50.872H189.652V49.9327H191.033C191.549 49.9327 191.995 50.0322 192.371 50.2311C192.754 50.4226 193.048 50.6952 193.255 51.0489C193.468 51.4025 193.575 51.8224 193.575 52.3087C193.575 52.7286 193.487 53.1081 193.31 53.447C193.133 53.7785 192.886 54.0437 192.57 54.2426C192.26 54.4416 191.899 54.5521 191.487 54.5742V55.7345H190.492ZM190.812 58.0553C190.621 58.0553 190.462 57.9926 190.337 57.8674C190.212 57.7421 190.149 57.5837 190.149 57.3922C190.149 57.2006 190.212 57.0422 190.337 56.917C190.462 56.7917 190.621 56.7291 190.812 56.7291H191.144C191.358 56.7291 191.52 56.7917 191.63 56.917C191.748 57.0349 191.807 57.1896 191.807 57.3811C191.807 57.5727 191.744 57.7348 191.619 57.8674C191.494 57.9926 191.336 58.0553 191.144 58.0553H190.812ZM15.5526 73L17.6523 64.9327H18.9894L21.0781 73H20.0724L19.542 70.8561H17.0997L16.5693 73H15.5526ZM17.2986 70.0162H19.332L18.7132 67.5297C18.5953 67.0582 18.5032 66.664 18.4369 66.3472C18.3706 66.0304 18.3301 65.8242 18.3153 65.7284C18.3006 65.8242 18.2601 66.0304 18.1938 66.3472C18.1275 66.664 18.0354 67.0545 17.9175 67.5187L17.2986 70.0162ZM22.201 73V66.9219H23.1956V68.0823H23.4056L23.1956 68.3143C23.1956 67.8355 23.3393 67.4671 23.6266 67.2092C23.9139 66.944 24.3117 66.8114 24.8201 66.8114C25.4316 66.8114 25.9178 66.9993 26.2788 67.375C26.6398 67.7507 26.8203 68.2628 26.8203 68.9111V73H25.8257V69.0216C25.8257 68.5869 25.7079 68.2554 25.4721 68.027C25.2437 67.7913 24.9306 67.6734 24.5328 67.6734C24.1202 67.6734 23.7923 67.7986 23.5492 68.0491C23.3135 68.2996 23.1956 68.6606 23.1956 69.1321V73H22.201ZM30.3303 73.1105C29.7261 73.1105 29.2362 72.9079 28.8605 72.5027C28.4921 72.0975 28.3079 71.5486 28.3079 70.8561V69.0769C28.3079 68.377 28.4921 67.8244 28.8605 67.4192C29.2288 67.014 29.7188 66.8114 30.3303 66.8114C30.8313 66.8114 31.2328 66.9477 31.5348 67.2203C31.8369 67.4929 31.9879 67.8576 31.9879 68.3143L31.789 68.0823H32.01L31.9879 66.7009V64.9327H32.9825V73H31.9879V71.8396H31.789L31.9879 71.6076C31.9879 72.0717 31.8369 72.4401 31.5348 72.7127C31.2328 72.9779 30.8313 73.1105 30.3303 73.1105ZM30.6618 72.2485C31.0744 72.2485 31.3985 72.1196 31.6343 71.8617C31.8701 71.6039 31.9879 71.2466 31.9879 70.7898V69.1321C31.9879 68.6753 31.8701 68.318 31.6343 68.0602C31.3985 67.8023 31.0744 67.6734 30.6618 67.6734C30.2419 67.6734 29.9103 67.7986 29.6672 68.0491C29.4241 68.2996 29.3025 68.6606 29.3025 69.1321V70.7898C29.3025 71.2613 29.4241 71.6223 29.6672 71.8728C29.9103 72.1233 30.2419 72.2485 30.6618 72.2485ZM41.0964 73L40.124 66.9219H41.008L41.6159 71.2318C41.638 71.3939 41.6601 71.5707 41.6822 71.7623C41.7116 71.9465 41.7337 72.1012 41.7485 72.2264C41.7632 72.1012 41.7853 71.9465 41.8148 71.7623C41.8516 71.5707 41.8811 71.3939 41.9032 71.2318L42.5773 66.9219H43.5277L44.2018 71.2318C44.2239 71.3939 44.2497 71.5707 44.2792 71.7623C44.316 71.9465 44.3418 72.1012 44.3565 72.2264C44.3713 72.1012 44.3934 71.9465 44.4228 71.7623C44.4597 71.5707 44.4891 71.3939 44.5112 71.2318L45.1411 66.9219H45.981L44.9643 73H43.8703L43.2183 68.8006C43.1888 68.5943 43.1556 68.388 43.1188 68.1817C43.082 67.9754 43.0562 67.8134 43.0414 67.6955C43.0267 67.8134 43.0046 67.9754 42.9751 68.1817C42.9457 68.388 42.9125 68.5943 42.8757 68.8006L42.1905 73H41.0964ZM46.9382 73V64.9327H47.9328V66.9219V68.0823H48.1427L47.9328 68.3143C47.9328 67.8355 48.0764 67.4671 48.3637 67.2092C48.6511 66.944 49.0489 66.8114 49.5573 66.8114C50.1688 66.8114 50.655 66.9993 51.016 67.375C51.377 67.7507 51.5575 68.2628 51.5575 68.9111V73H50.5629V69.0216C50.5629 68.5869 50.445 68.2517 50.2093 68.016C49.9809 67.7728 49.6678 67.6513 49.2699 67.6513C48.8574 67.6513 48.5295 67.7802 48.2864 68.0381C48.0506 68.2959 47.9328 68.6606 47.9328 69.1321V73H46.9382ZM54.8906 73.1105C54.2497 73.1105 53.745 72.9484 53.3766 72.6243C53.0083 72.2927 52.8241 71.847 52.8241 71.2871C52.8241 70.7198 53.0083 70.2741 53.3766 69.9499C53.745 69.6257 54.2423 69.4637 54.8685 69.4637H56.7472V68.8558C56.7472 68.4801 56.633 68.1928 56.4046 67.9939C56.1836 67.7876 55.8668 67.6844 55.4542 67.6844C55.0932 67.6844 54.7912 67.7618 54.548 67.9165C54.3049 68.0638 54.1649 68.2665 54.1281 68.5243H53.1335C53.1998 68.0012 53.4466 67.585 53.8739 67.2755C54.3012 66.9661 54.8354 66.8114 55.4763 66.8114C56.1762 66.8114 56.7288 66.9919 57.134 67.3529C57.5392 67.7139 57.7418 68.2038 57.7418 68.8227V73H56.7693V71.8396H56.6035L56.7693 71.6739C56.7693 72.1159 56.5962 72.4659 56.2499 72.7237C55.911 72.9816 55.4579 73.1105 54.8906 73.1105ZM55.1337 72.3259C55.6053 72.3259 55.992 72.208 56.2941 71.9722C56.5962 71.7365 56.7472 71.4344 56.7472 71.0661V70.2041H54.8906C54.5591 70.2041 54.2975 70.2962 54.106 70.4804C53.9144 70.6645 53.8187 70.915 53.8187 71.2318C53.8187 71.5707 53.9329 71.8396 54.1612 72.0386C54.397 72.2301 54.7212 72.3259 55.1337 72.3259ZM62.2684 73C61.7453 73 61.3365 72.86 61.0418 72.5801C60.7544 72.3001 60.6108 71.9059 60.6108 71.3976V67.8281H58.8978V66.9219H60.6108V65.209H61.6054V66.9219H64.0366V67.8281H61.6054V71.3976C61.6054 71.8617 61.8264 72.0938 62.2684 72.0938H63.9261V73H62.2684ZM74.637 73C74.1139 73 73.705 72.86 73.4103 72.5801C73.123 72.3001 72.9794 71.9059 72.9794 71.3976V67.8281H71.2664V66.9219H72.9794V65.209H73.9739V66.9219H76.4052V67.8281H73.9739V71.3976C73.9739 71.8617 74.195 72.0938 74.637 72.0938H76.2947V73H74.637ZM77.8596 73V64.9327H78.8542V66.9219V68.0823H79.0642L78.8542 68.3143C78.8542 67.8355 78.9979 67.4671 79.2852 67.2092C79.5725 66.944 79.9704 66.8114 80.4787 66.8114C81.0902 66.8114 81.5765 66.9993 81.9375 67.375C82.2985 67.7507 82.479 68.2628 82.479 68.9111V73H81.4844V69.0216C81.4844 68.5869 81.3665 68.2517 81.1307 68.016C80.9023 67.7728 80.5892 67.6513 80.1914 67.6513C79.7788 67.6513 79.451 67.7802 79.2078 68.0381C78.9721 68.2959 78.8542 68.6606 78.8542 69.1321V73H77.8596ZM86.3425 73.1105C85.8637 73.1105 85.4437 73.0147 85.0827 72.8232C84.7291 72.6316 84.4528 72.3627 84.2539 72.0165C84.0623 71.6628 83.9665 71.2539 83.9665 70.7898V69.1321C83.9665 68.6606 84.0623 68.2517 84.2539 67.9054C84.4528 67.5592 84.7291 67.2903 85.0827 67.0987C85.4437 66.9072 85.8637 66.8114 86.3425 66.8114C86.8214 66.8114 87.2377 66.9072 87.5913 67.0987C87.9523 67.2903 88.2286 67.5592 88.4201 67.9054C88.6191 68.2517 88.7185 68.6606 88.7185 69.1321V70.2041H84.939V70.7898C84.939 71.2687 85.0606 71.637 85.3037 71.8949C85.5469 72.1454 85.8931 72.2706 86.3425 72.2706C86.7256 72.2706 87.0351 72.2043 87.2708 72.0717C87.5066 71.9317 87.6502 71.7254 87.7018 71.4528H88.6964C88.6301 71.9612 88.3796 72.3664 87.9449 72.6685C87.5176 72.9632 86.9835 73.1105 86.3425 73.1105ZM87.746 69.541V69.1321C87.746 68.6532 87.6245 68.2849 87.3813 68.027C87.1456 67.7692 86.7993 67.6402 86.3425 67.6402C85.8931 67.6402 85.5469 67.7692 85.3037 68.027C85.0606 68.2849 84.939 68.6532 84.939 69.1321V69.4526H87.8234L87.746 69.541ZM90.1508 73V72.0938H92.3058V67.8281H90.4271V66.9219H93.3004V72.0938H95.3448V73H90.1508ZM92.6926 65.8278C92.4495 65.8278 92.2579 65.7652 92.1179 65.64C91.9779 65.5147 91.908 65.3453 91.908 65.1316C91.908 64.9106 91.9779 64.7375 92.1179 64.6122C92.2579 64.4796 92.4495 64.4133 92.6926 64.4133C92.9357 64.4133 93.1273 64.4796 93.2672 64.6122C93.4072 64.7375 93.4772 64.9106 93.4772 65.1316C93.4772 65.3453 93.4072 65.5147 93.2672 65.64C93.1273 65.7652 92.9357 65.8278 92.6926 65.8278ZM96.6225 73V66.9219H97.5949V68.0823H97.827L97.5065 68.8006C97.5065 68.1449 97.6465 67.6513 97.9265 67.3197C98.2138 66.9808 98.6374 66.8114 99.1974 66.8114C99.8383 66.8114 100.347 67.014 100.722 67.4192C101.106 67.817 101.297 68.3585 101.297 69.0437V69.4084H100.302V69.1321C100.302 68.6532 100.185 68.2886 99.9488 68.0381C99.7204 67.7802 99.3926 67.6513 98.9653 67.6513C98.5453 67.6513 98.2138 67.7802 97.9707 68.0381C97.7349 68.2959 97.6171 68.6606 97.6171 69.1321V73H96.6225ZM108.781 73V66.9219H109.776V68.0823H109.986L109.776 68.3143C109.776 67.8355 109.919 67.4671 110.207 67.2092C110.494 66.944 110.892 66.8114 111.4 66.8114C112.012 66.8114 112.498 66.9993 112.859 67.375C113.22 67.7507 113.4 68.2628 113.4 68.9111V73H112.406V69.0216C112.406 68.5869 112.288 68.2554 112.052 68.027C111.824 67.7913 111.511 67.6734 111.113 67.6734C110.7 67.6734 110.372 67.7986 110.129 68.0491C109.894 68.2996 109.776 68.6606 109.776 69.1321V73H108.781ZM116.734 73.1105C116.093 73.1105 115.588 72.9484 115.22 72.6243C114.851 72.2927 114.667 71.847 114.667 71.2871C114.667 70.7198 114.851 70.2741 115.22 69.9499C115.588 69.6257 116.085 69.4637 116.711 69.4637H118.59V68.8558C118.59 68.4801 118.476 68.1928 118.248 67.9939C118.027 67.7876 117.71 67.6844 117.297 67.6844C116.936 67.6844 116.634 67.7618 116.391 67.9165C116.148 68.0638 116.008 68.2665 115.971 68.5243H114.976C115.043 68.0012 115.29 67.585 115.717 67.2755C116.144 66.9661 116.678 66.8114 117.319 66.8114C118.019 66.8114 118.572 66.9919 118.977 67.3529C119.382 67.7139 119.585 68.2038 119.585 68.8227V73H118.612V71.8396H118.446L118.612 71.6739C118.612 72.1159 118.439 72.4659 118.093 72.7237C117.754 72.9816 117.301 73.1105 116.734 73.1105ZM116.977 72.3259C117.448 72.3259 117.835 72.208 118.137 71.9722C118.439 71.7365 118.59 71.4344 118.59 71.0661V70.2041H116.734C116.402 70.2041 116.14 70.2962 115.949 70.4804C115.757 70.6645 115.662 70.915 115.662 71.2318C115.662 71.5707 115.776 71.8396 116.004 72.0386C116.24 72.2301 116.564 72.3259 116.977 72.3259ZM120.862 73V66.9219H121.735V67.6513H121.934L121.78 67.9165C121.78 67.5776 121.868 67.3087 122.045 67.1098C122.229 66.9109 122.476 66.8114 122.785 66.8114C123.124 66.8114 123.386 66.9366 123.57 67.1871C123.754 67.4376 123.846 67.7913 123.846 68.248L123.548 67.6513H124.012L123.802 67.9165C123.802 67.5776 123.894 67.3087 124.078 67.1098C124.27 66.9109 124.52 66.8114 124.83 66.8114C125.213 66.8114 125.507 66.9551 125.714 67.2424C125.927 67.5297 126.034 67.9091 126.034 68.3806V73H125.117V68.3696C125.117 68.1191 125.062 67.9239 124.951 67.7839C124.848 67.6439 124.693 67.5739 124.487 67.5739C124.288 67.5739 124.13 67.6439 124.012 67.7839C123.901 67.9165 123.846 68.1081 123.846 68.3585V73H123.05V68.3696C123.05 68.1117 122.991 67.9165 122.874 67.7839C122.763 67.6439 122.605 67.5739 122.398 67.5739C122.192 67.5739 122.037 67.6439 121.934 67.7839C121.831 67.9165 121.78 68.1081 121.78 68.3585V73H120.862ZM129.633 73.1105C129.154 73.1105 128.734 73.0147 128.373 72.8232C128.019 72.6316 127.743 72.3627 127.544 72.0165C127.352 71.6628 127.257 71.2539 127.257 70.7898V69.1321C127.257 68.6606 127.352 68.2517 127.544 67.9054C127.743 67.5592 128.019 67.2903 128.373 67.0987C128.734 66.9072 129.154 66.8114 129.633 66.8114C130.111 66.8114 130.528 66.9072 130.881 67.0987C131.242 67.2903 131.519 67.5592 131.71 67.9054C131.909 68.2517 132.009 68.6606 132.009 69.1321V70.2041H128.229V70.7898C128.229 71.2687 128.351 71.637 128.594 71.8949C128.837 72.1454 129.183 72.2706 129.633 72.2706C130.016 72.2706 130.325 72.2043 130.561 72.0717C130.797 71.9317 130.94 71.7254 130.992 71.4528H131.986C131.92 71.9612 131.67 72.3664 131.235 72.6685C130.808 72.9632 130.274 73.1105 129.633 73.1105ZM131.036 69.541V69.1321C131.036 68.6532 130.914 68.2849 130.671 68.027C130.436 67.7692 130.089 67.6402 129.633 67.6402C129.183 67.6402 128.837 67.7692 128.594 68.027C128.351 68.2849 128.229 68.6532 128.229 69.1321V69.4526H131.113L131.036 69.541ZM135.629 73.0884C135.216 73.0884 134.855 73.0258 134.546 72.9005C134.244 72.7679 134.001 72.5837 133.817 72.348C133.64 72.1122 133.533 71.8323 133.496 71.5081H134.491C134.535 71.7218 134.653 71.8912 134.844 72.0165C135.043 72.1417 135.305 72.2043 135.629 72.2043H136.093C136.484 72.2043 136.775 72.127 136.966 71.9722C137.158 71.8102 137.254 71.5965 137.254 71.3313C137.254 71.0734 137.165 70.8708 136.988 70.7235C136.819 70.5688 136.565 70.4656 136.226 70.414L135.408 70.2814C134.811 70.1783 134.365 69.9941 134.071 69.7289C133.783 69.4563 133.64 69.0621 133.64 68.5464C133.64 68.0012 133.813 67.5813 134.159 67.2866C134.505 66.9845 135.025 66.8335 135.717 66.8335H136.137C136.719 66.8335 137.187 66.9698 137.541 67.2424C137.894 67.515 138.108 67.8833 138.182 68.3475H137.187C137.143 68.1559 137.032 68.0049 136.856 67.8944C136.679 67.7765 136.439 67.7176 136.137 67.7176H135.717C135.342 67.7176 135.065 67.7876 134.889 67.9276C134.719 68.0675 134.634 68.2775 134.634 68.5575C134.634 68.808 134.708 68.9921 134.855 69.11C135.003 69.2279 135.235 69.3126 135.552 69.3642L136.369 69.4968C137.025 69.5999 137.5 69.7915 137.795 70.0715C138.097 70.3514 138.248 70.7566 138.248 71.2871C138.248 71.847 138.068 72.289 137.707 72.6132C137.353 72.93 136.815 73.0884 136.093 73.0884H135.629ZM147.655 73.1105C147.014 73.1105 146.509 72.9484 146.141 72.6243C145.773 72.2927 145.588 71.847 145.588 71.2871C145.588 70.7198 145.773 70.2741 146.141 69.9499C146.509 69.6257 147.007 69.4637 147.633 69.4637H149.512V68.8558C149.512 68.4801 149.397 68.1928 149.169 67.9939C148.948 67.7876 148.631 67.6844 148.219 67.6844C147.858 67.6844 147.556 67.7618 147.312 67.9165C147.069 68.0638 146.929 68.2665 146.892 68.5243H145.898C145.964 68.0012 146.211 67.585 146.638 67.2755C147.066 66.9661 147.6 66.8114 148.241 66.8114C148.941 66.8114 149.493 66.9919 149.898 67.3529C150.304 67.7139 150.506 68.2038 150.506 68.8227V73H149.534V71.8396H149.368L149.534 71.6739C149.534 72.1159 149.361 72.4659 149.014 72.7237C148.675 72.9816 148.222 73.1105 147.655 73.1105ZM147.898 72.3259C148.37 72.3259 148.756 72.208 149.058 71.9722C149.361 71.7365 149.512 71.4344 149.512 71.0661V70.2041H147.655C147.323 70.2041 147.062 70.2962 146.87 70.4804C146.679 70.6645 146.583 70.915 146.583 71.2318C146.583 71.5707 146.697 71.8396 146.926 72.0386C147.161 72.2301 147.486 72.3259 147.898 72.3259ZM152.281 73V66.9219H153.254V68.0823H153.486L153.165 68.8006C153.165 68.1449 153.305 67.6513 153.585 67.3197C153.872 66.9808 154.296 66.8114 154.856 66.8114C155.497 66.8114 156.005 67.014 156.381 67.4192C156.764 67.817 156.956 68.3585 156.956 69.0437V69.4084H155.961V69.1321C155.961 68.6532 155.843 68.2886 155.607 68.0381C155.379 67.7802 155.051 67.6513 154.624 67.6513C154.204 67.6513 153.872 67.7802 153.629 68.0381C153.394 68.2959 153.276 68.6606 153.276 69.1321V73H152.281ZM160.554 73.1105C160.075 73.1105 159.655 73.0147 159.294 72.8232C158.941 72.6316 158.664 72.3627 158.465 72.0165C158.274 71.6628 158.178 71.2539 158.178 70.7898V69.1321C158.178 68.6606 158.274 68.2517 158.465 67.9054C158.664 67.5592 158.941 67.2903 159.294 67.0987C159.655 66.9072 160.075 66.8114 160.554 66.8114C161.033 66.8114 161.449 66.9072 161.803 67.0987C162.164 67.2903 162.44 67.5592 162.632 67.9054C162.831 68.2517 162.93 68.6606 162.93 69.1321V70.2041H159.151V70.7898C159.151 71.2687 159.272 71.637 159.515 71.8949C159.758 72.1454 160.105 72.2706 160.554 72.2706C160.937 72.2706 161.247 72.2043 161.482 72.0717C161.718 71.9317 161.862 71.7254 161.913 71.4528H162.908C162.842 71.9612 162.591 72.3664 162.156 72.6685C161.729 72.9632 161.195 73.1105 160.554 73.1105ZM161.958 69.541V69.1321C161.958 68.6532 161.836 68.2849 161.593 68.027C161.357 67.7692 161.011 67.6402 160.554 67.6402C160.105 67.6402 159.758 67.7692 159.515 68.027C159.272 68.2849 159.151 68.6532 159.151 69.1321V69.4526H162.035L161.958 69.541ZM165.755 70.7345V68.7453H166.307C166.779 68.7453 167.151 68.6164 167.423 68.3585C167.703 68.0933 167.843 67.7434 167.843 67.3087C167.843 66.874 167.703 66.5277 167.423 66.2699C167.151 66.0047 166.775 65.872 166.296 65.872H164.915V64.9327H166.296C166.812 64.9327 167.258 65.0322 167.633 65.2311C168.017 65.4226 168.311 65.6952 168.518 66.0489C168.731 66.4025 168.838 66.8224 168.838 67.3087C168.838 67.7286 168.75 68.1081 168.573 68.447C168.396 68.7785 168.149 69.0437 167.832 69.2426C167.523 69.4416 167.162 69.5521 166.749 69.5742V70.7345H165.755ZM166.075 73.0553C165.884 73.0553 165.725 72.9926 165.6 72.8674C165.475 72.7421 165.412 72.5837 165.412 72.3922C165.412 72.2006 165.475 72.0422 165.6 71.917C165.725 71.7917 165.884 71.7291 166.075 71.7291H166.407C166.62 71.7291 166.783 71.7917 166.893 71.917C167.011 72.0349 167.07 72.1896 167.07 72.3811C167.07 72.5727 167.007 72.7348 166.882 72.8674C166.757 72.9926 166.598 73.0553 166.407 73.0553H166.075Z" fill="white"></path><path d="M232.094 19.3197C231.243 19.7507 230.436 20.4138 229.663 21.32L229.022 21.32C229.387 20.5354 229.74 19.9386 230.083 19.5518L227.442 19.5518L227.442 23.7291L226.657 23.7291L226.657 18.7672L230.083 18.7672C229.74 18.3804 229.387 17.7836 229.022 17.0101L229.663 17.0101C230.436 17.9163 231.243 18.5793 232.094 18.9993L232.094 19.3197Z" fill="white"></path><path d="M31.0167 25V16.9327H33.6137C34.1147 16.9327 34.5494 17.0322 34.9177 17.2311C35.2861 17.4226 35.5697 17.6952 35.7687 18.0489C35.975 18.4025 36.0781 18.8224 36.0781 19.3087C36.0781 19.7876 35.975 20.2075 35.7687 20.5685C35.5697 20.9221 35.2861 21.1984 34.9177 21.3973C34.5494 21.5889 34.1147 21.6847 33.6137 21.6847H32.0113V25H31.0167ZM32.0113 20.7895H33.6137C34.0484 20.7895 34.3946 20.6569 34.6525 20.3917C34.9177 20.1191 35.0503 19.7581 35.0503 19.3087C35.0503 18.8519 34.9177 18.4909 34.6525 18.2257C34.3946 17.9605 34.0484 17.8278 33.6137 17.8278H32.0113V20.7895ZM37.201 25V16.9327H39.6985C40.1774 16.9327 40.5974 17.0322 40.9584 17.2311C41.3194 17.4226 41.5993 17.6915 41.7982 18.0378C41.9972 18.3841 42.0966 18.7893 42.0966 19.2534C42.0966 19.7986 41.953 20.2665 41.6656 20.6569C41.3857 21.0474 41.0026 21.3163 40.5163 21.4637L42.2071 25H41.0357L39.4886 21.5742H38.1956V25H37.201ZM38.1956 20.679H39.6985C40.1111 20.679 40.4426 20.5501 40.6931 20.2922C40.9436 20.027 41.0689 19.6807 41.0689 19.2534C41.0689 18.8188 40.9436 18.4725 40.6931 18.2146C40.4426 17.9568 40.1111 17.8278 39.6985 17.8278H38.1956V20.679ZM45.6839 25.1105C45.1977 25.1105 44.7777 25.0184 44.4241 24.8342C44.0778 24.65 43.8089 24.3848 43.6174 24.0386C43.4332 23.6849 43.3411 23.2687 43.3411 22.7898V19.1429C43.3411 18.6567 43.4332 18.2404 43.6174 17.8942C43.8089 17.5479 44.0778 17.2827 44.4241 17.0985C44.7777 16.9143 45.1977 16.8222 45.6839 16.8222C46.1702 16.8222 46.5864 16.9143 46.9327 17.0985C47.2863 17.2827 47.5552 17.5479 47.7394 17.8942C47.931 18.2404 48.0267 18.653 48.0267 19.1319V22.7898C48.0267 23.2687 47.931 23.6849 47.7394 24.0386C47.5552 24.3848 47.2863 24.65 46.9327 24.8342C46.5864 25.0184 46.1702 25.1105 45.6839 25.1105ZM45.6839 24.2154C46.1186 24.2154 46.4501 24.0938 46.6785 23.8507C46.9143 23.6002 47.0321 23.2466 47.0321 22.7898V19.1429C47.0321 18.6861 46.9143 18.3362 46.6785 18.0931C46.4501 17.8426 46.1186 17.7173 45.6839 17.7173C45.2566 17.7173 44.9251 17.8426 44.6893 18.0931C44.4536 18.3362 44.3357 18.6861 44.3357 19.1429V22.7898C44.3357 23.2466 44.4536 23.6002 44.6893 23.8507C44.9251 24.0938 45.2566 24.2154 45.6839 24.2154ZM49.3928 25V16.9327H50.6968L51.5367 19.5408C51.6177 19.7765 51.6914 20.0123 51.7577 20.248C51.824 20.4764 51.8719 20.6532 51.9014 20.7785C51.9382 20.6532 51.9861 20.4764 52.045 20.248C52.104 20.0123 52.1703 19.7728 52.2439 19.5297L53.0396 16.9327H54.3436V25H53.3711V22.0715C53.3711 21.7473 53.3822 21.3789 53.4043 20.9664C53.4264 20.5538 53.4559 20.1338 53.4927 19.7065C53.5295 19.2719 53.5664 18.8593 53.6032 18.4688C53.6474 18.071 53.6843 17.7247 53.7137 17.43L52.4097 21.4637H51.3598L50.0448 17.43C50.0816 17.7173 50.1184 18.0526 50.1553 18.4357C50.1921 18.8114 50.2253 19.2129 50.2547 19.6402C50.2842 20.0602 50.31 20.4801 50.3321 20.9C50.3542 21.32 50.3653 21.7105 50.3653 22.0715V25H49.3928ZM55.7539 25V16.9327H58.3509C58.8519 16.9327 59.2865 17.0322 59.6549 17.2311C60.0233 17.4226 60.3069 17.6952 60.5058 18.0489C60.7121 18.4025 60.8153 18.8224 60.8153 19.3087C60.8153 19.7876 60.7121 20.2075 60.5058 20.5685C60.3069 20.9221 60.0233 21.1984 59.6549 21.3973C59.2865 21.5889 58.8519 21.6847 58.3509 21.6847H56.7485V25H55.7539ZM56.7485 20.7895H58.3509C58.7855 20.7895 59.1318 20.6569 59.3897 20.3917C59.6549 20.1191 59.7875 19.7581 59.7875 19.3087C59.7875 18.8519 59.6549 18.4909 59.3897 18.2257C59.1318 17.9605 58.7855 17.8278 58.3509 17.8278H56.7485V20.7895ZM63.7395 25V17.8278H61.5293V16.9217H66.9443V17.8278H64.7341V25H63.7395ZM76.6496 25.1105C76.1633 25.1105 75.7397 25.0184 75.3787 24.8342C75.0251 24.65 74.7488 24.3848 74.5499 24.0386C74.3583 23.6849 74.2625 23.2687 74.2625 22.7898V19.1429C74.2625 18.6567 74.3583 18.2404 74.5499 17.8942C74.7488 17.5479 75.0251 17.2827 75.3787 17.0985C75.7397 16.9143 76.1633 16.8222 76.6496 16.8222C77.1358 16.8222 77.5558 16.918 77.9094 17.1095C78.263 17.2937 78.5356 17.5589 78.7272 17.9052C78.9187 18.2515 79.0145 18.664 79.0145 19.1429H78.0199C78.0199 18.6861 77.8983 18.3362 77.6552 18.0931C77.4195 17.8426 77.0842 17.7173 76.6496 17.7173C76.2149 17.7173 75.8723 17.8389 75.6218 18.082C75.3787 18.3251 75.2571 18.6751 75.2571 19.1319V22.7898C75.2571 23.2466 75.3787 23.6002 75.6218 23.8507C75.8723 24.0938 76.2149 24.2154 76.6496 24.2154C77.0842 24.2154 77.4195 24.0938 77.6552 23.8507C77.8983 23.6002 78.0199 23.2466 78.0199 22.7898H79.0145C79.0145 23.2613 78.9187 23.6739 78.7272 24.0275C78.5356 24.3738 78.263 24.6427 77.9094 24.8342C77.5558 25.0184 77.1358 25.1105 76.6496 25.1105ZM80.5021 25V16.9327H81.4967V20.3806H84.0826V16.9327H85.0772V25H84.0826V21.2868H81.4967V25H80.5021ZM86.2112 25L88.3109 16.9327H89.6481L91.7367 25H90.7311L90.2006 22.8561H87.7583L87.2279 25H86.2112ZM87.9572 22.0162H89.9906L89.3718 19.5297C89.2539 19.0582 89.1618 18.664 89.0955 18.3472C89.0292 18.0304 88.9887 17.8242 88.9739 17.7284C88.9592 17.8242 88.9187 18.0304 88.8524 18.3472C88.7861 18.664 88.694 19.0545 88.5761 19.5187L87.9572 22.0162ZM94.6609 25V17.8278H92.4507V16.9217H97.8658V17.8278H95.6555V25H94.6609ZM101.387 25.1105C100.9 25.1105 100.477 25.0184 100.116 24.8342C99.7622 24.65 99.4859 24.3848 99.287 24.0386C99.0955 23.6849 98.9997 23.2687 98.9997 22.7898V19.1429C98.9997 18.6567 99.0955 18.2404 99.287 17.8942C99.4859 17.5479 99.7622 17.2827 100.116 17.0985C100.477 16.9143 100.9 16.8222 101.387 16.8222C101.873 16.8222 102.293 16.918 102.647 17.1095C103 17.2937 103.273 17.5589 103.464 17.9052C103.656 18.2515 103.752 18.664 103.752 19.1429H102.757C102.757 18.6861 102.636 18.3362 102.392 18.0931C102.157 17.8426 101.821 17.7173 101.387 17.7173C100.952 17.7173 100.609 17.8389 100.359 18.082C100.116 18.3251 99.9943 18.6751 99.9943 19.1319V22.7898C99.9943 23.2466 100.116 23.6002 100.359 23.8507C100.609 24.1012 100.952 24.2264 101.387 24.2264C101.821 24.2264 102.157 24.1012 102.392 23.8507C102.636 23.6002 102.757 23.2466 102.757 22.7898V21.7952H101.122V20.889H103.752V22.7898C103.752 23.2613 103.656 23.6739 103.464 24.0275C103.273 24.3738 103 24.6427 102.647 24.8342C102.293 25.0184 101.873 25.1105 101.387 25.1105ZM105.228 25V16.9327H107.825C108.326 16.9327 108.761 17.0322 109.129 17.2311C109.498 17.4226 109.781 17.6952 109.98 18.0489C110.186 18.4025 110.29 18.8224 110.29 19.3087C110.29 19.7876 110.186 20.2075 109.98 20.5685C109.781 20.9221 109.498 21.1984 109.129 21.3973C108.761 21.5889 108.326 21.6847 107.825 21.6847H106.223V25H105.228ZM106.223 20.7895H107.825C108.26 20.7895 108.606 20.6569 108.864 20.3917C109.129 20.1191 109.262 19.7581 109.262 19.3087C109.262 18.8519 109.129 18.4909 108.864 18.2257C108.606 17.9605 108.26 17.8278 107.825 17.8278H106.223V20.7895ZM113.214 25V17.8278H111.004V16.9217H116.419V17.8278H114.208V25H113.214ZM119.895 20.4691C119.623 20.4691 119.402 20.3954 119.232 20.248C119.063 20.0933 118.978 19.8907 118.978 19.6402C118.978 19.3897 119.063 19.1908 119.232 19.0435C119.402 18.8887 119.623 18.8114 119.895 18.8114C120.175 18.8114 120.396 18.8887 120.558 19.0435C120.728 19.1908 120.813 19.3897 120.813 19.6402C120.813 19.8907 120.728 20.0933 120.558 20.248C120.396 20.3954 120.175 20.4691 119.895 20.4691ZM119.895 25.1105C119.623 25.1105 119.402 25.0368 119.232 24.8895C119.063 24.7348 118.978 24.5322 118.978 24.2817C118.978 24.0312 119.063 23.8323 119.232 23.6849C119.402 23.5302 119.623 23.4528 119.895 23.4528C120.175 23.4528 120.396 23.5302 120.558 23.6849C120.728 23.8323 120.813 24.0312 120.813 24.2817C120.813 24.5322 120.728 24.7348 120.558 24.8895C120.396 25.0368 120.175 25.1105 119.895 25.1105Z" fill="white"></path><g clip-path="url(#clip0_32_545)"><path d="M25.2113 19.5022C25.3346 19.1319 25.3774 18.7395 25.3368 18.3513C25.2962 17.9631 25.1731 17.5881 24.9758 17.2513C24.3756 16.2063 23.1691 15.6686 21.9907 15.9217C21.7316 15.6298 21.4132 15.3965 21.0567 15.2376C20.7002 15.0787 20.3139 14.9977 19.9236 15.0001C18.7191 14.9973 17.6504 15.7728 17.2798 16.9189C16.8973 16.9972 16.5359 17.1563 16.2199 17.3856C15.9039 17.6148 15.6404 17.9089 15.4472 18.2482C14.8426 19.2905 14.9804 20.6043 15.7882 21.4981C15.6649 21.8684 15.6221 22.2608 15.6627 22.649C15.7033 23.0372 15.8264 23.4122 16.0237 23.749C16.6239 24.794 17.8305 25.3317 19.0089 25.0787C19.2679 25.3706 19.5863 25.6038 19.9428 25.7627C20.2993 25.9216 20.6856 26.0025 21.0759 25.9999C22.2811 26.003 23.3502 25.2268 23.7208 24.0797C24.1033 24.0014 24.4647 23.8423 24.7807 23.613C25.0967 23.3838 25.3602 23.0897 25.5534 22.7504C26.1574 21.7081 26.0192 20.3953 25.2117 19.5015L25.2113 19.5022ZM21.0766 25.2811C20.5943 25.2819 20.1272 25.113 19.7569 24.804C19.7789 24.7924 19.8006 24.7801 19.8219 24.7672L22.0123 23.5022C22.0673 23.4709 22.113 23.4256 22.1447 23.3708C22.1763 23.316 22.1928 23.2537 22.1924 23.1904V20.1024L23.1182 20.637C23.1281 20.6418 23.1347 20.6514 23.1361 20.6624V23.2196C23.1347 24.3568 22.2138 25.2787 21.0766 25.2811ZM16.6476 23.3894C16.406 22.9722 16.319 22.4832 16.4018 22.0082C16.418 22.0179 16.4465 22.0354 16.4668 22.0471L18.6572 23.3121C18.7118 23.344 18.7739 23.3608 18.8372 23.3608C18.9004 23.3608 18.9625 23.344 19.0171 23.3121L21.6912 21.7679V22.837C21.6915 22.8425 21.6904 22.8479 21.6882 22.8529C21.6859 22.8578 21.6825 22.8622 21.6782 22.8655L19.464 24.144C18.4778 24.7119 17.2183 24.3743 16.648 23.3894L16.6476 23.3894ZM16.0712 18.6081C16.3117 18.1903 16.6914 17.8704 17.144 17.7044C17.144 17.7233 17.143 17.7566 17.143 17.78V20.3104C17.1427 20.3736 17.1591 20.4357 17.1907 20.4905C17.2223 20.5452 17.2679 20.5905 17.3228 20.6218L19.9969 22.1657L19.0711 22.7002C19.0666 22.7032 19.0613 22.7051 19.0558 22.7056C19.0504 22.7061 19.0449 22.7052 19.0398 22.703L16.8254 21.4235C15.8412 20.8535 15.5036 19.5944 16.0708 18.6085L16.0712 18.6081ZM23.6771 20.3781L21.003 18.834L21.9288 18.2998C21.9333 18.2967 21.9386 18.2949 21.944 18.2944C21.9495 18.2939 21.955 18.2948 21.96 18.297L24.1745 19.5754C25.1604 20.145 25.4983 21.4063 24.9287 22.3922C24.6878 22.8095 24.3083 23.1291 23.8562 23.2956V20.6896C23.8567 20.6265 23.8404 20.5644 23.809 20.5096C23.7776 20.4549 23.7322 20.4095 23.6775 20.3781H23.6771ZM24.5984 18.9914C24.5822 18.9814 24.5537 18.9642 24.5334 18.9526L22.343 17.6875C22.2884 17.6556 22.2263 17.6388 22.163 17.6388C22.0998 17.6388 22.0377 17.6556 21.9831 17.6875L19.309 19.2317V18.1626C19.3087 18.1571 19.3098 18.1517 19.3121 18.1467C19.3143 18.1418 19.3178 18.1374 19.3221 18.1341L21.5362 16.8567C22.5224 16.2877 23.7833 16.6264 24.3519 17.6129C24.5922 18.0297 24.6792 18.5173 24.5977 18.9914H24.5984ZM18.8057 20.8968L17.8797 20.3623C17.8748 20.3599 17.8706 20.3563 17.8675 20.3519C17.8644 20.3474 17.8624 20.3423 17.8618 20.3369V17.7797C17.8625 16.6411 18.7862 15.7185 19.9247 15.7192C20.4063 15.7192 20.8724 15.8883 21.2426 16.1963C21.2207 16.208 21.199 16.2203 21.1777 16.2331L18.9872 17.4981C18.9322 17.5293 18.8866 17.5746 18.8549 17.6294C18.8232 17.6841 18.8067 17.7463 18.8071 17.8096L18.8057 20.8962V20.8968ZM19.3087 19.8126L20.4998 19.1248L21.6909 19.8123V21.1877L20.4998 21.8752L19.3087 21.1877V19.8126Z" fill="white"></path></g><line x1="16" y1="35.5" x2="233" y2="35.5" stroke="#3B3B3B" stroke-opacity="0.24"></line><defs><filter id="filter0_b_32_545" x="-18.4" y="-18.4" width="286.8" height="128.8" filterUnits="userSpaceOnUse" color-interpolation-filters="sRGB"><feFlood flood-opacity="0" result="BackgroundImageFix"></feFlood><feGaussianBlur in="BackgroundImageFix" stdDeviation="9.2"></feGaussianBlur><feComposite in2="SourceAlpha" operator="in" result="effect1_backgroundBlur_32_545"></feComposite><feBlend mode="normal" in="SourceGraphic" in2="effect1_backgroundBlur_32_545" result="shape"></feBlend></filter><clipPath id="clip0_32_545"><rect width="11" height="11" fill="white" transform="translate(15 15)"></rect></clipPath></defs></svg> 