<?xml version="1.0" encoding="UTF-8"?> <svg xmlns="http://www.w3.org/2000/svg" width="1074" height="196" viewBox="0 0 1074 196" fill="none"><path d="M159.317 4.89999V190.622C159.317 191.976 158.879 193.131 158.003 194.087C157.126 195.044 156.011 195.522 154.656 195.522H138.761C137.407 195.522 136.252 195.044 135.295 194.087C134.339 193.131 133.861 191.976 133.861 190.622V109.353H25.942V190.622C25.942 191.976 25.464 193.131 24.5079 194.087C23.5518 195.044 22.3965 195.522 21.042 195.522H5.14694C3.79247 195.522 2.63719 195.044 1.68109 194.087C0.724996 193.131 0.246948 191.976 0.246948 190.622V4.89999C0.246948 3.54552 0.724996 2.39024 1.68109 1.43414C2.63719 0.478048 3.79247 0 5.14694 0H21.042C22.3965 0 23.5518 0.478048 24.5079 1.43414C25.464 2.39024 25.942 3.54552 25.942 4.89999V83.6584H133.861V4.89999C133.861 3.54552 134.339 2.39024 135.295 1.43414C136.252 0.478048 137.407 0 138.761 0H154.656C156.011 0 157.126 0.478048 158.003 1.43414C158.879 2.39024 159.317 3.54552 159.317 4.89999Z" fill="#D0FD1B"></path><path d="M181.676 190.861V4.89999C181.676 3.54552 182.154 2.39024 183.11 1.43414C184.066 0.478048 185.221 0 186.576 0H202.471C203.825 0 204.981 0.478048 205.937 1.43414C206.893 2.39024 207.371 3.54552 207.371 4.89999V190.861C207.371 192.215 206.893 193.37 205.937 194.326C204.981 195.283 203.825 195.761 202.471 195.761H186.576C185.221 195.761 184.066 195.283 183.11 194.326C182.154 193.37 181.676 192.215 181.676 190.861Z" fill="#D0FD1B"></path><path d="M252.795 194.805L229.729 175.205C228.932 174.408 228.534 173.412 228.534 172.217V147.239C228.534 145.964 229.012 144.888 229.968 144.012C230.924 143.136 232 142.697 233.195 142.697H249.09C250.445 142.697 251.56 143.136 252.436 144.012C253.313 144.809 253.751 145.884 253.751 147.239V161.7L264.507 170.305H351.87L361.909 161.7V119.632L349.719 110.31H256.38C255.663 110.31 254.866 109.991 253.99 109.353L229.729 88.5584C228.932 87.7616 228.534 86.7657 228.534 85.5706L228.295 22.7073C228.295 21.5122 228.693 20.5162 229.49 19.7195L251.719 0.956096C252.357 0.318699 253.193 0 254.229 0H361.192C362.148 0 362.945 0.318699 363.583 0.956096L385.931 20.5561C386.728 21.3528 387.126 22.3089 387.126 23.4244V47.2072C387.126 48.5617 386.688 49.717 385.812 50.6731C384.935 51.6292 383.82 52.1072 382.465 52.1072H366.57C365.455 52.1072 364.379 51.5893 363.344 50.5536C362.387 49.5178 361.909 48.482 361.909 47.4463V33.9414L351.87 25.4561H264.507L253.99 33.9414L253.751 75.2926L265.463 84.6145H358.683C359.479 84.6145 360.316 84.9332 361.192 85.5706L385.931 106.366C386.728 107.162 387.126 108.158 387.126 109.353L387.365 173.292C387.365 174.408 386.967 175.364 386.17 176.161L365.136 194.805C364.499 195.442 363.583 195.761 362.387 195.761H255.185C254.468 195.761 253.671 195.442 252.795 194.805Z" fill="#D0FD1B"></path><path d="M468.046 190.861V25.4561H410.56C409.206 25.4561 408.051 24.978 407.094 24.0219C406.138 23.0658 405.66 21.9105 405.66 20.5561V4.89999C405.66 3.54552 406.138 2.39024 407.094 1.43414C408.051 0.478048 409.206 0 410.56 0H550.27C551.624 0 552.74 0.478048 553.616 1.43414C554.493 2.39024 554.931 3.54552 554.931 4.89999V20.5561C554.931 21.9105 554.493 23.0658 553.616 24.0219C552.74 24.978 551.624 25.4561 550.27 25.4561H493.502V190.861C493.502 192.215 493.024 193.37 492.067 194.326C491.111 195.283 489.956 195.761 488.602 195.761H472.707C471.352 195.761 470.237 195.283 469.36 194.326C468.484 193.37 468.046 192.215 468.046 190.861Z" fill="#D0FD1B"></path><path d="M599.16 194.805L575.616 174.488C574.66 173.77 574.182 172.775 574.182 171.5V24.1414C574.182 22.9463 574.66 21.9902 575.616 21.2731L599.16 0.956096C599.797 0.318699 600.594 0 601.55 0H705.645C706.601 0 707.398 0.318699 708.035 0.956096L731.818 21.2731C732.774 22.2292 733.252 23.1853 733.252 24.1414V171.5C733.252 172.535 732.774 173.531 731.818 174.488L708.035 194.805C707.398 195.442 706.601 195.761 705.645 195.761H601.55C600.594 195.761 599.797 195.442 599.16 194.805ZM610.872 170.305H696.323L707.557 160.744L707.796 34.6585L696.323 25.4561H610.872L599.638 34.6585V160.744L610.872 170.305Z" fill="#D0FD1B"></path><path d="M916.474 190.383C916.474 191.896 915.956 193.171 914.92 194.207C913.884 195.243 912.45 195.761 910.618 195.761H893.408C891.735 195.761 890.54 195.044 889.822 193.609L856.479 122.38H780.11V190.861C780.11 192.215 779.632 193.331 778.676 194.207C777.72 195.083 776.565 195.522 775.21 195.522H759.554C758.2 195.522 757.045 195.083 756.089 194.207C755.132 193.331 754.654 192.215 754.654 190.861V4.89999C754.654 3.54552 755.132 2.39024 756.089 1.43414C757.045 0.478048 758.2 0 759.554 0H884.205C885.082 0 885.879 0.239024 886.596 0.717072L910.379 21.2731C911.175 22.0699 911.574 23.026 911.574 24.1414V82.4633C911.574 83.4194 911.255 84.2161 910.618 84.8535L881.935 114.732L915.757 187.395C916.235 188.351 916.474 189.347 916.474 190.383ZM780.11 25.4561V96.6852H864.127L886.118 74.3365V34.6585L874.883 25.4561H780.11Z" fill="#D0FD1B"></path><path d="M1074 5.61706C1074 6.81218 1073.68 7.92763 1073.04 8.9634L1011.85 106.724C1011.77 106.963 1011.46 107.362 1010.9 107.919L1011.14 190.861C1011.14 192.215 1010.7 193.331 1009.82 194.207C1008.95 195.083 1007.83 195.522 1006.48 195.522L990.342 195.761C988.987 195.761 987.872 195.283 986.995 194.326C986.119 193.37 985.681 192.215 985.681 190.861L985.442 107.202L924.012 8.9634C923.375 7.92763 923.056 6.81218 923.056 5.61706C923.056 4.02357 923.574 2.70894 924.61 1.67317C925.725 0.557723 927.16 0 928.912 0H946.242C947.995 0 949.309 0.717072 950.186 2.15122L997.99 81.9852L1047.59 1.91219C1048.38 0.637397 1049.62 0 1051.29 0H1068.14C1069.9 0 1071.29 0.557723 1072.33 1.67317C1073.44 2.70894 1074 4.02357 1074 5.61706Z" fill="#D0FD1B"></path></svg> 